<svg width="24" height="24" viewBox="0 0 24 24" fill="none" xmlns="http://www.w3.org/2000/svg">
<path d="M10 14.0004C10.6583 14.6723 11.5594 15.0509 12.5 15.0509C13.4406 15.0509 14.3417 14.6723 15 14.0004L19 10.0004C20.3807 8.61967 20.3807 6.38109 19 5.00038C17.6193 3.61967 15.3807 3.61967 14 5.00038L13.5 5.50038" stroke="#A8AAAE" stroke-width="1.75" stroke-linecap="round" stroke-linejoin="round"/>
<path d="M13.9999 9.99973C13.3416 9.32784 12.4405 8.94922 11.4999 8.94922C10.5592 8.94922 9.6582 9.32784 8.99989 9.99973L4.99989 13.9997C3.61918 15.3804 3.61918 17.619 4.99989 18.9997C6.3806 20.3804 8.61918 20.3804 9.99989 18.9997L10.4999 18.4997" stroke="#A8AAAE" stroke-width="1.75" stroke-linecap="round" stroke-linejoin="round"/>
</svg>
