<svg width="100" height="100" viewBox="0 0 100 100" fill="none" xmlns="http://www.w3.org/2000/svg">
<ellipse cx="29.1666" cy="70.8333" rx="8.33333" ry="8.33333" stroke="#4B465C" stroke-width="1.75" stroke-linecap="round" stroke-linejoin="round"/>
<ellipse cx="29.1666" cy="70.8333" rx="8.33333" ry="8.33333" stroke="white" stroke-opacity="0.2" stroke-width="1.75" stroke-linecap="round" stroke-linejoin="round"/>
<circle cx="70.8333" cy="70.8333" r="8.33333" stroke="#4B465C" stroke-width="1.75" stroke-linecap="round" stroke-linejoin="round"/>
<circle cx="70.8333" cy="70.8333" r="8.33333" stroke="white" stroke-opacity="0.2" stroke-width="1.75" stroke-linecap="round" stroke-linejoin="round"/>
<path d="M20.8333 71.708C21.3166 71.708 21.7083 71.3163 21.7083 70.833C21.7083 70.3498 21.3166 69.958 20.8333 69.958V71.708ZM12.5 70.833H11.625C11.625 71.3163 12.0168 71.708 12.5 71.708V70.833ZM54.1667 20.833H55.0417C55.0417 20.3498 54.6499 19.958 54.1667 19.958V20.833ZM53.2917 70.833C53.2917 71.3163 53.6834 71.708 54.1667 71.708C54.6499 71.708 55.0417 71.3163 55.0417 70.833H53.2917ZM37.5 69.958C37.0168 69.958 36.625 70.3498 36.625 70.833C36.625 71.3163 37.0168 71.708 37.5 71.708V69.958ZM62.5 71.708C62.9832 71.708 63.375 71.3163 63.375 70.833C63.375 70.3498 62.9832 69.958 62.5 69.958V71.708ZM79.1667 69.958C78.6834 69.958 78.2917 70.3498 78.2917 70.833C78.2917 71.3163 78.6834 71.708 79.1667 71.708V69.958ZM87.5 70.833V71.708C87.9832 71.708 88.375 71.3163 88.375 70.833H87.5ZM87.5 45.833H88.375C88.375 45.3498 87.9832 44.958 87.5 44.958V45.833ZM54.1667 44.958C53.6834 44.958 53.2917 45.3498 53.2917 45.833C53.2917 46.3163 53.6834 46.708 54.1667 46.708V44.958ZM54.1667 24.1247C53.6834 24.1247 53.2917 24.5164 53.2917 24.9997C53.2917 25.4829 53.6834 25.8747 54.1667 25.8747V24.1247ZM75 24.9997L75.7503 24.5495C75.5922 24.2859 75.3074 24.1247 75 24.1247V24.9997ZM86.7497 46.2832C86.9983 46.6976 87.5358 46.8319 87.9502 46.5833C88.3646 46.3347 88.4989 45.7972 88.2503 45.3828L86.7497 46.2832ZM20.8333 69.958H12.5V71.708H20.8333V69.958ZM13.375 70.833V24.9997H11.625V70.833H13.375ZM13.375 24.9997C13.375 23.1817 14.8487 21.708 16.6667 21.708V19.958C13.8822 19.958 11.625 22.2152 11.625 24.9997H13.375ZM16.6667 21.708H54.1667V19.958H16.6667V21.708ZM53.2917 20.833V70.833H55.0417V20.833H53.2917ZM37.5 71.708H62.5V69.958H37.5V71.708ZM79.1667 71.708H87.5V69.958H79.1667V71.708ZM88.375 70.833V45.833H86.625V70.833H88.375ZM87.5 44.958H54.1667V46.708H87.5V44.958ZM54.1667 25.8747H75V24.1247H54.1667V25.8747ZM74.2497 25.4499L86.7497 46.2832L88.2503 45.3828L75.7503 24.5495L74.2497 25.4499Z" fill="#4B465C"/>
<path d="M20.8333 71.708C21.3166 71.708 21.7083 71.3163 21.7083 70.833C21.7083 70.3498 21.3166 69.958 20.8333 69.958V71.708ZM12.5 70.833H11.625C11.625 71.3163 12.0168 71.708 12.5 71.708V70.833ZM54.1667 20.833H55.0417C55.0417 20.3498 54.6499 19.958 54.1667 19.958V20.833ZM53.2917 70.833C53.2917 71.3163 53.6834 71.708 54.1667 71.708C54.6499 71.708 55.0417 71.3163 55.0417 70.833H53.2917ZM37.5 69.958C37.0168 69.958 36.625 70.3498 36.625 70.833C36.625 71.3163 37.0168 71.708 37.5 71.708V69.958ZM62.5 71.708C62.9832 71.708 63.375 71.3163 63.375 70.833C63.375 70.3498 62.9832 69.958 62.5 69.958V71.708ZM79.1667 69.958C78.6834 69.958 78.2917 70.3498 78.2917 70.833C78.2917 71.3163 78.6834 71.708 79.1667 71.708V69.958ZM87.5 70.833V71.708C87.9832 71.708 88.375 71.3163 88.375 70.833H87.5ZM87.5 45.833H88.375C88.375 45.3498 87.9832 44.958 87.5 44.958V45.833ZM54.1667 44.958C53.6834 44.958 53.2917 45.3498 53.2917 45.833C53.2917 46.3163 53.6834 46.708 54.1667 46.708V44.958ZM54.1667 24.1247C53.6834 24.1247 53.2917 24.5164 53.2917 24.9997C53.2917 25.4829 53.6834 25.8747 54.1667 25.8747V24.1247ZM75 24.9997L75.7503 24.5495C75.5922 24.2859 75.3074 24.1247 75 24.1247V24.9997ZM86.7497 46.2832C86.9983 46.6976 87.5358 46.8319 87.9502 46.5833C88.3646 46.3347 88.4989 45.7972 88.2503 45.3828L86.7497 46.2832ZM20.8333 69.958H12.5V71.708H20.8333V69.958ZM13.375 70.833V24.9997H11.625V70.833H13.375ZM13.375 24.9997C13.375 23.1817 14.8487 21.708 16.6667 21.708V19.958C13.8822 19.958 11.625 22.2152 11.625 24.9997H13.375ZM16.6667 21.708H54.1667V19.958H16.6667V21.708ZM53.2917 20.833V70.833H55.0417V20.833H53.2917ZM37.5 71.708H62.5V69.958H37.5V71.708ZM79.1667 71.708H87.5V69.958H79.1667V71.708ZM88.375 70.833V45.833H86.625V70.833H88.375ZM87.5 44.958H54.1667V46.708H87.5V44.958ZM54.1667 25.8747H75V24.1247H54.1667V25.8747ZM74.2497 25.4499L86.7497 46.2832L88.2503 45.3828L75.7503 24.5495L74.2497 25.4499Z" fill="white" fill-opacity="0.2"/>
<rect x="0.5" y="0.5" width="99" height="99" rx="5.5" stroke="#DBDADE" stroke-miterlimit="0" stroke-linejoin="bevel"/>
</svg>
