<svg width="25" height="24" viewBox="0 0 25 24" fill="none" xmlns="http://www.w3.org/2000/svg">
<path fill-rule="evenodd" clip-rule="evenodd" d="M3.49537 2.34406H21.6012C22.2176 2.34406 22.7173 2.81877 22.7173 3.40437V20.6049C22.7173 21.1905 22.2176 21.6652 21.6012 21.6652H3.49537C2.87896 21.6652 2.37925 21.1905 2.37925 20.6049V3.40437C2.37925 2.81877 2.87896 2.34406 3.49537 2.34406ZM0.76709 3.40437C0.76709 1.97292 1.98858 0.8125 3.49537 0.8125H21.6012C23.108 0.8125 24.3295 1.97292 24.3295 3.40437V20.6049C24.3295 22.0364 23.108 23.1968 21.6012 23.1968H3.49537C1.98858 23.1968 0.76709 22.0364 0.76709 20.6049V3.40437ZM6.82288 12.6285V11.5793C7.45612 11.8124 8.17182 11.929 8.97 11.929C9.939 11.929 10.4235 11.6084 10.4235 10.9672C10.4235 10.5009 10.126 10.2677 9.53108 10.2677H8.54146C7.24847 10.2677 6.60198 9.68476 6.60198 8.51891C6.60198 7.23648 7.52239 6.59526 9.3632 6.59526C10.0701 6.59526 10.7401 6.69727 11.3734 6.9013V7.95056C10.7401 7.71739 10.0701 7.60081 9.3632 7.60081C8.30289 7.60081 7.77274 7.90684 7.77274 8.51891C7.77274 8.98525 8.02898 9.21842 8.54146 9.21842H9.53108C10.9065 9.21842 11.5943 9.80135 11.5943 10.9672C11.5943 12.2788 10.7195 12.9346 8.97 12.9346C8.17182 12.9346 7.45612 12.8326 6.82288 12.6285ZM16.1585 16.7215V17.3131C16.5155 17.4281 16.919 17.4856 17.369 17.4856C18.3553 17.4856 18.8485 17.1159 18.8485 16.3764C18.8485 15.7192 18.4608 15.3905 17.6853 15.3905H17.1274C16.8384 15.3905 16.694 15.2591 16.694 14.9961C16.694 14.6511 16.9929 14.4785 17.5907 14.4785C17.9892 14.4785 18.3669 14.5443 18.724 14.6757V14.0841C18.3669 13.9691 17.9892 13.9116 17.5907 13.9116C16.5528 13.9116 16.0339 14.2731 16.0339 14.9961C16.0339 15.6534 16.3984 15.9821 17.1274 15.9821H17.6853C18.0207 15.9821 18.1884 16.1135 18.1884 16.3764C18.1884 16.738 17.9153 16.9187 17.369 16.9187C16.919 16.9187 16.5155 16.853 16.1585 16.7215ZM6.23319 13.9363H6.90321L7.2843 16.4676L8.21087 13.9363H8.84602L9.71281 16.369L10.1163 13.9363H10.7664L10.0964 17.461H9.46872L8.48984 14.6954L7.43873 17.461H6.81853L6.23319 13.9363ZM11.4823 17.461V13.9363H12.1672L13.3753 16.6106L14.5584 13.9363H15.2184V17.461H14.6082V15.006L13.6418 17.461H13.0789L12.0925 15.006V17.461H11.4823ZM14.2115 12.8908V6.63898H13.0407V12.8908H14.2115ZM15.961 9.55506L18.6559 6.63898H17.2245L14.8742 9.21842V9.97039L17.3173 12.8908H18.9387L15.961 9.55506Z" fill="#4B465C"/>
<path fill-rule="evenodd" clip-rule="evenodd" d="M3.49537 2.34406H21.6012C22.2176 2.34406 22.7173 2.81877 22.7173 3.40437V20.6049C22.7173 21.1905 22.2176 21.6652 21.6012 21.6652H3.49537C2.87896 21.6652 2.37925 21.1905 2.37925 20.6049V3.40437C2.37925 2.81877 2.87896 2.34406 3.49537 2.34406ZM0.76709 3.40437C0.76709 1.97292 1.98858 0.8125 3.49537 0.8125H21.6012C23.108 0.8125 24.3295 1.97292 24.3295 3.40437V20.6049C24.3295 22.0364 23.108 23.1968 21.6012 23.1968H3.49537C1.98858 23.1968 0.76709 22.0364 0.76709 20.6049V3.40437ZM6.82288 12.6285V11.5793C7.45612 11.8124 8.17182 11.929 8.97 11.929C9.939 11.929 10.4235 11.6084 10.4235 10.9672C10.4235 10.5009 10.126 10.2677 9.53108 10.2677H8.54146C7.24847 10.2677 6.60198 9.68476 6.60198 8.51891C6.60198 7.23648 7.52239 6.59526 9.3632 6.59526C10.0701 6.59526 10.7401 6.69727 11.3734 6.9013V7.95056C10.7401 7.71739 10.0701 7.60081 9.3632 7.60081C8.30289 7.60081 7.77274 7.90684 7.77274 8.51891C7.77274 8.98525 8.02898 9.21842 8.54146 9.21842H9.53108C10.9065 9.21842 11.5943 9.80135 11.5943 10.9672C11.5943 12.2788 10.7195 12.9346 8.97 12.9346C8.17182 12.9346 7.45612 12.8326 6.82288 12.6285ZM16.1585 16.7215V17.3131C16.5155 17.4281 16.919 17.4856 17.369 17.4856C18.3553 17.4856 18.8485 17.1159 18.8485 16.3764C18.8485 15.7192 18.4608 15.3905 17.6853 15.3905H17.1274C16.8384 15.3905 16.694 15.2591 16.694 14.9961C16.694 14.6511 16.9929 14.4785 17.5907 14.4785C17.9892 14.4785 18.3669 14.5443 18.724 14.6757V14.0841C18.3669 13.9691 17.9892 13.9116 17.5907 13.9116C16.5528 13.9116 16.0339 14.2731 16.0339 14.9961C16.0339 15.6534 16.3984 15.9821 17.1274 15.9821H17.6853C18.0207 15.9821 18.1884 16.1135 18.1884 16.3764C18.1884 16.738 17.9153 16.9187 17.369 16.9187C16.919 16.9187 16.5155 16.853 16.1585 16.7215ZM6.23319 13.9363H6.90321L7.2843 16.4676L8.21087 13.9363H8.84602L9.71281 16.369L10.1163 13.9363H10.7664L10.0964 17.461H9.46872L8.48984 14.6954L7.43873 17.461H6.81853L6.23319 13.9363ZM11.4823 17.461V13.9363H12.1672L13.3753 16.6106L14.5584 13.9363H15.2184V17.461H14.6082V15.006L13.6418 17.461H13.0789L12.0925 15.006V17.461H11.4823ZM14.2115 12.8908V6.63898H13.0407V12.8908H14.2115ZM15.961 9.55506L18.6559 6.63898H17.2245L14.8742 9.21842V9.97039L17.3173 12.8908H18.9387L15.961 9.55506Z" fill="white" fill-opacity="0.1"/>
</svg>
