<svg width="36" height="36" viewBox="0 0 36 36" fill="none" xmlns="http://www.w3.org/2000/svg">
<g id="building-warehouse">
<g id="Path">
<path d="M4.5 31.5V12L18 6L31.5 12V31.5" stroke="#4B465C" stroke-width="1.75" stroke-linecap="round" stroke-linejoin="round"/>
<path d="M4.5 31.5V12L18 6L31.5 12V31.5" stroke="white" stroke-opacity="0.2" stroke-width="1.75" stroke-linecap="round" stroke-linejoin="round"/>
</g>
<g id="Path_2">
<path d="M19.5 19.5H25.5V31.5H10.5V22.5H19.5" stroke="#4B465C" stroke-width="1.75" stroke-linecap="round" stroke-linejoin="round"/>
<path d="M19.5 19.5H25.5V31.5H10.5V22.5H19.5" stroke="white" stroke-opacity="0.2" stroke-width="1.75" stroke-linecap="round" stroke-linejoin="round"/>
</g>
<g id="Path_3">
<path d="M19.5 31.5V18C19.5 17.1716 18.8284 16.5 18 16.5H15C14.1716 16.5 13.5 17.1716 13.5 18V22.5" stroke="#4B465C" stroke-width="1.75" stroke-linecap="round" stroke-linejoin="round"/>
<path d="M19.5 31.5V18C19.5 17.1716 18.8284 16.5 18 16.5H15C14.1716 16.5 13.5 17.1716 13.5 18V22.5" stroke="white" stroke-opacity="0.2" stroke-width="1.75" stroke-linecap="round" stroke-linejoin="round"/>
</g>
</g>
</svg>
