<svg width="100" height="100" viewBox="0 0 100 100" fill="none" xmlns="http://www.w3.org/2000/svg">
<path d="M34.394 36.4393C33.8082 35.8536 32.8585 35.8536 32.2727 36.4393C31.6869 37.0251 31.6869 37.9749 32.2727 38.5607L34.394 36.4393ZM54.1667 58.3333H55.6667C55.6667 57.9355 55.5086 57.554 55.2273 57.2727L54.1667 58.3333ZM54.1667 87.5V89C54.9951 89 55.6667 88.3284 55.6667 87.5H54.1667ZM33.3333 87.5H31.8333C31.8333 88.3284 32.5049 89 33.3333 89V87.5ZM34.8333 70.8333C34.8333 70.0049 34.1618 69.3333 33.3333 69.3333C32.5049 69.3333 31.8333 70.0049 31.8333 70.8333H34.8333ZM33.3333 89C34.1618 89 34.8333 88.3284 34.8333 87.5C34.8333 86.6716 34.1618 86 33.3333 86V89ZM12.5 87.5H11C11 88.3284 11.6716 89 12.5 89V87.5ZM12.5 58.3333L11.4393 57.2727C11.158 57.554 11 57.9355 11 58.3333H12.5ZM34.394 38.5607C34.9798 37.9749 34.9798 37.0251 34.394 36.4393C33.8082 35.8536 32.8585 35.8536 32.2727 36.4393L34.394 38.5607ZM36 41.6667C36 42.4951 36.6716 43.1667 37.5 43.1667C38.3284 43.1667 39 42.4951 39 41.6667H36ZM87.5 87.5V89C88.3284 89 89 88.3284 89 87.5H87.5ZM54.1667 86C53.3382 86 52.6667 86.6716 52.6667 87.5C52.6667 88.3284 53.3382 89 54.1667 89V86ZM32.2727 38.5607L53.106 59.394L55.2273 57.2727L34.394 36.4393L32.2727 38.5607ZM52.6667 58.3333V87.5H55.6667V58.3333H52.6667ZM54.1667 86H33.3333V89H54.1667V86ZM34.8333 87.5V70.8333H31.8333V87.5H34.8333ZM33.3333 86H12.5V89H33.3333V86ZM14 87.5V58.3333H11V87.5H14ZM13.5607 59.394L34.394 38.5607L32.2727 36.4393L11.4393 57.2727L13.5607 59.394ZM39 41.6667V16.6667H36V41.6667H39ZM39 16.6667C39 15.1939 40.1939 14 41.6667 14V11C38.5371 11 36 13.5371 36 16.6667H39ZM41.6667 14H83.3333V11H41.6667V14ZM83.3333 14C84.8061 14 86 15.1939 86 16.6667H89C89 13.5371 86.4629 11 83.3333 11V14ZM86 16.6667V87.5H89V16.6667H86ZM87.5 86H54.1667V89H87.5V86Z" fill="#A8AAAE"/>
<path d="M34.394 36.4393C33.8082 35.8536 32.8585 35.8536 32.2727 36.4393C31.6869 37.0251 31.6869 37.9749 32.2727 38.5607L34.394 36.4393ZM54.1667 58.3333H55.6667C55.6667 57.9355 55.5086 57.554 55.2273 57.2727L54.1667 58.3333ZM54.1667 87.5V89C54.9951 89 55.6667 88.3284 55.6667 87.5H54.1667ZM33.3333 87.5H31.8333C31.8333 88.3284 32.5049 89 33.3333 89V87.5ZM34.8333 70.8333C34.8333 70.0049 34.1618 69.3333 33.3333 69.3333C32.5049 69.3333 31.8333 70.0049 31.8333 70.8333H34.8333ZM33.3333 89C34.1618 89 34.8333 88.3284 34.8333 87.5C34.8333 86.6716 34.1618 86 33.3333 86V89ZM12.5 87.5H11C11 88.3284 11.6716 89 12.5 89V87.5ZM12.5 58.3333L11.4393 57.2727C11.158 57.554 11 57.9355 11 58.3333H12.5ZM34.394 38.5607C34.9798 37.9749 34.9798 37.0251 34.394 36.4393C33.8082 35.8536 32.8585 35.8536 32.2727 36.4393L34.394 38.5607ZM36 41.6667C36 42.4951 36.6716 43.1667 37.5 43.1667C38.3284 43.1667 39 42.4951 39 41.6667H36ZM87.5 87.5V89C88.3284 89 89 88.3284 89 87.5H87.5ZM54.1667 86C53.3382 86 52.6667 86.6716 52.6667 87.5C52.6667 88.3284 53.3382 89 54.1667 89V86ZM32.2727 38.5607L53.106 59.394L55.2273 57.2727L34.394 36.4393L32.2727 38.5607ZM52.6667 58.3333V87.5H55.6667V58.3333H52.6667ZM54.1667 86H33.3333V89H54.1667V86ZM34.8333 87.5V70.8333H31.8333V87.5H34.8333ZM33.3333 86H12.5V89H33.3333V86ZM14 87.5V58.3333H11V87.5H14ZM13.5607 59.394L34.394 38.5607L32.2727 36.4393L11.4393 57.2727L13.5607 59.394ZM39 41.6667V16.6667H36V41.6667H39ZM39 16.6667C39 15.1939 40.1939 14 41.6667 14V11C38.5371 11 36 13.5371 36 16.6667H39ZM41.6667 14H83.3333V11H41.6667V14ZM83.3333 14C84.8061 14 86 15.1939 86 16.6667H89C89 13.5371 86.4629 11 83.3333 11V14ZM86 16.6667V87.5H89V16.6667H86ZM87.5 86H54.1667V89H87.5V86Z" fill="black" fill-opacity="0.1"/>
<path d="M54.1666 29.168V29.2096" stroke="#A8AAAE" stroke-width="1.75" stroke-linecap="round" stroke-linejoin="round"/>
<path d="M54.1666 29.168V29.2096" stroke="black" stroke-opacity="0.1" stroke-width="1.75" stroke-linecap="round" stroke-linejoin="round"/>
<path d="M70.8333 29.168V29.2096" stroke="#A8AAAE" stroke-width="1.75" stroke-linecap="round" stroke-linejoin="round"/>
<path d="M70.8333 29.168V29.2096" stroke="black" stroke-opacity="0.1" stroke-width="1.75" stroke-linecap="round" stroke-linejoin="round"/>
<path d="M70.8333 45.832V45.8737" stroke="#A8AAAE" stroke-width="1.75" stroke-linecap="round" stroke-linejoin="round"/>
<path d="M70.8333 45.832V45.8737" stroke="black" stroke-opacity="0.1" stroke-width="1.75" stroke-linecap="round" stroke-linejoin="round"/>
<path d="M70.8333 62.5V62.5417" stroke="#A8AAAE" stroke-width="1.75" stroke-linecap="round" stroke-linejoin="round"/>
<path d="M70.8333 62.5V62.5417" stroke="black" stroke-opacity="0.1" stroke-width="1.75" stroke-linecap="round" stroke-linejoin="round"/>
</svg>
