<svg width="22" height="22" viewBox="0 0 22 22" fill="none" xmlns="http://www.w3.org/2000/svg">
<g id="chart-pie">
<g id="Path">
<path d="M9.16666 2.93531C5.19751 3.85546 2.49448 7.53536 2.80357 11.598C3.11266 15.6607 6.34128 18.8893 10.404 19.1984C14.4666 19.5075 18.1465 16.8045 19.0667 12.8353C19.0667 12.3291 18.6563 11.9186 18.15 11.9186H11.9167C10.9041 11.9186 10.0833 11.0978 10.0833 10.0853V3.66865C10.0603 3.44928 9.95044 3.24826 9.7782 3.11047C9.60597 2.97269 9.38573 2.9096 9.16666 2.93531" stroke="#4B465C" stroke-width="1.75" stroke-linecap="round" stroke-linejoin="round"/>
<path d="M9.16666 2.93531C5.19751 3.85546 2.49448 7.53536 2.80357 11.598C3.11266 15.6607 6.34128 18.8893 10.404 19.1984C14.4666 19.5075 18.1465 16.8045 19.0667 12.8353C19.0667 12.3291 18.6563 11.9186 18.15 11.9186H11.9167C10.9041 11.9186 10.0833 11.0978 10.0833 10.0853V3.66865C10.0603 3.44928 9.95044 3.24826 9.7782 3.11047C9.60597 2.97269 9.38573 2.9096 9.16666 2.93531" stroke="white" stroke-opacity="0.2" stroke-width="1.75" stroke-linecap="round" stroke-linejoin="round"/>
</g>
<g id="Path_2">
<path d="M13.75 3.21094C16.1075 4.04104 17.9616 5.89512 18.7917 8.2526H14.6667C14.1604 8.2526 13.75 7.8422 13.75 7.33594V3.21094" stroke="#4B465C" stroke-width="1.75" stroke-linecap="round" stroke-linejoin="round"/>
<path d="M13.75 3.21094C16.1075 4.04104 17.9616 5.89512 18.7917 8.2526H14.6667C14.1604 8.2526 13.75 7.8422 13.75 7.33594V3.21094" stroke="white" stroke-opacity="0.2" stroke-width="1.75" stroke-linecap="round" stroke-linejoin="round"/>
</g>
</g>
</svg>
