<svg width="24" height="24" viewBox="0 0 24 24" fill="none" xmlns="http://www.w3.org/2000/svg">
<rect width="24" height="24" rx="4" fill="#D9B414" fill-opacity="0.16"/>
<path d="M16.1347 16.0798C16.1344 16.3513 16.0766 16.6197 15.9651 16.8672C15.8536 17.1148 15.6909 17.3359 15.4878 17.516C15.2846 17.6961 15.0456 17.8312 14.7865 17.9123C14.5274 17.9934 14.2541 18.0186 13.9845 17.9864C13.7149 17.9542 13.4552 17.8653 13.2225 17.7255C12.9897 17.5857 12.7893 17.3981 12.6342 17.1752C12.4792 16.9523 12.3732 16.6991 12.3231 16.4323C12.273 16.1654 12.2801 15.891 12.3437 15.627C12.3868 15.441 12.3815 15.2471 12.3282 15.0637C12.275 14.8804 12.1756 14.7137 12.0396 14.5797L11.7136 14.2541C11.5278 14.0683 11.2966 13.9343 11.043 13.8652C10.7895 13.7962 10.5223 13.7946 10.2679 13.8606C9.99039 13.9318 9.70049 13.9403 9.41935 13.8852C9.1382 13.8301 8.8729 13.713 8.6428 13.5423C8.41271 13.3716 8.22364 13.1517 8.08939 12.8986C7.95514 12.6455 7.87909 12.3656 7.86681 12.0794C7.85468 11.7796 7.91281 11.4812 8.03656 11.2079C8.16032 10.9346 8.34626 10.694 8.57955 10.5054C8.81283 10.3167 9.08699 10.1853 9.38014 10.1215C9.67328 10.0577 9.97729 10.0633 10.2679 10.1379C10.5202 10.2013 10.7846 10.198 11.0352 10.1282C11.2858 10.0584 11.5139 9.92454 11.697 9.73983L11.8778 9.55911C12.0507 9.38874 12.1806 9.17971 12.2568 8.94926C12.333 8.71882 12.3534 8.47355 12.3162 8.23369C12.2485 7.82448 12.3152 7.40435 12.5061 7.03616C12.6971 6.66797 13.0022 6.37151 13.3757 6.19112C13.7492 6.01074 14.171 5.95612 14.5781 6.03545C14.9853 6.11478 15.3557 6.32379 15.6342 6.6312C15.9126 6.93862 16.0841 7.32793 16.1228 7.74089C16.1616 8.15385 16.0656 8.56826 15.8493 8.92213C15.6329 9.27601 15.3078 9.55032 14.9226 9.70405C14.5373 9.85777 14.1127 9.88263 13.7121 9.77492C13.4557 9.70579 13.1856 9.70538 12.929 9.77373C12.6723 9.84207 12.4382 9.97677 12.2502 10.1643L12.0853 10.3295C11.9155 10.5021 11.79 10.7132 11.7194 10.9448C11.6489 11.1763 11.6354 11.4216 11.6801 11.6595C11.7188 11.8819 11.7188 12.1094 11.6801 12.3318C11.6366 12.5668 11.6505 12.8088 11.7206 13.0372C11.7907 13.2657 11.9149 13.4738 12.0826 13.644L12.2671 13.8285C12.4536 14.0152 12.6858 14.1497 12.9405 14.2185C13.1952 14.2872 13.4635 14.288 13.7186 14.2205C14.0031 14.1455 14.3011 14.1368 14.5896 14.195C14.878 14.2531 15.1493 14.3767 15.3825 14.5562C15.6157 14.7357 15.8047 14.9662 15.9348 15.2302C16.065 15.4941 16.1328 15.7844 16.1332 16.0787L16.1347 16.0798Z" fill="#DAB415"/>
</svg>
