<svg width="38" height="38" viewBox="0 0 38 38" fill="none" xmlns="http://www.w3.org/2000/svg">
<rect x="15.3335" y="15.332" width="11" height="11" rx="2" stroke="#4B465C" stroke-width="1.75" stroke-linecap="round" stroke-linejoin="round"/>
<rect x="15.3335" y="15.332" width="11" height="11" rx="2" stroke="white" stroke-opacity="0.2" stroke-width="1.75" stroke-linecap="round" stroke-linejoin="round"/>
<path d="M22.6665 15.3346V13.5013C22.6665 12.4888 21.8457 11.668 20.8332 11.668H13.4998C12.4873 11.668 11.6665 12.4888 11.6665 13.5013V20.8346C11.6665 21.8472 12.4873 22.668 13.4998 22.668H15.3332" stroke="#4B465C" stroke-width="1.75" stroke-linecap="round" stroke-linejoin="round"/>
<path d="M22.6665 15.3346V13.5013C22.6665 12.4888 21.8457 11.668 20.8332 11.668H13.4998C12.4873 11.668 11.6665 12.4888 11.6665 13.5013V20.8346C11.6665 21.8472 12.4873 22.668 13.4998 22.668H15.3332" stroke="white" stroke-opacity="0.2" stroke-width="1.75" stroke-linecap="round" stroke-linejoin="round"/>
</svg>
