<svg width="36" height="36" viewBox="0 0 36 36" fill="none" xmlns="http://www.w3.org/2000/svg">
<path d="M6 10.5H30" stroke="#4B465C" stroke-width="1.75" stroke-linecap="round" stroke-linejoin="round"/>
<path d="M6 10.5H30" stroke="white" stroke-opacity="0.6" stroke-width="1.75" stroke-linecap="round" stroke-linejoin="round"/>
<path d="M7.5 10.5L9 28.5C9 30.1569 10.3431 31.5 12 31.5H24C25.6569 31.5 27 30.1569 27 28.5L28.5 10.5" stroke="#4B465C" stroke-width="1.75" stroke-linecap="round" stroke-linejoin="round"/>
<path d="M7.5 10.5L9 28.5C9 30.1569 10.3431 31.5 12 31.5H24C25.6569 31.5 27 30.1569 27 28.5L28.5 10.5" stroke="white" stroke-opacity="0.6" stroke-width="1.75" stroke-linecap="round" stroke-linejoin="round"/>
<path d="M13.5 10.5V6C13.5 5.17157 14.1716 4.5 15 4.5H21C21.8284 4.5 22.5 5.17157 22.5 6V10.5" stroke="#4B465C" stroke-width="1.75" stroke-linecap="round" stroke-linejoin="round"/>
<path d="M13.5 10.5V6C13.5 5.17157 14.1716 4.5 15 4.5H21C21.8284 4.5 22.5 5.17157 22.5 6V10.5" stroke="white" stroke-opacity="0.6" stroke-width="1.75" stroke-linecap="round" stroke-linejoin="round"/>
<path d="M15.6187 17.3813C15.277 17.0396 14.723 17.0396 14.3813 17.3813C14.0396 17.723 14.0396 18.277 14.3813 18.6187L15.6187 17.3813ZM20.3813 24.6187C20.723 24.9604 21.277 24.9604 21.6187 24.6187C21.9604 24.277 21.9604 23.723 21.6187 23.3813L20.3813 24.6187ZM21.6187 18.6187C21.9604 18.277 21.9604 17.723 21.6187 17.3813C21.277 17.0396 20.723 17.0396 20.3813 17.3813L21.6187 18.6187ZM14.3813 23.3813C14.0396 23.723 14.0396 24.277 14.3813 24.6187C14.723 24.9604 15.277 24.9604 15.6187 24.6187L14.3813 23.3813ZM14.3813 18.6187L20.3813 24.6187L21.6187 23.3813L15.6187 17.3813L14.3813 18.6187ZM20.3813 17.3813L14.3813 23.3813L15.6187 24.6187L21.6187 18.6187L20.3813 17.3813Z" fill="#4B465C"/>
<path d="M15.6187 17.3813C15.277 17.0396 14.723 17.0396 14.3813 17.3813C14.0396 17.723 14.0396 18.277 14.3813 18.6187L15.6187 17.3813ZM20.3813 24.6187C20.723 24.9604 21.277 24.9604 21.6187 24.6187C21.9604 24.277 21.9604 23.723 21.6187 23.3813L20.3813 24.6187ZM21.6187 18.6187C21.9604 18.277 21.9604 17.723 21.6187 17.3813C21.277 17.0396 20.723 17.0396 20.3813 17.3813L21.6187 18.6187ZM14.3813 23.3813C14.0396 23.723 14.0396 24.277 14.3813 24.6187C14.723 24.9604 15.277 24.9604 15.6187 24.6187L14.3813 23.3813ZM14.3813 18.6187L20.3813 24.6187L21.6187 23.3813L15.6187 17.3813L14.3813 18.6187ZM20.3813 17.3813L14.3813 23.3813L15.6187 24.6187L21.6187 18.6187L20.3813 17.3813Z" fill="white" fill-opacity="0.6"/>
</svg>
