<svg width="36" height="36" viewBox="0 0 36 36" fill="none" xmlns="http://www.w3.org/2000/svg">
<rect x="12" y="12" width="18" height="18" rx="2" stroke="#4B465C" stroke-width="1.75" stroke-linecap="round" stroke-linejoin="round"/>
<rect x="12" y="12" width="18" height="18" rx="2" stroke="white" stroke-opacity="0.6" stroke-width="1.75" stroke-linecap="round" stroke-linejoin="round"/>
<path d="M24 12V9C24 7.34315 22.6569 6 21 6H9C7.34315 6 6 7.34315 6 9V21C6 22.6569 7.34315 24 9 24H12" stroke="#4B465C" stroke-width="1.75" stroke-linecap="round" stroke-linejoin="round"/>
<path d="M24 12V9C24 7.34315 22.6569 6 21 6H9C7.34315 6 6 7.34315 6 9V21C6 22.6569 7.34315 24 9 24H12" stroke="white" stroke-opacity="0.6" stroke-width="1.75" stroke-linecap="round" stroke-linejoin="round"/>
</svg>
