<svg width="36" height="36" viewBox="0 0 36 36" fill="none" xmlns="http://www.w3.org/2000/svg">
<path d="M13.5 10.5H9C7.34315 10.5 6 11.8431 6 13.5V27C6 28.6569 7.34315 30 9 30H22.5C24.1569 30 25.5 28.6569 25.5 27V22.5" stroke="#4B465C" stroke-width="1.75" stroke-linecap="round" stroke-linejoin="round"/>
<path d="M13.5 10.5H9C7.34315 10.5 6 11.8431 6 13.5V27C6 28.6569 7.34315 30 9 30H22.5C24.1569 30 25.5 28.6569 25.5 27V22.5" stroke="white" stroke-opacity="0.6" stroke-width="1.75" stroke-linecap="round" stroke-linejoin="round"/>
<path d="M13.5 22.4984H18L30.75 9.74839C31.9926 8.50575 31.9926 6.49103 30.75 5.24839C29.5074 4.00575 27.4926 4.00575 26.25 5.24839L13.5 17.9984V22.4984" stroke="#4B465C" stroke-width="1.75" stroke-linecap="round" stroke-linejoin="round"/>
<path d="M13.5 22.4984H18L30.75 9.74839C31.9926 8.50575 31.9926 6.49103 30.75 5.24839C29.5074 4.00575 27.4926 4.00575 26.25 5.24839L13.5 17.9984V22.4984" stroke="white" stroke-opacity="0.6" stroke-width="1.75" stroke-linecap="round" stroke-linejoin="round"/>
<path d="M24 7.5L28.5 12" stroke="#4B465C" stroke-width="1.75" stroke-linecap="round" stroke-linejoin="round"/>
<path d="M24 7.5L28.5 12" stroke="white" stroke-opacity="0.6" stroke-width="1.75" stroke-linecap="round" stroke-linejoin="round"/>
</svg>
