<svg width="24" height="24" viewBox="0 0 24 24" fill="none" xmlns="http://www.w3.org/2000/svg">
<rect width="24" height="24" rx="4" fill="#28C76F" fill-opacity="0.16"/>
<ellipse cx="8.66671" cy="15.3333" rx="1.33333" ry="1.33333" stroke="#28C76F" stroke-linecap="round" stroke-linejoin="round"/>
<ellipse cx="8.66671" cy="15.3333" rx="1.33333" ry="1.33333" stroke="black" stroke-opacity="0.25" stroke-linecap="round" stroke-linejoin="round"/>
<circle cx="15.3333" cy="15.3333" r="1.33333" stroke="#28C76F" stroke-linecap="round" stroke-linejoin="round"/>
<circle cx="15.3333" cy="15.3333" r="1.33333" stroke="black" stroke-opacity="0.25" stroke-linecap="round" stroke-linejoin="round"/>
<path d="M7.33333 15.9109C7.6509 15.9109 7.90833 15.6535 7.90833 15.3359C7.90833 15.0184 7.6509 14.7609 7.33333 14.7609V15.9109ZM6 15.3359H5.425C5.425 15.6535 5.68244 15.9109 6 15.9109V15.3359ZM12.6667 7.33594H13.2417C13.2417 7.01837 12.9842 6.76094 12.6667 6.76094V7.33594ZM12.0917 15.3359C12.0917 15.6535 12.3491 15.9109 12.6667 15.9109C12.9842 15.9109 13.2417 15.6535 13.2417 15.3359H12.0917ZM10 14.7609C9.68244 14.7609 9.425 15.0184 9.425 15.3359C9.425 15.6535 9.68244 15.9109 10 15.9109V14.7609ZM14 15.9109C14.3176 15.9109 14.575 15.6535 14.575 15.3359C14.575 15.0184 14.3176 14.7609 14 14.7609V15.9109ZM16.6667 14.7609C16.3491 14.7609 16.0917 15.0184 16.0917 15.3359C16.0917 15.6535 16.3491 15.9109 16.6667 15.9109V14.7609ZM18 15.3359V15.9109C18.3176 15.9109 18.575 15.6535 18.575 15.3359H18ZM18 11.3359H18.575C18.575 11.0184 18.3176 10.7609 18 10.7609V11.3359ZM12.6667 10.7609C12.3491 10.7609 12.0917 11.0184 12.0917 11.3359C12.0917 11.6535 12.3491 11.9109 12.6667 11.9109V10.7609ZM12.6667 7.4276C12.3491 7.4276 12.0917 7.68504 12.0917 8.0026C12.0917 8.32017 12.3491 8.5776 12.6667 8.5776V7.4276ZM16 8.0026L16.4931 7.70677C16.3891 7.53358 16.202 7.4276 16 7.4276V8.0026ZM17.5069 11.6318C17.6703 11.9041 18.0235 11.9924 18.2958 11.829C18.5681 11.6656 18.6564 11.3124 18.4931 11.0401L17.5069 11.6318ZM7.33333 14.7609H6V15.9109H7.33333V14.7609ZM6.575 15.3359V8.0026H5.425V15.3359H6.575ZM6.575 8.0026C6.575 7.95198 6.61604 7.91094 6.66667 7.91094V6.76094C5.98091 6.76094 5.425 7.31685 5.425 8.0026H6.575ZM6.66667 7.91094H12.6667V6.76094H6.66667V7.91094ZM12.0917 7.33594V15.3359H13.2417V7.33594H12.0917ZM10 15.9109H14V14.7609H10V15.9109ZM16.6667 15.9109H18V14.7609H16.6667V15.9109ZM18.575 15.3359V11.3359H17.425V15.3359H18.575ZM18 10.7609H12.6667V11.9109H18V10.7609ZM12.6667 8.5776H16V7.4276H12.6667V8.5776ZM15.5069 8.29844L17.5069 11.6318L18.4931 11.0401L16.4931 7.70677L15.5069 8.29844Z" fill="#28C76F"/>
<path d="M7.33333 15.9109C7.6509 15.9109 7.90833 15.6535 7.90833 15.3359C7.90833 15.0184 7.6509 14.7609 7.33333 14.7609V15.9109ZM6 15.3359H5.425C5.425 15.6535 5.68244 15.9109 6 15.9109V15.3359ZM12.6667 7.33594H13.2417C13.2417 7.01837 12.9842 6.76094 12.6667 6.76094V7.33594ZM12.0917 15.3359C12.0917 15.6535 12.3491 15.9109 12.6667 15.9109C12.9842 15.9109 13.2417 15.6535 13.2417 15.3359H12.0917ZM10 14.7609C9.68244 14.7609 9.425 15.0184 9.425 15.3359C9.425 15.6535 9.68244 15.9109 10 15.9109V14.7609ZM14 15.9109C14.3176 15.9109 14.575 15.6535 14.575 15.3359C14.575 15.0184 14.3176 14.7609 14 14.7609V15.9109ZM16.6667 14.7609C16.3491 14.7609 16.0917 15.0184 16.0917 15.3359C16.0917 15.6535 16.3491 15.9109 16.6667 15.9109V14.7609ZM18 15.3359V15.9109C18.3176 15.9109 18.575 15.6535 18.575 15.3359H18ZM18 11.3359H18.575C18.575 11.0184 18.3176 10.7609 18 10.7609V11.3359ZM12.6667 10.7609C12.3491 10.7609 12.0917 11.0184 12.0917 11.3359C12.0917 11.6535 12.3491 11.9109 12.6667 11.9109V10.7609ZM12.6667 7.4276C12.3491 7.4276 12.0917 7.68504 12.0917 8.0026C12.0917 8.32017 12.3491 8.5776 12.6667 8.5776V7.4276ZM16 8.0026L16.4931 7.70677C16.3891 7.53358 16.202 7.4276 16 7.4276V8.0026ZM17.5069 11.6318C17.6703 11.9041 18.0235 11.9924 18.2958 11.829C18.5681 11.6656 18.6564 11.3124 18.4931 11.0401L17.5069 11.6318ZM7.33333 14.7609H6V15.9109H7.33333V14.7609ZM6.575 15.3359V8.0026H5.425V15.3359H6.575ZM6.575 8.0026C6.575 7.95198 6.61604 7.91094 6.66667 7.91094V6.76094C5.98091 6.76094 5.425 7.31685 5.425 8.0026H6.575ZM6.66667 7.91094H12.6667V6.76094H6.66667V7.91094ZM12.0917 7.33594V15.3359H13.2417V7.33594H12.0917ZM10 15.9109H14V14.7609H10V15.9109ZM16.6667 15.9109H18V14.7609H16.6667V15.9109ZM18.575 15.3359V11.3359H17.425V15.3359H18.575ZM18 10.7609H12.6667V11.9109H18V10.7609ZM12.6667 8.5776H16V7.4276H12.6667V8.5776ZM15.5069 8.29844L17.5069 11.6318L18.4931 11.0401L16.4931 7.70677L15.5069 8.29844Z" fill="black" fill-opacity="0.25"/>
</svg>
