<svg width="38" height="38" viewBox="0 0 38 38" fill="none" xmlns="http://www.w3.org/2000/svg">
<path d="M16.2498 14.418H13.4998C12.4873 14.418 11.6665 15.2388 11.6665 16.2513V24.5013C11.6665 25.5138 12.4873 26.3346 13.4998 26.3346H21.7498C22.7624 26.3346 23.5832 25.5138 23.5832 24.5013V21.7513" stroke="#4B465C" stroke-width="1.75" stroke-linecap="round" stroke-linejoin="round"/>
<path d="M16.2498 14.418H13.4998C12.4873 14.418 11.6665 15.2388 11.6665 16.2513V24.5013C11.6665 25.5138 12.4873 26.3346 13.4998 26.3346H21.7498C22.7624 26.3346 23.5832 25.5138 23.5832 24.5013V21.7513" stroke="white" stroke-opacity="0.2" stroke-width="1.75" stroke-linecap="round" stroke-linejoin="round"/>
<path d="M16.25 21.7518H19L26.7917 13.9602C27.5511 13.2008 27.5511 11.9696 26.7917 11.2102C26.0323 10.4508 24.8011 10.4508 24.0417 11.2102L16.25 19.0018V21.7518" stroke="#4B465C" stroke-width="1.75" stroke-linecap="round" stroke-linejoin="round"/>
<path d="M16.25 21.7518H19L26.7917 13.9602C27.5511 13.2008 27.5511 11.9696 26.7917 11.2102C26.0323 10.4508 24.8011 10.4508 24.0417 11.2102L16.25 19.0018V21.7518" stroke="white" stroke-opacity="0.2" stroke-width="1.75" stroke-linecap="round" stroke-linejoin="round"/>
<path d="M22.6665 12.582L25.4165 15.332" stroke="#4B465C" stroke-width="1.75" stroke-linecap="round" stroke-linejoin="round"/>
<path d="M22.6665 12.582L25.4165 15.332" stroke="white" stroke-opacity="0.2" stroke-width="1.75" stroke-linecap="round" stroke-linejoin="round"/>
</svg>
