<svg width="100" height="100" viewBox="0 0 100 100" fill="none" xmlns="http://www.w3.org/2000/svg">
<rect x="0.5" y="0.5" width="99" height="99" rx="5.5" fill="white" stroke="#DBDADE"/>
<path d="M40.6187 41.8813C40.277 41.5396 39.723 41.5396 39.3813 41.8813C39.0396 42.223 39.0396 42.777 39.3813 43.1187L40.6187 41.8813ZM52.5 55H53.375C53.375 54.7679 53.2828 54.5454 53.1187 54.3813L52.5 55ZM52.5 72.5V73.375C52.9832 73.375 53.375 72.9832 53.375 72.5H52.5ZM40 72.5H39.125C39.125 72.9832 39.5168 73.375 40 73.375V72.5ZM40.875 62.5C40.875 62.0168 40.4832 61.625 40 61.625C39.5168 61.625 39.125 62.0168 39.125 62.5H40.875ZM40 73.375C40.4832 73.375 40.875 72.9832 40.875 72.5C40.875 72.0168 40.4832 71.625 40 71.625V73.375ZM27.5 72.5H26.625C26.625 72.9832 27.0168 73.375 27.5 73.375V72.5ZM27.5 55L26.8813 54.3813C26.7172 54.5454 26.625 54.7679 26.625 55H27.5ZM40.6187 43.1187C40.9604 42.777 40.9604 42.223 40.6187 41.8813C40.277 41.5396 39.723 41.5396 39.3813 41.8813L40.6187 43.1187ZM41.625 45C41.625 45.4832 42.0168 45.875 42.5 45.875C42.9832 45.875 43.375 45.4832 43.375 45H41.625ZM72.5 72.5V73.375C72.9832 73.375 73.375 72.9832 73.375 72.5H72.5ZM52.5 71.625C52.0168 71.625 51.625 72.0168 51.625 72.5C51.625 72.9832 52.0168 73.375 52.5 73.375V71.625ZM39.3813 43.1187L51.8813 55.6187L53.1187 54.3813L40.6187 41.8813L39.3813 43.1187ZM51.625 55V72.5H53.375V55H51.625ZM52.5 71.625H40V73.375H52.5V71.625ZM40.875 72.5V62.5H39.125V72.5H40.875ZM40 71.625H27.5V73.375H40V71.625ZM28.375 72.5V55H26.625V72.5H28.375ZM28.1187 55.6187L40.6187 43.1187L39.3813 41.8813L26.8813 54.3813L28.1187 55.6187ZM43.375 45V30H41.625V45H43.375ZM43.375 30C43.375 29.1025 44.1025 28.375 45 28.375V26.625C43.136 26.625 41.625 28.136 41.625 30H43.375ZM45 28.375H70V26.625H45V28.375ZM70 28.375C70.8975 28.375 71.625 29.1025 71.625 30H73.375C73.375 28.136 71.864 26.625 70 26.625V28.375ZM71.625 30V72.5H73.375V30H71.625ZM72.5 71.625H52.5V73.375H72.5V71.625Z" fill="#4B465C"/>
<path d="M40.6187 41.8813C40.277 41.5396 39.723 41.5396 39.3813 41.8813C39.0396 42.223 39.0396 42.777 39.3813 43.1187L40.6187 41.8813ZM52.5 55H53.375C53.375 54.7679 53.2828 54.5454 53.1187 54.3813L52.5 55ZM52.5 72.5V73.375C52.9832 73.375 53.375 72.9832 53.375 72.5H52.5ZM40 72.5H39.125C39.125 72.9832 39.5168 73.375 40 73.375V72.5ZM40.875 62.5C40.875 62.0168 40.4832 61.625 40 61.625C39.5168 61.625 39.125 62.0168 39.125 62.5H40.875ZM40 73.375C40.4832 73.375 40.875 72.9832 40.875 72.5C40.875 72.0168 40.4832 71.625 40 71.625V73.375ZM27.5 72.5H26.625C26.625 72.9832 27.0168 73.375 27.5 73.375V72.5ZM27.5 55L26.8813 54.3813C26.7172 54.5454 26.625 54.7679 26.625 55H27.5ZM40.6187 43.1187C40.9604 42.777 40.9604 42.223 40.6187 41.8813C40.277 41.5396 39.723 41.5396 39.3813 41.8813L40.6187 43.1187ZM41.625 45C41.625 45.4832 42.0168 45.875 42.5 45.875C42.9832 45.875 43.375 45.4832 43.375 45H41.625ZM72.5 72.5V73.375C72.9832 73.375 73.375 72.9832 73.375 72.5H72.5ZM52.5 71.625C52.0168 71.625 51.625 72.0168 51.625 72.5C51.625 72.9832 52.0168 73.375 52.5 73.375V71.625ZM39.3813 43.1187L51.8813 55.6187L53.1187 54.3813L40.6187 41.8813L39.3813 43.1187ZM51.625 55V72.5H53.375V55H51.625ZM52.5 71.625H40V73.375H52.5V71.625ZM40.875 72.5V62.5H39.125V72.5H40.875ZM40 71.625H27.5V73.375H40V71.625ZM28.375 72.5V55H26.625V72.5H28.375ZM28.1187 55.6187L40.6187 43.1187L39.3813 41.8813L26.8813 54.3813L28.1187 55.6187ZM43.375 45V30H41.625V45H43.375ZM43.375 30C43.375 29.1025 44.1025 28.375 45 28.375V26.625C43.136 26.625 41.625 28.136 41.625 30H43.375ZM45 28.375H70V26.625H45V28.375ZM70 28.375C70.8975 28.375 71.625 29.1025 71.625 30H73.375C73.375 28.136 71.864 26.625 70 26.625V28.375ZM71.625 30V72.5H73.375V30H71.625ZM72.5 71.625H52.5V73.375H72.5V71.625Z" fill="white" fill-opacity="0.2"/>
<path d="M52.5 37.5002V37.5252" stroke="#4B465C" stroke-width="1.75" stroke-linecap="round" stroke-linejoin="round"/>
<path d="M52.5 37.5002V37.5252" stroke="white" stroke-opacity="0.2" stroke-width="1.75" stroke-linecap="round" stroke-linejoin="round"/>
<path d="M62.5 37.5002V37.5252" stroke="#4B465C" stroke-width="1.75" stroke-linecap="round" stroke-linejoin="round"/>
<path d="M62.5 37.5002V37.5252" stroke="white" stroke-opacity="0.2" stroke-width="1.75" stroke-linecap="round" stroke-linejoin="round"/>
<path d="M62.5 47.5002V47.5252" stroke="#4B465C" stroke-width="1.75" stroke-linecap="round" stroke-linejoin="round"/>
<path d="M62.5 47.5002V47.5252" stroke="white" stroke-opacity="0.2" stroke-width="1.75" stroke-linecap="round" stroke-linejoin="round"/>
<path d="M62.5 57.5002V57.5252" stroke="#4B465C" stroke-width="1.75" stroke-linecap="round" stroke-linejoin="round"/>
<path d="M62.5 57.5002V57.5252" stroke="white" stroke-opacity="0.2" stroke-width="1.75" stroke-linecap="round" stroke-linejoin="round"/>
</svg>
