<svg width="25" height="24" viewBox="0 0 25 24" fill="none" xmlns="http://www.w3.org/2000/svg">
<rect x="4.5" y="4" width="6" height="6" rx="1" stroke="#4B465C" stroke-width="1.75" stroke-linecap="round" stroke-linejoin="round"/>
<rect x="4.5" y="4" width="6" height="6" rx="1" stroke="white" stroke-opacity="0.2" stroke-width="1.75" stroke-linecap="round" stroke-linejoin="round"/>
<rect x="14.5" y="4" width="6" height="6" rx="1" stroke="#4B465C" stroke-width="1.75" stroke-linecap="round" stroke-linejoin="round"/>
<rect x="14.5" y="4" width="6" height="6" rx="1" stroke="white" stroke-opacity="0.2" stroke-width="1.75" stroke-linecap="round" stroke-linejoin="round"/>
<rect x="4.5" y="14" width="6" height="6" rx="1" stroke="#4B465C" stroke-width="1.75" stroke-linecap="round" stroke-linejoin="round"/>
<rect x="4.5" y="14" width="6" height="6" rx="1" stroke="white" stroke-opacity="0.2" stroke-width="1.75" stroke-linecap="round" stroke-linejoin="round"/>
<path d="M14.5 16.125C14.0168 16.125 13.625 16.5168 13.625 17C13.625 17.4832 14.0168 17.875 14.5 17.875V16.125ZM20.5 17.875C20.9832 17.875 21.375 17.4832 21.375 17C21.375 16.5168 20.9832 16.125 20.5 16.125V17.875ZM18.375 14C18.375 13.5168 17.9832 13.125 17.5 13.125C17.0168 13.125 16.625 13.5168 16.625 14H18.375ZM16.625 20C16.625 20.4832 17.0168 20.875 17.5 20.875C17.9832 20.875 18.375 20.4832 18.375 20H16.625ZM14.5 17.875H20.5V16.125H14.5V17.875ZM16.625 14V20H18.375V14H16.625Z" fill="#4B465C"/>
<path d="M14.5 16.125C14.0168 16.125 13.625 16.5168 13.625 17C13.625 17.4832 14.0168 17.875 14.5 17.875V16.125ZM20.5 17.875C20.9832 17.875 21.375 17.4832 21.375 17C21.375 16.5168 20.9832 16.125 20.5 16.125V17.875ZM18.375 14C18.375 13.5168 17.9832 13.125 17.5 13.125C17.0168 13.125 16.625 13.5168 16.625 14H18.375ZM16.625 20C16.625 20.4832 17.0168 20.875 17.5 20.875C17.9832 20.875 18.375 20.4832 18.375 20H16.625ZM14.5 17.875H20.5V16.125H14.5V17.875ZM16.625 14V20H18.375V14H16.625Z" fill="white" fill-opacity="0.2"/>
</svg>
