<svg width="512" height="512" viewBox="0 0 512 512" fill="none" xmlns="http://www.w3.org/2000/svg">
<rect width="512" height="512" rx="56" fill="#292928"/>
<path d="M353.896 361.395C353.888 368.409 352.388 375.341 349.495 381.736C346.602 388.131 342.381 393.843 337.11 398.497C331.839 403.15 325.638 406.639 318.915 408.734C312.192 410.828 305.1 411.481 298.105 410.65C291.11 409.818 284.371 407.52 278.333 403.908C272.294 400.296 267.093 395.451 263.071 389.693C259.049 383.935 256.298 377.393 254.998 370.5C253.699 363.606 253.881 356.517 255.533 349.699C256.65 344.893 256.512 339.883 255.13 335.146C253.749 330.409 251.171 326.104 247.643 322.642L239.185 314.231C234.362 309.431 228.364 305.968 221.785 304.185C215.206 302.402 208.272 302.361 201.672 304.065C194.472 305.906 186.95 306.123 179.656 304.701C172.361 303.278 165.477 300.252 159.507 295.842C153.537 291.433 148.631 285.751 145.148 279.213C141.665 272.675 139.692 265.445 139.373 258.051C139.058 250.307 140.566 242.597 143.777 235.537C146.988 228.477 151.813 222.262 157.866 217.389C163.919 212.516 171.032 209.12 178.638 207.471C186.244 205.823 194.132 205.968 201.672 207.895C208.218 209.534 215.079 209.447 221.581 207.644C228.083 205.841 234.001 202.384 238.754 197.612L243.443 192.944C247.929 188.542 251.299 183.143 253.277 177.189C255.255 171.236 255.783 164.9 254.818 158.704C253.062 148.132 254.792 137.279 259.747 127.767C264.702 118.256 272.617 110.597 282.308 105.937C291.999 101.277 302.945 99.8665 313.508 101.916C324.071 103.965 333.684 109.364 340.909 117.306C348.134 125.248 352.582 135.305 353.588 145.973C354.594 156.641 352.104 167.347 346.49 176.488C340.876 185.63 332.441 192.717 322.445 196.688C312.45 200.659 301.431 201.301 291.039 198.519C284.385 196.733 277.377 196.722 270.718 198.488C264.06 200.254 257.985 203.733 253.105 208.577L248.827 212.846C244.422 217.305 241.166 222.758 239.335 228.74C237.504 234.722 237.154 241.057 238.313 247.203C239.318 252.949 239.318 258.825 238.313 264.572C237.186 270.642 237.547 276.893 239.365 282.795C241.184 288.697 244.406 294.074 248.759 298.47L253.546 303.237C258.383 308.059 264.407 311.533 271.016 313.31C277.625 315.087 284.587 315.106 291.205 313.363C298.588 311.425 306.32 311.2 313.804 312.703C321.289 314.206 328.328 317.399 334.379 322.035C340.43 326.671 345.332 332.628 348.709 339.446C352.086 346.265 353.847 353.763 353.857 361.365L353.896 361.395Z" fill="#DAB415"/>
</svg>
