<svg width="216" height="310" viewBox="0 0 216 310" fill="none" xmlns="http://www.w3.org/2000/svg">
<path d="M215.396 260.395C215.388 267.409 213.888 274.341 210.995 280.736C208.102 287.131 203.881 292.843 198.61 297.497C193.339 302.15 187.138 305.639 180.415 307.734C173.692 309.828 166.6 310.481 159.605 309.65C152.61 308.818 145.871 306.52 139.833 302.908C133.794 299.296 128.593 294.451 124.571 288.693C120.549 282.935 117.798 276.393 116.498 269.5C115.199 262.606 115.381 255.517 117.033 248.699C118.15 243.893 118.012 238.883 116.63 234.146C115.249 229.409 112.671 225.104 109.143 221.642L100.685 213.231C95.8622 208.431 89.8644 204.968 83.285 203.185C76.7055 201.402 69.7725 201.361 63.172 203.065C55.9723 204.906 48.4505 205.123 41.1557 203.701C33.8609 202.278 26.9773 199.252 21.0072 194.842C15.0372 190.433 10.1314 184.751 6.64803 178.213C3.16465 171.675 1.19158 164.445 0.872854 157.051C0.558148 149.307 2.0665 141.597 5.27745 134.537C8.4884 127.477 13.313 121.262 19.3659 116.389C25.4188 111.516 32.5324 108.12 40.1384 106.471C47.7445 104.823 55.6323 104.968 63.172 106.895C69.7177 108.534 76.5791 108.447 83.081 106.644C89.583 104.841 95.5014 101.384 100.254 96.6123L104.943 91.9437C109.429 87.5424 112.799 82.1425 114.777 76.1893C116.755 70.2361 117.283 63.9001 116.318 57.7038C114.562 47.1323 116.292 36.279 121.247 26.7675C126.202 17.2559 134.117 9.5973 143.808 4.93734C153.499 0.277384 164.445 -1.13346 175.008 0.915851C185.571 2.96516 195.184 8.36448 202.409 16.3061C209.634 24.2478 214.082 34.3048 215.088 44.9729C216.094 55.641 213.604 66.3467 207.99 75.4884C202.376 84.6302 193.941 91.7167 183.945 95.6878C173.95 99.659 162.931 100.301 152.539 97.5188C145.885 95.7329 138.877 95.7223 132.218 97.4879C125.56 99.2536 119.485 102.733 114.605 107.577L110.327 111.846C105.922 116.305 102.666 121.758 100.835 127.74C99.0041 133.722 98.6537 140.057 99.8134 146.203C100.818 151.949 100.818 157.825 99.8134 163.572C98.6859 169.642 99.0466 175.893 100.865 181.795C102.684 187.697 105.906 193.074 110.259 197.47L115.046 202.237C119.883 207.059 125.907 210.533 132.516 212.31C139.125 214.087 146.087 214.106 152.705 212.363C160.088 210.425 167.82 210.2 175.304 211.703C182.789 213.206 189.828 216.399 195.879 221.035C201.93 225.671 206.832 231.628 210.209 238.446C213.586 245.265 215.347 252.763 215.357 260.365L215.396 260.395Z" fill="#DAB415"/>
</svg>
