<svg width="34" height="34" viewBox="0 0 34 34" fill="none" xmlns="http://www.w3.org/2000/svg">
<path fill-rule="evenodd" clip-rule="evenodd" d="M5.64063 4.87828H28.3592C29.1326 4.87828 29.7596 5.47394 29.7596 6.20872V27.7913C29.7596 28.5261 29.1326 29.1218 28.3592 29.1218H5.64063C4.86717 29.1218 4.24017 28.5261 4.24017 27.7913V6.20872C4.24017 5.47394 4.86717 4.87828 5.64063 4.87828ZM2.21729 6.20872C2.21729 4.41259 3.74997 2.95654 5.64063 2.95654H28.3592C30.2498 2.95654 31.7825 4.41259 31.7825 6.20872V27.7913C31.7825 29.5875 30.2498 31.0435 28.3592 31.0435H5.64063C3.74997 31.0435 2.21729 29.5875 2.21729 27.7913V6.20872ZM9.81581 17.7825V16.4659C10.6104 16.7585 11.5084 16.9047 12.5099 16.9047C13.7258 16.9047 14.3337 16.5025 14.3337 15.6979C14.3337 15.1127 13.9605 14.8202 13.214 14.8202H11.9722C10.3498 14.8202 9.53863 14.0887 9.53863 12.6259C9.53863 11.0167 10.6935 10.2121 13.0033 10.2121C13.8903 10.2121 14.731 10.3401 15.5256 10.5961V11.9127C14.731 11.6202 13.8903 11.4739 13.0033 11.4739C11.6729 11.4739 11.0077 11.8579 11.0077 12.6259C11.0077 13.211 11.3292 13.5036 11.9722 13.5036H13.214C14.9398 13.5036 15.8028 14.235 15.8028 15.6979C15.8028 17.3436 14.7052 18.1665 12.5099 18.1665C11.5084 18.1665 10.6104 18.0385 9.81581 17.7825ZM21.5297 22.9182V23.6605C21.9777 23.8048 22.484 23.877 23.0486 23.877C24.2863 23.877 24.9051 23.413 24.9051 22.4852C24.9051 21.6605 24.4186 21.2481 23.4456 21.2481H22.7455C22.3829 21.2481 22.2017 21.0831 22.2017 20.7532C22.2017 20.3203 22.5767 20.1038 23.3268 20.1038C23.8269 20.1038 24.3009 20.1862 24.7488 20.3512V19.6089C24.3009 19.4646 23.8269 19.3924 23.3268 19.3924C22.0246 19.3924 21.3735 19.846 21.3735 20.7532C21.3735 21.578 21.8308 21.9904 22.7455 21.9904H23.4456C23.8664 21.9904 24.0769 22.1553 24.0769 22.4852C24.0769 22.9388 23.7341 23.1656 23.0486 23.1656C22.484 23.1656 21.9777 23.0831 21.5297 22.9182ZM9.0759 19.4233H9.91661L10.3948 22.5996L11.5574 19.4233H12.3544L13.442 22.4759L13.9483 19.4233H14.764L13.9233 23.846H13.1357L11.9074 20.3759L10.5886 23.846H9.81035L9.0759 19.4233ZM15.6622 23.846V19.4233H16.5217L18.0375 22.779L19.522 19.4233H20.3502V23.846H19.5845V20.7656L18.3719 23.846H17.6656L16.4279 20.7656V23.846H15.6622ZM19.0867 18.1116V10.267H17.6177V18.1116H19.0867ZM21.2819 13.926L24.6635 10.267H22.8674L19.9182 13.5036V14.4471L22.9838 18.1116H25.0182L21.2819 13.926Z" fill="#4B4B4B"/>
</svg>
