<svg width="22" height="22" viewBox="0 0 22 22" fill="none" xmlns="http://www.w3.org/2000/svg">
<path d="M8.24992 4.58337H6.41659C5.40406 4.58337 4.58325 5.40419 4.58325 6.41671V17.4167C4.58325 18.4292 5.40406 19.25 6.41659 19.25H15.5833C16.5958 19.25 17.4166 18.4292 17.4166 17.4167V6.41671C17.4166 5.40419 16.5958 4.58337 15.5833 4.58337H13.7499" stroke="#4B465C" stroke-width="1.75" stroke-linecap="round" stroke-linejoin="round"/>
<path d="M8.24992 4.58337H6.41659C5.40406 4.58337 4.58325 5.40419 4.58325 6.41671V17.4167C4.58325 18.4292 5.40406 19.25 6.41659 19.25H15.5833C16.5958 19.25 17.4166 18.4292 17.4166 17.4167V6.41671C17.4166 5.40419 16.5958 4.58337 15.5833 4.58337H13.7499" stroke="white" stroke-opacity="0.2" stroke-width="1.75" stroke-linecap="round" stroke-linejoin="round"/>
<rect x="8.25" y="2.75" width="5.5" height="3.66667" rx="1.83333" stroke="#4B465C" stroke-width="1.75" stroke-linecap="round" stroke-linejoin="round"/>
<rect x="8.25" y="2.75" width="5.5" height="3.66667" rx="1.83333" stroke="white" stroke-opacity="0.2" stroke-width="1.75" stroke-linecap="round" stroke-linejoin="round"/>
<path d="M8.24989 11H8.25906" stroke="#4B465C" stroke-width="1.75" stroke-linecap="round" stroke-linejoin="round"/>
<path d="M8.24989 11H8.25906" stroke="white" stroke-opacity="0.2" stroke-width="1.75" stroke-linecap="round" stroke-linejoin="round"/>
<path d="M11.9167 11H13.7501" stroke="#4B465C" stroke-width="1.75" stroke-linecap="round" stroke-linejoin="round"/>
<path d="M11.9167 11H13.7501" stroke="white" stroke-opacity="0.2" stroke-width="1.75" stroke-linecap="round" stroke-linejoin="round"/>
<path d="M8.24989 14.6667H8.25906" stroke="#4B465C" stroke-width="1.75" stroke-linecap="round" stroke-linejoin="round"/>
<path d="M8.24989 14.6667H8.25906" stroke="white" stroke-opacity="0.2" stroke-width="1.75" stroke-linecap="round" stroke-linejoin="round"/>
<path d="M11.9167 14.6667H13.7501" stroke="#4B465C" stroke-width="1.75" stroke-linecap="round" stroke-linejoin="round"/>
<path d="M11.9167 14.6667H13.7501" stroke="white" stroke-opacity="0.2" stroke-width="1.75" stroke-linecap="round" stroke-linejoin="round"/>
</svg>
