<svg width="38" height="38" viewBox="0 0 38 38" fill="none" xmlns="http://www.w3.org/2000/svg">
<path d="M23.5833 23.5833H25.4167C26.4292 23.5833 27.25 22.7625 27.25 21.75V18.0833C27.25 17.0708 26.4292 16.25 25.4167 16.25H12.5833C11.5708 16.25 10.75 17.0708 10.75 18.0833V21.75C10.75 22.7625 11.5708 23.5833 12.5833 23.5833H14.4167" stroke="#4B465C" stroke-width="1.75" stroke-linecap="round" stroke-linejoin="round"/>
<path d="M23.5833 23.5833H25.4167C26.4292 23.5833 27.25 22.7625 27.25 21.75V18.0833C27.25 17.0708 26.4292 16.25 25.4167 16.25H12.5833C11.5708 16.25 10.75 17.0708 10.75 18.0833V21.75C10.75 22.7625 11.5708 23.5833 12.5833 23.5833H14.4167" stroke="white" stroke-opacity="0.2" stroke-width="1.75" stroke-linecap="round" stroke-linejoin="round"/>
<path d="M23.5832 16.25V12.5833C23.5832 11.5708 22.7624 10.75 21.7498 10.75H16.2498C15.2373 10.75 14.4165 11.5708 14.4165 12.5833V16.25" stroke="#4B465C" stroke-width="1.75" stroke-linecap="round" stroke-linejoin="round"/>
<path d="M23.5832 16.25V12.5833C23.5832 11.5708 22.7624 10.75 21.7498 10.75H16.2498C15.2373 10.75 14.4165 11.5708 14.4165 12.5833V16.25" stroke="white" stroke-opacity="0.2" stroke-width="1.75" stroke-linecap="round" stroke-linejoin="round"/>
<rect x="14.4165" y="19.918" width="9.16667" height="7.33333" rx="2" stroke="#4B465C" stroke-width="1.75" stroke-linecap="round" stroke-linejoin="round"/>
<rect x="14.4165" y="19.918" width="9.16667" height="7.33333" rx="2" stroke="white" stroke-opacity="0.2" stroke-width="1.75" stroke-linecap="round" stroke-linejoin="round"/>
</svg>
