<svg width="19" height="19" viewBox="0 0 19 19" fill="none" xmlns="http://www.w3.org/2000/svg">
<path d="M3.5 6.5V5C3.5 4.17157 4.17157 3.5 5 3.5H6.5" stroke="#EA5455" stroke-width="1.75" stroke-linecap="round" stroke-linejoin="round"/>
<path d="M3.5 6.5V5C3.5 4.17157 4.17157 3.5 5 3.5H6.5" stroke="white" stroke-opacity="0.2" stroke-width="1.75" stroke-linecap="round" stroke-linejoin="round"/>
<path d="M3.5 12.5V14C3.5 14.8284 4.17157 15.5 5 15.5H6.5" stroke="#EA5455" stroke-width="1.75" stroke-linecap="round" stroke-linejoin="round"/>
<path d="M3.5 12.5V14C3.5 14.8284 4.17157 15.5 5 15.5H6.5" stroke="white" stroke-opacity="0.2" stroke-width="1.75" stroke-linecap="round" stroke-linejoin="round"/>
<path d="M12.5 3.5H14C14.8284 3.5 15.5 4.17157 15.5 5V6.5" stroke="#EA5455" stroke-width="1.75" stroke-linecap="round" stroke-linejoin="round"/>
<path d="M12.5 3.5H14C14.8284 3.5 15.5 4.17157 15.5 5V6.5" stroke="white" stroke-opacity="0.2" stroke-width="1.75" stroke-linecap="round" stroke-linejoin="round"/>
<path d="M12.5 15.5H14C14.8284 15.5 15.5 14.8284 15.5 14V12.5" stroke="#EA5455" stroke-width="1.75" stroke-linecap="round" stroke-linejoin="round"/>
<path d="M12.5 15.5H14C14.8284 15.5 15.5 14.8284 15.5 14V12.5" stroke="white" stroke-opacity="0.2" stroke-width="1.75" stroke-linecap="round" stroke-linejoin="round"/>
<path d="M9.5 8.74625V8.75375" stroke="#EA5455" stroke-width="1.75" stroke-linecap="round" stroke-linejoin="round"/>
<path d="M9.5 8.74625V8.75375" stroke="white" stroke-opacity="0.2" stroke-width="1.75" stroke-linecap="round" stroke-linejoin="round"/>
<path d="M9.50017 13.9992L6.87517 10.2492C6.177 8.98738 6.47546 7.40731 7.58581 6.48706C8.69616 5.56681 10.3042 5.56681 11.4145 6.48706C12.5249 7.40731 12.8233 8.98738 12.1252 10.2492L9.50017 13.9992" stroke="#EA5455" stroke-width="1.75" stroke-linecap="round" stroke-linejoin="round"/>
<path d="M9.50017 13.9992L6.87517 10.2492C6.177 8.98738 6.47546 7.40731 7.58581 6.48706C8.69616 5.56681 10.3042 5.56681 11.4145 6.48706C12.5249 7.40731 12.8233 8.98738 12.1252 10.2492L9.50017 13.9992" stroke="white" stroke-opacity="0.2" stroke-width="1.75" stroke-linecap="round" stroke-linejoin="round"/>
</svg>
