<svg width="151" height="150" viewBox="0 0 151 150" fill="none" xmlns="http://www.w3.org/2000/svg">
<path d="M79.367 110.117C81.5027 107.981 81.5027 104.519 79.367 102.383C77.2313 100.247 73.7687 100.247 71.633 102.383L79.367 110.117ZM63 118.75L59.133 114.883C56.9973 117.019 56.9973 120.481 59.133 122.617L63 118.75ZM71.633 135.117C73.7687 137.253 77.2313 137.253 79.367 135.117C81.5027 132.981 81.5027 129.519 79.367 127.383L71.633 135.117ZM63 113.281C59.9797 113.281 57.5312 115.73 57.5312 118.75C57.5312 121.77 59.9797 124.219 63 124.219V113.281ZM119.25 118.75V124.219C119.344 124.219 119.438 124.216 119.532 124.211L119.25 118.75ZM130.188 101.563L135.254 99.5045C135.174 99.3068 135.082 99.114 134.979 98.927L130.188 101.563ZM131.542 92.677C130.086 90.0306 126.761 89.0652 124.115 90.5207C121.468 91.9762 120.503 95.3016 121.958 97.948L131.542 92.677ZM71.633 102.383L59.133 114.883L66.867 122.617L79.367 110.117L71.633 102.383ZM59.133 122.617L71.633 135.117L79.367 127.383L66.867 114.883L59.133 122.617ZM63 124.219H119.25V113.281H63V124.219ZM119.532 124.211C125.34 123.912 130.644 120.82 133.766 115.914L124.538 110.041C123.317 111.961 121.241 113.171 118.968 113.289L119.532 124.211ZM133.766 115.914C136.888 111.007 137.443 104.893 135.254 99.5045L125.121 103.621C125.977 105.729 125.76 108.122 124.538 110.041L133.766 115.914ZM134.979 98.927L131.542 92.677L121.958 97.948L125.396 104.198L134.979 98.927Z" fill="#4B465C"/>
<path d="M79.367 110.117C81.5027 107.981 81.5027 104.519 79.367 102.383C77.2313 100.247 73.7687 100.247 71.633 102.383L79.367 110.117ZM63 118.75L59.133 114.883C56.9973 117.019 56.9973 120.481 59.133 122.617L63 118.75ZM71.633 135.117C73.7687 137.253 77.2313 137.253 79.367 135.117C81.5027 132.981 81.5027 129.519 79.367 127.383L71.633 135.117ZM63 113.281C59.9797 113.281 57.5312 115.73 57.5312 118.75C57.5312 121.77 59.9797 124.219 63 124.219V113.281ZM119.25 118.75V124.219C119.344 124.219 119.438 124.216 119.532 124.211L119.25 118.75ZM130.188 101.563L135.254 99.5045C135.174 99.3068 135.082 99.114 134.979 98.927L130.188 101.563ZM131.542 92.677C130.086 90.0306 126.761 89.0652 124.115 90.5207C121.468 91.9762 120.503 95.3016 121.958 97.948L131.542 92.677ZM71.633 102.383L59.133 114.883L66.867 122.617L79.367 110.117L71.633 102.383ZM59.133 122.617L71.633 135.117L79.367 127.383L66.867 114.883L59.133 122.617ZM63 124.219H119.25V113.281H63V124.219ZM119.532 124.211C125.34 123.912 130.644 120.82 133.766 115.914L124.538 110.041C123.317 111.961 121.241 113.171 118.968 113.289L119.532 124.211ZM133.766 115.914C136.888 111.007 137.443 104.893 135.254 99.5045L125.121 103.621C125.977 105.729 125.76 108.122 124.538 110.041L133.766 115.914ZM134.979 98.927L131.542 92.677L121.958 97.948L125.396 104.198L134.979 98.927Z" fill="white" fill-opacity="0.2"/>
<path d="M48.5692 70.1782C49.3509 73.0956 52.3496 74.8269 55.267 74.0452C58.1844 73.2635 59.9157 70.2648 59.134 67.3474L48.5692 70.1782ZM49.2762 51.6875L54.5587 50.2721C53.7769 47.3547 50.7782 45.6234 47.8608 46.4051L49.2762 51.6875ZM30.7855 50.9804C27.8681 51.7621 26.1368 54.7608 26.9185 57.6782C27.7002 60.5956 30.6989 62.3269 33.6163 61.5452L30.7855 50.9804ZM54.0128 54.4219C55.523 51.8062 54.6268 48.4616 52.0111 46.9514C49.3955 45.4413 46.0508 46.3375 44.5407 48.9531L54.0128 54.4219ZM21.1517 100.401L16.4157 97.6671C16.3687 97.7484 16.3239 97.8309 16.2812 97.9145L21.1517 100.401ZM30.5678 118.467L29.8168 123.884C30.0281 123.914 30.241 123.93 30.4543 123.935L30.5678 118.467ZM37.5857 124.083C40.6054 124.146 43.1041 121.749 43.1668 118.729C43.2295 115.709 40.8324 113.21 37.8127 113.148L37.5857 124.083ZM59.134 67.3474L54.5587 50.2721L43.9938 53.1029L48.5692 70.1782L59.134 67.3474ZM47.8608 46.4051L30.7855 50.9804L33.6163 61.5452L50.6917 56.9699L47.8608 46.4051ZM44.5407 48.9531L16.4157 97.6671L25.8878 103.136L54.0128 54.4219L44.5407 48.9531ZM16.2812 97.9145C13.6365 103.094 13.6622 109.234 16.3502 114.391L26.0493 109.336C24.9975 107.318 24.9874 104.915 26.0223 102.888L16.2812 97.9145ZM16.3502 114.391C19.0382 119.548 24.0561 123.086 29.8168 123.884L31.3189 113.05C29.0647 112.738 27.1012 111.354 26.0493 109.336L16.3502 114.391ZM30.4543 123.935L37.5857 124.083L37.8127 113.148L30.6813 113L30.4543 123.935Z" fill="#4B465C"/>
<path d="M48.5692 70.1782C49.3509 73.0956 52.3496 74.8269 55.267 74.0452C58.1844 73.2635 59.9157 70.2648 59.134 67.3474L48.5692 70.1782ZM49.2762 51.6875L54.5587 50.2721C53.7769 47.3547 50.7782 45.6234 47.8608 46.4051L49.2762 51.6875ZM30.7855 50.9804C27.8681 51.7621 26.1368 54.7608 26.9185 57.6782C27.7002 60.5956 30.6989 62.3269 33.6163 61.5452L30.7855 50.9804ZM54.0128 54.4219C55.523 51.8062 54.6268 48.4616 52.0111 46.9514C49.3955 45.4413 46.0508 46.3375 44.5407 48.9531L54.0128 54.4219ZM21.1517 100.401L16.4157 97.6671C16.3687 97.7484 16.3239 97.8309 16.2812 97.9145L21.1517 100.401ZM30.5678 118.467L29.8168 123.884C30.0281 123.914 30.241 123.93 30.4543 123.935L30.5678 118.467ZM37.5857 124.083C40.6054 124.146 43.1041 121.749 43.1668 118.729C43.2295 115.709 40.8324 113.21 37.8127 113.148L37.5857 124.083ZM59.134 67.3474L54.5587 50.2721L43.9938 53.1029L48.5692 70.1782L59.134 67.3474ZM47.8608 46.4051L30.7855 50.9804L33.6163 61.5452L50.6917 56.9699L47.8608 46.4051ZM44.5407 48.9531L16.4157 97.6671L25.8878 103.136L54.0128 54.4219L44.5407 48.9531ZM16.2812 97.9145C13.6365 103.094 13.6622 109.234 16.3502 114.391L26.0493 109.336C24.9975 107.318 24.9874 104.915 26.0223 102.888L16.2812 97.9145ZM16.3502 114.391C19.0382 119.548 24.0561 123.086 29.8168 123.884L31.3189 113.05C29.0647 112.738 27.1012 111.354 26.0493 109.336L16.3502 114.391ZM30.4543 123.935L37.5857 124.083L37.8127 113.148L30.6813 113L30.4543 123.935Z" fill="white" fill-opacity="0.2"/>
<path d="M98.5647 63.4585C95.6473 62.6767 92.6486 64.4081 91.8669 67.3255C91.0852 70.2428 92.8165 73.2416 95.7339 74.0233L98.5647 63.4585ZM114.225 73.3162L112.809 78.5986C114.21 78.974 115.703 78.7775 116.959 78.0523C118.215 77.3271 119.132 76.1326 119.507 74.7316L114.225 73.3162ZM124.082 57.6563C124.864 54.7389 123.133 51.7402 120.215 50.9585C117.298 50.1767 114.299 51.9081 113.518 54.8255L124.082 57.6563ZM109.488 76.0506C110.998 78.6662 114.343 79.5624 116.958 78.0523C119.574 76.5421 120.47 73.1975 118.96 70.5818L109.488 76.0506ZM86.0991 24.6023L90.8352 21.8679C90.7882 21.7866 90.7392 21.7065 90.6881 21.6277L86.0991 24.6023ZM65.7455 23.7239L61.4299 20.365C61.2988 20.5333 61.1777 20.7092 61.0672 20.8918L65.7455 23.7239ZM57.3733 26.9937C55.8092 29.5775 56.6358 32.94 59.2196 34.5041C61.8033 36.0682 65.1658 35.2417 66.7299 32.6579L57.3733 26.9937ZM95.7339 74.0233L112.809 78.5986L115.64 68.0338L98.5647 63.4585L95.7339 74.0233ZM119.507 74.7316L124.082 57.6563L113.518 54.8255L108.942 71.9008L119.507 74.7316ZM118.96 70.5818L90.8352 21.8679L81.363 27.3366L109.488 76.0506L118.96 70.5818ZM90.6881 21.6277C87.5248 16.7474 82.1951 13.7001 76.3847 13.4493L75.9131 24.3766C78.1867 24.4747 80.2723 25.6672 81.5101 27.5769L90.6881 21.6277ZM76.3847 13.4493C70.5743 13.1985 65.0019 15.7754 61.4299 20.365L70.0612 27.0828C71.459 25.2868 73.6395 24.2785 75.9131 24.3766L76.3847 13.4493ZM61.0672 20.8918L57.3733 26.9937L66.7299 32.6579L70.4238 26.5559L61.0672 20.8918Z" fill="#4B465C"/>
<path d="M98.5647 63.4585C95.6473 62.6767 92.6486 64.4081 91.8669 67.3255C91.0852 70.2428 92.8165 73.2416 95.7339 74.0233L98.5647 63.4585ZM114.225 73.3162L112.809 78.5986C114.21 78.974 115.703 78.7775 116.959 78.0523C118.215 77.3271 119.132 76.1326 119.507 74.7316L114.225 73.3162ZM124.082 57.6563C124.864 54.7389 123.133 51.7402 120.215 50.9585C117.298 50.1767 114.299 51.9081 113.518 54.8255L124.082 57.6563ZM109.488 76.0506C110.998 78.6662 114.343 79.5624 116.958 78.0523C119.574 76.5421 120.47 73.1975 118.96 70.5818L109.488 76.0506ZM86.0991 24.6023L90.8352 21.8679C90.7882 21.7866 90.7392 21.7065 90.6881 21.6277L86.0991 24.6023ZM65.7455 23.7239L61.4299 20.365C61.2988 20.5333 61.1777 20.7092 61.0672 20.8918L65.7455 23.7239ZM57.3733 26.9937C55.8092 29.5775 56.6358 32.94 59.2196 34.5041C61.8033 36.0682 65.1658 35.2417 66.7299 32.6579L57.3733 26.9937ZM95.7339 74.0233L112.809 78.5986L115.64 68.0338L98.5647 63.4585L95.7339 74.0233ZM119.507 74.7316L124.082 57.6563L113.518 54.8255L108.942 71.9008L119.507 74.7316ZM118.96 70.5818L90.8352 21.8679L81.363 27.3366L109.488 76.0506L118.96 70.5818ZM90.6881 21.6277C87.5248 16.7474 82.1951 13.7001 76.3847 13.4493L75.9131 24.3766C78.1867 24.4747 80.2723 25.6672 81.5101 27.5769L90.6881 21.6277ZM76.3847 13.4493C70.5743 13.1985 65.0019 15.7754 61.4299 20.365L70.0612 27.0828C71.459 25.2868 73.6395 24.2785 75.9131 24.3766L76.3847 13.4493ZM61.0672 20.8918L57.3733 26.9937L66.7299 32.6579L70.4238 26.5559L61.0672 20.8918Z" fill="white" fill-opacity="0.2"/>
</svg>
