<svg width="36" height="36" viewBox="0 0 36 36" fill="none" xmlns="http://www.w3.org/2000/svg">
<g id="report-money">
<g id="Path">
<path d="M13.5 7.5H10.5C8.84315 7.5 7.5 8.84315 7.5 10.5V28.5C7.5 30.1569 8.84315 31.5 10.5 31.5H25.5C27.1569 31.5 28.5 30.1569 28.5 28.5V10.5C28.5 8.84315 27.1569 7.5 25.5 7.5H22.5" stroke="#4B465C" stroke-width="1.75" stroke-linecap="round" stroke-linejoin="round"/>
<path d="M13.5 7.5H10.5C8.84315 7.5 7.5 8.84315 7.5 10.5V28.5C7.5 30.1569 8.84315 31.5 10.5 31.5H25.5C27.1569 31.5 28.5 30.1569 28.5 28.5V10.5C28.5 8.84315 27.1569 7.5 25.5 7.5H22.5" stroke="white" stroke-opacity="0.2" stroke-width="1.75" stroke-linecap="round" stroke-linejoin="round"/>
</g>
<g id="Rectangle">
<rect x="13.5" y="4.5" width="9" height="6" rx="2" stroke="#4B465C" stroke-width="1.75" stroke-linecap="round" stroke-linejoin="round"/>
<rect x="13.5" y="4.5" width="9" height="6" rx="2" stroke="white" stroke-opacity="0.2" stroke-width="1.75" stroke-linecap="round" stroke-linejoin="round"/>
</g>
<g id="Path_2">
<path d="M21 16.5H17.25C16.0074 16.5 15 17.5074 15 18.75C15 19.9926 16.0074 21 17.25 21H18.75C19.9926 21 21 22.0074 21 23.25C21 24.4926 19.9926 25.5 18.75 25.5H15" stroke="#4B465C" stroke-width="1.75" stroke-linecap="round" stroke-linejoin="round"/>
<path d="M21 16.5H17.25C16.0074 16.5 15 17.5074 15 18.75C15 19.9926 16.0074 21 17.25 21H18.75C19.9926 21 21 22.0074 21 23.25C21 24.4926 19.9926 25.5 18.75 25.5H15" stroke="white" stroke-opacity="0.2" stroke-width="1.75" stroke-linecap="round" stroke-linejoin="round"/>
</g>
<g id="Shape">
<path d="M18.875 25.5C18.875 25.0168 18.4832 24.625 18 24.625C17.5168 24.625 17.125 25.0168 17.125 25.5H18.875ZM17.125 27C17.125 27.4832 17.5168 27.875 18 27.875C18.4832 27.875 18.875 27.4832 18.875 27H17.125ZM18.875 15C18.875 14.5168 18.4832 14.125 18 14.125C17.5168 14.125 17.125 14.5168 17.125 15H18.875ZM17.125 16.5C17.125 16.9832 17.5168 17.375 18 17.375C18.4832 17.375 18.875 16.9832 18.875 16.5H17.125ZM17.125 25.5V27H18.875V25.5H17.125ZM17.125 15V16.5H18.875V15H17.125Z" fill="#4B465C"/>
<path d="M18.875 25.5C18.875 25.0168 18.4832 24.625 18 24.625C17.5168 24.625 17.125 25.0168 17.125 25.5H18.875ZM17.125 27C17.125 27.4832 17.5168 27.875 18 27.875C18.4832 27.875 18.875 27.4832 18.875 27H17.125ZM18.875 15C18.875 14.5168 18.4832 14.125 18 14.125C17.5168 14.125 17.125 14.5168 17.125 15H18.875ZM17.125 16.5C17.125 16.9832 17.5168 17.375 18 17.375C18.4832 17.375 18.875 16.9832 18.875 16.5H17.125ZM17.125 25.5V27H18.875V25.5H17.125ZM17.125 15V16.5H18.875V15H17.125Z" fill="white" fill-opacity="0.2"/>
</g>
</g>
</svg>
