<svg width="30" height="30" viewBox="0 0 30 30" fill="none" xmlns="http://www.w3.org/2000/svg">
<path fill-rule="evenodd" clip-rule="evenodd" d="M13.7437 9.23775C14.0632 7.92075 15.9368 7.92075 16.2563 9.23775C16.3535 9.63904 16.6365 9.96977 17.018 10.1278C17.3995 10.2859 17.8335 10.2522 18.186 10.0372C19.3433 9.33225 20.6685 10.6567 19.9635 11.8147C19.7489 12.1671 19.7153 12.6008 19.8731 12.982C20.031 13.3633 20.3613 13.6463 20.7623 13.7437C22.0793 14.0632 22.0793 15.9368 20.7623 16.2563C20.361 16.3535 20.0302 16.6365 19.8722 17.018C19.7141 17.3995 19.7478 17.8335 19.9627 18.186C20.6677 19.3433 19.3432 20.6685 18.1852 19.9635C17.8329 19.7489 17.3992 19.7153 17.018 19.8731C16.6367 20.031 16.3537 20.3613 16.2563 20.7623C15.9368 22.0793 14.0632 22.0793 13.7437 20.7623C13.6465 20.361 13.3635 20.0302 12.982 19.8722C12.6005 19.7141 12.1665 19.7478 11.814 19.9627C10.6567 20.6677 9.3315 19.3432 10.0365 18.1852C10.2511 17.8329 10.2847 17.3992 10.1269 17.018C9.969 16.6367 9.63868 16.3537 9.23775 16.2563C7.92075 15.9368 7.92075 14.0632 9.23775 13.7437C9.63904 13.6465 9.96977 13.3635 10.1278 12.982C10.2859 12.6005 10.2522 12.1665 10.0372 11.814C9.33225 10.6567 10.6567 9.3315 11.8147 10.0365C12.5647 10.4925 13.5367 10.089 13.7437 9.23775Z" stroke="#D9B414" stroke-width="1.75" stroke-linecap="round" stroke-linejoin="round"/>
<circle cx="15" cy="15" r="2.25" stroke="#D9B414" stroke-width="1.75" stroke-linecap="round" stroke-linejoin="round"/>
</svg>
