<svg width="28" height="28" viewBox="0 0 28 28" fill="none" xmlns="http://www.w3.org/2000/svg">
<path fill-rule="evenodd" clip-rule="evenodd" d="M4.49537 4.34406H22.6012C23.2176 4.34406 23.7173 4.81877 23.7173 5.40437V22.6049C23.7173 23.1905 23.2176 23.6652 22.6012 23.6652H4.49537C3.87896 23.6652 3.37925 23.1905 3.37925 22.6049V5.40437C3.37925 4.81877 3.87896 4.34406 4.49537 4.34406ZM1.76709 5.40437C1.76709 3.97292 2.98858 2.8125 4.49537 2.8125H22.6012C24.108 2.8125 25.3295 3.97292 25.3295 5.40437V22.6049C25.3295 24.0364 24.108 25.1968 22.6012 25.1968H4.49537C2.98858 25.1968 1.76709 24.0364 1.76709 22.6049V5.40437ZM7.82288 14.6268V13.5775C8.45612 13.8107 9.17182 13.9273 9.97 13.9273C10.939 13.9273 11.4235 13.6066 11.4235 12.9654C11.4235 12.4991 11.126 12.2659 10.5311 12.2659H9.54146C8.24847 12.2659 7.60198 11.683 7.60198 10.5171C7.60198 9.23471 8.52239 8.5935 10.3632 8.5935C11.0701 8.5935 11.7401 8.69551 12.3734 8.89953V9.9488C11.7401 9.71563 11.0701 9.59904 10.3632 9.59904C9.30289 9.59904 8.77274 9.90508 8.77274 10.5171C8.77274 10.9835 9.02898 11.2167 9.54146 11.2167H10.5311C11.9065 11.2167 12.5943 11.7996 12.5943 12.9654C12.5943 14.277 11.7195 14.9328 9.97 14.9328C9.17182 14.9328 8.45612 14.8308 7.82288 14.6268ZM17.1585 18.7198V19.3113C17.5155 19.4263 17.919 19.4839 18.369 19.4839C19.3553 19.4839 19.8485 19.1141 19.8485 18.3747C19.8485 17.7174 19.4608 17.3887 18.6853 17.3887H18.1274C17.8384 17.3887 17.694 17.2573 17.694 16.9944C17.694 16.6493 17.9929 16.4768 18.5907 16.4768C18.9892 16.4768 19.3669 16.5425 19.724 16.6739V16.0824C19.3669 15.9674 18.9892 15.9098 18.5907 15.9098C17.5528 15.9098 17.0339 16.2714 17.0339 16.9944C17.0339 17.6517 17.3984 17.9803 18.1274 17.9803H18.6853C19.0207 17.9803 19.1884 18.1118 19.1884 18.3747C19.1884 18.7362 18.9153 18.9169 18.369 18.9169C17.919 18.9169 17.5155 18.8512 17.1585 18.7198ZM7.23319 15.9345H7.90321L8.2843 18.4659L9.21087 15.9345H9.84602L10.7128 18.3673L11.1163 15.9345H11.7664L11.0964 19.4592H10.4687L9.48984 16.6937L8.43873 19.4592H7.81853L7.23319 15.9345ZM12.4823 19.4592V15.9345H13.1672L14.3753 18.6088L15.5584 15.9345H16.2184V19.4592H15.6082V17.0042L14.6418 19.4592H14.0789L13.0925 17.0042V19.4592H12.4823ZM15.2115 14.8891V8.63722H14.0407V14.8891H15.2115ZM16.961 11.5533L19.6559 8.63722H18.2245L15.8742 11.2167V11.9686L18.3173 14.8891H19.9387L16.961 11.5533Z" fill="#4B465C"/>
<path fill-rule="evenodd" clip-rule="evenodd" d="M4.49537 4.34406H22.6012C23.2176 4.34406 23.7173 4.81877 23.7173 5.40437V22.6049C23.7173 23.1905 23.2176 23.6652 22.6012 23.6652H4.49537C3.87896 23.6652 3.37925 23.1905 3.37925 22.6049V5.40437C3.37925 4.81877 3.87896 4.34406 4.49537 4.34406ZM1.76709 5.40437C1.76709 3.97292 2.98858 2.8125 4.49537 2.8125H22.6012C24.108 2.8125 25.3295 3.97292 25.3295 5.40437V22.6049C25.3295 24.0364 24.108 25.1968 22.6012 25.1968H4.49537C2.98858 25.1968 1.76709 24.0364 1.76709 22.6049V5.40437ZM7.82288 14.6268V13.5775C8.45612 13.8107 9.17182 13.9273 9.97 13.9273C10.939 13.9273 11.4235 13.6066 11.4235 12.9654C11.4235 12.4991 11.126 12.2659 10.5311 12.2659H9.54146C8.24847 12.2659 7.60198 11.683 7.60198 10.5171C7.60198 9.23471 8.52239 8.5935 10.3632 8.5935C11.0701 8.5935 11.7401 8.69551 12.3734 8.89953V9.9488C11.7401 9.71563 11.0701 9.59904 10.3632 9.59904C9.30289 9.59904 8.77274 9.90508 8.77274 10.5171C8.77274 10.9835 9.02898 11.2167 9.54146 11.2167H10.5311C11.9065 11.2167 12.5943 11.7996 12.5943 12.9654C12.5943 14.277 11.7195 14.9328 9.97 14.9328C9.17182 14.9328 8.45612 14.8308 7.82288 14.6268ZM17.1585 18.7198V19.3113C17.5155 19.4263 17.919 19.4839 18.369 19.4839C19.3553 19.4839 19.8485 19.1141 19.8485 18.3747C19.8485 17.7174 19.4608 17.3887 18.6853 17.3887H18.1274C17.8384 17.3887 17.694 17.2573 17.694 16.9944C17.694 16.6493 17.9929 16.4768 18.5907 16.4768C18.9892 16.4768 19.3669 16.5425 19.724 16.6739V16.0824C19.3669 15.9674 18.9892 15.9098 18.5907 15.9098C17.5528 15.9098 17.0339 16.2714 17.0339 16.9944C17.0339 17.6517 17.3984 17.9803 18.1274 17.9803H18.6853C19.0207 17.9803 19.1884 18.1118 19.1884 18.3747C19.1884 18.7362 18.9153 18.9169 18.369 18.9169C17.919 18.9169 17.5155 18.8512 17.1585 18.7198ZM7.23319 15.9345H7.90321L8.2843 18.4659L9.21087 15.9345H9.84602L10.7128 18.3673L11.1163 15.9345H11.7664L11.0964 19.4592H10.4687L9.48984 16.6937L8.43873 19.4592H7.81853L7.23319 15.9345ZM12.4823 19.4592V15.9345H13.1672L14.3753 18.6088L15.5584 15.9345H16.2184V19.4592H15.6082V17.0042L14.6418 19.4592H14.0789L13.0925 17.0042V19.4592H12.4823ZM15.2115 14.8891V8.63722H14.0407V14.8891H15.2115ZM16.961 11.5533L19.6559 8.63722H18.2245L15.8742 11.2167V11.9686L18.3173 14.8891H19.9387L16.961 11.5533Z" fill="white" fill-opacity="0.1"/>
</svg>
