<svg width="20" height="74" viewBox="0 0 20 74" fill="none" xmlns="http://www.w3.org/2000/svg">
<circle cx="5.83317" cy="15.1667" r="1.66667" stroke="#D9B414" stroke-width="1.45833" stroke-linecap="round" stroke-linejoin="round"/>
<circle cx="14.1667" cy="15.1667" r="1.66667" stroke="#D9B414" stroke-width="1.45833" stroke-linecap="round" stroke-linejoin="round"/>
<path d="M4.16667 15.8932C4.56937 15.8932 4.89583 15.5668 4.89583 15.1641C4.89583 14.7614 4.56937 14.4349 4.16667 14.4349V15.8932ZM2.5 15.1641H1.77083C1.77083 15.5668 2.09729 15.8932 2.5 15.8932V15.1641ZM10.8333 5.16406H11.5625C11.5625 4.76135 11.236 4.4349 10.8333 4.4349V5.16406ZM10.1042 15.1641C10.1042 15.5668 10.4306 15.8932 10.8333 15.8932C11.236 15.8932 11.5625 15.5668 11.5625 15.1641H10.1042ZM7.5 14.4348C7.09729 14.4348 6.77083 14.7613 6.77083 15.164C6.77083 15.5667 7.09729 15.8931 7.5 15.8931V14.4348ZM12.5 15.8931C12.9027 15.8931 13.2292 15.5667 13.2292 15.164C13.2292 14.7613 12.9027 14.4348 12.5 14.4348V15.8931ZM15.8333 14.4348C15.4306 14.4348 15.1042 14.7613 15.1042 15.164C15.1042 15.5667 15.4306 15.8931 15.8333 15.8931V14.4348ZM17.5 15.164V15.8931C17.9027 15.8931 18.2292 15.5667 18.2292 15.164H17.5ZM17.5 10.164H18.2292C18.2292 9.76127 17.9027 9.43481 17.5 9.43481V10.164ZM10.8333 9.43481C10.4306 9.43481 10.1042 9.76127 10.1042 10.164C10.1042 10.5667 10.4306 10.8931 10.8333 10.8931V9.43481ZM10.8333 5.26815C10.4306 5.26815 10.1042 5.59461 10.1042 5.99731C10.1042 6.40002 10.4306 6.72648 10.8333 6.72648V5.26815ZM15 5.99731L15.6253 5.62216C15.4935 5.40253 15.2561 5.26815 15 5.26815V5.99731ZM16.8747 10.5391C17.0819 10.8845 17.5298 10.9964 17.8752 10.7892C18.2205 10.582 18.3324 10.1341 18.1253 9.78883L16.8747 10.5391ZM4.16667 14.4349H2.5V15.8932H4.16667V14.4349ZM3.22917 15.1641V5.9974H1.77083V15.1641H3.22917ZM3.22917 5.9974C3.22917 5.93987 3.2758 5.89323 3.33333 5.89323V4.4349C2.47039 4.4349 1.77083 5.13445 1.77083 5.9974H3.22917ZM3.33333 5.89323H10.8333V4.4349H3.33333V5.89323ZM10.1042 5.16406V15.1641H11.5625V5.16406H10.1042ZM7.5 15.8931H12.5V14.4348H7.5V15.8931ZM15.8333 15.8931H17.5V14.4348H15.8333V15.8931ZM18.2292 15.164V10.164H16.7708V15.164H18.2292ZM17.5 9.43481H10.8333V10.8931H17.5V9.43481ZM10.8333 6.72648H15V5.26815H10.8333V6.72648ZM14.3747 6.37247L16.8747 10.5391L18.1253 9.78883L15.6253 5.62216L14.3747 6.37247Z" fill="#D9B414"/>
<path d="M4.5835 9.33073L6.11127 10.9974L8.75016 7.66406" stroke="#D9B414" stroke-width="1.45833" stroke-linecap="round" stroke-linejoin="round"/>
<rect x="9.5" y="25.5" width="1" height="48" stroke="#D9B414"/>
</svg>
