<svg width="24" height="24" viewBox="0 0 24 24" fill="none" xmlns="http://www.w3.org/2000/svg">
<rect width="24" height="24" rx="4" fill="#00CFE8" fill-opacity="0.16"/>
<ellipse cx="8.66671" cy="15.3333" rx="1.33333" ry="1.33333" stroke="#00CFE8" stroke-linecap="round" stroke-linejoin="round"/>
<ellipse cx="8.66671" cy="15.3333" rx="1.33333" ry="1.33333" stroke="black" stroke-opacity="0.2" stroke-linecap="round" stroke-linejoin="round"/>
<circle cx="15.3333" cy="15.3333" r="1.33333" stroke="#00CFE8" stroke-linecap="round" stroke-linejoin="round"/>
<circle cx="15.3333" cy="15.3333" r="1.33333" stroke="black" stroke-opacity="0.2" stroke-linecap="round" stroke-linejoin="round"/>
<path d="M7.33333 15.9109C7.6509 15.9109 7.90833 15.6535 7.90833 15.3359C7.90833 15.0184 7.6509 14.7609 7.33333 14.7609V15.9109ZM6 15.3359H5.425C5.425 15.6535 5.68244 15.9109 6 15.9109V15.3359ZM12.6667 7.33594H13.2417C13.2417 7.01837 12.9842 6.76094 12.6667 6.76094V7.33594ZM12.6667 11.3359V11.9109C12.9842 11.9109 13.2417 11.6535 13.2417 11.3359H12.6667ZM9.33333 11.3359V10.7609C9.10077 10.7609 8.8911 10.901 8.8021 11.1159C8.7131 11.3308 8.7623 11.5781 8.92675 11.7425L9.33333 11.3359ZM10.2601 13.0759C10.4846 13.3004 10.8487 13.3004 11.0733 13.0759C11.2978 12.8513 11.2978 12.4872 11.0733 12.2627L10.2601 13.0759ZM11.0733 10.4092C11.2978 10.1846 11.2978 9.82057 11.0733 9.59602C10.8487 9.37147 10.4846 9.37147 10.2601 9.59602L11.0733 10.4092ZM8.92675 10.9294C8.7022 11.1539 8.7022 11.518 8.92675 11.7425C9.1513 11.9671 9.51537 11.9671 9.73992 11.7425L8.92675 10.9294ZM7.33333 14.7609H6V15.9109H7.33333V14.7609ZM6.575 15.3359V8.0026H5.425V15.3359H6.575ZM6.575 8.0026C6.575 7.95198 6.61604 7.91094 6.66667 7.91094V6.76094C5.98091 6.76094 5.425 7.31685 5.425 8.0026H6.575ZM6.66667 7.91094H12.6667V6.76094H6.66667V7.91094ZM12.0917 7.33594V11.3359H13.2417V7.33594H12.0917ZM12.6667 10.7609H9.33333V11.9109H12.6667V10.7609ZM8.92675 11.7425L10.2601 13.0759L11.0733 12.2627L9.73992 10.9294L8.92675 11.7425ZM10.2601 9.59602L8.92675 10.9294L9.73992 11.7425L11.0733 10.4092L10.2601 9.59602Z" fill="#00CFE8"/>
<path d="M7.33333 15.9109C7.6509 15.9109 7.90833 15.6535 7.90833 15.3359C7.90833 15.0184 7.6509 14.7609 7.33333 14.7609V15.9109ZM6 15.3359H5.425C5.425 15.6535 5.68244 15.9109 6 15.9109V15.3359ZM12.6667 7.33594H13.2417C13.2417 7.01837 12.9842 6.76094 12.6667 6.76094V7.33594ZM12.6667 11.3359V11.9109C12.9842 11.9109 13.2417 11.6535 13.2417 11.3359H12.6667ZM9.33333 11.3359V10.7609C9.10077 10.7609 8.8911 10.901 8.8021 11.1159C8.7131 11.3308 8.7623 11.5781 8.92675 11.7425L9.33333 11.3359ZM10.2601 13.0759C10.4846 13.3004 10.8487 13.3004 11.0733 13.0759C11.2978 12.8513 11.2978 12.4872 11.0733 12.2627L10.2601 13.0759ZM11.0733 10.4092C11.2978 10.1846 11.2978 9.82057 11.0733 9.59602C10.8487 9.37147 10.4846 9.37147 10.2601 9.59602L11.0733 10.4092ZM8.92675 10.9294C8.7022 11.1539 8.7022 11.518 8.92675 11.7425C9.1513 11.9671 9.51537 11.9671 9.73992 11.7425L8.92675 10.9294ZM7.33333 14.7609H6V15.9109H7.33333V14.7609ZM6.575 15.3359V8.0026H5.425V15.3359H6.575ZM6.575 8.0026C6.575 7.95198 6.61604 7.91094 6.66667 7.91094V6.76094C5.98091 6.76094 5.425 7.31685 5.425 8.0026H6.575ZM6.66667 7.91094H12.6667V6.76094H6.66667V7.91094ZM12.0917 7.33594V11.3359H13.2417V7.33594H12.0917ZM12.6667 10.7609H9.33333V11.9109H12.6667V10.7609ZM8.92675 11.7425L10.2601 13.0759L11.0733 12.2627L9.73992 10.9294L8.92675 11.7425ZM10.2601 9.59602L8.92675 10.9294L9.73992 11.7425L11.0733 10.4092L10.2601 9.59602Z" fill="black" fill-opacity="0.2"/>
<path d="M10 15.3333H14" stroke="#00CFE8" stroke-width="1.75" stroke-linecap="round" stroke-linejoin="round"/>
<path d="M10 15.3333H14" stroke="black" stroke-opacity="0.2" stroke-width="1.75" stroke-linecap="round" stroke-linejoin="round"/>
<path d="M12.6666 8H16L18 11.3333V15.3333H16.6666" stroke="#00CFE8" stroke-width="1.75" stroke-linecap="round" stroke-linejoin="round"/>
<path d="M12.6666 8H16L18 11.3333V15.3333H16.6666" stroke="black" stroke-opacity="0.2" stroke-width="1.75" stroke-linecap="round" stroke-linejoin="round"/>
</svg>
