<svg width="22" height="22" viewBox="0 0 22 22" fill="none" xmlns="http://www.w3.org/2000/svg">
<g id="truck">
<g id="Oval">
<ellipse cx="6.41671" cy="15.5833" rx="1.83333" ry="1.83333" stroke="#4B465C" stroke-width="1.75" stroke-linecap="round" stroke-linejoin="round"/>
<ellipse cx="6.41671" cy="15.5833" rx="1.83333" ry="1.83333" stroke="white" stroke-opacity="0.2" stroke-width="1.75" stroke-linecap="round" stroke-linejoin="round"/>
</g>
<g id="Oval_2">
<circle cx="15.5833" cy="15.5833" r="1.83333" stroke="#4B465C" stroke-width="1.75" stroke-linecap="round" stroke-linejoin="round"/>
<circle cx="15.5833" cy="15.5833" r="1.83333" stroke="white" stroke-opacity="0.2" stroke-width="1.75" stroke-linecap="round" stroke-linejoin="round"/>
</g>
<g id="Shape">
<path d="M4.58333 16.4609C5.06658 16.4609 5.45833 16.0692 5.45833 15.5859C5.45833 15.1027 5.06658 14.7109 4.58333 14.7109V16.4609ZM2.75 15.5859H1.875C1.875 16.0692 2.26675 16.4609 2.75 16.4609V15.5859ZM11.9167 4.58594H12.7917C12.7917 4.10269 12.3999 3.71094 11.9167 3.71094V4.58594ZM11.0417 15.5859C11.0417 16.0692 11.4334 16.4609 11.9167 16.4609C12.3999 16.4609 12.7917 16.0692 12.7917 15.5859H11.0417ZM8.25 14.7109C7.76675 14.7109 7.375 15.1027 7.375 15.5859C7.375 16.0692 7.76675 16.4609 8.25 16.4609V14.7109ZM13.75 16.4609C14.2332 16.4609 14.625 16.0692 14.625 15.5859C14.625 15.1027 14.2332 14.7109 13.75 14.7109V16.4609ZM17.4167 14.7109C16.9334 14.7109 16.5417 15.1027 16.5417 15.5859C16.5417 16.0692 16.9334 16.4609 17.4167 16.4609V14.7109ZM19.25 15.5859V16.4609C19.7332 16.4609 20.125 16.0692 20.125 15.5859H19.25ZM19.25 10.0859H20.125C20.125 9.60269 19.7332 9.21094 19.25 9.21094V10.0859ZM11.9167 9.21094C11.4334 9.21094 11.0417 9.60269 11.0417 10.0859C11.0417 10.5692 11.4334 10.9609 11.9167 10.9609V9.21094ZM11.9167 4.6276C11.4334 4.6276 11.0417 5.01935 11.0417 5.5026C11.0417 5.98585 11.4334 6.3776 11.9167 6.3776V4.6276ZM16.5 5.5026L17.2503 5.05242C17.0922 4.78887 16.8074 4.6276 16.5 4.6276V5.5026ZM18.4997 10.5361C18.7483 10.9505 19.2858 11.0849 19.7002 10.8362C20.1146 10.5876 20.2489 10.0501 20.0003 9.63575L18.4997 10.5361ZM4.58333 14.7109H2.75V16.4609H4.58333V14.7109ZM3.625 15.5859V5.5026H1.875V15.5859H3.625ZM3.625 5.5026C3.625 5.47959 3.64365 5.46094 3.66667 5.46094V3.71094C2.67716 3.71094 1.875 4.51309 1.875 5.5026H3.625ZM3.66667 5.46094H11.9167V3.71094H3.66667V5.46094ZM11.0417 4.58594V15.5859H12.7917V4.58594H11.0417ZM8.25 16.4609H13.75V14.7109H8.25V16.4609ZM17.4167 16.4609H19.25V14.7109H17.4167V16.4609ZM20.125 15.5859V10.0859H18.375V15.5859H20.125ZM19.25 9.21094H11.9167V10.9609H19.25V9.21094ZM11.9167 6.3776H16.5V4.6276H11.9167V6.3776ZM15.7497 5.95279L18.4997 10.5361L20.0003 9.63575L17.2503 5.05242L15.7497 5.95279Z" fill="#4B465C"/>
<path d="M4.58333 16.4609C5.06658 16.4609 5.45833 16.0692 5.45833 15.5859C5.45833 15.1027 5.06658 14.7109 4.58333 14.7109V16.4609ZM2.75 15.5859H1.875C1.875 16.0692 2.26675 16.4609 2.75 16.4609V15.5859ZM11.9167 4.58594H12.7917C12.7917 4.10269 12.3999 3.71094 11.9167 3.71094V4.58594ZM11.0417 15.5859C11.0417 16.0692 11.4334 16.4609 11.9167 16.4609C12.3999 16.4609 12.7917 16.0692 12.7917 15.5859H11.0417ZM8.25 14.7109C7.76675 14.7109 7.375 15.1027 7.375 15.5859C7.375 16.0692 7.76675 16.4609 8.25 16.4609V14.7109ZM13.75 16.4609C14.2332 16.4609 14.625 16.0692 14.625 15.5859C14.625 15.1027 14.2332 14.7109 13.75 14.7109V16.4609ZM17.4167 14.7109C16.9334 14.7109 16.5417 15.1027 16.5417 15.5859C16.5417 16.0692 16.9334 16.4609 17.4167 16.4609V14.7109ZM19.25 15.5859V16.4609C19.7332 16.4609 20.125 16.0692 20.125 15.5859H19.25ZM19.25 10.0859H20.125C20.125 9.60269 19.7332 9.21094 19.25 9.21094V10.0859ZM11.9167 9.21094C11.4334 9.21094 11.0417 9.60269 11.0417 10.0859C11.0417 10.5692 11.4334 10.9609 11.9167 10.9609V9.21094ZM11.9167 4.6276C11.4334 4.6276 11.0417 5.01935 11.0417 5.5026C11.0417 5.98585 11.4334 6.3776 11.9167 6.3776V4.6276ZM16.5 5.5026L17.2503 5.05242C17.0922 4.78887 16.8074 4.6276 16.5 4.6276V5.5026ZM18.4997 10.5361C18.7483 10.9505 19.2858 11.0849 19.7002 10.8362C20.1146 10.5876 20.2489 10.0501 20.0003 9.63575L18.4997 10.5361ZM4.58333 14.7109H2.75V16.4609H4.58333V14.7109ZM3.625 15.5859V5.5026H1.875V15.5859H3.625ZM3.625 5.5026C3.625 5.47959 3.64365 5.46094 3.66667 5.46094V3.71094C2.67716 3.71094 1.875 4.51309 1.875 5.5026H3.625ZM3.66667 5.46094H11.9167V3.71094H3.66667V5.46094ZM11.0417 4.58594V15.5859H12.7917V4.58594H11.0417ZM8.25 16.4609H13.75V14.7109H8.25V16.4609ZM17.4167 16.4609H19.25V14.7109H17.4167V16.4609ZM20.125 15.5859V10.0859H18.375V15.5859H20.125ZM19.25 9.21094H11.9167V10.9609H19.25V9.21094ZM11.9167 6.3776H16.5V4.6276H11.9167V6.3776ZM15.7497 5.95279L18.4997 10.5361L20.0003 9.63575L17.2503 5.05242L15.7497 5.95279Z" fill="white" fill-opacity="0.2"/>
</g>
</g>
</svg>
