<svg width="36" height="36" viewBox="0 0 36 36" fill="none" xmlns="http://www.w3.org/2000/svg">
<g id="truck">
<g id="Oval">
<circle cx="10.5" cy="25.5" r="3" stroke="#4B465C" stroke-width="1.75" stroke-linecap="round" stroke-linejoin="round"/>
<circle cx="10.5" cy="25.5" r="3" stroke="white" stroke-opacity="0.2" stroke-width="1.75" stroke-linecap="round" stroke-linejoin="round"/>
</g>
<g id="Oval_2">
<circle cx="25.5" cy="25.5" r="3" stroke="#4B465C" stroke-width="1.75" stroke-linecap="round" stroke-linejoin="round"/>
<circle cx="25.5" cy="25.5" r="3" stroke="white" stroke-opacity="0.2" stroke-width="1.75" stroke-linecap="round" stroke-linejoin="round"/>
</g>
<g id="Shape">
<path d="M7.5 26.375C7.98325 26.375 8.375 25.9832 8.375 25.5C8.375 25.0168 7.98325 24.625 7.5 24.625V26.375ZM4.5 25.5H3.625C3.625 25.9832 4.01675 26.375 4.5 26.375V25.5ZM19.5 7.5H20.375C20.375 7.01675 19.9832 6.625 19.5 6.625V7.5ZM18.625 25.5C18.625 25.9832 19.0168 26.375 19.5 26.375C19.9832 26.375 20.375 25.9832 20.375 25.5H18.625ZM13.5 24.625C13.0168 24.625 12.625 25.0168 12.625 25.5C12.625 25.9832 13.0168 26.375 13.5 26.375V24.625ZM22.5 26.375C22.9832 26.375 23.375 25.9832 23.375 25.5C23.375 25.0168 22.9832 24.625 22.5 24.625V26.375ZM28.5 24.625C28.0168 24.625 27.625 25.0168 27.625 25.5C27.625 25.9832 28.0168 26.375 28.5 26.375V24.625ZM31.5 25.5V26.375C31.9832 26.375 32.375 25.9832 32.375 25.5H31.5ZM31.5 16.5H32.375C32.375 16.0168 31.9832 15.625 31.5 15.625V16.5ZM19.5 15.625C19.0168 15.625 18.625 16.0168 18.625 16.5C18.625 16.9832 19.0168 17.375 19.5 17.375V15.625ZM19.5 8.125C19.0168 8.125 18.625 8.51675 18.625 9C18.625 9.48325 19.0168 9.875 19.5 9.875V8.125ZM27 9L27.7503 8.54982C27.5922 8.28626 27.3074 8.125 27 8.125V9ZM30.7497 16.9502C30.9983 17.3646 31.5358 17.4989 31.9502 17.2503C32.3646 17.0017 32.4989 16.4642 32.2503 16.0498L30.7497 16.9502ZM7.5 24.625H4.5V26.375H7.5V24.625ZM5.375 25.5V9H3.625V25.5H5.375ZM5.375 9C5.375 8.65482 5.65482 8.375 6 8.375V6.625C4.68832 6.625 3.625 7.68832 3.625 9H5.375ZM6 8.375H19.5V6.625H6V8.375ZM18.625 7.5V25.5H20.375V7.5H18.625ZM13.5 26.375H22.5V24.625H13.5V26.375ZM28.5 26.375H31.5V24.625H28.5V26.375ZM32.375 25.5V16.5H30.625V25.5H32.375ZM31.5 15.625H19.5V17.375H31.5V15.625ZM19.5 9.875H27V8.125H19.5V9.875ZM26.2497 9.45018L30.7497 16.9502L32.2503 16.0498L27.7503 8.54982L26.2497 9.45018Z" fill="#4B465C"/>
<path d="M7.5 26.375C7.98325 26.375 8.375 25.9832 8.375 25.5C8.375 25.0168 7.98325 24.625 7.5 24.625V26.375ZM4.5 25.5H3.625C3.625 25.9832 4.01675 26.375 4.5 26.375V25.5ZM19.5 7.5H20.375C20.375 7.01675 19.9832 6.625 19.5 6.625V7.5ZM18.625 25.5C18.625 25.9832 19.0168 26.375 19.5 26.375C19.9832 26.375 20.375 25.9832 20.375 25.5H18.625ZM13.5 24.625C13.0168 24.625 12.625 25.0168 12.625 25.5C12.625 25.9832 13.0168 26.375 13.5 26.375V24.625ZM22.5 26.375C22.9832 26.375 23.375 25.9832 23.375 25.5C23.375 25.0168 22.9832 24.625 22.5 24.625V26.375ZM28.5 24.625C28.0168 24.625 27.625 25.0168 27.625 25.5C27.625 25.9832 28.0168 26.375 28.5 26.375V24.625ZM31.5 25.5V26.375C31.9832 26.375 32.375 25.9832 32.375 25.5H31.5ZM31.5 16.5H32.375C32.375 16.0168 31.9832 15.625 31.5 15.625V16.5ZM19.5 15.625C19.0168 15.625 18.625 16.0168 18.625 16.5C18.625 16.9832 19.0168 17.375 19.5 17.375V15.625ZM19.5 8.125C19.0168 8.125 18.625 8.51675 18.625 9C18.625 9.48325 19.0168 9.875 19.5 9.875V8.125ZM27 9L27.7503 8.54982C27.5922 8.28626 27.3074 8.125 27 8.125V9ZM30.7497 16.9502C30.9983 17.3646 31.5358 17.4989 31.9502 17.2503C32.3646 17.0017 32.4989 16.4642 32.2503 16.0498L30.7497 16.9502ZM7.5 24.625H4.5V26.375H7.5V24.625ZM5.375 25.5V9H3.625V25.5H5.375ZM5.375 9C5.375 8.65482 5.65482 8.375 6 8.375V6.625C4.68832 6.625 3.625 7.68832 3.625 9H5.375ZM6 8.375H19.5V6.625H6V8.375ZM18.625 7.5V25.5H20.375V7.5H18.625ZM13.5 26.375H22.5V24.625H13.5V26.375ZM28.5 26.375H31.5V24.625H28.5V26.375ZM32.375 25.5V16.5H30.625V25.5H32.375ZM31.5 15.625H19.5V17.375H31.5V15.625ZM19.5 9.875H27V8.125H19.5V9.875ZM26.2497 9.45018L30.7497 16.9502L32.2503 16.0498L27.7503 8.54982L26.2497 9.45018Z" fill="white" fill-opacity="0.2"/>
</g>
</g>
</svg>
