<svg width="26" height="26" viewBox="0 0 26 26" fill="none" xmlns="http://www.w3.org/2000/svg">
<rect width="26" height="26" rx="6" fill="white"/>
<circle cx="9.25" cy="16.75" r="1.5" stroke="#FF9F43" stroke-width="1.75" stroke-linecap="round" stroke-linejoin="round"/>
<path d="M15.6889 15.6875C15.3096 16.0661 15.1611 16.6183 15.2993 17.1361C15.4376 17.6539 15.8416 18.0585 16.3591 18.1977C16.8766 18.3369 17.4291 18.1894 17.8084 17.8107" stroke="#FF9F43" stroke-width="1.75" stroke-linecap="round" stroke-linejoin="round"/>
<path d="M7.75 17.625C8.23325 17.625 8.625 17.2332 8.625 16.75C8.625 16.2668 8.23325 15.875 7.75 15.875V17.625ZM6.25 16.75H5.375C5.375 17.2332 5.76675 17.625 6.25 17.625V16.75ZM7.75 8.625C8.23325 8.625 8.625 8.23325 8.625 7.75C8.625 7.26675 8.23325 6.875 7.75 6.875V8.625ZM10.72 6.875C10.2367 6.875 9.84497 7.26675 9.84497 7.75C9.84497 8.23325 10.2367 8.625 10.72 8.625V6.875ZM13.75 7.75H14.625C14.625 7.26675 14.2332 6.875 13.75 6.875V7.75ZM12.875 10.75C12.875 11.2332 13.2667 11.625 13.75 11.625C14.2332 11.625 14.625 11.2332 14.625 10.75H12.875ZM14.625 13.75C14.625 13.2668 14.2332 12.875 13.75 12.875C13.2668 12.875 12.875 13.2668 12.875 13.75H14.625ZM12.875 16.75C12.875 17.2332 13.2668 17.625 13.75 17.625C14.2332 17.625 14.625 17.2332 14.625 16.75H12.875ZM10.75 15.875C10.2668 15.875 9.875 16.2668 9.875 16.75C9.875 17.2332 10.2668 17.625 10.75 17.625V15.875ZM15.25 17.625C15.7332 17.625 16.125 17.2332 16.125 16.75C16.125 16.2668 15.7332 15.875 15.25 15.875V17.625ZM18.875 16.75C18.875 17.2332 19.2668 17.625 19.75 17.625C20.2332 17.625 20.625 17.2332 20.625 16.75H18.875ZM19.75 12.25H20.625C20.625 11.7668 20.2332 11.375 19.75 11.375V12.25ZM15.25 11.375C14.7668 11.375 14.375 11.7668 14.375 12.25C14.375 12.7332 14.7668 13.125 15.25 13.125V11.375ZM13.75 7.625C13.2668 7.625 12.875 8.01675 12.875 8.5C12.875 8.98325 13.2668 9.375 13.75 9.375V7.625ZM17.5 8.5L18.2503 8.04982C18.0922 7.78626 17.8074 7.625 17.5 7.625V8.5ZM18.9997 12.7002C19.2483 13.1146 19.7858 13.2489 20.2002 13.0003C20.6146 12.7517 20.7489 12.2142 20.5003 11.7998L18.9997 12.7002ZM7.75 15.875H6.25V17.625H7.75V15.875ZM7.125 16.75V8.5H5.375V16.75H7.125ZM7.125 8.5C7.125 8.56904 7.06904 8.625 7 8.625V6.875C6.10254 6.875 5.375 7.60254 5.375 8.5H7.125ZM7 8.625H7.75V6.875H7V8.625ZM10.72 8.625H13.75V6.875H10.72V8.625ZM12.875 7.75V10.75H14.625V7.75H12.875ZM12.875 13.75V16.75H14.625V13.75H12.875ZM10.75 17.625H15.25V15.875H10.75V17.625ZM20.625 16.75V12.25H18.875V16.75H20.625ZM19.75 11.375H15.25V13.125H19.75V11.375ZM13.75 9.375H17.5V7.625H13.75V9.375ZM16.7497 8.95018L18.9997 12.7002L20.5003 11.7998L18.2503 8.04982L16.7497 8.95018Z" fill="#FF9F43"/>
<path d="M6.25 6.25L19.75 19.75" stroke="#FF9F43" stroke-width="1.75" stroke-linecap="round" stroke-linejoin="round"/>
</svg>
