<svg width="264" height="70" viewBox="0 0 264 70" fill="none" xmlns="http://www.w3.org/2000/svg">
<rect x="0.5" y="0.5" width="263" height="69" rx="5.5" fill="white"/>
<path d="M17.9088 18.8373C17.4814 19.0296 17.054 19.1756 16.6266 19.2753C16.2063 19.3751 15.8003 19.4249 15.4085 19.4249C14.5323 19.4249 13.8485 19.2148 13.357 18.7945C12.8726 18.3671 12.6304 17.7652 12.6304 16.9888V14.5205H13.4104V16.9033C13.4104 17.4803 13.5921 17.929 13.9553 18.2496C14.3258 18.5701 14.8351 18.7304 15.4833 18.7304C15.8679 18.7304 16.2669 18.6805 16.68 18.5808C17.0932 18.474 17.5027 18.3244 17.9088 18.1321V18.8373ZM17.7699 22V14.5205H18.5392V22H17.7699ZM24.3779 22V20.7605L24.3459 20.5575V18.4847C24.3459 18.0074 24.2105 17.6405 23.9398 17.3841C23.6763 17.1277 23.2809 16.9994 22.7538 16.9994C22.3905 16.9994 22.045 17.06 21.7174 17.1811C21.3897 17.3022 21.1119 17.4625 20.8839 17.6619L20.542 17.0956C20.827 16.8534 21.1689 16.6682 21.5678 16.54C21.9667 16.4047 22.387 16.337 22.8286 16.337C23.5552 16.337 24.1144 16.5186 24.5061 16.8819C24.905 17.2381 25.1045 17.783 25.1045 18.5167V22H24.3779ZM22.4439 22.0534C22.0237 22.0534 21.6568 21.9858 21.3434 21.8504C21.0371 21.7079 20.802 21.5156 20.6382 21.2734C20.4744 21.0241 20.3924 20.7392 20.3924 20.4186C20.3924 20.1266 20.4601 19.863 20.5955 19.6279C20.7379 19.3858 20.9659 19.1934 21.2793 19.051C21.5998 18.9014 22.0272 18.8266 22.5615 18.8266H24.4955V19.3929H22.5829C22.0415 19.3929 21.6639 19.489 21.4502 19.6814C21.2437 19.8737 21.1404 20.1123 21.1404 20.3973C21.1404 20.7178 21.265 20.9742 21.5144 21.1666C21.7637 21.3589 22.1127 21.4551 22.5615 21.4551C22.9889 21.4551 23.3557 21.3589 23.662 21.1666C23.9755 20.9671 24.2034 20.6822 24.3459 20.3118L24.5168 20.8353C24.3744 21.2058 24.125 21.5014 23.7689 21.7222C23.4198 21.943 22.9782 22.0534 22.4439 22.0534ZM29.4747 22.0534C28.9191 22.0534 28.4205 21.9323 27.9788 21.6901C27.5443 21.4408 27.2024 21.1025 26.9531 20.6751C26.7038 20.2405 26.5791 19.7455 26.5791 19.1899C26.5791 18.6271 26.7038 18.1321 26.9531 17.7047C27.2024 17.2773 27.5443 16.9425 27.9788 16.7003C28.4205 16.4581 28.9191 16.337 29.4747 16.337C29.952 16.337 30.3829 16.4296 30.7676 16.6148C31.1523 16.8 31.455 17.0778 31.6758 17.4482L31.1095 17.8329C30.9172 17.5479 30.6786 17.3378 30.3936 17.2025C30.1087 17.0671 29.7988 16.9994 29.464 16.9994C29.0651 16.9994 28.7054 17.092 28.3849 17.2773C28.0643 17.4553 27.8114 17.7082 27.6262 18.0359C27.441 18.3636 27.3484 18.7482 27.3484 19.1899C27.3484 19.6315 27.441 20.0162 27.6262 20.3438C27.8114 20.6715 28.0643 20.9279 28.3849 21.1131C28.7054 21.2912 29.0651 21.3803 29.464 21.3803C29.7988 21.3803 30.1087 21.3126 30.3936 21.1773C30.6786 21.0419 30.9172 20.8353 31.1095 20.5575L31.6758 20.9422C31.455 21.3055 31.1523 21.5833 30.7676 21.7756C30.3829 21.9608 29.952 22.0534 29.4747 22.0534ZM38.8368 22.0534C38.3524 22.0534 37.9144 21.943 37.5226 21.7222C37.1308 21.4942 36.8174 21.1701 36.5823 20.7499C36.3544 20.3225 36.2404 19.8025 36.2404 19.1899C36.2404 18.5773 36.3544 18.0608 36.5823 17.6405C36.8102 17.2131 37.1201 16.889 37.5119 16.6682C37.9037 16.4474 38.3453 16.337 38.8368 16.337C39.3711 16.337 39.8483 16.4581 40.2686 16.7003C40.696 16.9353 41.0308 17.2701 41.273 17.7047C41.5152 18.1321 41.6363 18.6271 41.6363 19.1899C41.6363 19.7597 41.5152 20.2584 41.273 20.6858C41.0308 21.1131 40.696 21.4479 40.2686 21.6901C39.8483 21.9323 39.3711 22.0534 38.8368 22.0534ZM35.9412 24.0729V16.3904H36.6678V18.0786L36.593 19.2005L36.6998 20.3331V24.0729H35.9412ZM38.7834 21.3803C39.1823 21.3803 39.5385 21.2912 39.8519 21.1131C40.1653 20.9279 40.4146 20.6715 40.5998 20.3438C40.785 20.009 40.8776 19.6244 40.8776 19.1899C40.8776 18.7553 40.785 18.3742 40.5998 18.0466C40.4146 17.7189 40.1653 17.4625 39.8519 17.2773C39.5385 17.092 39.1823 16.9994 38.7834 16.9994C38.3845 16.9994 38.0248 17.092 37.7042 17.2773C37.3908 17.4625 37.1415 17.7189 36.9563 18.0466C36.7782 18.3742 36.6891 18.7553 36.6891 19.1899C36.6891 19.6244 36.7782 20.009 36.9563 20.3438C37.1415 20.6715 37.3908 20.9279 37.7042 21.1131C38.0248 21.2912 38.3845 21.3803 38.7834 21.3803ZM46.7182 22V20.7605L46.6862 20.5575V18.4847C46.6862 18.0074 46.5508 17.6405 46.2801 17.3841C46.0166 17.1277 45.6212 16.9994 45.0941 16.9994C44.7308 16.9994 44.3853 17.06 44.0577 17.1811C43.73 17.3022 43.4522 17.4625 43.2242 17.6619L42.8823 17.0956C43.1673 16.8534 43.5092 16.6682 43.9081 16.54C44.307 16.4047 44.7273 16.337 45.1689 16.337C45.8955 16.337 46.4547 16.5186 46.8464 16.8819C47.2453 17.2381 47.4448 17.783 47.4448 18.5167V22H46.7182ZM44.7842 22.0534C44.364 22.0534 43.9971 21.9858 43.6837 21.8504C43.3774 21.7079 43.1423 21.5156 42.9785 21.2734C42.8147 21.0241 42.7327 20.7392 42.7327 20.4186C42.7327 20.1266 42.8004 19.863 42.9357 19.6279C43.0782 19.3858 43.3062 19.1934 43.6196 19.051C43.9401 18.9014 44.3675 18.8266 44.9018 18.8266H46.8358V19.3929H44.9231C44.3818 19.3929 44.0042 19.489 43.7905 19.6814C43.584 19.8737 43.4807 20.1123 43.4807 20.3973C43.4807 20.7178 43.6053 20.9742 43.8547 21.1666C44.104 21.3589 44.453 21.4551 44.9018 21.4551C45.3292 21.4551 45.696 21.3589 46.0023 21.1666C46.3158 20.9671 46.5437 20.6822 46.6862 20.3118L46.8571 20.8353C46.7147 21.2058 46.4653 21.5014 46.1092 21.7222C45.7601 21.943 45.3185 22.0534 44.7842 22.0534ZM49.4643 22V16.3904H50.2336L52.7767 20.6964H52.4561L55.0419 16.3904H55.7471V22H55.0526V17.2559L55.1915 17.32L52.7767 21.3162H52.4347L49.9986 17.2773L50.1589 17.2452V22H49.4643ZM62.0196 22L59.7116 19.2219L60.342 18.8479L62.9171 22H62.0196ZM57.9059 22V16.3904H58.6645V22H57.9059ZM58.4294 19.4997V18.8479H60.2352V19.4997H58.4294ZM60.4061 19.2753L59.7009 19.1685L61.9341 16.3904H62.7568L60.4061 19.2753ZM64.1144 22V16.3904H64.873V20.846L68.6234 16.3904H69.2966V22H68.538V17.5337L64.7982 22H64.1144Z" fill="#4B465C"/>
<path d="M17.9088 18.8373C17.4814 19.0296 17.054 19.1756 16.6266 19.2753C16.2063 19.3751 15.8003 19.4249 15.4085 19.4249C14.5323 19.4249 13.8485 19.2148 13.357 18.7945C12.8726 18.3671 12.6304 17.7652 12.6304 16.9888V14.5205H13.4104V16.9033C13.4104 17.4803 13.5921 17.929 13.9553 18.2496C14.3258 18.5701 14.8351 18.7304 15.4833 18.7304C15.8679 18.7304 16.2669 18.6805 16.68 18.5808C17.0932 18.474 17.5027 18.3244 17.9088 18.1321V18.8373ZM17.7699 22V14.5205H18.5392V22H17.7699ZM24.3779 22V20.7605L24.3459 20.5575V18.4847C24.3459 18.0074 24.2105 17.6405 23.9398 17.3841C23.6763 17.1277 23.2809 16.9994 22.7538 16.9994C22.3905 16.9994 22.045 17.06 21.7174 17.1811C21.3897 17.3022 21.1119 17.4625 20.8839 17.6619L20.542 17.0956C20.827 16.8534 21.1689 16.6682 21.5678 16.54C21.9667 16.4047 22.387 16.337 22.8286 16.337C23.5552 16.337 24.1144 16.5186 24.5061 16.8819C24.905 17.2381 25.1045 17.783 25.1045 18.5167V22H24.3779ZM22.4439 22.0534C22.0237 22.0534 21.6568 21.9858 21.3434 21.8504C21.0371 21.7079 20.802 21.5156 20.6382 21.2734C20.4744 21.0241 20.3924 20.7392 20.3924 20.4186C20.3924 20.1266 20.4601 19.863 20.5955 19.6279C20.7379 19.3858 20.9659 19.1934 21.2793 19.051C21.5998 18.9014 22.0272 18.8266 22.5615 18.8266H24.4955V19.3929H22.5829C22.0415 19.3929 21.6639 19.489 21.4502 19.6814C21.2437 19.8737 21.1404 20.1123 21.1404 20.3973C21.1404 20.7178 21.265 20.9742 21.5144 21.1666C21.7637 21.3589 22.1127 21.4551 22.5615 21.4551C22.9889 21.4551 23.3557 21.3589 23.662 21.1666C23.9755 20.9671 24.2034 20.6822 24.3459 20.3118L24.5168 20.8353C24.3744 21.2058 24.125 21.5014 23.7689 21.7222C23.4198 21.943 22.9782 22.0534 22.4439 22.0534ZM29.4747 22.0534C28.9191 22.0534 28.4205 21.9323 27.9788 21.6901C27.5443 21.4408 27.2024 21.1025 26.9531 20.6751C26.7038 20.2405 26.5791 19.7455 26.5791 19.1899C26.5791 18.6271 26.7038 18.1321 26.9531 17.7047C27.2024 17.2773 27.5443 16.9425 27.9788 16.7003C28.4205 16.4581 28.9191 16.337 29.4747 16.337C29.952 16.337 30.3829 16.4296 30.7676 16.6148C31.1523 16.8 31.455 17.0778 31.6758 17.4482L31.1095 17.8329C30.9172 17.5479 30.6786 17.3378 30.3936 17.2025C30.1087 17.0671 29.7988 16.9994 29.464 16.9994C29.0651 16.9994 28.7054 17.092 28.3849 17.2773C28.0643 17.4553 27.8114 17.7082 27.6262 18.0359C27.441 18.3636 27.3484 18.7482 27.3484 19.1899C27.3484 19.6315 27.441 20.0162 27.6262 20.3438C27.8114 20.6715 28.0643 20.9279 28.3849 21.1131C28.7054 21.2912 29.0651 21.3803 29.464 21.3803C29.7988 21.3803 30.1087 21.3126 30.3936 21.1773C30.6786 21.0419 30.9172 20.8353 31.1095 20.5575L31.6758 20.9422C31.455 21.3055 31.1523 21.5833 30.7676 21.7756C30.3829 21.9608 29.952 22.0534 29.4747 22.0534ZM38.8368 22.0534C38.3524 22.0534 37.9144 21.943 37.5226 21.7222C37.1308 21.4942 36.8174 21.1701 36.5823 20.7499C36.3544 20.3225 36.2404 19.8025 36.2404 19.1899C36.2404 18.5773 36.3544 18.0608 36.5823 17.6405C36.8102 17.2131 37.1201 16.889 37.5119 16.6682C37.9037 16.4474 38.3453 16.337 38.8368 16.337C39.3711 16.337 39.8483 16.4581 40.2686 16.7003C40.696 16.9353 41.0308 17.2701 41.273 17.7047C41.5152 18.1321 41.6363 18.6271 41.6363 19.1899C41.6363 19.7597 41.5152 20.2584 41.273 20.6858C41.0308 21.1131 40.696 21.4479 40.2686 21.6901C39.8483 21.9323 39.3711 22.0534 38.8368 22.0534ZM35.9412 24.0729V16.3904H36.6678V18.0786L36.593 19.2005L36.6998 20.3331V24.0729H35.9412ZM38.7834 21.3803C39.1823 21.3803 39.5385 21.2912 39.8519 21.1131C40.1653 20.9279 40.4146 20.6715 40.5998 20.3438C40.785 20.009 40.8776 19.6244 40.8776 19.1899C40.8776 18.7553 40.785 18.3742 40.5998 18.0466C40.4146 17.7189 40.1653 17.4625 39.8519 17.2773C39.5385 17.092 39.1823 16.9994 38.7834 16.9994C38.3845 16.9994 38.0248 17.092 37.7042 17.2773C37.3908 17.4625 37.1415 17.7189 36.9563 18.0466C36.7782 18.3742 36.6891 18.7553 36.6891 19.1899C36.6891 19.6244 36.7782 20.009 36.9563 20.3438C37.1415 20.6715 37.3908 20.9279 37.7042 21.1131C38.0248 21.2912 38.3845 21.3803 38.7834 21.3803ZM46.7182 22V20.7605L46.6862 20.5575V18.4847C46.6862 18.0074 46.5508 17.6405 46.2801 17.3841C46.0166 17.1277 45.6212 16.9994 45.0941 16.9994C44.7308 16.9994 44.3853 17.06 44.0577 17.1811C43.73 17.3022 43.4522 17.4625 43.2242 17.6619L42.8823 17.0956C43.1673 16.8534 43.5092 16.6682 43.9081 16.54C44.307 16.4047 44.7273 16.337 45.1689 16.337C45.8955 16.337 46.4547 16.5186 46.8464 16.8819C47.2453 17.2381 47.4448 17.783 47.4448 18.5167V22H46.7182ZM44.7842 22.0534C44.364 22.0534 43.9971 21.9858 43.6837 21.8504C43.3774 21.7079 43.1423 21.5156 42.9785 21.2734C42.8147 21.0241 42.7327 20.7392 42.7327 20.4186C42.7327 20.1266 42.8004 19.863 42.9357 19.6279C43.0782 19.3858 43.3062 19.1934 43.6196 19.051C43.9401 18.9014 44.3675 18.8266 44.9018 18.8266H46.8358V19.3929H44.9231C44.3818 19.3929 44.0042 19.489 43.7905 19.6814C43.584 19.8737 43.4807 20.1123 43.4807 20.3973C43.4807 20.7178 43.6053 20.9742 43.8547 21.1666C44.104 21.3589 44.453 21.4551 44.9018 21.4551C45.3292 21.4551 45.696 21.3589 46.0023 21.1666C46.3158 20.9671 46.5437 20.6822 46.6862 20.3118L46.8571 20.8353C46.7147 21.2058 46.4653 21.5014 46.1092 21.7222C45.7601 21.943 45.3185 22.0534 44.7842 22.0534ZM49.4643 22V16.3904H50.2336L52.7767 20.6964H52.4561L55.0419 16.3904H55.7471V22H55.0526V17.2559L55.1915 17.32L52.7767 21.3162H52.4347L49.9986 17.2773L50.1589 17.2452V22H49.4643ZM62.0196 22L59.7116 19.2219L60.342 18.8479L62.9171 22H62.0196ZM57.9059 22V16.3904H58.6645V22H57.9059ZM58.4294 19.4997V18.8479H60.2352V19.4997H58.4294ZM60.4061 19.2753L59.7009 19.1685L61.9341 16.3904H62.7568L60.4061 19.2753ZM64.1144 22V16.3904H64.873V20.846L68.6234 16.3904H69.2966V22H68.538V17.5337L64.7982 22H64.1144Z" fill="white" fill-opacity="0.1"/>
<g clip-path="url(#clip0_1018_62919)">
<rect x="12" y="28.2891" width="118.356" height="28.7672" rx="3.28767" fill="white"/>
<path d="M21.4801 46.043V38.5635H24.5894C25.3801 38.5635 25.9998 38.7273 26.4486 39.055C26.9045 39.3756 27.1324 39.8493 27.1324 40.4761C27.1324 41.0958 26.9151 41.566 26.4806 41.8865C26.0461 42.2 25.4762 42.3567 24.771 42.3567L24.9527 42.0895C25.7861 42.0895 26.4201 42.2534 26.8546 42.581C27.2891 42.9087 27.5064 43.3895 27.5064 44.0235C27.5064 44.6646 27.2784 45.1632 26.8225 45.5194C26.3738 45.8684 25.6971 46.043 24.7924 46.043H21.4801ZM22.2601 45.4126H24.7924C25.4264 45.4126 25.9072 45.295 26.2349 45.06C26.5625 44.8249 26.7264 44.4616 26.7264 43.9701C26.7264 43.4857 26.5625 43.1295 26.2349 42.9016C25.9072 42.6737 25.4264 42.5597 24.7924 42.5597H22.2601V45.4126ZM22.2601 41.9506H24.5466C25.1236 41.9506 25.5653 41.8367 25.8716 41.6087C26.185 41.3736 26.3417 41.0282 26.3417 40.5723C26.3417 40.1164 26.185 39.7745 25.8716 39.5465C25.5653 39.3115 25.1236 39.1939 24.5466 39.1939H22.2601V41.9506ZM29.3017 46.043V40.4334H30.0603V46.043H29.3017ZM29.6863 39.1939C29.5296 39.1939 29.3979 39.1405 29.291 39.0336C29.1842 38.9268 29.1307 38.7986 29.1307 38.649C29.1307 38.4994 29.1842 38.3747 29.291 38.275C29.3979 38.1682 29.5296 38.1147 29.6863 38.1147C29.8431 38.1147 29.9748 38.1646 30.0817 38.2643C30.1885 38.3641 30.242 38.4887 30.242 38.6383C30.242 38.795 30.1885 38.9268 30.0817 39.0336C29.982 39.1405 29.8502 39.1939 29.6863 39.1939ZM36.0699 45.6797V41.0958H33.3666L33.3025 42.346C33.2883 42.7235 33.2634 43.0939 33.2277 43.4572C33.1992 43.8205 33.1458 44.1553 33.0675 44.4616C32.9962 44.7608 32.8929 45.0065 32.7576 45.1989C32.6223 45.3841 32.4477 45.4909 32.234 45.5194L31.4754 45.3805C31.6962 45.3876 31.8779 45.3093 32.0203 45.1454C32.1628 44.9745 32.2732 44.743 32.3516 44.4509C32.4299 44.1589 32.4869 43.8276 32.5225 43.4572C32.5581 43.0797 32.5866 42.695 32.608 42.3032L32.6828 40.4334H36.8286V45.6797H36.0699ZM31.2403 47.4V45.3805H37.7047V47.4H36.9888V46.043H31.9562V47.4H31.2403ZM42.7596 46.043V38.8841L43.1015 39.2473H40.9966V38.5635H43.5289V46.043H42.7596ZM46.6204 46.043V38.8841L46.9623 39.2473H44.8574V38.5635H47.3897V46.043H46.6204ZM49.7546 41.5446C49.5979 41.5446 49.4625 41.4876 49.3486 41.3736C49.2417 41.2597 49.1883 41.1208 49.1883 40.9569C49.1883 40.786 49.2417 40.6471 49.3486 40.5402C49.4625 40.4334 49.5979 40.3799 49.7546 40.3799C49.9113 40.3799 50.0431 40.4334 50.1499 40.5402C50.2639 40.6471 50.3209 40.786 50.3209 40.9569C50.3209 41.1208 50.2639 41.2597 50.1499 41.3736C50.0431 41.4876 49.9113 41.5446 49.7546 41.5446ZM49.7546 46.0964C49.5979 46.0964 49.4625 46.0394 49.3486 45.9254C49.2417 45.8115 49.1883 45.6726 49.1883 45.5087C49.1883 45.3378 49.2417 45.1989 49.3486 45.092C49.4625 44.9852 49.5979 44.9317 49.7546 44.9317C49.9113 44.9317 50.0431 44.9852 50.1499 45.092C50.2639 45.1989 50.3209 45.3378 50.3209 45.5087C50.3209 45.6726 50.2639 45.8115 50.1499 45.9254C50.0431 46.0394 49.9113 46.0964 49.7546 46.0964ZM52.7455 46.043V38.8841L53.0874 39.2473H50.9824V38.5635H53.5148V46.043H52.7455ZM56.6062 46.043V38.8841L56.9481 39.2473H54.8432V38.5635H57.3755V46.043H56.6062Z" fill="#4B465C"/>
<path d="M21.4801 46.043V38.5635H24.5894C25.3801 38.5635 25.9998 38.7273 26.4486 39.055C26.9045 39.3756 27.1324 39.8493 27.1324 40.4761C27.1324 41.0958 26.9151 41.566 26.4806 41.8865C26.0461 42.2 25.4762 42.3567 24.771 42.3567L24.9527 42.0895C25.7861 42.0895 26.4201 42.2534 26.8546 42.581C27.2891 42.9087 27.5064 43.3895 27.5064 44.0235C27.5064 44.6646 27.2784 45.1632 26.8225 45.5194C26.3738 45.8684 25.6971 46.043 24.7924 46.043H21.4801ZM22.2601 45.4126H24.7924C25.4264 45.4126 25.9072 45.295 26.2349 45.06C26.5625 44.8249 26.7264 44.4616 26.7264 43.9701C26.7264 43.4857 26.5625 43.1295 26.2349 42.9016C25.9072 42.6737 25.4264 42.5597 24.7924 42.5597H22.2601V45.4126ZM22.2601 41.9506H24.5466C25.1236 41.9506 25.5653 41.8367 25.8716 41.6087C26.185 41.3736 26.3417 41.0282 26.3417 40.5723C26.3417 40.1164 26.185 39.7745 25.8716 39.5465C25.5653 39.3115 25.1236 39.1939 24.5466 39.1939H22.2601V41.9506ZM29.3017 46.043V40.4334H30.0603V46.043H29.3017ZM29.6863 39.1939C29.5296 39.1939 29.3979 39.1405 29.291 39.0336C29.1842 38.9268 29.1307 38.7986 29.1307 38.649C29.1307 38.4994 29.1842 38.3747 29.291 38.275C29.3979 38.1682 29.5296 38.1147 29.6863 38.1147C29.8431 38.1147 29.9748 38.1646 30.0817 38.2643C30.1885 38.3641 30.242 38.4887 30.242 38.6383C30.242 38.795 30.1885 38.9268 30.0817 39.0336C29.982 39.1405 29.8502 39.1939 29.6863 39.1939ZM36.0699 45.6797V41.0958H33.3666L33.3025 42.346C33.2883 42.7235 33.2634 43.0939 33.2277 43.4572C33.1992 43.8205 33.1458 44.1553 33.0675 44.4616C32.9962 44.7608 32.8929 45.0065 32.7576 45.1989C32.6223 45.3841 32.4477 45.4909 32.234 45.5194L31.4754 45.3805C31.6962 45.3876 31.8779 45.3093 32.0203 45.1454C32.1628 44.9745 32.2732 44.743 32.3516 44.4509C32.4299 44.1589 32.4869 43.8276 32.5225 43.4572C32.5581 43.0797 32.5866 42.695 32.608 42.3032L32.6828 40.4334H36.8286V45.6797H36.0699ZM31.2403 47.4V45.3805H37.7047V47.4H36.9888V46.043H31.9562V47.4H31.2403ZM42.7596 46.043V38.8841L43.1015 39.2473H40.9966V38.5635H43.5289V46.043H42.7596ZM46.6204 46.043V38.8841L46.9623 39.2473H44.8574V38.5635H47.3897V46.043H46.6204ZM49.7546 41.5446C49.5979 41.5446 49.4625 41.4876 49.3486 41.3736C49.2417 41.2597 49.1883 41.1208 49.1883 40.9569C49.1883 40.786 49.2417 40.6471 49.3486 40.5402C49.4625 40.4334 49.5979 40.3799 49.7546 40.3799C49.9113 40.3799 50.0431 40.4334 50.1499 40.5402C50.2639 40.6471 50.3209 40.786 50.3209 40.9569C50.3209 41.1208 50.2639 41.2597 50.1499 41.3736C50.0431 41.4876 49.9113 41.5446 49.7546 41.5446ZM49.7546 46.0964C49.5979 46.0964 49.4625 46.0394 49.3486 45.9254C49.2417 45.8115 49.1883 45.6726 49.1883 45.5087C49.1883 45.3378 49.2417 45.1989 49.3486 45.092C49.4625 44.9852 49.5979 44.9317 49.7546 44.9317C49.9113 44.9317 50.0431 44.9852 50.1499 45.092C50.2639 45.1989 50.3209 45.3378 50.3209 45.5087C50.3209 45.6726 50.2639 45.8115 50.1499 45.9254C50.0431 46.0394 49.9113 46.0964 49.7546 46.0964ZM52.7455 46.043V38.8841L53.0874 39.2473H50.9824V38.5635H53.5148V46.043H52.7455ZM56.6062 46.043V38.8841L56.9481 39.2473H54.8432V38.5635H57.3755V46.043H56.6062Z" fill="white" fill-opacity="0.2"/>
</g>
<rect x="12.411" y="28.7" width="117.534" height="27.9452" rx="2.87672" stroke="#DBDADE" stroke-width="0.821919"/>
<g clip-path="url(#clip1_1018_62919)">
<rect x="133.644" y="28.2891" width="118.356" height="28.7672" rx="3.28767" fill="white"/>
<path d="M148.093 45.669V39.2473H144.513L144.449 41.0638C144.428 41.6265 144.392 42.1679 144.342 42.6879C144.299 43.2008 144.228 43.6638 144.128 44.0769C144.036 44.483 143.908 44.8142 143.744 45.0706C143.587 45.3271 143.381 45.4767 143.124 45.5194L142.259 45.3591C142.544 45.3734 142.779 45.2701 142.964 45.0493C143.156 44.8284 143.302 44.5186 143.402 44.1197C143.509 43.7208 143.587 43.2542 143.637 42.72C143.687 42.1857 143.722 41.6087 143.744 40.989L143.829 38.5635H148.873V45.669H148.093ZM141.981 47.7205L141.992 45.3591H149.995V47.7205H149.257V46.043H142.729L142.718 47.7205H141.981ZM153.577 46.0964C153.036 46.0964 152.548 45.9753 152.113 45.7331C151.686 45.4838 151.348 45.1454 151.098 44.718C150.849 44.2835 150.724 43.7884 150.724 43.2328C150.724 42.6701 150.849 42.175 151.098 41.7476C151.348 41.3202 151.686 40.9854 152.113 40.7432C152.541 40.501 153.029 40.3799 153.577 40.3799C154.133 40.3799 154.624 40.501 155.052 40.7432C155.486 40.9854 155.825 41.3202 156.067 41.7476C156.316 42.175 156.441 42.6701 156.441 43.2328C156.441 43.7884 156.316 44.2835 156.067 44.718C155.825 45.1454 155.486 45.4838 155.052 45.7331C154.617 45.9753 154.126 46.0964 153.577 46.0964ZM153.577 45.4232C153.983 45.4232 154.343 45.3342 154.656 45.1561C154.97 44.9709 155.216 44.7145 155.394 44.3868C155.579 44.052 155.671 43.6673 155.671 43.2328C155.671 42.7912 155.579 42.4065 155.394 42.0789C155.216 41.7512 154.97 41.4983 154.656 41.3202C154.343 41.135 153.987 41.0424 153.588 41.0424C153.189 41.0424 152.833 41.135 152.519 41.3202C152.206 41.4983 151.957 41.7512 151.771 42.0789C151.586 42.4065 151.494 42.7912 151.494 43.2328C151.494 43.6673 151.586 44.052 151.771 44.3868C151.957 44.7145 152.206 44.9709 152.519 45.1561C152.833 45.3342 153.185 45.4232 153.577 45.4232ZM161.639 46.043V38.8841L161.98 39.2473H159.876V38.5635H162.408V46.043H161.639ZM164.057 46.043V45.498L167.166 42.4528C167.451 42.175 167.665 41.9328 167.807 41.7263C167.95 41.5126 168.046 41.3131 168.096 41.1279C168.146 40.9427 168.171 40.7682 168.171 40.6043C168.171 40.1698 168.021 39.8279 167.722 39.5786C167.43 39.3293 166.995 39.2046 166.418 39.2046C165.977 39.2046 165.585 39.2723 165.243 39.4076C164.908 39.543 164.62 39.7531 164.377 40.038L163.832 39.5679C164.124 39.226 164.498 38.9624 164.954 38.7772C165.41 38.592 165.92 38.4994 166.482 38.4994C166.988 38.4994 167.426 38.5813 167.797 38.7452C168.167 38.9019 168.452 39.1334 168.651 39.4397C168.858 39.746 168.961 40.1057 168.961 40.5189C168.961 40.761 168.926 40.9997 168.854 41.2347C168.79 41.4698 168.669 41.7191 168.491 41.9827C168.32 42.2391 168.067 42.5312 167.732 42.8589L164.88 45.6583L164.666 45.3591H169.303V46.043H164.057ZM170.846 41.5446C170.689 41.5446 170.554 41.4876 170.44 41.3736C170.333 41.2597 170.279 41.1208 170.279 40.9569C170.279 40.786 170.333 40.6471 170.44 40.5402C170.554 40.4334 170.689 40.3799 170.846 40.3799C171.002 40.3799 171.134 40.4334 171.241 40.5402C171.355 40.6471 171.412 40.786 171.412 40.9569C171.412 41.1208 171.355 41.2597 171.241 41.3736C171.134 41.4876 171.002 41.5446 170.846 41.5446ZM170.846 46.0964C170.689 46.0964 170.554 46.0394 170.44 45.9254C170.333 45.8115 170.279 45.6726 170.279 45.5087C170.279 45.3378 170.333 45.1989 170.44 45.092C170.554 44.9852 170.689 44.9317 170.846 44.9317C171.002 44.9317 171.134 44.9852 171.241 45.092C171.355 45.1989 171.412 45.3378 171.412 45.5087C171.412 45.6726 171.355 45.8115 171.241 45.9254C171.134 46.0394 171.002 46.0964 170.846 46.0964ZM173.836 46.043V38.8841L174.178 39.2473H172.073V38.5635H174.606V46.043H173.836ZM177.697 46.043V38.8841L178.039 39.2473H175.934V38.5635H178.467V46.043H177.697Z" fill="#4B465C"/>
<path d="M148.093 45.669V39.2473H144.513L144.449 41.0638C144.428 41.6265 144.392 42.1679 144.342 42.6879C144.299 43.2008 144.228 43.6638 144.128 44.0769C144.036 44.483 143.908 44.8142 143.744 45.0706C143.587 45.3271 143.381 45.4767 143.124 45.5194L142.259 45.3591C142.544 45.3734 142.779 45.2701 142.964 45.0493C143.156 44.8284 143.302 44.5186 143.402 44.1197C143.509 43.7208 143.587 43.2542 143.637 42.72C143.687 42.1857 143.722 41.6087 143.744 40.989L143.829 38.5635H148.873V45.669H148.093ZM141.981 47.7205L141.992 45.3591H149.995V47.7205H149.257V46.043H142.729L142.718 47.7205H141.981ZM153.577 46.0964C153.036 46.0964 152.548 45.9753 152.113 45.7331C151.686 45.4838 151.348 45.1454 151.098 44.718C150.849 44.2835 150.724 43.7884 150.724 43.2328C150.724 42.6701 150.849 42.175 151.098 41.7476C151.348 41.3202 151.686 40.9854 152.113 40.7432C152.541 40.501 153.029 40.3799 153.577 40.3799C154.133 40.3799 154.624 40.501 155.052 40.7432C155.486 40.9854 155.825 41.3202 156.067 41.7476C156.316 42.175 156.441 42.6701 156.441 43.2328C156.441 43.7884 156.316 44.2835 156.067 44.718C155.825 45.1454 155.486 45.4838 155.052 45.7331C154.617 45.9753 154.126 46.0964 153.577 46.0964ZM153.577 45.4232C153.983 45.4232 154.343 45.3342 154.656 45.1561C154.97 44.9709 155.216 44.7145 155.394 44.3868C155.579 44.052 155.671 43.6673 155.671 43.2328C155.671 42.7912 155.579 42.4065 155.394 42.0789C155.216 41.7512 154.97 41.4983 154.656 41.3202C154.343 41.135 153.987 41.0424 153.588 41.0424C153.189 41.0424 152.833 41.135 152.519 41.3202C152.206 41.4983 151.957 41.7512 151.771 42.0789C151.586 42.4065 151.494 42.7912 151.494 43.2328C151.494 43.6673 151.586 44.052 151.771 44.3868C151.957 44.7145 152.206 44.9709 152.519 45.1561C152.833 45.3342 153.185 45.4232 153.577 45.4232ZM161.639 46.043V38.8841L161.98 39.2473H159.876V38.5635H162.408V46.043H161.639ZM164.057 46.043V45.498L167.166 42.4528C167.451 42.175 167.665 41.9328 167.807 41.7263C167.95 41.5126 168.046 41.3131 168.096 41.1279C168.146 40.9427 168.171 40.7682 168.171 40.6043C168.171 40.1698 168.021 39.8279 167.722 39.5786C167.43 39.3293 166.995 39.2046 166.418 39.2046C165.977 39.2046 165.585 39.2723 165.243 39.4076C164.908 39.543 164.62 39.7531 164.377 40.038L163.832 39.5679C164.124 39.226 164.498 38.9624 164.954 38.7772C165.41 38.592 165.92 38.4994 166.482 38.4994C166.988 38.4994 167.426 38.5813 167.797 38.7452C168.167 38.9019 168.452 39.1334 168.651 39.4397C168.858 39.746 168.961 40.1057 168.961 40.5189C168.961 40.761 168.926 40.9997 168.854 41.2347C168.79 41.4698 168.669 41.7191 168.491 41.9827C168.32 42.2391 168.067 42.5312 167.732 42.8589L164.88 45.6583L164.666 45.3591H169.303V46.043H164.057ZM170.846 41.5446C170.689 41.5446 170.554 41.4876 170.44 41.3736C170.333 41.2597 170.279 41.1208 170.279 40.9569C170.279 40.786 170.333 40.6471 170.44 40.5402C170.554 40.4334 170.689 40.3799 170.846 40.3799C171.002 40.3799 171.134 40.4334 171.241 40.5402C171.355 40.6471 171.412 40.786 171.412 40.9569C171.412 41.1208 171.355 41.2597 171.241 41.3736C171.134 41.4876 171.002 41.5446 170.846 41.5446ZM170.846 46.0964C170.689 46.0964 170.554 46.0394 170.44 45.9254C170.333 45.8115 170.279 45.6726 170.279 45.5087C170.279 45.3378 170.333 45.1989 170.44 45.092C170.554 44.9852 170.689 44.9317 170.846 44.9317C171.002 44.9317 171.134 44.9852 171.241 45.092C171.355 45.1989 171.412 45.3378 171.412 45.5087C171.412 45.6726 171.355 45.8115 171.241 45.9254C171.134 46.0394 171.002 46.0964 170.846 46.0964ZM173.836 46.043V38.8841L174.178 39.2473H172.073V38.5635H174.606V46.043H173.836ZM177.697 46.043V38.8841L178.039 39.2473H175.934V38.5635H178.467V46.043H177.697Z" fill="white" fill-opacity="0.2"/>
</g>
<rect x="134.055" y="28.7" width="117.534" height="27.9452" rx="2.87672" stroke="#DBDADE" stroke-width="0.821919"/>
<rect x="0.5" y="0.5" width="263" height="69" rx="5.5" stroke="#DBDADE"/>
<defs>
<clipPath id="clip0_1018_62919">
<rect x="12" y="28.2891" width="118.356" height="28.7672" rx="3.28767" fill="white"/>
</clipPath>
<clipPath id="clip1_1018_62919">
<rect x="133.644" y="28.2891" width="118.356" height="28.7672" rx="3.28767" fill="white"/>
</clipPath>
</defs>
</svg>
