<svg width="264" height="70" viewBox="0 0 264 70" fill="none" xmlns="http://www.w3.org/2000/svg">
<rect x="0.5" y="0.5" width="263" height="69" rx="5.5" fill="white"/>
<path d="M18.7315 14.5205H19.5115V22H18.7315V14.5205ZM14.0515 22H13.2608V14.5205H14.0515V22ZM18.8063 18.5488H13.966V17.8542H18.8063V18.5488ZM25.3379 22V20.7605L25.3058 20.5575V18.4847C25.3058 18.0074 25.1705 17.6405 24.8998 17.3841C24.6363 17.1277 24.2409 16.9994 23.7138 16.9994C23.3505 16.9994 23.005 17.06 22.6773 17.1811C22.3497 17.3022 22.0719 17.4625 21.8439 17.6619L21.502 17.0956C21.7869 16.8534 22.1289 16.6682 22.5278 16.54C22.9267 16.4047 23.3469 16.337 23.7886 16.337C24.5152 16.337 25.0743 16.5186 25.4661 16.8819C25.865 17.2381 26.0645 17.783 26.0645 18.5167V22H25.3379ZM23.4039 22.0534C22.9836 22.0534 22.6168 21.9858 22.3034 21.8504C21.9971 21.7079 21.762 21.5156 21.5982 21.2734C21.4343 21.0241 21.3524 20.7392 21.3524 20.4186C21.3524 20.1266 21.4201 19.863 21.5554 19.6279C21.6979 19.3858 21.9258 19.1934 22.2393 19.051C22.5598 18.9014 22.9872 18.8266 23.5215 18.8266H25.4554V19.3929H23.5428C23.0015 19.3929 22.6239 19.489 22.4102 19.6814C22.2036 19.8737 22.1004 20.1123 22.1004 20.3973C22.1004 20.7178 22.225 20.9742 22.4743 21.1666C22.7236 21.3589 23.0727 21.4551 23.5215 21.4551C23.9489 21.4551 24.3157 21.3589 24.622 21.1666C24.9354 20.9671 25.1634 20.6822 25.3058 20.3118L25.4768 20.8353C25.3343 21.2058 25.085 21.5014 24.7289 21.7222C24.3798 21.943 23.9382 22.0534 23.4039 22.0534ZM29.4758 22.0641C29.0698 22.0641 28.6673 22.0071 28.2684 21.8932C27.8695 21.7792 27.5169 21.6047 27.2106 21.3696L27.4564 20.8033C27.727 21.0027 28.0405 21.1559 28.3966 21.2627C28.7528 21.3625 29.1054 21.4123 29.4544 21.4123C29.8035 21.4052 30.1062 21.3553 30.3627 21.2627C30.6191 21.1701 30.8186 21.0419 30.961 20.8781C31.1035 20.7142 31.1747 20.529 31.1747 20.3225C31.1747 20.0233 31.0394 19.7918 30.7687 19.6279C30.498 19.457 30.1276 19.3715 29.6575 19.3715H28.6958V18.8159H29.604C29.8818 18.8159 30.1276 18.7803 30.3413 18.709C30.555 18.6378 30.7188 18.5345 30.8328 18.3992C30.9539 18.2638 31.0144 18.1036 31.0144 17.9184C31.0144 17.7189 30.9432 17.5479 30.8007 17.4055C30.6654 17.263 30.4766 17.1562 30.2344 17.0849C29.9922 17.0137 29.718 16.9781 29.4117 16.9781C29.1339 16.9852 28.8454 17.0279 28.5462 17.1063C28.247 17.1775 27.9514 17.2879 27.6594 17.4375L27.4457 16.8499C27.7733 16.6789 28.0975 16.5507 28.418 16.4652C28.7457 16.3726 29.0733 16.3263 29.401 16.3263C29.8498 16.312 30.2522 16.3655 30.6084 16.4866C30.9717 16.6077 31.2602 16.7822 31.4739 17.0101C31.6876 17.231 31.7944 17.4981 31.7944 17.8115C31.7944 18.0893 31.709 18.3315 31.538 18.5381C31.367 18.7447 31.1391 18.9049 30.8542 19.0189C30.5692 19.1329 30.2451 19.1899 29.8818 19.1899L29.9139 18.9868C30.555 18.9868 31.0536 19.1115 31.4098 19.3608C31.7731 19.6101 31.9547 19.9485 31.9547 20.3759C31.9547 20.7107 31.8443 21.0063 31.6235 21.2627C31.4027 21.5121 31.1035 21.7079 30.7259 21.8504C30.3555 21.9929 29.9388 22.0641 29.4758 22.0641ZM33.6769 22V16.3904H36.1558C36.7898 16.3904 37.2884 16.5115 37.6517 16.7537C38.0221 16.9959 38.2073 17.352 38.2073 17.8222C38.2073 18.2781 38.0328 18.6307 37.6838 18.88C37.3347 19.1222 36.8753 19.2433 36.3054 19.2433L36.455 19.0189C37.1246 19.0189 37.6161 19.1436 37.9295 19.3929C38.2429 19.6422 38.3997 20.0019 38.3997 20.4721C38.3997 20.9564 38.2216 21.334 37.8654 21.6047C37.5164 21.8682 36.9714 22 36.2306 22H33.6769ZM34.4142 21.4016H36.1986C36.6758 21.4016 37.0355 21.3268 37.2777 21.1773C37.5271 21.0205 37.6517 20.7712 37.6517 20.4293C37.6517 20.0874 37.5413 19.8381 37.3205 19.6814C37.0997 19.5247 36.7506 19.4463 36.2734 19.4463H34.4142V21.4016ZM34.4142 18.88H36.1024C36.5369 18.88 36.8681 18.7981 37.0961 18.6342C37.3312 18.4704 37.4487 18.2318 37.4487 17.9184C37.4487 17.6049 37.3312 17.3699 37.0961 17.2131C36.8681 17.0564 36.5369 16.9781 36.1024 16.9781H34.4142V18.88ZM43.6609 22V20.7605L43.6289 20.5575V18.4847C43.6289 18.0074 43.4935 17.6405 43.2228 17.3841C42.9593 17.1277 42.5639 16.9994 42.0368 16.9994C41.6735 16.9994 41.328 17.06 41.0004 17.1811C40.6727 17.3022 40.3949 17.4625 40.1669 17.6619L39.825 17.0956C40.1099 16.8534 40.4519 16.6682 40.8508 16.54C41.2497 16.4047 41.6699 16.337 42.1116 16.337C42.8382 16.337 43.3973 16.5186 43.7891 16.8819C44.188 17.2381 44.3875 17.783 44.3875 18.5167V22H43.6609ZM41.7269 22.0534C41.3067 22.0534 40.9398 21.9858 40.6264 21.8504C40.3201 21.7079 40.085 21.5156 39.9212 21.2734C39.7573 21.0241 39.6754 20.7392 39.6754 20.4186C39.6754 20.1266 39.7431 19.863 39.8784 19.6279C40.0209 19.3858 40.2488 19.1934 40.5623 19.051C40.8828 18.9014 41.3102 18.8266 41.8445 18.8266H43.7784V19.3929H41.8658C41.3245 19.3929 40.9469 19.489 40.7332 19.6814C40.5267 19.8737 40.4234 20.1123 40.4234 20.3973C40.4234 20.7178 40.548 20.9742 40.7973 21.1666C41.0467 21.3589 41.3957 21.4551 41.8445 21.4551C42.2719 21.4551 42.6387 21.3589 42.945 21.1666C43.2584 20.9671 43.4864 20.6822 43.6289 20.3118L43.7998 20.8353C43.6573 21.2058 43.408 21.5014 43.0519 21.7222C42.7028 21.943 42.2612 22.0534 41.7269 22.0534Z" fill="#4B465C"/>
<path d="M18.7315 14.5205H19.5115V22H18.7315V14.5205ZM14.0515 22H13.2608V14.5205H14.0515V22ZM18.8063 18.5488H13.966V17.8542H18.8063V18.5488ZM25.3379 22V20.7605L25.3058 20.5575V18.4847C25.3058 18.0074 25.1705 17.6405 24.8998 17.3841C24.6363 17.1277 24.2409 16.9994 23.7138 16.9994C23.3505 16.9994 23.005 17.06 22.6773 17.1811C22.3497 17.3022 22.0719 17.4625 21.8439 17.6619L21.502 17.0956C21.7869 16.8534 22.1289 16.6682 22.5278 16.54C22.9267 16.4047 23.3469 16.337 23.7886 16.337C24.5152 16.337 25.0743 16.5186 25.4661 16.8819C25.865 17.2381 26.0645 17.783 26.0645 18.5167V22H25.3379ZM23.4039 22.0534C22.9836 22.0534 22.6168 21.9858 22.3034 21.8504C21.9971 21.7079 21.762 21.5156 21.5982 21.2734C21.4343 21.0241 21.3524 20.7392 21.3524 20.4186C21.3524 20.1266 21.4201 19.863 21.5554 19.6279C21.6979 19.3858 21.9258 19.1934 22.2393 19.051C22.5598 18.9014 22.9872 18.8266 23.5215 18.8266H25.4554V19.3929H23.5428C23.0015 19.3929 22.6239 19.489 22.4102 19.6814C22.2036 19.8737 22.1004 20.1123 22.1004 20.3973C22.1004 20.7178 22.225 20.9742 22.4743 21.1666C22.7236 21.3589 23.0727 21.4551 23.5215 21.4551C23.9489 21.4551 24.3157 21.3589 24.622 21.1666C24.9354 20.9671 25.1634 20.6822 25.3058 20.3118L25.4768 20.8353C25.3343 21.2058 25.085 21.5014 24.7289 21.7222C24.3798 21.943 23.9382 22.0534 23.4039 22.0534ZM29.4758 22.0641C29.0698 22.0641 28.6673 22.0071 28.2684 21.8932C27.8695 21.7792 27.5169 21.6047 27.2106 21.3696L27.4564 20.8033C27.727 21.0027 28.0405 21.1559 28.3966 21.2627C28.7528 21.3625 29.1054 21.4123 29.4544 21.4123C29.8035 21.4052 30.1062 21.3553 30.3627 21.2627C30.6191 21.1701 30.8186 21.0419 30.961 20.8781C31.1035 20.7142 31.1747 20.529 31.1747 20.3225C31.1747 20.0233 31.0394 19.7918 30.7687 19.6279C30.498 19.457 30.1276 19.3715 29.6575 19.3715H28.6958V18.8159H29.604C29.8818 18.8159 30.1276 18.7803 30.3413 18.709C30.555 18.6378 30.7188 18.5345 30.8328 18.3992C30.9539 18.2638 31.0144 18.1036 31.0144 17.9184C31.0144 17.7189 30.9432 17.5479 30.8007 17.4055C30.6654 17.263 30.4766 17.1562 30.2344 17.0849C29.9922 17.0137 29.718 16.9781 29.4117 16.9781C29.1339 16.9852 28.8454 17.0279 28.5462 17.1063C28.247 17.1775 27.9514 17.2879 27.6594 17.4375L27.4457 16.8499C27.7733 16.6789 28.0975 16.5507 28.418 16.4652C28.7457 16.3726 29.0733 16.3263 29.401 16.3263C29.8498 16.312 30.2522 16.3655 30.6084 16.4866C30.9717 16.6077 31.2602 16.7822 31.4739 17.0101C31.6876 17.231 31.7944 17.4981 31.7944 17.8115C31.7944 18.0893 31.709 18.3315 31.538 18.5381C31.367 18.7447 31.1391 18.9049 30.8542 19.0189C30.5692 19.1329 30.2451 19.1899 29.8818 19.1899L29.9139 18.9868C30.555 18.9868 31.0536 19.1115 31.4098 19.3608C31.7731 19.6101 31.9547 19.9485 31.9547 20.3759C31.9547 20.7107 31.8443 21.0063 31.6235 21.2627C31.4027 21.5121 31.1035 21.7079 30.7259 21.8504C30.3555 21.9929 29.9388 22.0641 29.4758 22.0641ZM33.6769 22V16.3904H36.1558C36.7898 16.3904 37.2884 16.5115 37.6517 16.7537C38.0221 16.9959 38.2073 17.352 38.2073 17.8222C38.2073 18.2781 38.0328 18.6307 37.6838 18.88C37.3347 19.1222 36.8753 19.2433 36.3054 19.2433L36.455 19.0189C37.1246 19.0189 37.6161 19.1436 37.9295 19.3929C38.2429 19.6422 38.3997 20.0019 38.3997 20.4721C38.3997 20.9564 38.2216 21.334 37.8654 21.6047C37.5164 21.8682 36.9714 22 36.2306 22H33.6769ZM34.4142 21.4016H36.1986C36.6758 21.4016 37.0355 21.3268 37.2777 21.1773C37.5271 21.0205 37.6517 20.7712 37.6517 20.4293C37.6517 20.0874 37.5413 19.8381 37.3205 19.6814C37.0997 19.5247 36.7506 19.4463 36.2734 19.4463H34.4142V21.4016ZM34.4142 18.88H36.1024C36.5369 18.88 36.8681 18.7981 37.0961 18.6342C37.3312 18.4704 37.4487 18.2318 37.4487 17.9184C37.4487 17.6049 37.3312 17.3699 37.0961 17.2131C36.8681 17.0564 36.5369 16.9781 36.1024 16.9781H34.4142V18.88ZM43.6609 22V20.7605L43.6289 20.5575V18.4847C43.6289 18.0074 43.4935 17.6405 43.2228 17.3841C42.9593 17.1277 42.5639 16.9994 42.0368 16.9994C41.6735 16.9994 41.328 17.06 41.0004 17.1811C40.6727 17.3022 40.3949 17.4625 40.1669 17.6619L39.825 17.0956C40.1099 16.8534 40.4519 16.6682 40.8508 16.54C41.2497 16.4047 41.6699 16.337 42.1116 16.337C42.8382 16.337 43.3973 16.5186 43.7891 16.8819C44.188 17.2381 44.3875 17.783 44.3875 18.5167V22H43.6609ZM41.7269 22.0534C41.3067 22.0534 40.9398 21.9858 40.6264 21.8504C40.3201 21.7079 40.085 21.5156 39.9212 21.2734C39.7573 21.0241 39.6754 20.7392 39.6754 20.4186C39.6754 20.1266 39.7431 19.863 39.8784 19.6279C40.0209 19.3858 40.2488 19.1934 40.5623 19.051C40.8828 18.9014 41.3102 18.8266 41.8445 18.8266H43.7784V19.3929H41.8658C41.3245 19.3929 40.9469 19.489 40.7332 19.6814C40.5267 19.8737 40.4234 20.1123 40.4234 20.3973C40.4234 20.7178 40.548 20.9742 40.7973 21.1666C41.0467 21.3589 41.3957 21.4551 41.8445 21.4551C42.2719 21.4551 42.6387 21.3589 42.945 21.1666C43.2584 20.9671 43.4864 20.6822 43.6289 20.3118L43.7998 20.8353C43.6573 21.2058 43.408 21.5014 43.0519 21.7222C42.7028 21.943 42.2612 22.0534 41.7269 22.0534Z" fill="white" fill-opacity="0.1"/>
<g clip-path="url(#clip0_1018_62789)">
<rect x="12" y="28.2891" width="240" height="28.7672" rx="3.28767" fill="white"/>
<path d="M20.5932 45.1454L20.8817 44.5791C21.2094 44.8641 21.5762 45.0778 21.9823 45.2202C22.3954 45.3556 22.8086 45.4268 23.2217 45.4339C23.6349 45.4339 24.0124 45.3734 24.3543 45.2523C24.7034 45.1312 24.9847 44.9531 25.1984 44.718C25.4121 44.4758 25.519 44.1838 25.519 43.8419C25.519 43.4073 25.3444 43.0726 24.9954 42.8375C24.6535 42.6024 24.1762 42.4849 23.5636 42.4849H21.9609V41.8438H23.5209C24.048 41.8438 24.4576 41.7334 24.7497 41.5126C25.0488 41.2846 25.1984 40.9712 25.1984 40.5723C25.1984 40.2873 25.1129 40.0452 24.942 39.8457C24.7781 39.6391 24.5502 39.4824 24.2581 39.3756C23.9732 39.2616 23.6527 39.201 23.2965 39.1939C22.9403 39.1797 22.5699 39.226 22.1853 39.3328C21.8077 39.4326 21.4409 39.5928 21.0847 39.8136L20.8283 39.1619C21.2699 38.8983 21.7294 38.7167 22.2066 38.6169C22.6839 38.5101 23.1469 38.4745 23.5957 38.5101C24.0444 38.5457 24.4469 38.649 24.8031 38.8199C25.1664 38.9909 25.4549 39.2153 25.6686 39.4931C25.8823 39.7709 25.9891 40.1021 25.9891 40.4868C25.9891 40.843 25.8965 41.1564 25.7113 41.4271C25.5332 41.6978 25.2803 41.9079 24.9527 42.0575C24.6321 42.2 24.251 42.2712 23.8094 42.2712L23.8521 42.0361C24.3507 42.0361 24.7817 42.1145 25.145 42.2712C25.5154 42.4279 25.8003 42.6523 25.9998 42.9443C26.2064 43.2293 26.3097 43.5641 26.3097 43.9487C26.3097 44.312 26.2171 44.6361 26.0318 44.921C25.8538 45.1989 25.6044 45.4339 25.2839 45.6263C24.9705 45.8115 24.6179 45.9468 24.2261 46.0323C23.8343 46.1106 23.4247 46.132 22.9973 46.0964C22.5699 46.0608 22.1497 45.9682 21.7365 45.8186C21.3233 45.6619 20.9423 45.4375 20.5932 45.1454ZM28.0913 46.043V40.4334H28.8499V42.9123H32.3866V40.4334H33.1453V46.043H32.3866V43.5641H28.8499V46.043H28.0913ZM38.7848 46.043V44.8035L38.7528 44.6005V42.5276C38.7528 42.0504 38.6174 41.6835 38.3467 41.4271C38.0832 41.1706 37.6878 41.0424 37.1607 41.0424C36.7974 41.0424 36.4519 41.103 36.1243 41.2241C35.7966 41.3452 35.5188 41.5054 35.2909 41.7049L34.9489 41.1386C35.2339 40.8964 35.5758 40.7112 35.9747 40.583C36.3736 40.4476 36.7939 40.3799 37.2355 40.3799C37.9621 40.3799 38.5213 40.5616 38.913 40.9249C39.312 41.281 39.5114 41.826 39.5114 42.5597V46.043H38.7848ZM36.8509 46.0964C36.4306 46.0964 36.0637 46.0287 35.7503 45.8934C35.444 45.7509 35.2089 45.5586 35.0451 45.3164C34.8813 45.0671 34.7993 44.7821 34.7993 44.4616C34.7993 44.1695 34.867 43.906 35.0024 43.6709C35.1448 43.4287 35.3728 43.2364 35.6862 43.0939C36.0067 42.9443 36.4341 42.8695 36.9684 42.8695H38.9024V43.4358H36.9898C36.4484 43.4358 36.0709 43.532 35.8572 43.7243C35.6506 43.9167 35.5473 44.1553 35.5473 44.4402C35.5473 44.7608 35.6719 45.0172 35.9213 45.2095C36.1706 45.4019 36.5196 45.498 36.9684 45.498C37.3958 45.498 37.7626 45.4019 38.0689 45.2095C38.3824 45.0101 38.6103 44.7252 38.7528 44.3547L38.9237 44.8783C38.7813 45.2487 38.5319 45.5443 38.1758 45.7652C37.8267 45.986 37.3851 46.0964 36.8509 46.0964ZM45.0783 43.6709C44.7507 43.8134 44.4194 43.9274 44.0846 44.0128C43.757 44.0912 43.4293 44.1304 43.1016 44.1304C42.4392 44.1304 41.9156 43.9808 41.5309 43.6816C41.1463 43.3753 40.954 42.9052 40.954 42.2712V40.4334H41.7019V42.2284C41.7019 42.6558 41.8408 42.9764 42.1186 43.1901C42.3964 43.4038 42.7704 43.5106 43.2405 43.5106C43.5255 43.5106 43.8246 43.475 44.1381 43.4038C44.4515 43.3254 44.7685 43.215 45.089 43.0726L45.0783 43.6709ZM45.0142 46.043V40.4334H45.7729V46.043H45.0142ZM50.3314 46.0964C49.7473 46.0964 49.2344 45.9753 48.7928 45.7331C48.3511 45.4838 48.0057 45.1454 47.7563 44.718C47.507 44.2835 47.3824 43.7884 47.3824 43.2328C47.3824 42.6772 47.4999 42.1857 47.735 41.7583C47.9772 41.3309 48.3048 40.9961 48.718 40.7539C49.1383 40.5046 49.6084 40.3799 50.1284 40.3799C50.6555 40.3799 51.1221 40.501 51.5281 40.7432C51.9413 40.9783 52.2654 41.3131 52.5005 41.7476C52.7355 42.175 52.8531 42.6701 52.8531 43.2328C52.8531 43.2684 52.8495 43.3076 52.8424 43.3504C52.8424 43.386 52.8424 43.4252 52.8424 43.4679H47.9594V42.9016H52.4363L52.1372 43.126C52.1372 42.72 52.0481 42.3602 51.87 42.0468C51.6991 41.7263 51.464 41.4769 51.1648 41.2989C50.8657 41.1208 50.5202 41.0317 50.1284 41.0317C49.7437 41.0317 49.3983 41.1208 49.092 41.2989C48.7857 41.4769 48.547 41.7263 48.3761 42.0468C48.2051 42.3673 48.1196 42.7342 48.1196 43.1473V43.2649C48.1196 43.6923 48.2122 44.0698 48.3974 44.3975C48.5898 44.718 48.8533 44.9709 49.1881 45.1561C49.53 45.3342 49.9183 45.4232 50.3528 45.4232C50.6947 45.4232 51.0117 45.3627 51.3037 45.2416C51.6029 45.1205 51.8594 44.9353 52.0731 44.686L52.5005 45.1775C52.2511 45.4767 51.9377 45.7046 51.5602 45.8613C51.1898 46.018 50.7802 46.0964 50.3314 46.0964ZM54.5323 46.043V40.4334H55.291V42.9123H58.8277V40.4334H59.5863V46.043H58.8277V43.5641H55.291V46.043H54.5323ZM61.7426 46.043V40.4334H62.5012V42.9123H66.0379V40.4334H66.7966V46.043H66.0379V43.5641H62.5012V46.043H61.7426ZM72.575 46.043V44.0235L72.7139 44.1838H70.812C70.0926 44.1838 69.5298 44.0271 69.1238 43.7137C68.7178 43.4002 68.5148 42.9443 68.5148 42.346C68.5148 41.7049 68.732 41.2276 69.1665 40.9142C69.6011 40.5936 70.1816 40.4334 70.9082 40.4334H73.2696V46.043H72.575ZM68.472 46.043L70.0107 43.8846H70.8013L69.2948 46.043H68.472ZM72.575 43.7991V40.8715L72.7139 41.0958H70.9296C70.4096 41.0958 70.0035 41.1956 69.7115 41.395C69.4265 41.5945 69.2841 41.9186 69.2841 42.3673C69.2841 43.2008 69.8148 43.6175 70.8761 43.6175H72.7139L72.575 43.7991ZM79.0091 46.043V38.8841L79.351 39.2473H77.2461V38.5635H79.7784V46.043H79.0091Z" fill="#4B465C"/>
<path d="M20.5932 45.1454L20.8817 44.5791C21.2094 44.8641 21.5762 45.0778 21.9823 45.2202C22.3954 45.3556 22.8086 45.4268 23.2217 45.4339C23.6349 45.4339 24.0124 45.3734 24.3543 45.2523C24.7034 45.1312 24.9847 44.9531 25.1984 44.718C25.4121 44.4758 25.519 44.1838 25.519 43.8419C25.519 43.4073 25.3444 43.0726 24.9954 42.8375C24.6535 42.6024 24.1762 42.4849 23.5636 42.4849H21.9609V41.8438H23.5209C24.048 41.8438 24.4576 41.7334 24.7497 41.5126C25.0488 41.2846 25.1984 40.9712 25.1984 40.5723C25.1984 40.2873 25.1129 40.0452 24.942 39.8457C24.7781 39.6391 24.5502 39.4824 24.2581 39.3756C23.9732 39.2616 23.6527 39.201 23.2965 39.1939C22.9403 39.1797 22.5699 39.226 22.1853 39.3328C21.8077 39.4326 21.4409 39.5928 21.0847 39.8136L20.8283 39.1619C21.2699 38.8983 21.7294 38.7167 22.2066 38.6169C22.6839 38.5101 23.1469 38.4745 23.5957 38.5101C24.0444 38.5457 24.4469 38.649 24.8031 38.8199C25.1664 38.9909 25.4549 39.2153 25.6686 39.4931C25.8823 39.7709 25.9891 40.1021 25.9891 40.4868C25.9891 40.843 25.8965 41.1564 25.7113 41.4271C25.5332 41.6978 25.2803 41.9079 24.9527 42.0575C24.6321 42.2 24.251 42.2712 23.8094 42.2712L23.8521 42.0361C24.3507 42.0361 24.7817 42.1145 25.145 42.2712C25.5154 42.4279 25.8003 42.6523 25.9998 42.9443C26.2064 43.2293 26.3097 43.5641 26.3097 43.9487C26.3097 44.312 26.2171 44.6361 26.0318 44.921C25.8538 45.1989 25.6044 45.4339 25.2839 45.6263C24.9705 45.8115 24.6179 45.9468 24.2261 46.0323C23.8343 46.1106 23.4247 46.132 22.9973 46.0964C22.5699 46.0608 22.1497 45.9682 21.7365 45.8186C21.3233 45.6619 20.9423 45.4375 20.5932 45.1454ZM28.0913 46.043V40.4334H28.8499V42.9123H32.3866V40.4334H33.1453V46.043H32.3866V43.5641H28.8499V46.043H28.0913ZM38.7848 46.043V44.8035L38.7528 44.6005V42.5276C38.7528 42.0504 38.6174 41.6835 38.3467 41.4271C38.0832 41.1706 37.6878 41.0424 37.1607 41.0424C36.7974 41.0424 36.4519 41.103 36.1243 41.2241C35.7966 41.3452 35.5188 41.5054 35.2909 41.7049L34.9489 41.1386C35.2339 40.8964 35.5758 40.7112 35.9747 40.583C36.3736 40.4476 36.7939 40.3799 37.2355 40.3799C37.9621 40.3799 38.5213 40.5616 38.913 40.9249C39.312 41.281 39.5114 41.826 39.5114 42.5597V46.043H38.7848ZM36.8509 46.0964C36.4306 46.0964 36.0637 46.0287 35.7503 45.8934C35.444 45.7509 35.2089 45.5586 35.0451 45.3164C34.8813 45.0671 34.7993 44.7821 34.7993 44.4616C34.7993 44.1695 34.867 43.906 35.0024 43.6709C35.1448 43.4287 35.3728 43.2364 35.6862 43.0939C36.0067 42.9443 36.4341 42.8695 36.9684 42.8695H38.9024V43.4358H36.9898C36.4484 43.4358 36.0709 43.532 35.8572 43.7243C35.6506 43.9167 35.5473 44.1553 35.5473 44.4402C35.5473 44.7608 35.6719 45.0172 35.9213 45.2095C36.1706 45.4019 36.5196 45.498 36.9684 45.498C37.3958 45.498 37.7626 45.4019 38.0689 45.2095C38.3824 45.0101 38.6103 44.7252 38.7528 44.3547L38.9237 44.8783C38.7813 45.2487 38.5319 45.5443 38.1758 45.7652C37.8267 45.986 37.3851 46.0964 36.8509 46.0964ZM45.0783 43.6709C44.7507 43.8134 44.4194 43.9274 44.0846 44.0128C43.757 44.0912 43.4293 44.1304 43.1016 44.1304C42.4392 44.1304 41.9156 43.9808 41.5309 43.6816C41.1463 43.3753 40.954 42.9052 40.954 42.2712V40.4334H41.7019V42.2284C41.7019 42.6558 41.8408 42.9764 42.1186 43.1901C42.3964 43.4038 42.7704 43.5106 43.2405 43.5106C43.5255 43.5106 43.8246 43.475 44.1381 43.4038C44.4515 43.3254 44.7685 43.215 45.089 43.0726L45.0783 43.6709ZM45.0142 46.043V40.4334H45.7729V46.043H45.0142ZM50.3314 46.0964C49.7473 46.0964 49.2344 45.9753 48.7928 45.7331C48.3511 45.4838 48.0057 45.1454 47.7563 44.718C47.507 44.2835 47.3824 43.7884 47.3824 43.2328C47.3824 42.6772 47.4999 42.1857 47.735 41.7583C47.9772 41.3309 48.3048 40.9961 48.718 40.7539C49.1383 40.5046 49.6084 40.3799 50.1284 40.3799C50.6555 40.3799 51.1221 40.501 51.5281 40.7432C51.9413 40.9783 52.2654 41.3131 52.5005 41.7476C52.7355 42.175 52.8531 42.6701 52.8531 43.2328C52.8531 43.2684 52.8495 43.3076 52.8424 43.3504C52.8424 43.386 52.8424 43.4252 52.8424 43.4679H47.9594V42.9016H52.4363L52.1372 43.126C52.1372 42.72 52.0481 42.3602 51.87 42.0468C51.6991 41.7263 51.464 41.4769 51.1648 41.2989C50.8657 41.1208 50.5202 41.0317 50.1284 41.0317C49.7437 41.0317 49.3983 41.1208 49.092 41.2989C48.7857 41.4769 48.547 41.7263 48.3761 42.0468C48.2051 42.3673 48.1196 42.7342 48.1196 43.1473V43.2649C48.1196 43.6923 48.2122 44.0698 48.3974 44.3975C48.5898 44.718 48.8533 44.9709 49.1881 45.1561C49.53 45.3342 49.9183 45.4232 50.3528 45.4232C50.6947 45.4232 51.0117 45.3627 51.3037 45.2416C51.6029 45.1205 51.8594 44.9353 52.0731 44.686L52.5005 45.1775C52.2511 45.4767 51.9377 45.7046 51.5602 45.8613C51.1898 46.018 50.7802 46.0964 50.3314 46.0964ZM54.5323 46.043V40.4334H55.291V42.9123H58.8277V40.4334H59.5863V46.043H58.8277V43.5641H55.291V46.043H54.5323ZM61.7426 46.043V40.4334H62.5012V42.9123H66.0379V40.4334H66.7966V46.043H66.0379V43.5641H62.5012V46.043H61.7426ZM72.575 46.043V44.0235L72.7139 44.1838H70.812C70.0926 44.1838 69.5298 44.0271 69.1238 43.7137C68.7178 43.4002 68.5148 42.9443 68.5148 42.346C68.5148 41.7049 68.732 41.2276 69.1665 40.9142C69.6011 40.5936 70.1816 40.4334 70.9082 40.4334H73.2696V46.043H72.575ZM68.472 46.043L70.0107 43.8846H70.8013L69.2948 46.043H68.472ZM72.575 43.7991V40.8715L72.7139 41.0958H70.9296C70.4096 41.0958 70.0035 41.1956 69.7115 41.395C69.4265 41.5945 69.2841 41.9186 69.2841 42.3673C69.2841 43.2008 69.8148 43.6175 70.8761 43.6175H72.7139L72.575 43.7991ZM79.0091 46.043V38.8841L79.351 39.2473H77.2461V38.5635H79.7784V46.043H79.0091Z" fill="white" fill-opacity="0.2"/>
<path d="M233.918 41.0273L237.206 44.315L240.493 41.0273" stroke="#4B465C" stroke-width="1.23288" stroke-linecap="round" stroke-linejoin="round"/>
<path d="M233.918 41.0273L237.206 44.315L240.493 41.0273" stroke="white" stroke-opacity="0.2" stroke-width="1.23288" stroke-linecap="round" stroke-linejoin="round"/>
</g>
<rect x="12.411" y="28.7" width="239.178" height="27.9452" rx="2.87672" stroke="#DBDADE" stroke-width="0.821919"/>
<rect x="0.5" y="0.5" width="263" height="69" rx="5.5" stroke="#DBDADE"/>
<defs>
<clipPath id="clip0_1018_62789">
<rect x="12" y="28.2891" width="240" height="28.7672" rx="3.28767" fill="white"/>
</clipPath>
</defs>
</svg>
