<svg width="264" height="70" viewBox="0 0 264 70" fill="none" xmlns="http://www.w3.org/2000/svg">
<rect x="0.5" y="0.5" width="263" height="69" rx="5.5" fill="white"/>
<path d="M18.7315 14.5205H19.5115V22H18.7315V14.5205ZM14.0515 22H13.2608V14.5205H14.0515V22ZM18.8063 18.5488H13.966V17.8542H18.8063V18.5488ZM25.3379 22V20.7605L25.3058 20.5575V18.4847C25.3058 18.0074 25.1705 17.6405 24.8998 17.3841C24.6363 17.1277 24.2409 16.9994 23.7138 16.9994C23.3505 16.9994 23.005 17.06 22.6773 17.1811C22.3497 17.3022 22.0719 17.4625 21.8439 17.6619L21.502 17.0956C21.7869 16.8534 22.1289 16.6682 22.5278 16.54C22.9267 16.4047 23.3469 16.337 23.7886 16.337C24.5152 16.337 25.0743 16.5186 25.4661 16.8819C25.865 17.2381 26.0645 17.783 26.0645 18.5167V22H25.3379ZM23.4039 22.0534C22.9836 22.0534 22.6168 21.9858 22.3034 21.8504C21.9971 21.7079 21.762 21.5156 21.5982 21.2734C21.4343 21.0241 21.3524 20.7392 21.3524 20.4186C21.3524 20.1266 21.4201 19.863 21.5554 19.6279C21.6979 19.3858 21.9258 19.1934 22.2393 19.051C22.5598 18.9014 22.9872 18.8266 23.5215 18.8266H25.4554V19.3929H23.5428C23.0015 19.3929 22.6239 19.489 22.4102 19.6814C22.2036 19.8737 22.1004 20.1123 22.1004 20.3973C22.1004 20.7178 22.225 20.9742 22.4743 21.1666C22.7236 21.3589 23.0727 21.4551 23.5215 21.4551C23.9489 21.4551 24.3157 21.3589 24.622 21.1666C24.9354 20.9671 25.1634 20.6822 25.3058 20.3118L25.4768 20.8353C25.3343 21.2058 25.085 21.5014 24.7289 21.7222C24.3798 21.943 23.9382 22.0534 23.4039 22.0534ZM29.4758 22.0641C29.0698 22.0641 28.6673 22.0071 28.2684 21.8932C27.8695 21.7792 27.5169 21.6047 27.2106 21.3696L27.4564 20.8033C27.727 21.0027 28.0405 21.1559 28.3966 21.2627C28.7528 21.3625 29.1054 21.4123 29.4544 21.4123C29.8035 21.4052 30.1062 21.3553 30.3627 21.2627C30.6191 21.1701 30.8186 21.0419 30.961 20.8781C31.1035 20.7142 31.1747 20.529 31.1747 20.3225C31.1747 20.0233 31.0394 19.7918 30.7687 19.6279C30.498 19.457 30.1276 19.3715 29.6575 19.3715H28.6958V18.8159H29.604C29.8818 18.8159 30.1276 18.7803 30.3413 18.709C30.555 18.6378 30.7188 18.5345 30.8328 18.3992C30.9539 18.2638 31.0144 18.1036 31.0144 17.9184C31.0144 17.7189 30.9432 17.5479 30.8007 17.4055C30.6654 17.263 30.4766 17.1562 30.2344 17.0849C29.9922 17.0137 29.718 16.9781 29.4117 16.9781C29.1339 16.9852 28.8454 17.0279 28.5462 17.1063C28.247 17.1775 27.9514 17.2879 27.6594 17.4375L27.4457 16.8499C27.7733 16.6789 28.0975 16.5507 28.418 16.4652C28.7457 16.3726 29.0733 16.3263 29.401 16.3263C29.8498 16.312 30.2522 16.3655 30.6084 16.4866C30.9717 16.6077 31.2602 16.7822 31.4739 17.0101C31.6876 17.231 31.7944 17.4981 31.7944 17.8115C31.7944 18.0893 31.709 18.3315 31.538 18.5381C31.367 18.7447 31.1391 18.9049 30.8542 19.0189C30.5692 19.1329 30.2451 19.1899 29.8818 19.1899L29.9139 18.9868C30.555 18.9868 31.0536 19.1115 31.4098 19.3608C31.7731 19.6101 31.9547 19.9485 31.9547 20.3759C31.9547 20.7107 31.8443 21.0063 31.6235 21.2627C31.4027 21.5121 31.1035 21.7079 30.7259 21.8504C30.3555 21.9929 29.9388 22.0641 29.4758 22.0641ZM33.6769 22V16.3904H36.1558C36.7898 16.3904 37.2884 16.5115 37.6517 16.7537C38.0221 16.9959 38.2073 17.352 38.2073 17.8222C38.2073 18.2781 38.0328 18.6307 37.6838 18.88C37.3347 19.1222 36.8753 19.2433 36.3054 19.2433L36.455 19.0189C37.1246 19.0189 37.6161 19.1436 37.9295 19.3929C38.2429 19.6422 38.3997 20.0019 38.3997 20.4721C38.3997 20.9564 38.2216 21.334 37.8654 21.6047C37.5164 21.8682 36.9714 22 36.2306 22H33.6769ZM34.4142 21.4016H36.1986C36.6758 21.4016 37.0355 21.3268 37.2777 21.1773C37.5271 21.0205 37.6517 20.7712 37.6517 20.4293C37.6517 20.0874 37.5413 19.8381 37.3205 19.6814C37.0997 19.5247 36.7506 19.4463 36.2734 19.4463H34.4142V21.4016ZM34.4142 18.88H36.1024C36.5369 18.88 36.8681 18.7981 37.0961 18.6342C37.3312 18.4704 37.4487 18.2318 37.4487 17.9184C37.4487 17.6049 37.3312 17.3699 37.0961 17.2131C36.8681 17.0564 36.5369 16.9781 36.1024 16.9781H34.4142V18.88ZM43.6609 22V20.7605L43.6289 20.5575V18.4847C43.6289 18.0074 43.4935 17.6405 43.2228 17.3841C42.9593 17.1277 42.5639 16.9994 42.0368 16.9994C41.6735 16.9994 41.328 17.06 41.0004 17.1811C40.6727 17.3022 40.3949 17.4625 40.1669 17.6619L39.825 17.0956C40.1099 16.8534 40.4519 16.6682 40.8508 16.54C41.2497 16.4047 41.6699 16.337 42.1116 16.337C42.8382 16.337 43.3973 16.5186 43.7891 16.8819C44.188 17.2381 44.3875 17.783 44.3875 18.5167V22H43.6609ZM41.7269 22.0534C41.3067 22.0534 40.9398 21.9858 40.6264 21.8504C40.3201 21.7079 40.085 21.5156 39.9212 21.2734C39.7573 21.0241 39.6754 20.7392 39.6754 20.4186C39.6754 20.1266 39.7431 19.863 39.8784 19.6279C40.0209 19.3858 40.2488 19.1934 40.5623 19.051C40.8828 18.9014 41.3102 18.8266 41.8445 18.8266H43.7784V19.3929H41.8658C41.3245 19.3929 40.9469 19.489 40.7332 19.6814C40.5267 19.8737 40.4234 20.1123 40.4234 20.3973C40.4234 20.7178 40.548 20.9742 40.7973 21.1666C41.0467 21.3589 41.3957 21.4551 41.8445 21.4551C42.2719 21.4551 42.6387 21.3589 42.945 21.1666C43.2584 20.9671 43.4864 20.6822 43.6289 20.3118L43.7998 20.8353C43.6573 21.2058 43.408 21.5014 43.0519 21.7222C42.7028 21.943 42.2612 22.0534 41.7269 22.0534Z" fill="#4B465C"/>
<path d="M18.7315 14.5205H19.5115V22H18.7315V14.5205ZM14.0515 22H13.2608V14.5205H14.0515V22ZM18.8063 18.5488H13.966V17.8542H18.8063V18.5488ZM25.3379 22V20.7605L25.3058 20.5575V18.4847C25.3058 18.0074 25.1705 17.6405 24.8998 17.3841C24.6363 17.1277 24.2409 16.9994 23.7138 16.9994C23.3505 16.9994 23.005 17.06 22.6773 17.1811C22.3497 17.3022 22.0719 17.4625 21.8439 17.6619L21.502 17.0956C21.7869 16.8534 22.1289 16.6682 22.5278 16.54C22.9267 16.4047 23.3469 16.337 23.7886 16.337C24.5152 16.337 25.0743 16.5186 25.4661 16.8819C25.865 17.2381 26.0645 17.783 26.0645 18.5167V22H25.3379ZM23.4039 22.0534C22.9836 22.0534 22.6168 21.9858 22.3034 21.8504C21.9971 21.7079 21.762 21.5156 21.5982 21.2734C21.4343 21.0241 21.3524 20.7392 21.3524 20.4186C21.3524 20.1266 21.4201 19.863 21.5554 19.6279C21.6979 19.3858 21.9258 19.1934 22.2393 19.051C22.5598 18.9014 22.9872 18.8266 23.5215 18.8266H25.4554V19.3929H23.5428C23.0015 19.3929 22.6239 19.489 22.4102 19.6814C22.2036 19.8737 22.1004 20.1123 22.1004 20.3973C22.1004 20.7178 22.225 20.9742 22.4743 21.1666C22.7236 21.3589 23.0727 21.4551 23.5215 21.4551C23.9489 21.4551 24.3157 21.3589 24.622 21.1666C24.9354 20.9671 25.1634 20.6822 25.3058 20.3118L25.4768 20.8353C25.3343 21.2058 25.085 21.5014 24.7289 21.7222C24.3798 21.943 23.9382 22.0534 23.4039 22.0534ZM29.4758 22.0641C29.0698 22.0641 28.6673 22.0071 28.2684 21.8932C27.8695 21.7792 27.5169 21.6047 27.2106 21.3696L27.4564 20.8033C27.727 21.0027 28.0405 21.1559 28.3966 21.2627C28.7528 21.3625 29.1054 21.4123 29.4544 21.4123C29.8035 21.4052 30.1062 21.3553 30.3627 21.2627C30.6191 21.1701 30.8186 21.0419 30.961 20.8781C31.1035 20.7142 31.1747 20.529 31.1747 20.3225C31.1747 20.0233 31.0394 19.7918 30.7687 19.6279C30.498 19.457 30.1276 19.3715 29.6575 19.3715H28.6958V18.8159H29.604C29.8818 18.8159 30.1276 18.7803 30.3413 18.709C30.555 18.6378 30.7188 18.5345 30.8328 18.3992C30.9539 18.2638 31.0144 18.1036 31.0144 17.9184C31.0144 17.7189 30.9432 17.5479 30.8007 17.4055C30.6654 17.263 30.4766 17.1562 30.2344 17.0849C29.9922 17.0137 29.718 16.9781 29.4117 16.9781C29.1339 16.9852 28.8454 17.0279 28.5462 17.1063C28.247 17.1775 27.9514 17.2879 27.6594 17.4375L27.4457 16.8499C27.7733 16.6789 28.0975 16.5507 28.418 16.4652C28.7457 16.3726 29.0733 16.3263 29.401 16.3263C29.8498 16.312 30.2522 16.3655 30.6084 16.4866C30.9717 16.6077 31.2602 16.7822 31.4739 17.0101C31.6876 17.231 31.7944 17.4981 31.7944 17.8115C31.7944 18.0893 31.709 18.3315 31.538 18.5381C31.367 18.7447 31.1391 18.9049 30.8542 19.0189C30.5692 19.1329 30.2451 19.1899 29.8818 19.1899L29.9139 18.9868C30.555 18.9868 31.0536 19.1115 31.4098 19.3608C31.7731 19.6101 31.9547 19.9485 31.9547 20.3759C31.9547 20.7107 31.8443 21.0063 31.6235 21.2627C31.4027 21.5121 31.1035 21.7079 30.7259 21.8504C30.3555 21.9929 29.9388 22.0641 29.4758 22.0641ZM33.6769 22V16.3904H36.1558C36.7898 16.3904 37.2884 16.5115 37.6517 16.7537C38.0221 16.9959 38.2073 17.352 38.2073 17.8222C38.2073 18.2781 38.0328 18.6307 37.6838 18.88C37.3347 19.1222 36.8753 19.2433 36.3054 19.2433L36.455 19.0189C37.1246 19.0189 37.6161 19.1436 37.9295 19.3929C38.2429 19.6422 38.3997 20.0019 38.3997 20.4721C38.3997 20.9564 38.2216 21.334 37.8654 21.6047C37.5164 21.8682 36.9714 22 36.2306 22H33.6769ZM34.4142 21.4016H36.1986C36.6758 21.4016 37.0355 21.3268 37.2777 21.1773C37.5271 21.0205 37.6517 20.7712 37.6517 20.4293C37.6517 20.0874 37.5413 19.8381 37.3205 19.6814C37.0997 19.5247 36.7506 19.4463 36.2734 19.4463H34.4142V21.4016ZM34.4142 18.88H36.1024C36.5369 18.88 36.8681 18.7981 37.0961 18.6342C37.3312 18.4704 37.4487 18.2318 37.4487 17.9184C37.4487 17.6049 37.3312 17.3699 37.0961 17.2131C36.8681 17.0564 36.5369 16.9781 36.1024 16.9781H34.4142V18.88ZM43.6609 22V20.7605L43.6289 20.5575V18.4847C43.6289 18.0074 43.4935 17.6405 43.2228 17.3841C42.9593 17.1277 42.5639 16.9994 42.0368 16.9994C41.6735 16.9994 41.328 17.06 41.0004 17.1811C40.6727 17.3022 40.3949 17.4625 40.1669 17.6619L39.825 17.0956C40.1099 16.8534 40.4519 16.6682 40.8508 16.54C41.2497 16.4047 41.6699 16.337 42.1116 16.337C42.8382 16.337 43.3973 16.5186 43.7891 16.8819C44.188 17.2381 44.3875 17.783 44.3875 18.5167V22H43.6609ZM41.7269 22.0534C41.3067 22.0534 40.9398 21.9858 40.6264 21.8504C40.3201 21.7079 40.085 21.5156 39.9212 21.2734C39.7573 21.0241 39.6754 20.7392 39.6754 20.4186C39.6754 20.1266 39.7431 19.863 39.8784 19.6279C40.0209 19.3858 40.2488 19.1934 40.5623 19.051C40.8828 18.9014 41.3102 18.8266 41.8445 18.8266H43.7784V19.3929H41.8658C41.3245 19.3929 40.9469 19.489 40.7332 19.6814C40.5267 19.8737 40.4234 20.1123 40.4234 20.3973C40.4234 20.7178 40.548 20.9742 40.7973 21.1666C41.0467 21.3589 41.3957 21.4551 41.8445 21.4551C42.2719 21.4551 42.6387 21.3589 42.945 21.1666C43.2584 20.9671 43.4864 20.6822 43.6289 20.3118L43.7998 20.8353C43.6573 21.2058 43.408 21.5014 43.0519 21.7222C42.7028 21.943 42.2612 22.0534 41.7269 22.0534Z" fill="white" fill-opacity="0.1"/>
<rect x="12.3255" y="28.6145" width="239.349" height="28.9721" rx="3.58028" fill="white"/>
<rect x="17.2075" y="32.8477" width="76.0384" height="20.5096" rx="2.60384" fill="#A8AAAE" fill-opacity="0.16"/>
<path d="M23.9627 45.5177L24.3181 44.7137C24.572 44.8886 24.8484 45.024 25.1474 45.1199C25.4521 45.2102 25.7539 45.2581 26.0529 45.2638C26.3519 45.2694 26.6227 45.2356 26.8653 45.1622C27.1136 45.0889 27.311 44.9789 27.4577 44.8322C27.6044 44.6855 27.6777 44.5022 27.6777 44.2821C27.6777 44.017 27.5677 43.8195 27.3477 43.6898C27.1333 43.5544 26.8399 43.4867 26.4676 43.4867H25.0882V42.6235H26.383C26.7158 42.6235 26.9725 42.5558 27.1531 42.4204C27.3392 42.285 27.4323 42.1016 27.4323 41.8703C27.4323 41.6785 27.3703 41.5205 27.2461 41.3964C27.1277 41.2723 26.9641 41.1792 26.7553 41.1172C26.5522 41.0551 26.3209 41.0269 26.0614 41.0325C25.8075 41.0325 25.5424 41.072 25.2659 41.151C24.9895 41.2244 24.7271 41.3344 24.4789 41.4811L24.1319 40.5925C24.5043 40.395 24.8936 40.2568 25.2998 40.1778C25.7116 40.0988 26.1093 40.0763 26.493 40.1101C26.8766 40.144 27.2207 40.2314 27.5254 40.3725C27.8357 40.5135 28.0839 40.6997 28.2701 40.931C28.4563 41.1567 28.5494 41.4246 28.5494 41.7349C28.5494 42.017 28.4732 42.2681 28.3209 42.4881C28.1742 42.7025 27.9711 42.8689 27.7116 42.9874C27.4521 43.1058 27.1502 43.1651 26.8061 43.1651L26.8484 42.8943C27.2377 42.8943 27.5762 42.962 27.8639 43.0974C28.1573 43.2271 28.3829 43.4077 28.5409 43.639C28.7045 43.8703 28.7863 44.1383 28.7863 44.4429C28.7863 44.7306 28.713 44.9873 28.5663 45.213C28.4196 45.433 28.2193 45.6192 27.9654 45.7715C27.7116 45.9182 27.421 46.0282 27.0938 46.1016C26.7666 46.1693 26.4225 46.1946 26.0614 46.1777C25.7003 46.1608 25.3393 46.0987 24.9782 45.9916C24.6228 45.8844 24.2843 45.7264 23.9627 45.5177ZM29.9238 46.1016V41.5826H30.9816V43.419H33.258V41.5826H34.3158V46.1016H33.258V44.316H30.9816V46.1016H29.9238ZM38.4753 46.1016V45.1876L38.4161 44.993V43.3936C38.4161 43.0833 38.323 42.8435 38.1368 42.6743C37.9506 42.4994 37.6686 42.4119 37.2906 42.4119C37.0367 42.4119 36.7856 42.4514 36.5374 42.5304C36.2948 42.6094 36.0889 42.7194 35.9196 42.8604L35.505 42.0903C35.7476 41.9042 36.0353 41.766 36.3682 41.6757C36.7067 41.5798 37.0564 41.5318 37.4175 41.5318C38.0719 41.5318 38.5769 41.6898 38.9323 42.0057C39.2934 42.316 39.4739 42.7984 39.4739 43.4528V46.1016H38.4753ZM37.0536 46.1608C36.7151 46.1608 36.4189 46.1044 36.1651 45.9916C35.9112 45.8731 35.7137 45.7123 35.5727 45.5092C35.4373 45.3004 35.3696 45.0663 35.3696 44.8068C35.3696 44.5529 35.4288 44.3244 35.5473 44.1213C35.6714 43.9182 35.8717 43.7575 36.1481 43.639C36.4246 43.5205 36.7913 43.4613 37.2483 43.4613H38.5599V44.1637H37.3244C36.9634 44.1637 36.7208 44.2229 36.5966 44.3414C36.4725 44.4542 36.4105 44.5952 36.4105 44.7645C36.4105 44.9563 36.4866 45.1086 36.639 45.2215C36.7913 45.3343 37.0028 45.3907 37.2736 45.3907C37.5332 45.3907 37.7645 45.3315 37.9676 45.213C38.1763 45.0945 38.3258 44.9196 38.4161 44.6883L38.5938 45.323C38.4922 45.5882 38.3089 45.7941 38.0437 45.9408C37.7842 46.0875 37.4542 46.1608 37.0536 46.1608ZM43.6347 44.316C43.4203 44.4175 43.1918 44.5022 42.9493 44.5699C42.7123 44.6319 42.4612 44.6629 42.1961 44.6629C41.6263 44.6629 41.1834 44.5304 40.8675 44.2652C40.5516 44 40.3936 43.5882 40.3936 43.0297V41.5826H41.4514V42.962C41.4514 43.261 41.536 43.4782 41.7053 43.6136C41.8802 43.749 42.1199 43.8167 42.4246 43.8167C42.6277 43.8167 42.8308 43.7913 43.0339 43.7405C43.237 43.6898 43.4373 43.6192 43.6347 43.529V44.316ZM43.5585 46.1016V41.5826H44.6164V46.1016H43.5585ZM48.146 46.1608C47.6439 46.1608 47.2038 46.0621 46.8259 45.8646C46.4535 45.6615 46.163 45.3851 45.9542 45.0353C45.7511 44.6855 45.6496 44.2878 45.6496 43.8421C45.6496 43.3907 45.7483 42.993 45.9458 42.6489C46.1489 42.2991 46.4253 42.0255 46.7751 41.828C47.1305 41.6306 47.5339 41.5318 47.9852 41.5318C48.4253 41.5318 48.8174 41.6277 49.1615 41.8195C49.5056 42.0114 49.7764 42.2822 49.9739 42.6319C50.1714 42.9817 50.2701 43.3936 50.2701 43.8675C50.2701 43.9126 50.2673 43.9634 50.2616 44.0198C50.2616 44.0762 50.2588 44.1298 50.2532 44.1806H46.4874V43.4782H49.6946L49.28 43.6982C49.2856 43.4387 49.232 43.2102 49.1192 43.0128C49.0064 42.8153 48.8512 42.6602 48.6538 42.5473C48.4619 42.4345 48.2391 42.3781 47.9852 42.3781C47.7257 42.3781 47.4972 42.4345 47.2998 42.5473C47.1079 42.6602 46.9556 42.8181 46.8428 43.0212C46.7356 43.2187 46.682 43.4528 46.682 43.7236V43.8929C46.682 44.1637 46.7441 44.4034 46.8682 44.6122C46.9923 44.8209 47.1672 44.9817 47.3928 45.0945C47.6185 45.2074 47.878 45.2638 48.1714 45.2638C48.4253 45.2638 48.6538 45.2243 48.8569 45.1453C49.06 45.0663 49.2405 44.9422 49.3984 44.773L49.9654 45.4246C49.7623 45.6615 49.5056 45.8449 49.1954 45.9746C48.8907 46.0987 48.5409 46.1608 48.146 46.1608ZM51.4271 46.1016V41.5826H52.4849V43.419H54.7613V41.5826H55.8191V46.1016H54.7613V44.316H52.4849V46.1016H51.4271ZM57.2367 46.1016V41.5826H58.2946V43.419H60.571V41.5826H61.6288V46.1016H60.571V44.316H58.2946V46.1016H57.2367ZM65.9152 46.1016V44.5614L66.0675 44.7391H64.7135C64.093 44.7391 63.605 44.6093 63.2495 44.3498C62.8998 44.0847 62.7249 43.7039 62.7249 43.2074C62.7249 42.6771 62.911 42.2737 63.2834 41.9973C63.6614 41.7208 64.1635 41.5826 64.7897 41.5826H66.863V46.1016H65.9152ZM62.6656 46.1016L63.8842 44.3752H64.9674L63.7996 46.1016H62.6656ZM65.9152 44.2229V42.1919L66.0675 42.4712H64.8236C64.4963 42.4712 64.2425 42.5332 64.0619 42.6573C63.887 42.7758 63.7996 42.9704 63.7996 43.2412C63.7996 43.749 64.1296 44.0029 64.7897 44.0029H66.0675L65.9152 44.2229ZM71.2339 46.1016V40.601L71.7163 41.1002H69.9815V40.1778H72.3341V46.1016H71.2339Z" fill="#A8AAAE"/>
<path d="M84.4581 40.8242L79.9014 45.3809" stroke="#A8AAAE" stroke-width="1.13918" stroke-linecap="round" stroke-linejoin="round"/>
<path d="M79.9014 40.8242L84.4581 45.3809" stroke="#A8AAAE" stroke-width="1.13918" stroke-linecap="round" stroke-linejoin="round"/>
<rect x="97.1519" y="32.8477" width="78.0384" height="20.5096" rx="2.60384" fill="#A8AAAE" fill-opacity="0.16"/>
<path d="M103.907 45.5177L104.262 44.7137C104.516 44.8886 104.793 45.024 105.092 45.1199C105.396 45.2102 105.698 45.2581 105.997 45.2638C106.296 45.2694 106.567 45.2356 106.81 45.1622C107.058 45.0889 107.255 44.9789 107.402 44.8322C107.549 44.6855 107.622 44.5022 107.622 44.2821C107.622 44.017 107.512 43.8195 107.292 43.6898C107.078 43.5544 106.784 43.4867 106.412 43.4867H105.033V42.6235H106.327C106.66 42.6235 106.917 42.5558 107.097 42.4204C107.284 42.285 107.377 42.1016 107.377 41.8703C107.377 41.6785 107.315 41.5205 107.19 41.3964C107.072 41.2723 106.908 41.1792 106.7 41.1172C106.497 41.0551 106.265 41.0269 106.006 41.0325C105.752 41.0325 105.487 41.072 105.21 41.151C104.934 41.2244 104.671 41.3344 104.423 41.4811L104.076 40.5925C104.449 40.395 104.838 40.2568 105.244 40.1778C105.656 40.0988 106.054 40.0763 106.437 40.1101C106.821 40.144 107.165 40.2314 107.47 40.3725C107.78 40.5135 108.028 40.6997 108.214 40.931C108.401 41.1567 108.494 41.4246 108.494 41.7349C108.494 42.017 108.418 42.2681 108.265 42.4881C108.119 42.7025 107.915 42.8689 107.656 42.9874C107.396 43.1058 107.095 43.1651 106.75 43.1651L106.793 42.8943C107.182 42.8943 107.521 42.962 107.808 43.0974C108.102 43.2271 108.327 43.4077 108.485 43.639C108.649 43.8703 108.731 44.1383 108.731 44.4429C108.731 44.7306 108.657 44.9873 108.511 45.213C108.364 45.433 108.164 45.6192 107.91 45.7715C107.656 45.9182 107.365 46.0282 107.038 46.1016C106.711 46.1693 106.367 46.1946 106.006 46.1777C105.645 46.1608 105.284 46.0987 104.923 45.9916C104.567 45.8844 104.229 45.7264 103.907 45.5177ZM109.868 46.1016V41.5826H110.926V43.419H113.202V41.5826H114.26V46.1016H113.202V44.316H110.926V46.1016H109.868ZM118.42 46.1016V45.1876L118.36 44.993V43.3936C118.36 43.0833 118.267 42.8435 118.081 42.6743C117.895 42.4994 117.613 42.4119 117.235 42.4119C116.981 42.4119 116.73 42.4514 116.482 42.5304C116.239 42.6094 116.033 42.7194 115.864 42.8604L115.449 42.0903C115.692 41.9042 115.98 41.766 116.312 41.6757C116.651 41.5798 117.001 41.5318 117.362 41.5318C118.016 41.5318 118.521 41.6898 118.877 42.0057C119.238 42.316 119.418 42.7984 119.418 43.4528V46.1016H118.42ZM116.998 46.1608C116.659 46.1608 116.363 46.1044 116.109 45.9916C115.856 45.8731 115.658 45.7123 115.517 45.5092C115.382 45.3004 115.314 45.0663 115.314 44.8068C115.314 44.5529 115.373 44.3244 115.492 44.1213C115.616 43.9182 115.816 43.7575 116.092 43.639C116.369 43.5205 116.736 43.4613 117.193 43.4613H118.504V44.1637H117.269C116.908 44.1637 116.665 44.2229 116.541 44.3414C116.417 44.4542 116.355 44.5952 116.355 44.7645C116.355 44.9563 116.431 45.1086 116.583 45.2215C116.736 45.3343 116.947 45.3907 117.218 45.3907C117.477 45.3907 117.709 45.3315 117.912 45.213C118.121 45.0945 118.27 44.9196 118.36 44.6883L118.538 45.323C118.437 45.5882 118.253 45.7941 117.988 45.9408C117.729 46.0875 117.399 46.1608 116.998 46.1608ZM123.579 44.316C123.365 44.4175 123.136 44.5022 122.894 44.5699C122.657 44.6319 122.406 44.6629 122.14 44.6629C121.571 44.6629 121.128 44.5304 120.812 44.2652C120.496 44 120.338 43.5882 120.338 43.0297V41.5826H121.396V42.962C121.396 43.261 121.48 43.4782 121.65 43.6136C121.824 43.749 122.064 43.8167 122.369 43.8167C122.572 43.8167 122.775 43.7913 122.978 43.7405C123.181 43.6898 123.382 43.6192 123.579 43.529V44.316ZM123.503 46.1016V41.5826H124.561V46.1016H123.503ZM128.09 46.1608C127.588 46.1608 127.148 46.0621 126.77 45.8646C126.398 45.6615 126.107 45.3851 125.899 45.0353C125.695 44.6855 125.594 44.2878 125.594 43.8421C125.594 43.3907 125.693 42.993 125.89 42.6489C126.093 42.2991 126.37 42.0255 126.719 41.828C127.075 41.6306 127.478 41.5318 127.93 41.5318C128.37 41.5318 128.762 41.6277 129.106 41.8195C129.45 42.0114 129.721 42.2822 129.918 42.6319C130.116 42.9817 130.214 43.3936 130.214 43.8675C130.214 43.9126 130.212 43.9634 130.206 44.0198C130.206 44.0762 130.203 44.1298 130.197 44.1806H126.432V43.4782H129.639L129.224 43.6982C129.23 43.4387 129.176 43.2102 129.064 43.0128C128.951 42.8153 128.796 42.6602 128.598 42.5473C128.406 42.4345 128.183 42.3781 127.93 42.3781C127.67 42.3781 127.442 42.4345 127.244 42.5473C127.052 42.6602 126.9 42.8181 126.787 43.0212C126.68 43.2187 126.626 43.4528 126.626 43.7236V43.8929C126.626 44.1637 126.688 44.4034 126.813 44.6122C126.937 44.8209 127.112 44.9817 127.337 45.0945C127.563 45.2074 127.822 45.2638 128.116 45.2638C128.37 45.2638 128.598 45.2243 128.801 45.1453C129.004 45.0663 129.185 44.9422 129.343 44.773L129.91 45.4246C129.707 45.6615 129.45 45.8449 129.14 45.9746C128.835 46.0987 128.485 46.1608 128.09 46.1608ZM131.371 46.1016V41.5826H132.429V43.419H134.706V41.5826H135.763V46.1016H134.706V44.316H132.429V46.1016H131.371ZM137.181 46.1016V41.5826H138.239V43.419H140.515V41.5826H141.573V46.1016H140.515V44.316H138.239V46.1016H137.181ZM145.86 46.1016V44.5614L146.012 44.7391H144.658C144.037 44.7391 143.549 44.6093 143.194 44.3498C142.844 44.0847 142.669 43.7039 142.669 43.2074C142.669 42.6771 142.855 42.2737 143.228 41.9973C143.606 41.7208 144.108 41.5826 144.734 41.5826H146.807V46.1016H145.86ZM142.61 46.1016L143.829 44.3752H144.912L143.744 46.1016H142.61ZM145.86 44.2229V42.1919L146.012 42.4712H144.768C144.441 42.4712 144.187 42.5332 144.006 42.6573C143.831 42.7758 143.744 42.9704 143.744 43.2412C143.744 43.749 144.074 44.0029 144.734 44.0029H146.012L145.86 44.2229ZM150.154 46.1016V45.3653L152.507 43.1312C152.704 42.9451 152.851 42.7815 152.947 42.6404C153.043 42.4994 153.105 42.3696 153.133 42.2511C153.167 42.127 153.184 42.0114 153.184 41.9042C153.184 41.6334 153.091 41.4246 152.905 41.278C152.718 41.1256 152.445 41.0495 152.084 41.0495C151.796 41.0495 151.534 41.1002 151.297 41.2018C151.065 41.3033 150.865 41.4585 150.696 41.6672L149.926 41.0749C150.157 40.7646 150.467 40.5248 150.857 40.3555C151.252 40.1807 151.692 40.0932 152.177 40.0932C152.606 40.0932 152.978 40.1637 153.294 40.3048C153.615 40.4402 153.861 40.6348 154.03 40.8887C154.205 41.1426 154.292 41.4444 154.292 41.7942C154.292 41.986 154.267 42.1778 154.216 42.3696C154.166 42.5558 154.07 42.7532 153.929 42.962C153.788 43.1707 153.582 43.4049 153.311 43.6644L151.288 45.5854L151.06 45.1707H154.521V46.1016H150.154Z" fill="#A8AAAE"/>
<path d="M166.402 40.8242L161.846 45.3809" stroke="#A8AAAE" stroke-width="1.13918" stroke-linecap="round" stroke-linejoin="round"/>
<path d="M161.846 40.8242L166.402 45.3809" stroke="#A8AAAE" stroke-width="1.13918" stroke-linecap="round" stroke-linejoin="round"/>
<rect x="12.3255" y="28.6145" width="239.349" height="28.9721" rx="3.58028" stroke="#DBDADE" stroke-width="0.65096"/>
<rect x="0.5" y="0.5" width="263" height="69" rx="5.5" stroke="#DBDADE"/>
</svg>
