<svg width="264" height="70" viewBox="0 0 264 70" fill="none" xmlns="http://www.w3.org/2000/svg">
<rect x="0.5" y="0.5" width="263" height="69" rx="5.5" fill="white"/>
<path d="M18.2293 21.626V15.2044H14.6499L14.5858 17.0208C14.5644 17.5836 14.5288 18.1249 14.4789 18.6449C14.4362 19.1578 14.3649 19.6208 14.2652 20.034C14.1726 20.44 14.0444 20.7712 13.8806 21.0277C13.7238 21.2841 13.5173 21.4337 13.2608 21.4764L12.3953 21.3162C12.6803 21.3304 12.9153 21.2271 13.1005 21.0063C13.2929 20.7855 13.4389 20.4756 13.5386 20.0767C13.6455 19.6778 13.7238 19.2112 13.7737 18.677C13.8236 18.1427 13.8592 17.5657 13.8806 16.946L13.966 14.5205H19.0093V21.626H18.2293ZM12.1175 23.6775L12.1282 21.3162H20.1312V23.6775H19.394V22H12.8655L12.8548 23.6775H12.1175ZM25.0457 22V20.7605L25.0137 20.5575V18.4847C25.0137 18.0074 24.8783 17.6405 24.6076 17.3841C24.3441 17.1277 23.9487 16.9994 23.4216 16.9994C23.0583 16.9994 22.7129 17.06 22.3852 17.1811C22.0575 17.3022 21.7797 17.4625 21.5518 17.6619L21.2098 17.0956C21.4948 16.8534 21.8367 16.6682 22.2356 16.54C22.6345 16.4047 23.0548 16.337 23.4964 16.337C24.223 16.337 24.7822 16.5186 25.174 16.8819C25.5729 17.2381 25.7723 17.783 25.7723 18.5167V22H25.0457ZM23.1118 22.0534C22.6915 22.0534 22.3246 21.9858 22.0112 21.8504C21.7049 21.7079 21.4698 21.5156 21.306 21.2734C21.1422 21.0241 21.0602 20.7392 21.0602 20.4186C21.0602 20.1266 21.1279 19.863 21.2633 19.6279C21.4057 19.3858 21.6337 19.1934 21.9471 19.051C22.2676 18.9014 22.695 18.8266 23.2293 18.8266H25.1633V19.3929H23.2507C22.7093 19.3929 22.3318 19.489 22.1181 19.6814C21.9115 19.8737 21.8082 20.1123 21.8082 20.3973C21.8082 20.7178 21.9329 20.9742 22.1822 21.1666C22.4315 21.3589 22.7805 21.4551 23.2293 21.4551C23.6567 21.4551 24.0235 21.3589 24.3298 21.1666C24.6433 20.9671 24.8712 20.6822 25.0137 20.3118L25.1846 20.8353C25.0422 21.2058 24.7929 21.5014 24.4367 21.7222C24.0876 21.943 23.646 22.0534 23.1118 22.0534ZM28.8603 22V16.8499L29.0527 17.0529H26.734V16.3904H31.7453V17.0529H29.4266L29.619 16.8499V22H28.8603ZM36.3254 22V20.7605L36.2934 20.5575V18.4847C36.2934 18.0074 36.158 17.6405 35.8874 17.3841C35.6238 17.1277 35.2285 16.9994 34.7013 16.9994C34.338 16.9994 33.9926 17.06 33.6649 17.1811C33.3372 17.3022 33.0594 17.4625 32.8315 17.6619L32.4895 17.0956C32.7745 16.8534 33.1164 16.6682 33.5153 16.54C33.9142 16.4047 34.3345 16.337 34.7761 16.337C35.5027 16.337 36.0619 16.5186 36.4537 16.8819C36.8526 17.2381 37.052 17.783 37.052 18.5167V22H36.3254ZM34.3915 22.0534C33.9712 22.0534 33.6043 21.9858 33.2909 21.8504C32.9846 21.7079 32.7495 21.5156 32.5857 21.2734C32.4219 21.0241 32.34 20.7392 32.34 20.4186C32.34 20.1266 32.4076 19.863 32.543 19.6279C32.6854 19.3858 32.9134 19.1934 33.2268 19.051C33.5474 18.9014 33.9748 18.8266 34.509 18.8266H36.443V19.3929H34.5304C33.989 19.3929 33.6115 19.489 33.3978 19.6814C33.1912 19.8737 33.0879 20.1123 33.0879 20.3973C33.0879 20.7178 33.2126 20.9742 33.4619 21.1666C33.7112 21.3589 34.0602 21.4551 34.509 21.4551C34.9364 21.4551 35.3032 21.3589 35.6095 21.1666C35.923 20.9671 36.1509 20.6822 36.2934 20.3118L36.4643 20.8353C36.3219 21.2058 36.0726 21.5014 35.7164 21.7222C35.3674 21.943 34.9257 22.0534 34.3915 22.0534Z" fill="#4B465C"/>
<path d="M18.2293 21.626V15.2044H14.6499L14.5858 17.0208C14.5644 17.5836 14.5288 18.1249 14.4789 18.6449C14.4362 19.1578 14.3649 19.6208 14.2652 20.034C14.1726 20.44 14.0444 20.7712 13.8806 21.0277C13.7238 21.2841 13.5173 21.4337 13.2608 21.4764L12.3953 21.3162C12.6803 21.3304 12.9153 21.2271 13.1005 21.0063C13.2929 20.7855 13.4389 20.4756 13.5386 20.0767C13.6455 19.6778 13.7238 19.2112 13.7737 18.677C13.8236 18.1427 13.8592 17.5657 13.8806 16.946L13.966 14.5205H19.0093V21.626H18.2293ZM12.1175 23.6775L12.1282 21.3162H20.1312V23.6775H19.394V22H12.8655L12.8548 23.6775H12.1175ZM25.0457 22V20.7605L25.0137 20.5575V18.4847C25.0137 18.0074 24.8783 17.6405 24.6076 17.3841C24.3441 17.1277 23.9487 16.9994 23.4216 16.9994C23.0583 16.9994 22.7129 17.06 22.3852 17.1811C22.0575 17.3022 21.7797 17.4625 21.5518 17.6619L21.2098 17.0956C21.4948 16.8534 21.8367 16.6682 22.2356 16.54C22.6345 16.4047 23.0548 16.337 23.4964 16.337C24.223 16.337 24.7822 16.5186 25.174 16.8819C25.5729 17.2381 25.7723 17.783 25.7723 18.5167V22H25.0457ZM23.1118 22.0534C22.6915 22.0534 22.3246 21.9858 22.0112 21.8504C21.7049 21.7079 21.4698 21.5156 21.306 21.2734C21.1422 21.0241 21.0602 20.7392 21.0602 20.4186C21.0602 20.1266 21.1279 19.863 21.2633 19.6279C21.4057 19.3858 21.6337 19.1934 21.9471 19.051C22.2676 18.9014 22.695 18.8266 23.2293 18.8266H25.1633V19.3929H23.2507C22.7093 19.3929 22.3318 19.489 22.1181 19.6814C21.9115 19.8737 21.8082 20.1123 21.8082 20.3973C21.8082 20.7178 21.9329 20.9742 22.1822 21.1666C22.4315 21.3589 22.7805 21.4551 23.2293 21.4551C23.6567 21.4551 24.0235 21.3589 24.3298 21.1666C24.6433 20.9671 24.8712 20.6822 25.0137 20.3118L25.1846 20.8353C25.0422 21.2058 24.7929 21.5014 24.4367 21.7222C24.0876 21.943 23.646 22.0534 23.1118 22.0534ZM28.8603 22V16.8499L29.0527 17.0529H26.734V16.3904H31.7453V17.0529H29.4266L29.619 16.8499V22H28.8603ZM36.3254 22V20.7605L36.2934 20.5575V18.4847C36.2934 18.0074 36.158 17.6405 35.8874 17.3841C35.6238 17.1277 35.2285 16.9994 34.7013 16.9994C34.338 16.9994 33.9926 17.06 33.6649 17.1811C33.3372 17.3022 33.0594 17.4625 32.8315 17.6619L32.4895 17.0956C32.7745 16.8534 33.1164 16.6682 33.5153 16.54C33.9142 16.4047 34.3345 16.337 34.7761 16.337C35.5027 16.337 36.0619 16.5186 36.4537 16.8819C36.8526 17.2381 37.052 17.783 37.052 18.5167V22H36.3254ZM34.3915 22.0534C33.9712 22.0534 33.6043 21.9858 33.2909 21.8504C32.9846 21.7079 32.7495 21.5156 32.5857 21.2734C32.4219 21.0241 32.34 20.7392 32.34 20.4186C32.34 20.1266 32.4076 19.863 32.543 19.6279C32.6854 19.3858 32.9134 19.1934 33.2268 19.051C33.5474 18.9014 33.9748 18.8266 34.509 18.8266H36.443V19.3929H34.5304C33.989 19.3929 33.6115 19.489 33.3978 19.6814C33.1912 19.8737 33.0879 20.1123 33.0879 20.3973C33.0879 20.7178 33.2126 20.9742 33.4619 21.1666C33.7112 21.3589 34.0602 21.4551 34.509 21.4551C34.9364 21.4551 35.3032 21.3589 35.6095 21.1666C35.923 20.9671 36.1509 20.6822 36.2934 20.3118L36.4643 20.8353C36.3219 21.2058 36.0726 21.5014 35.7164 21.7222C35.3674 21.943 34.9257 22.0534 34.3915 22.0534Z" fill="white" fill-opacity="0.1"/>
<g clip-path="url(#clip0_1018_62861)">
<rect x="12" y="28.2891" width="116.712" height="28.7672" rx="3.28767" fill="white"/>
<path d="M20.636 46.043V45.498L23.7453 42.4528C24.0302 42.175 24.2439 41.9328 24.3864 41.7263C24.5288 41.5126 24.625 41.3131 24.6749 41.1279C24.7247 40.9427 24.7497 40.7682 24.7497 40.6043C24.7497 40.1698 24.6001 39.8279 24.3009 39.5786C24.0088 39.3293 23.5743 39.2046 22.9973 39.2046C22.5557 39.2046 22.1639 39.2723 21.822 39.4076C21.4872 39.543 21.1987 39.7531 20.9565 40.038L20.4116 39.5679C20.7036 39.226 21.0776 38.9624 21.5335 38.7772C21.9894 38.592 22.4987 38.4994 23.0614 38.4994C23.5672 38.4994 24.0053 38.5813 24.3757 38.7452C24.7461 38.9019 25.031 39.1334 25.2305 39.4397C25.4371 39.746 25.5403 40.1057 25.5403 40.5189C25.5403 40.761 25.5047 40.9997 25.4335 41.2347C25.3694 41.4698 25.2483 41.7191 25.0702 41.9827C24.8992 42.2391 24.6464 42.5312 24.3116 42.8589L21.4587 45.6583L21.245 45.3591H25.8823V46.043H20.636ZM26.4795 44.0769V43.5213L30.4436 38.5635H31.2984L27.3664 43.5213L26.9497 43.3931H32.9653V44.0769H26.4795ZM30.7001 46.043V44.0769L30.7215 43.3931V41.6621H31.4694V46.043H30.7001ZM34.4576 46.0964C34.3009 46.0964 34.1655 46.0394 34.0516 45.9254C33.9447 45.8115 33.8913 45.6726 33.8913 45.5087C33.8913 45.3378 33.9447 45.1989 34.0516 45.092C34.1655 44.9852 34.3009 44.9317 34.4576 44.9317C34.6143 44.9317 34.7461 44.9852 34.8529 45.092C34.9669 45.1989 35.0239 45.3378 35.0239 45.5087C35.0239 45.6726 34.9669 45.8115 34.8529 45.9254C34.7461 46.0394 34.6143 46.0964 34.4576 46.0964ZM39.0112 46.1071C38.4342 46.1071 37.9213 45.9575 37.4726 45.6583C37.0238 45.352 36.6712 44.9175 36.4148 44.3547C36.1583 43.7849 36.0301 43.101 36.0301 42.3032C36.0301 41.5054 36.1583 40.8252 36.4148 40.2624C36.6712 39.6926 37.0238 39.258 37.4726 38.9589C37.9213 38.6525 38.4342 38.4994 39.0112 38.4994C39.5882 38.4994 40.1011 38.6525 40.5498 38.9589C40.9986 39.258 41.3512 39.6926 41.6077 40.2624C41.8712 40.8252 42.003 41.5054 42.003 42.3032C42.003 43.101 41.8712 43.7849 41.6077 44.3547C41.3512 44.9175 40.9986 45.352 40.5498 45.6583C40.1011 45.9575 39.5882 46.1071 39.0112 46.1071ZM39.0112 45.4019C39.4529 45.4019 39.8375 45.2843 40.1652 45.0493C40.4929 44.8071 40.7493 44.458 40.9345 44.0021C41.1197 43.5391 41.2123 42.9728 41.2123 42.3032C41.2123 41.6336 41.1197 41.0709 40.9345 40.615C40.7493 40.152 40.4929 39.803 40.1652 39.5679C39.8375 39.3257 39.4529 39.2046 39.0112 39.2046C38.5838 39.2046 38.2027 39.3257 37.8679 39.5679C37.5331 39.803 37.2731 40.152 37.0879 40.615C36.9027 41.0709 36.8101 41.6336 36.8101 42.3032C36.8101 42.9728 36.9027 43.5391 37.0879 44.0021C37.2731 44.458 37.5331 44.8071 37.8679 45.0493C38.2027 45.2843 38.5838 45.4019 39.0112 45.4019ZM44.4083 46.043V38.8841L44.7502 39.2473H42.6453V38.5635H45.1776V46.043H44.4083ZM47.5425 46.0964C47.3858 46.0964 47.2504 46.0394 47.1364 45.9254C47.0296 45.8115 46.9762 45.6726 46.9762 45.5087C46.9762 45.3378 47.0296 45.1989 47.1364 45.092C47.2504 44.9852 47.3858 44.9317 47.5425 44.9317C47.6992 44.9317 47.831 44.9852 47.9378 45.092C48.0518 45.1989 48.1088 45.3378 48.1088 45.5087C48.1088 45.6726 48.0518 45.8115 47.9378 45.9254C47.831 46.0394 47.6992 46.0964 47.5425 46.0964ZM49.1952 46.043V45.498L52.3045 42.4528C52.5895 42.175 52.8032 41.9328 52.9456 41.7263C53.0881 41.5126 53.1843 41.3131 53.2341 41.1279C53.284 40.9427 53.3089 40.7682 53.3089 40.6043C53.3089 40.1698 53.1593 39.8279 52.8602 39.5786C52.5681 39.3293 52.1336 39.2046 51.5566 39.2046C51.1149 39.2046 50.7232 39.2723 50.3812 39.4076C50.0464 39.543 49.758 39.7531 49.5158 40.038L48.9708 39.5679C49.2629 39.226 49.6369 38.9624 50.0928 38.7772C50.5486 38.592 51.058 38.4994 51.6207 38.4994C52.1265 38.4994 52.5645 38.5813 52.9349 38.7452C53.3054 38.9019 53.5903 39.1334 53.7897 39.4397C53.9963 39.746 54.0996 40.1057 54.0996 40.5189C54.0996 40.761 54.064 40.9997 53.9928 41.2347C53.9286 41.4698 53.8075 41.7191 53.6295 41.9827C53.4585 42.2391 53.2056 42.5312 52.8708 42.8589L50.018 45.6583L49.8043 45.3591H54.4415V46.043H49.1952ZM58.3672 46.1071C57.7902 46.1071 57.2774 45.9575 56.8286 45.6583C56.3798 45.352 56.0272 44.9175 55.7708 44.3547C55.5144 43.7849 55.3861 43.101 55.3861 42.3032C55.3861 41.5054 55.5144 40.8252 55.7708 40.2624C56.0272 39.6926 56.3798 39.258 56.8286 38.9589C57.2774 38.6525 57.7902 38.4994 58.3672 38.4994C58.9442 38.4994 59.4571 38.6525 59.9059 38.9589C60.3546 39.258 60.7072 39.6926 60.9637 40.2624C61.2272 40.8252 61.359 41.5054 61.359 42.3032C61.359 43.101 61.2272 43.7849 60.9637 44.3547C60.7072 44.9175 60.3546 45.352 59.9059 45.6583C59.4571 45.9575 58.9442 46.1071 58.3672 46.1071ZM58.3672 45.4019C58.8089 45.4019 59.1935 45.2843 59.5212 45.0493C59.8489 44.8071 60.1053 44.458 60.2905 44.0021C60.4757 43.5391 60.5683 42.9728 60.5683 42.3032C60.5683 41.6336 60.4757 41.0709 60.2905 40.615C60.1053 40.152 59.8489 39.803 59.5212 39.5679C59.1935 39.3257 58.8089 39.2046 58.3672 39.2046C57.9398 39.2046 57.5587 39.3257 57.2239 39.5679C56.8892 39.803 56.6292 40.152 56.4439 40.615C56.2587 41.0709 56.1661 41.6336 56.1661 42.3032C56.1661 42.9728 56.2587 43.5391 56.4439 44.0021C56.6292 44.458 56.8892 44.8071 57.2239 45.0493C57.5587 45.2843 57.9398 45.4019 58.3672 45.4019ZM62.3218 46.043V45.498L65.4312 42.4528C65.7161 42.175 65.9298 41.9328 66.0722 41.7263C66.2147 41.5126 66.3109 41.3131 66.3607 41.1279C66.4106 40.9427 66.4355 40.7682 66.4355 40.6043C66.4355 40.1698 66.2859 39.8279 65.9868 39.5786C65.6947 39.3293 65.2602 39.2046 64.6832 39.2046C64.2416 39.2046 63.8498 39.2723 63.5079 39.4076C63.1731 39.543 62.8846 39.7531 62.6424 40.038L62.0974 39.5679C62.3895 39.226 62.7635 38.9624 63.2194 38.7772C63.6753 38.592 64.1846 38.4994 64.7473 38.4994C65.2531 38.4994 65.6912 38.5813 66.0616 38.7452C66.432 38.9019 66.7169 39.1334 66.9164 39.4397C67.1229 39.746 67.2262 40.1057 67.2262 40.5189C67.2262 40.761 67.1906 40.9997 67.1194 41.2347C67.0553 41.4698 66.9342 41.7191 66.7561 41.9827C66.5851 42.2391 66.3322 42.5312 65.9975 42.8589L63.1446 45.6583L62.9309 45.3591H67.5681V46.043H62.3218ZM70.7668 46.1071C70.2254 46.1071 69.7125 46.0216 69.2281 45.8506C68.7509 45.6726 68.3662 45.4375 68.0742 45.1454L68.4481 44.5364C68.6903 44.7857 69.0144 44.9923 69.4205 45.1561C69.8336 45.32 70.2824 45.4019 70.7668 45.4019C71.3865 45.4019 71.8602 45.2665 72.1879 44.9958C72.5227 44.7252 72.6901 44.3619 72.6901 43.906C72.6901 43.4501 72.5262 43.0868 72.1986 42.8161C71.878 42.5454 71.3687 42.4101 70.6706 42.4101H70.1364V41.8438L72.4443 38.9482L72.5512 39.2473H68.384V38.5635H73.1923V39.1084L70.8843 42.0041L70.5103 41.7583H70.7988C71.6964 41.7583 72.366 41.9578 72.8076 42.3567C73.2564 42.7556 73.4808 43.2684 73.4808 43.8953C73.4808 44.3156 73.381 44.6931 73.1816 45.0279C72.9821 45.3627 72.6794 45.6263 72.2734 45.8186C71.8745 46.0109 71.3723 46.1071 70.7668 46.1071Z" fill="#4B465C"/>
<path d="M20.636 46.043V45.498L23.7453 42.4528C24.0302 42.175 24.2439 41.9328 24.3864 41.7263C24.5288 41.5126 24.625 41.3131 24.6749 41.1279C24.7247 40.9427 24.7497 40.7682 24.7497 40.6043C24.7497 40.1698 24.6001 39.8279 24.3009 39.5786C24.0088 39.3293 23.5743 39.2046 22.9973 39.2046C22.5557 39.2046 22.1639 39.2723 21.822 39.4076C21.4872 39.543 21.1987 39.7531 20.9565 40.038L20.4116 39.5679C20.7036 39.226 21.0776 38.9624 21.5335 38.7772C21.9894 38.592 22.4987 38.4994 23.0614 38.4994C23.5672 38.4994 24.0053 38.5813 24.3757 38.7452C24.7461 38.9019 25.031 39.1334 25.2305 39.4397C25.4371 39.746 25.5403 40.1057 25.5403 40.5189C25.5403 40.761 25.5047 40.9997 25.4335 41.2347C25.3694 41.4698 25.2483 41.7191 25.0702 41.9827C24.8992 42.2391 24.6464 42.5312 24.3116 42.8589L21.4587 45.6583L21.245 45.3591H25.8823V46.043H20.636ZM26.4795 44.0769V43.5213L30.4436 38.5635H31.2984L27.3664 43.5213L26.9497 43.3931H32.9653V44.0769H26.4795ZM30.7001 46.043V44.0769L30.7215 43.3931V41.6621H31.4694V46.043H30.7001ZM34.4576 46.0964C34.3009 46.0964 34.1655 46.0394 34.0516 45.9254C33.9447 45.8115 33.8913 45.6726 33.8913 45.5087C33.8913 45.3378 33.9447 45.1989 34.0516 45.092C34.1655 44.9852 34.3009 44.9317 34.4576 44.9317C34.6143 44.9317 34.7461 44.9852 34.8529 45.092C34.9669 45.1989 35.0239 45.3378 35.0239 45.5087C35.0239 45.6726 34.9669 45.8115 34.8529 45.9254C34.7461 46.0394 34.6143 46.0964 34.4576 46.0964ZM39.0112 46.1071C38.4342 46.1071 37.9213 45.9575 37.4726 45.6583C37.0238 45.352 36.6712 44.9175 36.4148 44.3547C36.1583 43.7849 36.0301 43.101 36.0301 42.3032C36.0301 41.5054 36.1583 40.8252 36.4148 40.2624C36.6712 39.6926 37.0238 39.258 37.4726 38.9589C37.9213 38.6525 38.4342 38.4994 39.0112 38.4994C39.5882 38.4994 40.1011 38.6525 40.5498 38.9589C40.9986 39.258 41.3512 39.6926 41.6077 40.2624C41.8712 40.8252 42.003 41.5054 42.003 42.3032C42.003 43.101 41.8712 43.7849 41.6077 44.3547C41.3512 44.9175 40.9986 45.352 40.5498 45.6583C40.1011 45.9575 39.5882 46.1071 39.0112 46.1071ZM39.0112 45.4019C39.4529 45.4019 39.8375 45.2843 40.1652 45.0493C40.4929 44.8071 40.7493 44.458 40.9345 44.0021C41.1197 43.5391 41.2123 42.9728 41.2123 42.3032C41.2123 41.6336 41.1197 41.0709 40.9345 40.615C40.7493 40.152 40.4929 39.803 40.1652 39.5679C39.8375 39.3257 39.4529 39.2046 39.0112 39.2046C38.5838 39.2046 38.2027 39.3257 37.8679 39.5679C37.5331 39.803 37.2731 40.152 37.0879 40.615C36.9027 41.0709 36.8101 41.6336 36.8101 42.3032C36.8101 42.9728 36.9027 43.5391 37.0879 44.0021C37.2731 44.458 37.5331 44.8071 37.8679 45.0493C38.2027 45.2843 38.5838 45.4019 39.0112 45.4019ZM44.4083 46.043V38.8841L44.7502 39.2473H42.6453V38.5635H45.1776V46.043H44.4083ZM47.5425 46.0964C47.3858 46.0964 47.2504 46.0394 47.1364 45.9254C47.0296 45.8115 46.9762 45.6726 46.9762 45.5087C46.9762 45.3378 47.0296 45.1989 47.1364 45.092C47.2504 44.9852 47.3858 44.9317 47.5425 44.9317C47.6992 44.9317 47.831 44.9852 47.9378 45.092C48.0518 45.1989 48.1088 45.3378 48.1088 45.5087C48.1088 45.6726 48.0518 45.8115 47.9378 45.9254C47.831 46.0394 47.6992 46.0964 47.5425 46.0964ZM49.1952 46.043V45.498L52.3045 42.4528C52.5895 42.175 52.8032 41.9328 52.9456 41.7263C53.0881 41.5126 53.1843 41.3131 53.2341 41.1279C53.284 40.9427 53.3089 40.7682 53.3089 40.6043C53.3089 40.1698 53.1593 39.8279 52.8602 39.5786C52.5681 39.3293 52.1336 39.2046 51.5566 39.2046C51.1149 39.2046 50.7232 39.2723 50.3812 39.4076C50.0464 39.543 49.758 39.7531 49.5158 40.038L48.9708 39.5679C49.2629 39.226 49.6369 38.9624 50.0928 38.7772C50.5486 38.592 51.058 38.4994 51.6207 38.4994C52.1265 38.4994 52.5645 38.5813 52.9349 38.7452C53.3054 38.9019 53.5903 39.1334 53.7897 39.4397C53.9963 39.746 54.0996 40.1057 54.0996 40.5189C54.0996 40.761 54.064 40.9997 53.9928 41.2347C53.9286 41.4698 53.8075 41.7191 53.6295 41.9827C53.4585 42.2391 53.2056 42.5312 52.8708 42.8589L50.018 45.6583L49.8043 45.3591H54.4415V46.043H49.1952ZM58.3672 46.1071C57.7902 46.1071 57.2774 45.9575 56.8286 45.6583C56.3798 45.352 56.0272 44.9175 55.7708 44.3547C55.5144 43.7849 55.3861 43.101 55.3861 42.3032C55.3861 41.5054 55.5144 40.8252 55.7708 40.2624C56.0272 39.6926 56.3798 39.258 56.8286 38.9589C57.2774 38.6525 57.7902 38.4994 58.3672 38.4994C58.9442 38.4994 59.4571 38.6525 59.9059 38.9589C60.3546 39.258 60.7072 39.6926 60.9637 40.2624C61.2272 40.8252 61.359 41.5054 61.359 42.3032C61.359 43.101 61.2272 43.7849 60.9637 44.3547C60.7072 44.9175 60.3546 45.352 59.9059 45.6583C59.4571 45.9575 58.9442 46.1071 58.3672 46.1071ZM58.3672 45.4019C58.8089 45.4019 59.1935 45.2843 59.5212 45.0493C59.8489 44.8071 60.1053 44.458 60.2905 44.0021C60.4757 43.5391 60.5683 42.9728 60.5683 42.3032C60.5683 41.6336 60.4757 41.0709 60.2905 40.615C60.1053 40.152 59.8489 39.803 59.5212 39.5679C59.1935 39.3257 58.8089 39.2046 58.3672 39.2046C57.9398 39.2046 57.5587 39.3257 57.2239 39.5679C56.8892 39.803 56.6292 40.152 56.4439 40.615C56.2587 41.0709 56.1661 41.6336 56.1661 42.3032C56.1661 42.9728 56.2587 43.5391 56.4439 44.0021C56.6292 44.458 56.8892 44.8071 57.2239 45.0493C57.5587 45.2843 57.9398 45.4019 58.3672 45.4019ZM62.3218 46.043V45.498L65.4312 42.4528C65.7161 42.175 65.9298 41.9328 66.0722 41.7263C66.2147 41.5126 66.3109 41.3131 66.3607 41.1279C66.4106 40.9427 66.4355 40.7682 66.4355 40.6043C66.4355 40.1698 66.2859 39.8279 65.9868 39.5786C65.6947 39.3293 65.2602 39.2046 64.6832 39.2046C64.2416 39.2046 63.8498 39.2723 63.5079 39.4076C63.1731 39.543 62.8846 39.7531 62.6424 40.038L62.0974 39.5679C62.3895 39.226 62.7635 38.9624 63.2194 38.7772C63.6753 38.592 64.1846 38.4994 64.7473 38.4994C65.2531 38.4994 65.6912 38.5813 66.0616 38.7452C66.432 38.9019 66.7169 39.1334 66.9164 39.4397C67.1229 39.746 67.2262 40.1057 67.2262 40.5189C67.2262 40.761 67.1906 40.9997 67.1194 41.2347C67.0553 41.4698 66.9342 41.7191 66.7561 41.9827C66.5851 42.2391 66.3322 42.5312 65.9975 42.8589L63.1446 45.6583L62.9309 45.3591H67.5681V46.043H62.3218ZM70.7668 46.1071C70.2254 46.1071 69.7125 46.0216 69.2281 45.8506C68.7509 45.6726 68.3662 45.4375 68.0742 45.1454L68.4481 44.5364C68.6903 44.7857 69.0144 44.9923 69.4205 45.1561C69.8336 45.32 70.2824 45.4019 70.7668 45.4019C71.3865 45.4019 71.8602 45.2665 72.1879 44.9958C72.5227 44.7252 72.6901 44.3619 72.6901 43.906C72.6901 43.4501 72.5262 43.0868 72.1986 42.8161C71.878 42.5454 71.3687 42.4101 70.6706 42.4101H70.1364V41.8438L72.4443 38.9482L72.5512 39.2473H68.384V38.5635H73.1923V39.1084L70.8843 42.0041L70.5103 41.7583H70.7988C71.6964 41.7583 72.366 41.9578 72.8076 42.3567C73.2564 42.7556 73.4808 43.2684 73.4808 43.8953C73.4808 44.3156 73.381 44.6931 73.1816 45.0279C72.9821 45.3627 72.6794 45.6263 72.2734 45.8186C71.8745 46.0109 71.3723 46.1071 70.7668 46.1071Z" fill="white" fill-opacity="0.2"/>
<rect x="109.535" y="38.8359" width="8.76713" height="8.76713" rx="1.64384" stroke="#4B465C" stroke-width="1.43836" stroke-linecap="round" stroke-linejoin="round"/>
<rect x="109.535" y="38.8359" width="8.76713" height="8.76713" rx="1.64384" stroke="white" stroke-opacity="0.5" stroke-width="1.43836" stroke-linecap="round" stroke-linejoin="round"/>
<path d="M116.11 37.7422V39.934" stroke="#4B465C" stroke-width="1.23288" stroke-linecap="round" stroke-linejoin="round"/>
<path d="M116.11 37.7422V39.934" stroke="white" stroke-opacity="0.5" stroke-width="1.23288" stroke-linecap="round" stroke-linejoin="round"/>
<path d="M111.726 37.7422V39.934" stroke="#4B465C" stroke-width="1.43836" stroke-linecap="round" stroke-linejoin="round"/>
<path d="M111.726 37.7422V39.934" stroke="white" stroke-opacity="0.5" stroke-width="1.43836" stroke-linecap="round" stroke-linejoin="round"/>
<path d="M109.535 42.1255H118.302" stroke="#4B465C" stroke-width="1.43836" stroke-linecap="round" stroke-linejoin="round"/>
<path d="M109.535 42.1255H118.302" stroke="white" stroke-opacity="0.5" stroke-width="1.43836" stroke-linecap="round" stroke-linejoin="round"/>
<rect x="111.727" y="44.3164" width="1.09589" height="1.09589" stroke="#4B465C" stroke-width="1.43836" stroke-linecap="round" stroke-linejoin="round"/>
<rect x="111.727" y="44.3164" width="1.09589" height="1.09589" stroke="white" stroke-opacity="0.5" stroke-width="1.43836" stroke-linecap="round" stroke-linejoin="round"/>
</g>
<rect x="12.411" y="28.7" width="115.891" height="27.9452" rx="2.87672" stroke="#DBDADE" stroke-width="0.821919"/>
<path d="M141.196 18.8373C140.769 19.0296 140.342 19.1756 139.914 19.2753C139.494 19.3751 139.088 19.4249 138.696 19.4249C137.82 19.4249 137.136 19.2148 136.645 18.7945C136.16 18.3671 135.918 17.7652 135.918 16.9888V14.5205H136.698V16.9033C136.698 17.4803 136.88 17.929 137.243 18.2496C137.613 18.5701 138.123 18.7304 138.771 18.7304C139.156 18.7304 139.554 18.6805 139.968 18.5808C140.381 18.474 140.79 18.3244 141.196 18.1321V18.8373ZM141.057 22V14.5205H141.827V22H141.057ZM147.666 22V20.7605L147.633 20.5575V18.4847C147.633 18.0074 147.498 17.6405 147.227 17.3841C146.964 17.1277 146.569 16.9994 146.041 16.9994C145.678 16.9994 145.333 17.06 145.005 17.1811C144.677 17.3022 144.399 17.4625 144.172 17.6619L143.83 17.0956C144.115 16.8534 144.456 16.6682 144.855 16.54C145.254 16.4047 145.675 16.337 146.116 16.337C146.843 16.337 147.402 16.5186 147.794 16.8819C148.193 17.2381 148.392 17.783 148.392 18.5167V22H147.666ZM145.732 22.0534C145.311 22.0534 144.944 21.9858 144.631 21.8504C144.325 21.7079 144.09 21.5156 143.926 21.2734C143.762 21.0241 143.68 20.7392 143.68 20.4186C143.68 20.1266 143.748 19.863 143.883 19.6279C144.026 19.3858 144.253 19.1934 144.567 19.051C144.887 18.9014 145.315 18.8266 145.849 18.8266H147.783V19.3929H145.87C145.329 19.3929 144.952 19.489 144.738 19.6814C144.531 19.8737 144.428 20.1123 144.428 20.3973C144.428 20.7178 144.553 20.9742 144.802 21.1666C145.051 21.3589 145.4 21.4551 145.849 21.4551C146.276 21.4551 146.643 21.3589 146.95 21.1666C147.263 20.9671 147.491 20.6822 147.633 20.3118L147.804 20.8353C147.662 21.2058 147.413 21.5014 147.056 21.7222C146.707 21.943 146.266 22.0534 145.732 22.0534ZM152.762 22.0534C152.207 22.0534 151.708 21.9323 151.266 21.6901C150.832 21.4408 150.49 21.1025 150.241 20.6751C149.991 20.2405 149.867 19.7455 149.867 19.1899C149.867 18.6271 149.991 18.1321 150.241 17.7047C150.49 17.2773 150.832 16.9425 151.266 16.7003C151.708 16.4581 152.207 16.337 152.762 16.337C153.24 16.337 153.671 16.4296 154.055 16.6148C154.44 16.8 154.743 17.0778 154.963 17.4482L154.397 17.8329C154.205 17.5479 153.966 17.3378 153.681 17.2025C153.396 17.0671 153.086 16.9994 152.752 16.9994C152.353 16.9994 151.993 17.092 151.672 17.2773C151.352 17.4553 151.099 17.7082 150.914 18.0359C150.729 18.3636 150.636 18.7482 150.636 19.1899C150.636 19.6315 150.729 20.0162 150.914 20.3438C151.099 20.6715 151.352 20.9279 151.672 21.1131C151.993 21.2912 152.353 21.3803 152.752 21.3803C153.086 21.3803 153.396 21.3126 153.681 21.1773C153.966 21.0419 154.205 20.8353 154.397 20.5575L154.963 20.9422C154.743 21.3055 154.44 21.5833 154.055 21.7756C153.671 21.9608 153.24 22.0534 152.762 22.0534Z" fill="#4B465C"/>
<path d="M141.196 18.8373C140.769 19.0296 140.342 19.1756 139.914 19.2753C139.494 19.3751 139.088 19.4249 138.696 19.4249C137.82 19.4249 137.136 19.2148 136.645 18.7945C136.16 18.3671 135.918 17.7652 135.918 16.9888V14.5205H136.698V16.9033C136.698 17.4803 136.88 17.929 137.243 18.2496C137.613 18.5701 138.123 18.7304 138.771 18.7304C139.156 18.7304 139.554 18.6805 139.968 18.5808C140.381 18.474 140.79 18.3244 141.196 18.1321V18.8373ZM141.057 22V14.5205H141.827V22H141.057ZM147.666 22V20.7605L147.633 20.5575V18.4847C147.633 18.0074 147.498 17.6405 147.227 17.3841C146.964 17.1277 146.569 16.9994 146.041 16.9994C145.678 16.9994 145.333 17.06 145.005 17.1811C144.677 17.3022 144.399 17.4625 144.172 17.6619L143.83 17.0956C144.115 16.8534 144.456 16.6682 144.855 16.54C145.254 16.4047 145.675 16.337 146.116 16.337C146.843 16.337 147.402 16.5186 147.794 16.8819C148.193 17.2381 148.392 17.783 148.392 18.5167V22H147.666ZM145.732 22.0534C145.311 22.0534 144.944 21.9858 144.631 21.8504C144.325 21.7079 144.09 21.5156 143.926 21.2734C143.762 21.0241 143.68 20.7392 143.68 20.4186C143.68 20.1266 143.748 19.863 143.883 19.6279C144.026 19.3858 144.253 19.1934 144.567 19.051C144.887 18.9014 145.315 18.8266 145.849 18.8266H147.783V19.3929H145.87C145.329 19.3929 144.952 19.489 144.738 19.6814C144.531 19.8737 144.428 20.1123 144.428 20.3973C144.428 20.7178 144.553 20.9742 144.802 21.1666C145.051 21.3589 145.4 21.4551 145.849 21.4551C146.276 21.4551 146.643 21.3589 146.95 21.1666C147.263 20.9671 147.491 20.6822 147.633 20.3118L147.804 20.8353C147.662 21.2058 147.413 21.5014 147.056 21.7222C146.707 21.943 146.266 22.0534 145.732 22.0534ZM152.762 22.0534C152.207 22.0534 151.708 21.9323 151.266 21.6901C150.832 21.4408 150.49 21.1025 150.241 20.6751C149.991 20.2405 149.867 19.7455 149.867 19.1899C149.867 18.6271 149.991 18.1321 150.241 17.7047C150.49 17.2773 150.832 16.9425 151.266 16.7003C151.708 16.4581 152.207 16.337 152.762 16.337C153.24 16.337 153.671 16.4296 154.055 16.6148C154.44 16.8 154.743 17.0778 154.963 17.4482L154.397 17.8329C154.205 17.5479 153.966 17.3378 153.681 17.2025C153.396 17.0671 153.086 16.9994 152.752 16.9994C152.353 16.9994 151.993 17.092 151.672 17.2773C151.352 17.4553 151.099 17.7082 150.914 18.0359C150.729 18.3636 150.636 18.7482 150.636 19.1899C150.636 19.6315 150.729 20.0162 150.914 20.3438C151.099 20.6715 151.352 20.9279 151.672 21.1131C151.993 21.2912 152.353 21.3803 152.752 21.3803C153.086 21.3803 153.396 21.3126 153.681 21.1773C153.966 21.0419 154.205 20.8353 154.397 20.5575L154.963 20.9422C154.743 21.3055 154.44 21.5833 154.055 21.7756C153.671 21.9608 153.24 22.0534 152.762 22.0534Z" fill="white" fill-opacity="0.1"/>
<g clip-path="url(#clip1_1018_62861)">
<rect x="135.288" y="28.2891" width="116.712" height="28.7672" rx="3.28767" fill="white"/>
<path d="M145.366 46.043V38.8841L145.708 39.2473H143.603V38.5635H146.135V46.043H145.366ZM147.784 46.043V45.498L150.894 42.4528C151.179 42.175 151.392 41.9328 151.535 41.7263C151.677 41.5126 151.773 41.3131 151.823 41.1279C151.873 40.9427 151.898 40.7682 151.898 40.6043C151.898 40.1698 151.748 39.8279 151.449 39.5786C151.157 39.3293 150.723 39.2046 150.146 39.2046C149.704 39.2046 149.312 39.2723 148.97 39.4076C148.636 39.543 148.347 39.7531 148.105 40.038L147.56 39.5679C147.852 39.226 148.226 38.9624 148.682 38.7772C149.138 38.592 149.647 38.4994 150.21 38.4994C150.716 38.4994 151.154 38.5813 151.524 38.7452C151.894 38.9019 152.179 39.1334 152.379 39.4397C152.585 39.746 152.689 40.1057 152.689 40.5189C152.689 40.761 152.653 40.9997 152.582 41.2347C152.518 41.4698 152.397 41.7191 152.219 41.9827C152.048 42.2391 151.795 42.5312 151.46 42.8589L148.607 45.6583L148.393 45.3591H153.031V46.043H147.784ZM154.573 41.5446C154.416 41.5446 154.281 41.4876 154.167 41.3736C154.06 41.2597 154.007 41.1208 154.007 40.9569C154.007 40.786 154.06 40.6471 154.167 40.5402C154.281 40.4334 154.416 40.3799 154.573 40.3799C154.73 40.3799 154.862 40.4334 154.968 40.5402C155.082 40.6471 155.139 40.786 155.139 40.9569C155.139 41.1208 155.082 41.2597 154.968 41.3736C154.862 41.4876 154.73 41.5446 154.573 41.5446ZM154.573 46.0964C154.416 46.0964 154.281 46.0394 154.167 45.9254C154.06 45.8115 154.007 45.6726 154.007 45.5087C154.007 45.3378 154.06 45.1989 154.167 45.092C154.281 44.9852 154.416 44.9317 154.573 44.9317C154.73 44.9317 154.862 44.9852 154.968 45.092C155.082 45.1989 155.139 45.3378 155.139 45.5087C155.139 45.6726 155.082 45.8115 154.968 45.9254C154.862 46.0394 154.73 46.0964 154.573 46.0964ZM157.564 46.043V38.8841L157.906 39.2473H155.801V38.5635H158.333V46.043H157.564ZM159.982 46.043V45.498L163.092 42.4528C163.377 42.175 163.59 41.9328 163.733 41.7263C163.875 41.5126 163.971 41.3131 164.021 41.1279C164.071 40.9427 164.096 40.7682 164.096 40.6043C164.096 40.1698 163.946 39.8279 163.647 39.5786C163.355 39.3293 162.921 39.2046 162.344 39.2046C161.902 39.2046 161.51 39.2723 161.168 39.4076C160.834 39.543 160.545 39.7531 160.303 40.038L159.758 39.5679C160.05 39.226 160.424 38.9624 160.88 38.7772C161.336 38.592 161.845 38.4994 162.408 38.4994C162.914 38.4994 163.352 38.5813 163.722 38.7452C164.092 38.9019 164.377 39.1334 164.577 39.4397C164.783 39.746 164.887 40.1057 164.887 40.5189C164.887 40.761 164.851 40.9997 164.78 41.2347C164.716 41.4698 164.595 41.7191 164.417 41.9827C164.246 42.2391 163.993 42.5312 163.658 42.8589L160.805 45.6583L160.591 45.3591H165.229V46.043H159.982Z" fill="#4B465C"/>
<path d="M145.366 46.043V38.8841L145.708 39.2473H143.603V38.5635H146.135V46.043H145.366ZM147.784 46.043V45.498L150.894 42.4528C151.179 42.175 151.392 41.9328 151.535 41.7263C151.677 41.5126 151.773 41.3131 151.823 41.1279C151.873 40.9427 151.898 40.7682 151.898 40.6043C151.898 40.1698 151.748 39.8279 151.449 39.5786C151.157 39.3293 150.723 39.2046 150.146 39.2046C149.704 39.2046 149.312 39.2723 148.97 39.4076C148.636 39.543 148.347 39.7531 148.105 40.038L147.56 39.5679C147.852 39.226 148.226 38.9624 148.682 38.7772C149.138 38.592 149.647 38.4994 150.21 38.4994C150.716 38.4994 151.154 38.5813 151.524 38.7452C151.894 38.9019 152.179 39.1334 152.379 39.4397C152.585 39.746 152.689 40.1057 152.689 40.5189C152.689 40.761 152.653 40.9997 152.582 41.2347C152.518 41.4698 152.397 41.7191 152.219 41.9827C152.048 42.2391 151.795 42.5312 151.46 42.8589L148.607 45.6583L148.393 45.3591H153.031V46.043H147.784ZM154.573 41.5446C154.416 41.5446 154.281 41.4876 154.167 41.3736C154.06 41.2597 154.007 41.1208 154.007 40.9569C154.007 40.786 154.06 40.6471 154.167 40.5402C154.281 40.4334 154.416 40.3799 154.573 40.3799C154.73 40.3799 154.862 40.4334 154.968 40.5402C155.082 40.6471 155.139 40.786 155.139 40.9569C155.139 41.1208 155.082 41.2597 154.968 41.3736C154.862 41.4876 154.73 41.5446 154.573 41.5446ZM154.573 46.0964C154.416 46.0964 154.281 46.0394 154.167 45.9254C154.06 45.8115 154.007 45.6726 154.007 45.5087C154.007 45.3378 154.06 45.1989 154.167 45.092C154.281 44.9852 154.416 44.9317 154.573 44.9317C154.73 44.9317 154.862 44.9852 154.968 45.092C155.082 45.1989 155.139 45.3378 155.139 45.5087C155.139 45.6726 155.082 45.8115 154.968 45.9254C154.862 46.0394 154.73 46.0964 154.573 46.0964ZM157.564 46.043V38.8841L157.906 39.2473H155.801V38.5635H158.333V46.043H157.564ZM159.982 46.043V45.498L163.092 42.4528C163.377 42.175 163.59 41.9328 163.733 41.7263C163.875 41.5126 163.971 41.3131 164.021 41.1279C164.071 40.9427 164.096 40.7682 164.096 40.6043C164.096 40.1698 163.946 39.8279 163.647 39.5786C163.355 39.3293 162.921 39.2046 162.344 39.2046C161.902 39.2046 161.51 39.2723 161.168 39.4076C160.834 39.543 160.545 39.7531 160.303 40.038L159.758 39.5679C160.05 39.226 160.424 38.9624 160.88 38.7772C161.336 38.592 161.845 38.4994 162.408 38.4994C162.914 38.4994 163.352 38.5813 163.722 38.7452C164.092 38.9019 164.377 39.1334 164.577 39.4397C164.783 39.746 164.887 40.1057 164.887 40.5189C164.887 40.761 164.851 40.9997 164.78 41.2347C164.716 41.4698 164.595 41.7191 164.417 41.9827C164.246 42.2391 163.993 42.5312 163.658 42.8589L160.805 45.6583L160.591 45.3591H165.229V46.043H159.982Z" fill="white" fill-opacity="0.2"/>
</g>
<rect x="135.699" y="28.7" width="115.891" height="27.9452" rx="2.87672" stroke="#DBDADE" stroke-width="0.821919"/>
<rect x="0.5" y="0.5" width="263" height="69" rx="5.5" stroke="#DBDADE"/>
<defs>
<clipPath id="clip0_1018_62861">
<rect x="12" y="28.2891" width="116.712" height="28.7672" rx="3.28767" fill="white"/>
</clipPath>
<clipPath id="clip1_1018_62861">
<rect x="135.288" y="28.2891" width="116.712" height="28.7672" rx="3.28767" fill="white"/>
</clipPath>
</defs>
</svg>
