<svg width="264" height="70" viewBox="0 0 264 70" fill="none" xmlns="http://www.w3.org/2000/svg">
<rect x="0.5" y="0.5" width="263" height="69" rx="5.5" fill="white"/>
<path d="M13.2608 22V14.5205H19.5543V22H18.7743V14.9907L18.9773 15.2044H13.8378L14.0408 14.9907V22H13.2608ZM24.3005 22.0534C23.7163 22.0534 23.2035 21.9323 22.7618 21.6901C22.3202 21.4408 21.9747 21.1025 21.7254 20.6751C21.4761 20.2405 21.3514 19.7455 21.3514 19.1899C21.3514 18.6342 21.4689 18.1427 21.704 17.7153C21.9462 17.2879 22.2739 16.9531 22.687 16.711C23.1073 16.4616 23.5774 16.337 24.0974 16.337C24.6246 16.337 25.0911 16.4581 25.4972 16.7003C25.9103 16.9353 26.2344 17.2701 26.4695 17.7047C26.7046 18.1321 26.8221 18.6271 26.8221 19.1899C26.8221 19.2255 26.8185 19.2647 26.8114 19.3074C26.8114 19.343 26.8114 19.3822 26.8114 19.4249H21.9284V18.8586H26.4054L26.1062 19.083C26.1062 18.677 26.0172 18.3173 25.8391 18.0038C25.6681 17.6833 25.4331 17.434 25.1339 17.2559C24.8347 17.0778 24.4892 16.9888 24.0974 16.9888C23.7128 16.9888 23.3673 17.0778 23.061 17.2559C22.7547 17.434 22.5161 17.6833 22.3451 18.0038C22.1742 18.3244 22.0887 18.6912 22.0887 19.1044V19.2219C22.0887 19.6493 22.1813 20.0268 22.3665 20.3545C22.5588 20.6751 22.8224 20.9279 23.1572 21.1131C23.4991 21.2912 23.8873 21.3803 24.3218 21.3803C24.6637 21.3803 24.9807 21.3197 25.2728 21.1986C25.572 21.0775 25.8284 20.8923 26.0421 20.643L26.4695 21.1345C26.2202 21.4337 25.9068 21.6616 25.5292 21.8184C25.1588 21.9751 24.7492 22.0534 24.3005 22.0534ZM31.397 22.0534C30.9126 22.0534 30.4745 21.943 30.0828 21.7222C29.691 21.4942 29.3776 21.1701 29.1425 20.7499C28.9145 20.3225 28.8006 19.8025 28.8006 19.1899C28.8006 18.5773 28.9145 18.0608 29.1425 17.6405C29.3704 17.2131 29.6803 16.889 30.0721 16.6682C30.4639 16.4474 30.9055 16.337 31.397 16.337C31.9313 16.337 32.4085 16.4581 32.8288 16.7003C33.2562 16.9353 33.591 17.2701 33.8332 17.7047C34.0754 18.1321 34.1965 18.6271 34.1965 19.1899C34.1965 19.7597 34.0754 20.2584 33.8332 20.6858C33.591 21.1131 33.2562 21.4479 32.8288 21.6901C32.4085 21.9323 31.9313 22.0534 31.397 22.0534ZM28.5014 24.0729V16.3904H29.228V18.0786L29.1532 19.2005L29.26 20.3331V24.0729H28.5014ZM31.3436 21.3803C31.7425 21.3803 32.0987 21.2912 32.4121 21.1131C32.7255 20.9279 32.9748 20.6715 33.16 20.3438C33.3452 20.009 33.4378 19.6244 33.4378 19.1899C33.4378 18.7553 33.3452 18.3742 33.16 18.0466C32.9748 17.7189 32.7255 17.4625 32.4121 17.2773C32.0987 17.092 31.7425 16.9994 31.3436 16.9994C30.9447 16.9994 30.585 17.092 30.2644 17.2773C29.951 17.4625 29.7017 17.7189 29.5165 18.0466C29.3384 18.3742 29.2493 18.7553 29.2493 19.1899C29.2493 19.6244 29.3384 20.009 29.5165 20.3438C29.7017 20.6715 29.951 20.9279 30.2644 21.1131C30.585 21.2912 30.9447 21.3803 31.3436 21.3803ZM35.8264 22V16.3904H36.5851V22H35.8264ZM36.2111 15.151C36.0544 15.151 35.9226 15.0975 35.8157 14.9907C35.7089 14.8838 35.6555 14.7556 35.6555 14.606C35.6555 14.4564 35.7089 14.3318 35.8157 14.232C35.9226 14.1252 36.0544 14.0718 36.2111 14.0718C36.3678 14.0718 36.4996 14.1216 36.6064 14.2214C36.7133 14.3211 36.7667 14.4457 36.7667 14.5953C36.7667 14.752 36.7133 14.8838 36.6064 14.9907C36.5067 15.0975 36.3749 15.151 36.2111 15.151ZM41.056 22.0534C40.5147 22.0534 40.0267 21.9323 39.5922 21.6901C39.1648 21.4408 38.8264 21.1025 38.5771 20.6751C38.3278 20.2405 38.2032 19.7455 38.2032 19.1899C38.2032 18.6271 38.3278 18.1321 38.5771 17.7047C38.8264 17.2773 39.1648 16.9425 39.5922 16.7003C40.0196 16.4581 40.5075 16.337 41.056 16.337C41.6117 16.337 42.1032 16.4581 42.5306 16.7003C42.9651 16.9425 43.3034 17.2773 43.5456 17.7047C43.7949 18.1321 43.9196 18.6271 43.9196 19.1899C43.9196 19.7455 43.7949 20.2405 43.5456 20.6751C43.3034 21.1025 42.9651 21.4408 42.5306 21.6901C42.096 21.9323 41.6045 22.0534 41.056 22.0534ZM41.056 21.3803C41.4621 21.3803 41.8218 21.2912 42.1352 21.1131C42.4486 20.9279 42.6944 20.6715 42.8725 20.3438C43.0577 20.009 43.1503 19.6244 43.1503 19.1899C43.1503 18.7482 43.0577 18.3636 42.8725 18.0359C42.6944 17.7082 42.4486 17.4553 42.1352 17.2773C41.8218 17.092 41.4656 16.9994 41.0667 16.9994C40.6678 16.9994 40.3116 17.092 39.9982 17.2773C39.6848 17.4553 39.4355 17.7082 39.2503 18.0359C39.0651 18.3636 38.9725 18.7482 38.9725 19.1899C38.9725 19.6244 39.0651 20.009 39.2503 20.3438C39.4355 20.6715 39.6848 20.9279 39.9982 21.1131C40.3116 21.2912 40.6643 21.3803 41.056 21.3803ZM49.3562 21.6367V17.0529H46.6529L46.5888 18.303C46.5746 18.6805 46.5497 19.051 46.514 19.4142C46.4855 19.7775 46.4321 20.1123 46.3538 20.4186C46.2825 20.7178 46.1792 20.9636 46.0439 21.1559C45.9086 21.3411 45.734 21.4479 45.5203 21.4764L44.7617 21.3375C44.9825 21.3447 45.1642 21.2663 45.3066 21.1025C45.4491 20.9315 45.5595 20.7 45.6379 20.4079C45.7162 20.1159 45.7732 19.7847 45.8088 19.4142C45.8444 19.0367 45.8729 18.6521 45.8943 18.2603L45.9691 16.3904H50.1149V21.6367H49.3562ZM44.5266 23.357V21.3375H50.991V23.357H50.2751V22H45.2425V23.357H44.5266Z" fill="#4B465C"/>
<path d="M13.2608 22V14.5205H19.5543V22H18.7743V14.9907L18.9773 15.2044H13.8378L14.0408 14.9907V22H13.2608ZM24.3005 22.0534C23.7163 22.0534 23.2035 21.9323 22.7618 21.6901C22.3202 21.4408 21.9747 21.1025 21.7254 20.6751C21.4761 20.2405 21.3514 19.7455 21.3514 19.1899C21.3514 18.6342 21.4689 18.1427 21.704 17.7153C21.9462 17.2879 22.2739 16.9531 22.687 16.711C23.1073 16.4616 23.5774 16.337 24.0974 16.337C24.6246 16.337 25.0911 16.4581 25.4972 16.7003C25.9103 16.9353 26.2344 17.2701 26.4695 17.7047C26.7046 18.1321 26.8221 18.6271 26.8221 19.1899C26.8221 19.2255 26.8185 19.2647 26.8114 19.3074C26.8114 19.343 26.8114 19.3822 26.8114 19.4249H21.9284V18.8586H26.4054L26.1062 19.083C26.1062 18.677 26.0172 18.3173 25.8391 18.0038C25.6681 17.6833 25.4331 17.434 25.1339 17.2559C24.8347 17.0778 24.4892 16.9888 24.0974 16.9888C23.7128 16.9888 23.3673 17.0778 23.061 17.2559C22.7547 17.434 22.5161 17.6833 22.3451 18.0038C22.1742 18.3244 22.0887 18.6912 22.0887 19.1044V19.2219C22.0887 19.6493 22.1813 20.0268 22.3665 20.3545C22.5588 20.6751 22.8224 20.9279 23.1572 21.1131C23.4991 21.2912 23.8873 21.3803 24.3218 21.3803C24.6637 21.3803 24.9807 21.3197 25.2728 21.1986C25.572 21.0775 25.8284 20.8923 26.0421 20.643L26.4695 21.1345C26.2202 21.4337 25.9068 21.6616 25.5292 21.8184C25.1588 21.9751 24.7492 22.0534 24.3005 22.0534ZM31.397 22.0534C30.9126 22.0534 30.4745 21.943 30.0828 21.7222C29.691 21.4942 29.3776 21.1701 29.1425 20.7499C28.9145 20.3225 28.8006 19.8025 28.8006 19.1899C28.8006 18.5773 28.9145 18.0608 29.1425 17.6405C29.3704 17.2131 29.6803 16.889 30.0721 16.6682C30.4639 16.4474 30.9055 16.337 31.397 16.337C31.9313 16.337 32.4085 16.4581 32.8288 16.7003C33.2562 16.9353 33.591 17.2701 33.8332 17.7047C34.0754 18.1321 34.1965 18.6271 34.1965 19.1899C34.1965 19.7597 34.0754 20.2584 33.8332 20.6858C33.591 21.1131 33.2562 21.4479 32.8288 21.6901C32.4085 21.9323 31.9313 22.0534 31.397 22.0534ZM28.5014 24.0729V16.3904H29.228V18.0786L29.1532 19.2005L29.26 20.3331V24.0729H28.5014ZM31.3436 21.3803C31.7425 21.3803 32.0987 21.2912 32.4121 21.1131C32.7255 20.9279 32.9748 20.6715 33.16 20.3438C33.3452 20.009 33.4378 19.6244 33.4378 19.1899C33.4378 18.7553 33.3452 18.3742 33.16 18.0466C32.9748 17.7189 32.7255 17.4625 32.4121 17.2773C32.0987 17.092 31.7425 16.9994 31.3436 16.9994C30.9447 16.9994 30.585 17.092 30.2644 17.2773C29.951 17.4625 29.7017 17.7189 29.5165 18.0466C29.3384 18.3742 29.2493 18.7553 29.2493 19.1899C29.2493 19.6244 29.3384 20.009 29.5165 20.3438C29.7017 20.6715 29.951 20.9279 30.2644 21.1131C30.585 21.2912 30.9447 21.3803 31.3436 21.3803ZM35.8264 22V16.3904H36.5851V22H35.8264ZM36.2111 15.151C36.0544 15.151 35.9226 15.0975 35.8157 14.9907C35.7089 14.8838 35.6555 14.7556 35.6555 14.606C35.6555 14.4564 35.7089 14.3318 35.8157 14.232C35.9226 14.1252 36.0544 14.0718 36.2111 14.0718C36.3678 14.0718 36.4996 14.1216 36.6064 14.2214C36.7133 14.3211 36.7667 14.4457 36.7667 14.5953C36.7667 14.752 36.7133 14.8838 36.6064 14.9907C36.5067 15.0975 36.3749 15.151 36.2111 15.151ZM41.056 22.0534C40.5147 22.0534 40.0267 21.9323 39.5922 21.6901C39.1648 21.4408 38.8264 21.1025 38.5771 20.6751C38.3278 20.2405 38.2032 19.7455 38.2032 19.1899C38.2032 18.6271 38.3278 18.1321 38.5771 17.7047C38.8264 17.2773 39.1648 16.9425 39.5922 16.7003C40.0196 16.4581 40.5075 16.337 41.056 16.337C41.6117 16.337 42.1032 16.4581 42.5306 16.7003C42.9651 16.9425 43.3034 17.2773 43.5456 17.7047C43.7949 18.1321 43.9196 18.6271 43.9196 19.1899C43.9196 19.7455 43.7949 20.2405 43.5456 20.6751C43.3034 21.1025 42.9651 21.4408 42.5306 21.6901C42.096 21.9323 41.6045 22.0534 41.056 22.0534ZM41.056 21.3803C41.4621 21.3803 41.8218 21.2912 42.1352 21.1131C42.4486 20.9279 42.6944 20.6715 42.8725 20.3438C43.0577 20.009 43.1503 19.6244 43.1503 19.1899C43.1503 18.7482 43.0577 18.3636 42.8725 18.0359C42.6944 17.7082 42.4486 17.4553 42.1352 17.2773C41.8218 17.092 41.4656 16.9994 41.0667 16.9994C40.6678 16.9994 40.3116 17.092 39.9982 17.2773C39.6848 17.4553 39.4355 17.7082 39.2503 18.0359C39.0651 18.3636 38.9725 18.7482 38.9725 19.1899C38.9725 19.6244 39.0651 20.009 39.2503 20.3438C39.4355 20.6715 39.6848 20.9279 39.9982 21.1131C40.3116 21.2912 40.6643 21.3803 41.056 21.3803ZM49.3562 21.6367V17.0529H46.6529L46.5888 18.303C46.5746 18.6805 46.5497 19.051 46.514 19.4142C46.4855 19.7775 46.4321 20.1123 46.3538 20.4186C46.2825 20.7178 46.1792 20.9636 46.0439 21.1559C45.9086 21.3411 45.734 21.4479 45.5203 21.4764L44.7617 21.3375C44.9825 21.3447 45.1642 21.2663 45.3066 21.1025C45.4491 20.9315 45.5595 20.7 45.6379 20.4079C45.7162 20.1159 45.7732 19.7847 45.8088 19.4142C45.8444 19.0367 45.8729 18.6521 45.8943 18.2603L45.9691 16.3904H50.1149V21.6367H49.3562ZM44.5266 23.357V21.3375H50.991V23.357H50.2751V22H45.2425V23.357H44.5266Z" fill="white" fill-opacity="0.1"/>
<g clip-path="url(#clip0_1018_62843)">
<rect x="12" y="28.2891" width="240" height="28.7672" rx="3.28767" fill="white"/>
<path d="M20.636 46.043V45.498L23.7453 42.4528C24.0302 42.175 24.2439 41.9328 24.3864 41.7263C24.5288 41.5126 24.625 41.3131 24.6749 41.1279C24.7247 40.9427 24.7497 40.7682 24.7497 40.6043C24.7497 40.1698 24.6001 39.8279 24.3009 39.5786C24.0088 39.3293 23.5743 39.2046 22.9973 39.2046C22.5557 39.2046 22.1639 39.2723 21.822 39.4076C21.4872 39.543 21.1987 39.7531 20.9565 40.038L20.4116 39.5679C20.7036 39.226 21.0776 38.9624 21.5335 38.7772C21.9894 38.592 22.4987 38.4994 23.0614 38.4994C23.5672 38.4994 24.0053 38.5813 24.3757 38.7452C24.7461 38.9019 25.031 39.1334 25.2305 39.4397C25.4371 39.746 25.5403 40.1057 25.5403 40.5189C25.5403 40.761 25.5047 40.9997 25.4335 41.2347C25.3694 41.4698 25.2483 41.7191 25.0702 41.9827C24.8992 42.2391 24.6464 42.5312 24.3116 42.8589L21.4587 45.6583L21.245 45.3591H25.8823V46.043H20.636ZM26.4795 44.0769V43.5213L30.4436 38.5635H31.2984L27.3664 43.5213L26.9497 43.3931H32.9653V44.0769H26.4795ZM30.7001 46.043V44.0769L30.7215 43.3931V41.6621H31.4694V46.043H30.7001ZM34.4576 46.0964C34.3009 46.0964 34.1655 46.0394 34.0516 45.9254C33.9447 45.8115 33.8913 45.6726 33.8913 45.5087C33.8913 45.3378 33.9447 45.1989 34.0516 45.092C34.1655 44.9852 34.3009 44.9317 34.4576 44.9317C34.6143 44.9317 34.7461 44.9852 34.8529 45.092C34.9669 45.1989 35.0239 45.3378 35.0239 45.5087C35.0239 45.6726 34.9669 45.8115 34.8529 45.9254C34.7461 46.0394 34.6143 46.0964 34.4576 46.0964ZM39.0112 46.1071C38.4342 46.1071 37.9213 45.9575 37.4726 45.6583C37.0238 45.352 36.6712 44.9175 36.4148 44.3547C36.1583 43.7849 36.0301 43.101 36.0301 42.3032C36.0301 41.5054 36.1583 40.8252 36.4148 40.2624C36.6712 39.6926 37.0238 39.258 37.4726 38.9589C37.9213 38.6525 38.4342 38.4994 39.0112 38.4994C39.5882 38.4994 40.1011 38.6525 40.5498 38.9589C40.9986 39.258 41.3512 39.6926 41.6077 40.2624C41.8712 40.8252 42.003 41.5054 42.003 42.3032C42.003 43.101 41.8712 43.7849 41.6077 44.3547C41.3512 44.9175 40.9986 45.352 40.5498 45.6583C40.1011 45.9575 39.5882 46.1071 39.0112 46.1071ZM39.0112 45.4019C39.4529 45.4019 39.8375 45.2843 40.1652 45.0493C40.4929 44.8071 40.7493 44.458 40.9345 44.0021C41.1197 43.5391 41.2123 42.9728 41.2123 42.3032C41.2123 41.6336 41.1197 41.0709 40.9345 40.615C40.7493 40.152 40.4929 39.803 40.1652 39.5679C39.8375 39.3257 39.4529 39.2046 39.0112 39.2046C38.5838 39.2046 38.2027 39.3257 37.8679 39.5679C37.5331 39.803 37.2731 40.152 37.0879 40.615C36.9027 41.0709 36.8101 41.6336 36.8101 42.3032C36.8101 42.9728 36.9027 43.5391 37.0879 44.0021C37.2731 44.458 37.5331 44.8071 37.8679 45.0493C38.2027 45.2843 38.5838 45.4019 39.0112 45.4019ZM44.4083 46.043V38.8841L44.7502 39.2473H42.6453V38.5635H45.1776V46.043H44.4083ZM47.5425 46.0964C47.3858 46.0964 47.2504 46.0394 47.1364 45.9254C47.0296 45.8115 46.9762 45.6726 46.9762 45.5087C46.9762 45.3378 47.0296 45.1989 47.1364 45.092C47.2504 44.9852 47.3858 44.9317 47.5425 44.9317C47.6992 44.9317 47.831 44.9852 47.9378 45.092C48.0518 45.1989 48.1088 45.3378 48.1088 45.5087C48.1088 45.6726 48.0518 45.8115 47.9378 45.9254C47.831 46.0394 47.6992 46.0964 47.5425 46.0964ZM49.1952 46.043V45.498L52.3045 42.4528C52.5895 42.175 52.8032 41.9328 52.9456 41.7263C53.0881 41.5126 53.1843 41.3131 53.2341 41.1279C53.284 40.9427 53.3089 40.7682 53.3089 40.6043C53.3089 40.1698 53.1593 39.8279 52.8602 39.5786C52.5681 39.3293 52.1336 39.2046 51.5566 39.2046C51.1149 39.2046 50.7232 39.2723 50.3812 39.4076C50.0464 39.543 49.758 39.7531 49.5158 40.038L48.9708 39.5679C49.2629 39.226 49.6369 38.9624 50.0928 38.7772C50.5486 38.592 51.058 38.4994 51.6207 38.4994C52.1265 38.4994 52.5645 38.5813 52.9349 38.7452C53.3054 38.9019 53.5903 39.1334 53.7897 39.4397C53.9963 39.746 54.0996 40.1057 54.0996 40.5189C54.0996 40.761 54.064 40.9997 53.9928 41.2347C53.9286 41.4698 53.8075 41.7191 53.6295 41.9827C53.4585 42.2391 53.2056 42.5312 52.8708 42.8589L50.018 45.6583L49.8043 45.3591H54.4415V46.043H49.1952ZM58.3672 46.1071C57.7902 46.1071 57.2774 45.9575 56.8286 45.6583C56.3798 45.352 56.0272 44.9175 55.7708 44.3547C55.5144 43.7849 55.3861 43.101 55.3861 42.3032C55.3861 41.5054 55.5144 40.8252 55.7708 40.2624C56.0272 39.6926 56.3798 39.258 56.8286 38.9589C57.2774 38.6525 57.7902 38.4994 58.3672 38.4994C58.9442 38.4994 59.4571 38.6525 59.9059 38.9589C60.3546 39.258 60.7072 39.6926 60.9637 40.2624C61.2272 40.8252 61.359 41.5054 61.359 42.3032C61.359 43.101 61.2272 43.7849 60.9637 44.3547C60.7072 44.9175 60.3546 45.352 59.9059 45.6583C59.4571 45.9575 58.9442 46.1071 58.3672 46.1071ZM58.3672 45.4019C58.8089 45.4019 59.1935 45.2843 59.5212 45.0493C59.8489 44.8071 60.1053 44.458 60.2905 44.0021C60.4757 43.5391 60.5683 42.9728 60.5683 42.3032C60.5683 41.6336 60.4757 41.0709 60.2905 40.615C60.1053 40.152 59.8489 39.803 59.5212 39.5679C59.1935 39.3257 58.8089 39.2046 58.3672 39.2046C57.9398 39.2046 57.5587 39.3257 57.2239 39.5679C56.8892 39.803 56.6292 40.152 56.4439 40.615C56.2587 41.0709 56.1661 41.6336 56.1661 42.3032C56.1661 42.9728 56.2587 43.5391 56.4439 44.0021C56.6292 44.458 56.8892 44.8071 57.2239 45.0493C57.5587 45.2843 57.9398 45.4019 58.3672 45.4019ZM62.3218 46.043V45.498L65.4312 42.4528C65.7161 42.175 65.9298 41.9328 66.0722 41.7263C66.2147 41.5126 66.3109 41.3131 66.3607 41.1279C66.4106 40.9427 66.4355 40.7682 66.4355 40.6043C66.4355 40.1698 66.2859 39.8279 65.9868 39.5786C65.6947 39.3293 65.2602 39.2046 64.6832 39.2046C64.2416 39.2046 63.8498 39.2723 63.5079 39.4076C63.1731 39.543 62.8846 39.7531 62.6424 40.038L62.0974 39.5679C62.3895 39.226 62.7635 38.9624 63.2194 38.7772C63.6753 38.592 64.1846 38.4994 64.7473 38.4994C65.2531 38.4994 65.6912 38.5813 66.0616 38.7452C66.432 38.9019 66.7169 39.1334 66.9164 39.4397C67.1229 39.746 67.2262 40.1057 67.2262 40.5189C67.2262 40.761 67.1906 40.9997 67.1194 41.2347C67.0553 41.4698 66.9342 41.7191 66.7561 41.9827C66.5851 42.2391 66.3322 42.5312 65.9975 42.8589L63.1446 45.6583L62.9309 45.3591H67.5681V46.043H62.3218ZM70.7668 46.1071C70.2254 46.1071 69.7125 46.0216 69.2281 45.8506C68.7509 45.6726 68.3662 45.4375 68.0742 45.1454L68.4481 44.5364C68.6903 44.7857 69.0144 44.9923 69.4205 45.1561C69.8336 45.32 70.2824 45.4019 70.7668 45.4019C71.3865 45.4019 71.8602 45.2665 72.1879 44.9958C72.5227 44.7252 72.6901 44.3619 72.6901 43.906C72.6901 43.4501 72.5262 43.0868 72.1986 42.8161C71.878 42.5454 71.3687 42.4101 70.6706 42.4101H70.1364V41.8438L72.4443 38.9482L72.5512 39.2473H68.384V38.5635H73.1923V39.1084L70.8843 42.0041L70.5103 41.7583H70.7988C71.6964 41.7583 72.366 41.9578 72.8076 42.3567C73.2564 42.7556 73.4808 43.2684 73.4808 43.8953C73.4808 44.3156 73.381 44.6931 73.1816 45.0279C72.9821 45.3627 72.6794 45.6263 72.2734 45.8186C71.8745 46.0109 71.3723 46.1071 70.7668 46.1071ZM77.4467 43.4786V42.8161H80.2462V43.4786H77.4467ZM86.4707 46.1071C85.9294 46.1071 85.4165 46.0216 84.9321 45.8506C84.4548 45.6726 84.0702 45.4375 83.7781 45.1454L84.1521 44.5364C84.3943 44.7857 84.7184 44.9923 85.1244 45.1561C85.5376 45.32 85.9863 45.4019 86.4707 45.4019C87.0905 45.4019 87.5641 45.2665 87.8918 44.9958C88.2266 44.7252 88.394 44.3619 88.394 43.906C88.394 43.4501 88.2302 43.0868 87.9025 42.8161C87.582 42.5454 87.0726 42.4101 86.3746 42.4101H85.8403V41.8438L88.1483 38.9482L88.2551 39.2473H84.088V38.5635H88.8962V39.1084L86.5883 42.0041L86.2143 41.7583H86.5028C87.4003 41.7583 88.0699 41.9578 88.5115 42.3567C88.9603 42.7556 89.1847 43.2684 89.1847 43.8953C89.1847 44.3156 89.085 44.6931 88.8855 45.0279C88.6861 45.3627 88.3833 45.6263 87.9773 45.8186C87.5784 46.0109 87.0762 46.1071 86.4707 46.1071ZM93.2498 46.1071C92.6728 46.1071 92.16 45.9575 91.7112 45.6583C91.2624 45.352 90.9098 44.9175 90.6534 44.3547C90.3969 43.7849 90.2687 43.101 90.2687 42.3032C90.2687 41.5054 90.3969 40.8252 90.6534 40.2624C90.9098 39.6926 91.2624 39.258 91.7112 38.9589C92.16 38.6525 92.6728 38.4994 93.2498 38.4994C93.8268 38.4994 94.3397 38.6525 94.7885 38.9589C95.2372 39.258 95.5898 39.6926 95.8463 40.2624C96.1098 40.8252 96.2416 41.5054 96.2416 42.3032C96.2416 43.101 96.1098 43.7849 95.8463 44.3547C95.5898 44.9175 95.2372 45.352 94.7885 45.6583C94.3397 45.9575 93.8268 46.1071 93.2498 46.1071ZM93.2498 45.4019C93.6915 45.4019 94.0761 45.2843 94.4038 45.0493C94.7315 44.8071 94.9879 44.458 95.1731 44.0021C95.3583 43.5391 95.4509 42.9728 95.4509 42.3032C95.4509 41.6336 95.3583 41.0709 95.1731 40.615C94.9879 40.152 94.7315 39.803 94.4038 39.5679C94.0761 39.3257 93.6915 39.2046 93.2498 39.2046C92.8224 39.2046 92.4413 39.3257 92.1065 39.5679C91.7717 39.803 91.5117 40.152 91.3265 40.615C91.1413 41.0709 91.0487 41.6336 91.0487 42.3032C91.0487 42.9728 91.1413 43.5391 91.3265 44.0021C91.5117 44.458 91.7717 44.8071 92.1065 45.0493C92.4413 45.2843 92.8224 45.4019 93.2498 45.4019ZM97.8055 46.0964C97.6488 46.0964 97.5135 46.0394 97.3995 45.9254C97.2926 45.8115 97.2392 45.6726 97.2392 45.5087C97.2392 45.3378 97.2926 45.1989 97.3995 45.092C97.5135 44.9852 97.6488 44.9317 97.8055 44.9317C97.9622 44.9317 98.094 44.9852 98.2009 45.092C98.3148 45.1989 98.3718 45.3378 98.3718 45.5087C98.3718 45.6726 98.3148 45.8115 98.2009 45.9254C98.094 46.0394 97.9622 46.0964 97.8055 46.0964ZM102.359 46.1071C101.782 46.1071 101.269 45.9575 100.821 45.6583C100.372 45.352 100.019 44.9175 99.7627 44.3547C99.5063 43.7849 99.3781 43.101 99.3781 42.3032C99.3781 41.5054 99.5063 40.8252 99.7627 40.2624C100.019 39.6926 100.372 39.258 100.821 38.9589C101.269 38.6525 101.782 38.4994 102.359 38.4994C102.936 38.4994 103.449 38.6525 103.898 38.9589C104.347 39.258 104.699 39.6926 104.956 40.2624C105.219 40.8252 105.351 41.5054 105.351 42.3032C105.351 43.101 105.219 43.7849 104.956 44.3547C104.699 44.9175 104.347 45.352 103.898 45.6583C103.449 45.9575 102.936 46.1071 102.359 46.1071ZM102.359 45.4019C102.801 45.4019 103.185 45.2843 103.513 45.0493C103.841 44.8071 104.097 44.458 104.282 44.0021C104.468 43.5391 104.56 42.9728 104.56 42.3032C104.56 41.6336 104.468 41.0709 104.282 40.615C104.097 40.152 103.841 39.803 103.513 39.5679C103.185 39.3257 102.801 39.2046 102.359 39.2046C101.932 39.2046 101.551 39.3257 101.216 39.5679C100.881 39.803 100.621 40.152 100.436 40.615C100.251 41.0709 100.158 41.6336 100.158 42.3032C100.158 42.9728 100.251 43.5391 100.436 44.0021C100.621 44.458 100.881 44.8071 101.216 45.0493C101.551 45.2843 101.932 45.4019 102.359 45.4019ZM107.756 46.043V38.8841L108.098 39.2473H105.993V38.5635H108.526V46.043H107.756ZM110.89 46.0964C110.734 46.0964 110.598 46.0394 110.484 45.9254C110.378 45.8115 110.324 45.6726 110.324 45.5087C110.324 45.3378 110.378 45.1989 110.484 45.092C110.598 44.9852 110.734 44.9317 110.89 44.9317C111.047 44.9317 111.179 44.9852 111.286 45.092C111.4 45.1989 111.457 45.3378 111.457 45.5087C111.457 45.6726 111.4 45.8115 111.286 45.9254C111.179 46.0394 111.047 46.0964 110.89 46.0964ZM112.543 46.043V45.498L115.652 42.4528C115.937 42.175 116.151 41.9328 116.294 41.7263C116.436 41.5126 116.532 41.3131 116.582 41.1279C116.632 40.9427 116.657 40.7682 116.657 40.6043C116.657 40.1698 116.507 39.8279 116.208 39.5786C115.916 39.3293 115.482 39.2046 114.905 39.2046C114.463 39.2046 114.071 39.2723 113.729 39.4076C113.394 39.543 113.106 39.7531 112.864 40.038L112.319 39.5679C112.611 39.226 112.985 38.9624 113.441 38.7772C113.897 38.592 114.406 38.4994 114.969 38.4994C115.474 38.4994 115.912 38.5813 116.283 38.7452C116.653 38.9019 116.938 39.1334 117.138 39.4397C117.344 39.746 117.448 40.1057 117.448 40.5189C117.448 40.761 117.412 40.9997 117.341 41.2347C117.277 41.4698 117.155 41.7191 116.977 41.9827C116.806 42.2391 116.554 42.5312 116.219 42.8589L113.366 45.6583L113.152 45.3591H117.789V46.043H112.543ZM121.715 46.1071C121.138 46.1071 120.625 45.9575 120.177 45.6583C119.728 45.352 119.375 44.9175 119.119 44.3547C118.862 43.7849 118.734 43.101 118.734 42.3032C118.734 41.5054 118.862 40.8252 119.119 40.2624C119.375 39.6926 119.728 39.258 120.177 38.9589C120.625 38.6525 121.138 38.4994 121.715 38.4994C122.292 38.4994 122.805 38.6525 123.254 38.9589C123.703 39.258 124.055 39.6926 124.312 40.2624C124.575 40.8252 124.707 41.5054 124.707 42.3032C124.707 43.101 124.575 43.7849 124.312 44.3547C124.055 44.9175 123.703 45.352 123.254 45.6583C122.805 45.9575 122.292 46.1071 121.715 46.1071ZM121.715 45.4019C122.157 45.4019 122.541 45.2843 122.869 45.0493C123.197 44.8071 123.453 44.458 123.638 44.0021C123.824 43.5391 123.916 42.9728 123.916 42.3032C123.916 41.6336 123.824 41.0709 123.638 40.615C123.453 40.152 123.197 39.803 122.869 39.5679C122.541 39.3257 122.157 39.2046 121.715 39.2046C121.288 39.2046 120.907 39.3257 120.572 39.5679C120.237 39.803 119.977 40.152 119.792 40.615C119.607 41.0709 119.514 41.6336 119.514 42.3032C119.514 42.9728 119.607 43.5391 119.792 44.0021C119.977 44.458 120.237 44.8071 120.572 45.0493C120.907 45.2843 121.288 45.4019 121.715 45.4019ZM125.67 46.043V45.498L128.779 42.4528C129.064 42.175 129.278 41.9328 129.42 41.7263C129.563 41.5126 129.659 41.3131 129.709 41.1279C129.759 40.9427 129.783 40.7682 129.783 40.6043C129.783 40.1698 129.634 39.8279 129.335 39.5786C129.043 39.3293 128.608 39.2046 128.031 39.2046C127.589 39.2046 127.198 39.2723 126.856 39.4076C126.521 39.543 126.233 39.7531 125.99 40.038L125.445 39.5679C125.737 39.226 126.111 38.9624 126.567 38.7772C127.023 38.592 127.533 38.4994 128.095 38.4994C128.601 38.4994 129.039 38.5813 129.409 38.7452C129.78 38.9019 130.065 39.1334 130.264 39.4397C130.471 39.746 130.574 40.1057 130.574 40.5189C130.574 40.761 130.539 40.9997 130.467 41.2347C130.403 41.4698 130.282 41.7191 130.104 41.9827C129.933 42.2391 129.68 42.5312 129.345 42.8589L126.493 45.6583L126.279 45.3591H130.916V46.043H125.67ZM134.115 46.1071C133.573 46.1071 133.06 46.0216 132.576 45.8506C132.099 45.6726 131.714 45.4375 131.422 45.1454L131.796 44.5364C132.038 44.7857 132.362 44.9923 132.768 45.1561C133.182 45.32 133.63 45.4019 134.115 45.4019C134.734 45.4019 135.208 45.2665 135.536 44.9958C135.871 44.7252 136.038 44.3619 136.038 43.906C136.038 43.4501 135.874 43.0868 135.546 42.8161C135.226 42.5454 134.717 42.4101 134.019 42.4101H133.484V41.8438L135.792 38.9482L135.899 39.2473H131.732V38.5635H136.54V39.1084L134.232 42.0041L133.858 41.7583H134.147C135.044 41.7583 135.714 41.9578 136.156 42.3567C136.604 42.7556 136.829 43.2684 136.829 43.8953C136.829 44.3156 136.729 44.6931 136.53 45.0279C136.33 45.3627 136.027 45.6263 135.621 45.8186C135.222 46.0109 134.72 46.1071 134.115 46.1071Z" fill="#4B465C"/>
<path d="M20.636 46.043V45.498L23.7453 42.4528C24.0302 42.175 24.2439 41.9328 24.3864 41.7263C24.5288 41.5126 24.625 41.3131 24.6749 41.1279C24.7247 40.9427 24.7497 40.7682 24.7497 40.6043C24.7497 40.1698 24.6001 39.8279 24.3009 39.5786C24.0088 39.3293 23.5743 39.2046 22.9973 39.2046C22.5557 39.2046 22.1639 39.2723 21.822 39.4076C21.4872 39.543 21.1987 39.7531 20.9565 40.038L20.4116 39.5679C20.7036 39.226 21.0776 38.9624 21.5335 38.7772C21.9894 38.592 22.4987 38.4994 23.0614 38.4994C23.5672 38.4994 24.0053 38.5813 24.3757 38.7452C24.7461 38.9019 25.031 39.1334 25.2305 39.4397C25.4371 39.746 25.5403 40.1057 25.5403 40.5189C25.5403 40.761 25.5047 40.9997 25.4335 41.2347C25.3694 41.4698 25.2483 41.7191 25.0702 41.9827C24.8992 42.2391 24.6464 42.5312 24.3116 42.8589L21.4587 45.6583L21.245 45.3591H25.8823V46.043H20.636ZM26.4795 44.0769V43.5213L30.4436 38.5635H31.2984L27.3664 43.5213L26.9497 43.3931H32.9653V44.0769H26.4795ZM30.7001 46.043V44.0769L30.7215 43.3931V41.6621H31.4694V46.043H30.7001ZM34.4576 46.0964C34.3009 46.0964 34.1655 46.0394 34.0516 45.9254C33.9447 45.8115 33.8913 45.6726 33.8913 45.5087C33.8913 45.3378 33.9447 45.1989 34.0516 45.092C34.1655 44.9852 34.3009 44.9317 34.4576 44.9317C34.6143 44.9317 34.7461 44.9852 34.8529 45.092C34.9669 45.1989 35.0239 45.3378 35.0239 45.5087C35.0239 45.6726 34.9669 45.8115 34.8529 45.9254C34.7461 46.0394 34.6143 46.0964 34.4576 46.0964ZM39.0112 46.1071C38.4342 46.1071 37.9213 45.9575 37.4726 45.6583C37.0238 45.352 36.6712 44.9175 36.4148 44.3547C36.1583 43.7849 36.0301 43.101 36.0301 42.3032C36.0301 41.5054 36.1583 40.8252 36.4148 40.2624C36.6712 39.6926 37.0238 39.258 37.4726 38.9589C37.9213 38.6525 38.4342 38.4994 39.0112 38.4994C39.5882 38.4994 40.1011 38.6525 40.5498 38.9589C40.9986 39.258 41.3512 39.6926 41.6077 40.2624C41.8712 40.8252 42.003 41.5054 42.003 42.3032C42.003 43.101 41.8712 43.7849 41.6077 44.3547C41.3512 44.9175 40.9986 45.352 40.5498 45.6583C40.1011 45.9575 39.5882 46.1071 39.0112 46.1071ZM39.0112 45.4019C39.4529 45.4019 39.8375 45.2843 40.1652 45.0493C40.4929 44.8071 40.7493 44.458 40.9345 44.0021C41.1197 43.5391 41.2123 42.9728 41.2123 42.3032C41.2123 41.6336 41.1197 41.0709 40.9345 40.615C40.7493 40.152 40.4929 39.803 40.1652 39.5679C39.8375 39.3257 39.4529 39.2046 39.0112 39.2046C38.5838 39.2046 38.2027 39.3257 37.8679 39.5679C37.5331 39.803 37.2731 40.152 37.0879 40.615C36.9027 41.0709 36.8101 41.6336 36.8101 42.3032C36.8101 42.9728 36.9027 43.5391 37.0879 44.0021C37.2731 44.458 37.5331 44.8071 37.8679 45.0493C38.2027 45.2843 38.5838 45.4019 39.0112 45.4019ZM44.4083 46.043V38.8841L44.7502 39.2473H42.6453V38.5635H45.1776V46.043H44.4083ZM47.5425 46.0964C47.3858 46.0964 47.2504 46.0394 47.1364 45.9254C47.0296 45.8115 46.9762 45.6726 46.9762 45.5087C46.9762 45.3378 47.0296 45.1989 47.1364 45.092C47.2504 44.9852 47.3858 44.9317 47.5425 44.9317C47.6992 44.9317 47.831 44.9852 47.9378 45.092C48.0518 45.1989 48.1088 45.3378 48.1088 45.5087C48.1088 45.6726 48.0518 45.8115 47.9378 45.9254C47.831 46.0394 47.6992 46.0964 47.5425 46.0964ZM49.1952 46.043V45.498L52.3045 42.4528C52.5895 42.175 52.8032 41.9328 52.9456 41.7263C53.0881 41.5126 53.1843 41.3131 53.2341 41.1279C53.284 40.9427 53.3089 40.7682 53.3089 40.6043C53.3089 40.1698 53.1593 39.8279 52.8602 39.5786C52.5681 39.3293 52.1336 39.2046 51.5566 39.2046C51.1149 39.2046 50.7232 39.2723 50.3812 39.4076C50.0464 39.543 49.758 39.7531 49.5158 40.038L48.9708 39.5679C49.2629 39.226 49.6369 38.9624 50.0928 38.7772C50.5486 38.592 51.058 38.4994 51.6207 38.4994C52.1265 38.4994 52.5645 38.5813 52.9349 38.7452C53.3054 38.9019 53.5903 39.1334 53.7897 39.4397C53.9963 39.746 54.0996 40.1057 54.0996 40.5189C54.0996 40.761 54.064 40.9997 53.9928 41.2347C53.9286 41.4698 53.8075 41.7191 53.6295 41.9827C53.4585 42.2391 53.2056 42.5312 52.8708 42.8589L50.018 45.6583L49.8043 45.3591H54.4415V46.043H49.1952ZM58.3672 46.1071C57.7902 46.1071 57.2774 45.9575 56.8286 45.6583C56.3798 45.352 56.0272 44.9175 55.7708 44.3547C55.5144 43.7849 55.3861 43.101 55.3861 42.3032C55.3861 41.5054 55.5144 40.8252 55.7708 40.2624C56.0272 39.6926 56.3798 39.258 56.8286 38.9589C57.2774 38.6525 57.7902 38.4994 58.3672 38.4994C58.9442 38.4994 59.4571 38.6525 59.9059 38.9589C60.3546 39.258 60.7072 39.6926 60.9637 40.2624C61.2272 40.8252 61.359 41.5054 61.359 42.3032C61.359 43.101 61.2272 43.7849 60.9637 44.3547C60.7072 44.9175 60.3546 45.352 59.9059 45.6583C59.4571 45.9575 58.9442 46.1071 58.3672 46.1071ZM58.3672 45.4019C58.8089 45.4019 59.1935 45.2843 59.5212 45.0493C59.8489 44.8071 60.1053 44.458 60.2905 44.0021C60.4757 43.5391 60.5683 42.9728 60.5683 42.3032C60.5683 41.6336 60.4757 41.0709 60.2905 40.615C60.1053 40.152 59.8489 39.803 59.5212 39.5679C59.1935 39.3257 58.8089 39.2046 58.3672 39.2046C57.9398 39.2046 57.5587 39.3257 57.2239 39.5679C56.8892 39.803 56.6292 40.152 56.4439 40.615C56.2587 41.0709 56.1661 41.6336 56.1661 42.3032C56.1661 42.9728 56.2587 43.5391 56.4439 44.0021C56.6292 44.458 56.8892 44.8071 57.2239 45.0493C57.5587 45.2843 57.9398 45.4019 58.3672 45.4019ZM62.3218 46.043V45.498L65.4312 42.4528C65.7161 42.175 65.9298 41.9328 66.0722 41.7263C66.2147 41.5126 66.3109 41.3131 66.3607 41.1279C66.4106 40.9427 66.4355 40.7682 66.4355 40.6043C66.4355 40.1698 66.2859 39.8279 65.9868 39.5786C65.6947 39.3293 65.2602 39.2046 64.6832 39.2046C64.2416 39.2046 63.8498 39.2723 63.5079 39.4076C63.1731 39.543 62.8846 39.7531 62.6424 40.038L62.0974 39.5679C62.3895 39.226 62.7635 38.9624 63.2194 38.7772C63.6753 38.592 64.1846 38.4994 64.7473 38.4994C65.2531 38.4994 65.6912 38.5813 66.0616 38.7452C66.432 38.9019 66.7169 39.1334 66.9164 39.4397C67.1229 39.746 67.2262 40.1057 67.2262 40.5189C67.2262 40.761 67.1906 40.9997 67.1194 41.2347C67.0553 41.4698 66.9342 41.7191 66.7561 41.9827C66.5851 42.2391 66.3322 42.5312 65.9975 42.8589L63.1446 45.6583L62.9309 45.3591H67.5681V46.043H62.3218ZM70.7668 46.1071C70.2254 46.1071 69.7125 46.0216 69.2281 45.8506C68.7509 45.6726 68.3662 45.4375 68.0742 45.1454L68.4481 44.5364C68.6903 44.7857 69.0144 44.9923 69.4205 45.1561C69.8336 45.32 70.2824 45.4019 70.7668 45.4019C71.3865 45.4019 71.8602 45.2665 72.1879 44.9958C72.5227 44.7252 72.6901 44.3619 72.6901 43.906C72.6901 43.4501 72.5262 43.0868 72.1986 42.8161C71.878 42.5454 71.3687 42.4101 70.6706 42.4101H70.1364V41.8438L72.4443 38.9482L72.5512 39.2473H68.384V38.5635H73.1923V39.1084L70.8843 42.0041L70.5103 41.7583H70.7988C71.6964 41.7583 72.366 41.9578 72.8076 42.3567C73.2564 42.7556 73.4808 43.2684 73.4808 43.8953C73.4808 44.3156 73.381 44.6931 73.1816 45.0279C72.9821 45.3627 72.6794 45.6263 72.2734 45.8186C71.8745 46.0109 71.3723 46.1071 70.7668 46.1071ZM77.4467 43.4786V42.8161H80.2462V43.4786H77.4467ZM86.4707 46.1071C85.9294 46.1071 85.4165 46.0216 84.9321 45.8506C84.4548 45.6726 84.0702 45.4375 83.7781 45.1454L84.1521 44.5364C84.3943 44.7857 84.7184 44.9923 85.1244 45.1561C85.5376 45.32 85.9863 45.4019 86.4707 45.4019C87.0905 45.4019 87.5641 45.2665 87.8918 44.9958C88.2266 44.7252 88.394 44.3619 88.394 43.906C88.394 43.4501 88.2302 43.0868 87.9025 42.8161C87.582 42.5454 87.0726 42.4101 86.3746 42.4101H85.8403V41.8438L88.1483 38.9482L88.2551 39.2473H84.088V38.5635H88.8962V39.1084L86.5883 42.0041L86.2143 41.7583H86.5028C87.4003 41.7583 88.0699 41.9578 88.5115 42.3567C88.9603 42.7556 89.1847 43.2684 89.1847 43.8953C89.1847 44.3156 89.085 44.6931 88.8855 45.0279C88.6861 45.3627 88.3833 45.6263 87.9773 45.8186C87.5784 46.0109 87.0762 46.1071 86.4707 46.1071ZM93.2498 46.1071C92.6728 46.1071 92.16 45.9575 91.7112 45.6583C91.2624 45.352 90.9098 44.9175 90.6534 44.3547C90.3969 43.7849 90.2687 43.101 90.2687 42.3032C90.2687 41.5054 90.3969 40.8252 90.6534 40.2624C90.9098 39.6926 91.2624 39.258 91.7112 38.9589C92.16 38.6525 92.6728 38.4994 93.2498 38.4994C93.8268 38.4994 94.3397 38.6525 94.7885 38.9589C95.2372 39.258 95.5898 39.6926 95.8463 40.2624C96.1098 40.8252 96.2416 41.5054 96.2416 42.3032C96.2416 43.101 96.1098 43.7849 95.8463 44.3547C95.5898 44.9175 95.2372 45.352 94.7885 45.6583C94.3397 45.9575 93.8268 46.1071 93.2498 46.1071ZM93.2498 45.4019C93.6915 45.4019 94.0761 45.2843 94.4038 45.0493C94.7315 44.8071 94.9879 44.458 95.1731 44.0021C95.3583 43.5391 95.4509 42.9728 95.4509 42.3032C95.4509 41.6336 95.3583 41.0709 95.1731 40.615C94.9879 40.152 94.7315 39.803 94.4038 39.5679C94.0761 39.3257 93.6915 39.2046 93.2498 39.2046C92.8224 39.2046 92.4413 39.3257 92.1065 39.5679C91.7717 39.803 91.5117 40.152 91.3265 40.615C91.1413 41.0709 91.0487 41.6336 91.0487 42.3032C91.0487 42.9728 91.1413 43.5391 91.3265 44.0021C91.5117 44.458 91.7717 44.8071 92.1065 45.0493C92.4413 45.2843 92.8224 45.4019 93.2498 45.4019ZM97.8055 46.0964C97.6488 46.0964 97.5135 46.0394 97.3995 45.9254C97.2926 45.8115 97.2392 45.6726 97.2392 45.5087C97.2392 45.3378 97.2926 45.1989 97.3995 45.092C97.5135 44.9852 97.6488 44.9317 97.8055 44.9317C97.9622 44.9317 98.094 44.9852 98.2009 45.092C98.3148 45.1989 98.3718 45.3378 98.3718 45.5087C98.3718 45.6726 98.3148 45.8115 98.2009 45.9254C98.094 46.0394 97.9622 46.0964 97.8055 46.0964ZM102.359 46.1071C101.782 46.1071 101.269 45.9575 100.821 45.6583C100.372 45.352 100.019 44.9175 99.7627 44.3547C99.5063 43.7849 99.3781 43.101 99.3781 42.3032C99.3781 41.5054 99.5063 40.8252 99.7627 40.2624C100.019 39.6926 100.372 39.258 100.821 38.9589C101.269 38.6525 101.782 38.4994 102.359 38.4994C102.936 38.4994 103.449 38.6525 103.898 38.9589C104.347 39.258 104.699 39.6926 104.956 40.2624C105.219 40.8252 105.351 41.5054 105.351 42.3032C105.351 43.101 105.219 43.7849 104.956 44.3547C104.699 44.9175 104.347 45.352 103.898 45.6583C103.449 45.9575 102.936 46.1071 102.359 46.1071ZM102.359 45.4019C102.801 45.4019 103.185 45.2843 103.513 45.0493C103.841 44.8071 104.097 44.458 104.282 44.0021C104.468 43.5391 104.56 42.9728 104.56 42.3032C104.56 41.6336 104.468 41.0709 104.282 40.615C104.097 40.152 103.841 39.803 103.513 39.5679C103.185 39.3257 102.801 39.2046 102.359 39.2046C101.932 39.2046 101.551 39.3257 101.216 39.5679C100.881 39.803 100.621 40.152 100.436 40.615C100.251 41.0709 100.158 41.6336 100.158 42.3032C100.158 42.9728 100.251 43.5391 100.436 44.0021C100.621 44.458 100.881 44.8071 101.216 45.0493C101.551 45.2843 101.932 45.4019 102.359 45.4019ZM107.756 46.043V38.8841L108.098 39.2473H105.993V38.5635H108.526V46.043H107.756ZM110.89 46.0964C110.734 46.0964 110.598 46.0394 110.484 45.9254C110.378 45.8115 110.324 45.6726 110.324 45.5087C110.324 45.3378 110.378 45.1989 110.484 45.092C110.598 44.9852 110.734 44.9317 110.89 44.9317C111.047 44.9317 111.179 44.9852 111.286 45.092C111.4 45.1989 111.457 45.3378 111.457 45.5087C111.457 45.6726 111.4 45.8115 111.286 45.9254C111.179 46.0394 111.047 46.0964 110.89 46.0964ZM112.543 46.043V45.498L115.652 42.4528C115.937 42.175 116.151 41.9328 116.294 41.7263C116.436 41.5126 116.532 41.3131 116.582 41.1279C116.632 40.9427 116.657 40.7682 116.657 40.6043C116.657 40.1698 116.507 39.8279 116.208 39.5786C115.916 39.3293 115.482 39.2046 114.905 39.2046C114.463 39.2046 114.071 39.2723 113.729 39.4076C113.394 39.543 113.106 39.7531 112.864 40.038L112.319 39.5679C112.611 39.226 112.985 38.9624 113.441 38.7772C113.897 38.592 114.406 38.4994 114.969 38.4994C115.474 38.4994 115.912 38.5813 116.283 38.7452C116.653 38.9019 116.938 39.1334 117.138 39.4397C117.344 39.746 117.448 40.1057 117.448 40.5189C117.448 40.761 117.412 40.9997 117.341 41.2347C117.277 41.4698 117.155 41.7191 116.977 41.9827C116.806 42.2391 116.554 42.5312 116.219 42.8589L113.366 45.6583L113.152 45.3591H117.789V46.043H112.543ZM121.715 46.1071C121.138 46.1071 120.625 45.9575 120.177 45.6583C119.728 45.352 119.375 44.9175 119.119 44.3547C118.862 43.7849 118.734 43.101 118.734 42.3032C118.734 41.5054 118.862 40.8252 119.119 40.2624C119.375 39.6926 119.728 39.258 120.177 38.9589C120.625 38.6525 121.138 38.4994 121.715 38.4994C122.292 38.4994 122.805 38.6525 123.254 38.9589C123.703 39.258 124.055 39.6926 124.312 40.2624C124.575 40.8252 124.707 41.5054 124.707 42.3032C124.707 43.101 124.575 43.7849 124.312 44.3547C124.055 44.9175 123.703 45.352 123.254 45.6583C122.805 45.9575 122.292 46.1071 121.715 46.1071ZM121.715 45.4019C122.157 45.4019 122.541 45.2843 122.869 45.0493C123.197 44.8071 123.453 44.458 123.638 44.0021C123.824 43.5391 123.916 42.9728 123.916 42.3032C123.916 41.6336 123.824 41.0709 123.638 40.615C123.453 40.152 123.197 39.803 122.869 39.5679C122.541 39.3257 122.157 39.2046 121.715 39.2046C121.288 39.2046 120.907 39.3257 120.572 39.5679C120.237 39.803 119.977 40.152 119.792 40.615C119.607 41.0709 119.514 41.6336 119.514 42.3032C119.514 42.9728 119.607 43.5391 119.792 44.0021C119.977 44.458 120.237 44.8071 120.572 45.0493C120.907 45.2843 121.288 45.4019 121.715 45.4019ZM125.67 46.043V45.498L128.779 42.4528C129.064 42.175 129.278 41.9328 129.42 41.7263C129.563 41.5126 129.659 41.3131 129.709 41.1279C129.759 40.9427 129.783 40.7682 129.783 40.6043C129.783 40.1698 129.634 39.8279 129.335 39.5786C129.043 39.3293 128.608 39.2046 128.031 39.2046C127.589 39.2046 127.198 39.2723 126.856 39.4076C126.521 39.543 126.233 39.7531 125.99 40.038L125.445 39.5679C125.737 39.226 126.111 38.9624 126.567 38.7772C127.023 38.592 127.533 38.4994 128.095 38.4994C128.601 38.4994 129.039 38.5813 129.409 38.7452C129.78 38.9019 130.065 39.1334 130.264 39.4397C130.471 39.746 130.574 40.1057 130.574 40.5189C130.574 40.761 130.539 40.9997 130.467 41.2347C130.403 41.4698 130.282 41.7191 130.104 41.9827C129.933 42.2391 129.68 42.5312 129.345 42.8589L126.493 45.6583L126.279 45.3591H130.916V46.043H125.67ZM134.115 46.1071C133.573 46.1071 133.06 46.0216 132.576 45.8506C132.099 45.6726 131.714 45.4375 131.422 45.1454L131.796 44.5364C132.038 44.7857 132.362 44.9923 132.768 45.1561C133.182 45.32 133.63 45.4019 134.115 45.4019C134.734 45.4019 135.208 45.2665 135.536 44.9958C135.871 44.7252 136.038 44.3619 136.038 43.906C136.038 43.4501 135.874 43.0868 135.546 42.8161C135.226 42.5454 134.717 42.4101 134.019 42.4101H133.484V41.8438L135.792 38.9482L135.899 39.2473H131.732V38.5635H136.54V39.1084L134.232 42.0041L133.858 41.7583H134.147C135.044 41.7583 135.714 41.9578 136.156 42.3567C136.604 42.7556 136.829 43.2684 136.829 43.8953C136.829 44.3156 136.729 44.6931 136.53 45.0279C136.33 45.3627 136.027 45.6263 135.621 45.8186C135.222 46.0109 134.72 46.1071 134.115 46.1071Z" fill="white" fill-opacity="0.2"/>
<rect x="232.822" y="38.8359" width="8.76713" height="8.76713" rx="1.64384" stroke="#4B465C" stroke-width="1.43836" stroke-linecap="round" stroke-linejoin="round"/>
<rect x="232.822" y="38.8359" width="8.76713" height="8.76713" rx="1.64384" stroke="white" stroke-opacity="0.5" stroke-width="1.43836" stroke-linecap="round" stroke-linejoin="round"/>
<path d="M239.398 37.7422V39.934" stroke="#4B465C" stroke-width="1.23288" stroke-linecap="round" stroke-linejoin="round"/>
<path d="M239.398 37.7422V39.934" stroke="white" stroke-opacity="0.5" stroke-width="1.23288" stroke-linecap="round" stroke-linejoin="round"/>
<path d="M235.014 37.7422V39.934" stroke="#4B465C" stroke-width="1.43836" stroke-linecap="round" stroke-linejoin="round"/>
<path d="M235.014 37.7422V39.934" stroke="white" stroke-opacity="0.5" stroke-width="1.43836" stroke-linecap="round" stroke-linejoin="round"/>
<path d="M232.822 42.1255H241.589" stroke="#4B465C" stroke-width="1.43836" stroke-linecap="round" stroke-linejoin="round"/>
<path d="M232.822 42.1255H241.589" stroke="white" stroke-opacity="0.5" stroke-width="1.43836" stroke-linecap="round" stroke-linejoin="round"/>
<rect x="235.014" y="44.3164" width="1.09589" height="1.09589" stroke="#4B465C" stroke-width="1.43836" stroke-linecap="round" stroke-linejoin="round"/>
<rect x="235.014" y="44.3164" width="1.09589" height="1.09589" stroke="white" stroke-opacity="0.5" stroke-width="1.43836" stroke-linecap="round" stroke-linejoin="round"/>
</g>
<rect x="12.411" y="28.7" width="239.178" height="27.9452" rx="2.87672" stroke="#DBDADE" stroke-width="0.821919"/>
<rect x="0.5" y="0.5" width="263" height="69" rx="5.5" stroke="#DBDADE"/>
<defs>
<clipPath id="clip0_1018_62843">
<rect x="12" y="28.2891" width="240" height="28.7672" rx="3.28767" fill="white"/>
</clipPath>
</defs>
</svg>
