<svg width="264" height="70" viewBox="0 0 264 70" fill="none" xmlns="http://www.w3.org/2000/svg">
<rect x="0.5" y="0.5" width="263" height="69" rx="5.5" fill="white"/>
<path d="M12.374 21.1025L12.6625 20.5362C12.9901 20.8211 13.357 21.0348 13.763 21.1773C14.1762 21.3126 14.5893 21.3838 15.0025 21.391C15.4156 21.391 15.7932 21.3304 16.1351 21.2093C16.4841 21.0882 16.7655 20.9101 16.9792 20.6751C17.1929 20.4329 17.2997 20.1408 17.2997 19.7989C17.2997 19.3644 17.1252 19.0296 16.7762 18.7945C16.4342 18.5595 15.957 18.4419 15.3444 18.4419H13.7416V17.8008H15.3016C15.8288 17.8008 16.2384 17.6904 16.5304 17.4696C16.8296 17.2416 16.9792 16.9282 16.9792 16.5293C16.9792 16.2444 16.8937 16.0022 16.7227 15.8027C16.5589 15.5962 16.331 15.4395 16.0389 15.3326C15.754 15.2186 15.4334 15.1581 15.0773 15.151C14.7211 15.1367 14.3507 15.183 13.966 15.2899C13.5885 15.3896 13.2216 15.5499 12.8655 15.7707L12.609 15.1189C13.0507 14.8553 13.5101 14.6737 13.9874 14.574C14.4647 14.4671 14.9277 14.4315 15.3764 14.4671C15.8252 14.5027 16.2277 14.606 16.5838 14.777C16.9471 14.9479 17.2356 15.1723 17.4493 15.4501C17.663 15.7279 17.7699 16.0592 17.7699 16.4438C17.7699 16.8 17.6773 17.1134 17.4921 17.3841C17.314 17.6548 17.0611 17.8649 16.7334 18.0145C16.4129 18.157 16.0318 18.2282 15.5901 18.2282L15.6329 17.9932C16.1315 17.9932 16.5625 18.0715 16.9258 18.2282C17.2962 18.3849 17.5811 18.6093 17.7805 18.9014C17.9871 19.1863 18.0904 19.5211 18.0904 19.9058C18.0904 20.269 17.9978 20.5932 17.8126 20.8781C17.6345 21.1559 17.3852 21.391 17.0647 21.5833C16.7512 21.7685 16.3986 21.9038 16.0068 21.9893C15.6151 22.0677 15.2055 22.089 14.7781 22.0534C14.3507 22.0178 13.9304 21.9252 13.5173 21.7756C13.1041 21.6189 12.723 21.3945 12.374 21.1025ZM23.3553 22V20.7605L23.3233 20.5575V18.4847C23.3233 18.0074 23.1879 17.6405 22.9172 17.3841C22.6537 17.1277 22.2583 16.9995 21.7312 16.9995C21.3679 16.9995 21.0225 17.06 20.6948 17.1811C20.3671 17.3022 20.0893 17.4625 19.8614 17.6619L19.5194 17.0956C19.8044 16.8534 20.1463 16.6682 20.5452 16.54C20.9441 16.4047 21.3644 16.337 21.806 16.337C22.5326 16.337 23.0918 16.5186 23.4835 16.8819C23.8825 17.2381 24.0819 17.783 24.0819 18.5167V22H23.3553ZM21.4214 22.0534C21.0011 22.0534 20.6342 21.9858 20.3208 21.8504C20.0145 21.7079 19.7794 21.5156 19.6156 21.2734C19.4518 21.0241 19.3698 20.7392 19.3698 20.4186C19.3698 20.1266 19.4375 19.863 19.5729 19.6279C19.7153 19.3858 19.9433 19.1934 20.2567 19.051C20.5772 18.9014 21.0046 18.8266 21.5389 18.8266H23.4729V19.3929H21.5603C21.0189 19.3929 20.6414 19.489 20.4277 19.6814C20.2211 19.8737 20.1178 20.1123 20.1178 20.3973C20.1178 20.7178 20.2425 20.9742 20.4918 21.1666C20.7411 21.3589 21.0901 21.4551 21.5389 21.4551C21.9663 21.4551 22.3331 21.3589 22.6394 21.1666C22.9529 20.9671 23.1808 20.6822 23.3233 20.3118L23.4942 20.8353C23.3518 21.2058 23.1025 21.5014 22.7463 21.7222C22.3972 21.943 21.9556 22.0534 21.4214 22.0534ZM26.1014 22V16.3904H28.5803C29.2143 16.3904 29.7129 16.5115 30.0762 16.7537C30.4466 16.9959 30.6319 17.3521 30.6319 17.8222C30.6319 18.2781 30.4573 18.6307 30.1083 18.88C29.7592 19.1222 29.2998 19.2433 28.7299 19.2433L28.8795 19.0189C29.5491 19.0189 30.0406 19.1436 30.354 19.3929C30.6675 19.6422 30.8242 20.0019 30.8242 20.4721C30.8242 20.9564 30.6461 21.334 30.2899 21.6047C29.9409 21.8682 29.396 22 28.6551 22H26.1014ZM26.8387 21.4016H28.6231C29.1003 21.4016 29.4601 21.3268 29.7023 21.1773C29.9516 21.0205 30.0762 20.7712 30.0762 20.4293C30.0762 20.0874 29.9658 19.8381 29.745 19.6814C29.5242 19.5247 29.1751 19.4463 28.6979 19.4463H26.8387V21.4016ZM26.8387 18.88H28.5269C28.9614 18.88 29.2927 18.7981 29.5206 18.6342C29.7557 18.4704 29.8732 18.2318 29.8732 17.9184C29.8732 17.6049 29.7557 17.3699 29.5206 17.2132C29.2927 17.0564 28.9614 16.9781 28.5269 16.9781H26.8387V18.88ZM36.0854 22V20.7605L36.0534 20.5575V18.4847C36.0534 18.0074 35.918 17.6405 35.6473 17.3841C35.3838 17.1277 34.9884 16.9995 34.4613 16.9995C34.098 16.9995 33.7525 17.06 33.4249 17.1811C33.0972 17.3022 32.8194 17.4625 32.5915 17.6619L32.2495 17.0956C32.5345 16.8534 32.8764 16.6682 33.2753 16.54C33.6742 16.4047 34.0945 16.337 34.5361 16.337C35.2627 16.337 35.8219 16.5186 36.2136 16.8819C36.6125 17.2381 36.812 17.783 36.812 18.5167V22H36.0854ZM34.1515 22.0534C33.7312 22.0534 33.3643 21.9858 33.0509 21.8504C32.7446 21.7079 32.5095 21.5156 32.3457 21.2734C32.1819 21.0241 32.0999 20.7392 32.0999 20.4186C32.0999 20.1266 32.1676 19.863 32.303 19.6279C32.4454 19.3858 32.6734 19.1934 32.9868 19.051C33.3073 18.9014 33.7347 18.8266 34.269 18.8266H36.203V19.3929H34.2904C33.749 19.3929 33.3715 19.489 33.1578 19.6814C32.9512 19.8737 32.8479 20.1123 32.8479 20.3973C32.8479 20.7178 32.9725 20.9742 33.2219 21.1666C33.4712 21.3589 33.8202 21.4551 34.269 21.4551C34.6964 21.4551 35.0632 21.3589 35.3695 21.1666C35.683 20.9671 35.9109 20.6822 36.0534 20.3118L36.2243 20.8353C36.0819 21.2058 35.8325 21.5014 35.4764 21.7222C35.1273 21.943 34.6857 22.0534 34.1515 22.0534ZM38.8315 22V16.3904H39.5902V18.8693H43.1269V16.3904H43.8855V22H43.1269V19.5211H39.5902V22H38.8315ZM47.1103 22V16.8499L47.3026 17.0529H44.984V16.3904H49.9952V17.0529H47.6766L47.8689 16.8499V22H47.1103ZM54.5754 22V20.7605L54.5433 20.5575V18.4847C54.5433 18.0074 54.408 17.6405 54.1373 17.3841C53.8737 17.1277 53.4784 16.9995 52.9513 16.9995C52.588 16.9995 52.2425 17.06 51.9148 17.1811C51.5871 17.3022 51.3093 17.4625 51.0814 17.6619L50.7395 17.0956C51.0244 16.8534 51.3663 16.6682 51.7652 16.54C52.1641 16.4047 52.5844 16.337 53.026 16.337C53.7526 16.337 54.3118 16.5186 54.7036 16.8819C55.1025 17.2381 55.3019 17.783 55.3019 18.5167V22H54.5754ZM52.6414 22.0534C52.2211 22.0534 51.8543 21.9858 51.5408 21.8504C51.2345 21.7079 50.9995 21.5156 50.8356 21.2734C50.6718 21.0241 50.5899 20.7392 50.5899 20.4186C50.5899 20.1266 50.6576 19.863 50.7929 19.6279C50.9354 19.3858 51.1633 19.1934 51.4767 19.051C51.7973 18.9014 52.2247 18.8266 52.7589 18.8266H54.6929V19.3929H52.7803C52.2389 19.3929 51.8614 19.489 51.6477 19.6814C51.4411 19.8737 51.3378 20.1123 51.3378 20.3973C51.3378 20.7178 51.4625 20.9742 51.7118 21.1666C51.9611 21.3589 52.3102 21.4551 52.7589 21.4551C53.1863 21.4551 53.5532 21.3589 53.8595 21.1666C54.1729 20.9671 54.4008 20.6822 54.5433 20.3118L54.7143 20.8353C54.5718 21.2058 54.3225 21.5014 53.9663 21.7222C53.6173 21.943 53.1756 22.0534 52.6414 22.0534ZM63.9782 22L62.0549 19.2219L62.6853 18.8479L64.8864 22H63.9782ZM60.7941 19.4997V18.8479H62.5678V19.4997H60.7941ZM62.7601 19.2753L62.0335 19.1685L63.9034 16.3904H64.7261L62.7601 19.2753ZM57.3322 22H56.4239L58.625 18.8479L59.2448 19.2219L57.3322 22ZM61.0291 22H60.2705V16.3904H61.0291V22ZM60.5056 19.4997H58.7426V18.8479H60.5056V19.4997ZM58.5609 19.2753L56.5842 16.3904H57.407L59.2661 19.1685L58.5609 19.2753ZM66.1491 22V16.3904H66.9077V20.846L70.6581 16.3904H71.3313V22H70.5726V17.5337L66.8329 22H66.1491ZM74.5739 22V16.8499L74.7662 17.0529H72.4476V16.3904H77.4588V17.0529H75.1402L75.3325 16.8499V22H74.5739ZM78.5557 22V16.3904H79.3143V20.846L83.0647 16.3904H83.7379V22H82.9792V17.5337L79.2395 22H78.5557ZM92.555 21.6367V17.0529H89.8517L89.7876 18.303C89.7734 18.6805 89.7485 19.051 89.7128 19.4142C89.6843 19.7775 89.6309 20.1123 89.5526 20.4186C89.4813 20.7178 89.378 20.9636 89.2427 21.1559C89.1074 21.3411 88.9328 21.4479 88.7191 21.4764L87.9605 21.3375C88.1813 21.3447 88.363 21.2663 88.5054 21.1025C88.6479 20.9315 88.7583 20.7 88.8367 20.4079C88.915 20.1159 88.972 19.7847 89.0076 19.4142C89.0433 19.0367 89.0717 18.6521 89.0931 18.2603L89.1679 16.3904H93.3137V21.6367H92.555ZM87.7254 23.357V21.3375H94.1898V23.357H93.4739V22H88.4413V23.357H87.7254ZM97.9762 22.0534C97.4348 22.0534 96.9469 21.9323 96.5124 21.6901C96.085 21.4408 95.7466 21.1025 95.4973 20.6751C95.248 20.2405 95.1233 19.7455 95.1233 19.1899C95.1233 18.6271 95.248 18.1321 95.4973 17.7047C95.7466 17.2773 96.085 16.9425 96.5124 16.7003C96.9398 16.4581 97.4277 16.337 97.9762 16.337C98.5318 16.337 99.0233 16.4581 99.4507 16.7003C99.8853 16.9425 100.224 17.2773 100.466 17.7047C100.715 18.1321 100.84 18.6271 100.84 19.1899C100.84 19.7455 100.715 20.2405 100.466 20.6751C100.224 21.1025 99.8853 21.4408 99.4507 21.6901C99.0162 21.9323 98.5247 22.0534 97.9762 22.0534ZM97.9762 21.3803C98.3822 21.3803 98.742 21.2912 99.0554 21.1132C99.3688 20.9279 99.6146 20.6715 99.7927 20.3438C99.9779 20.009 100.07 19.6244 100.07 19.1899C100.07 18.7482 99.9779 18.3636 99.7927 18.0359C99.6146 17.7082 99.3688 17.4553 99.0554 17.2773C98.742 17.0921 98.3858 16.9995 97.9869 16.9995C97.588 16.9995 97.2318 17.0921 96.9184 17.2773C96.605 17.4553 96.3557 17.7082 96.1705 18.0359C95.9853 18.3636 95.8927 18.7482 95.8927 19.1899C95.8927 19.6244 95.9853 20.009 96.1705 20.3438C96.3557 20.6715 96.605 20.9279 96.9184 21.1132C97.2318 21.2912 97.5844 21.3803 97.9762 21.3803ZM106.575 22L104.267 19.2219L104.897 18.8479L107.472 22H106.575ZM102.461 22V16.3904H103.22V22H102.461ZM102.985 19.4997V18.8479H104.79V19.4997H102.985ZM104.961 19.2753L104.256 19.1685L106.489 16.3904H107.312L104.961 19.2753ZM108.442 24.1263C108.179 24.1263 107.926 24.0836 107.684 23.9981C107.449 23.9126 107.246 23.7844 107.075 23.6134L107.427 23.0471C107.57 23.1825 107.723 23.2858 107.887 23.357C108.058 23.4353 108.246 23.4745 108.453 23.4745C108.702 23.4745 108.916 23.4033 109.094 23.2608C109.279 23.1255 109.454 22.8833 109.618 22.5342L109.981 21.7115L110.066 21.594L112.374 16.3904H113.122L110.312 22.6732C110.156 23.0364 109.981 23.3249 109.789 23.5386C109.603 23.7523 109.4 23.9019 109.18 23.9874C108.959 24.08 108.713 24.1263 108.442 24.1263ZM109.938 22.1603L107.353 16.3904H108.143L110.43 21.5405L109.938 22.1603ZM114.304 22V16.3904H115.074L117.617 20.6964H117.296L119.882 16.3904H120.587V22H119.893V17.2559L120.031 17.32L117.617 21.3162H117.275L114.839 17.2773L114.999 17.2452V22H114.304ZM125.15 22.0534C124.566 22.0534 124.053 21.9323 123.611 21.6901C123.17 21.4408 122.824 21.1025 122.575 20.6751C122.326 20.2405 122.201 19.7455 122.201 19.1899C122.201 18.6342 122.318 18.1427 122.553 17.7153C122.796 17.2879 123.123 16.9532 123.536 16.711C123.957 16.4616 124.427 16.337 124.947 16.337C125.474 16.337 125.941 16.4581 126.347 16.7003C126.76 16.9353 127.084 17.2701 127.319 17.7047C127.554 18.1321 127.672 18.6271 127.672 19.1899C127.672 19.2255 127.668 19.2647 127.661 19.3074C127.661 19.343 127.661 19.3822 127.661 19.4249H122.778V18.8586H127.255L126.956 19.083C126.956 18.677 126.867 18.3173 126.689 18.0038C126.518 17.6833 126.283 17.434 125.983 17.2559C125.684 17.0778 125.339 16.9888 124.947 16.9888C124.562 16.9888 124.217 17.0778 123.91 17.2559C123.604 17.434 123.366 17.6833 123.195 18.0038C123.024 18.3244 122.938 18.6912 122.938 19.1044V19.2219C122.938 19.6493 123.031 20.0268 123.216 20.3545C123.408 20.6751 123.672 20.9279 124.007 21.1132C124.349 21.2912 124.737 21.3803 125.171 21.3803C125.513 21.3803 125.83 21.3197 126.122 21.1986C126.421 21.0775 126.678 20.8923 126.892 20.643L127.319 21.1345C127.07 21.4337 126.756 21.6616 126.379 21.8184C126.008 21.9751 125.599 22.0534 125.15 22.0534ZM129.351 22V16.3904H130.109V18.8693H133.646V16.3904H134.405V22H133.646V19.5211H130.109V22H129.351ZM137.63 22V16.8499L137.822 17.0529H135.503V16.3904H140.515V17.0529H138.196L138.388 16.8499V22H137.63ZM141.611 22V16.3904H142.37V20.846L146.12 16.3904H146.794V22H146.035V17.5337L142.295 22H141.611Z" fill="#4B465C"/>
<path d="M12.374 21.1025L12.6625 20.5362C12.9901 20.8211 13.357 21.0348 13.763 21.1773C14.1762 21.3126 14.5893 21.3838 15.0025 21.391C15.4156 21.391 15.7932 21.3304 16.1351 21.2093C16.4841 21.0882 16.7655 20.9101 16.9792 20.6751C17.1929 20.4329 17.2997 20.1408 17.2997 19.7989C17.2997 19.3644 17.1252 19.0296 16.7762 18.7945C16.4342 18.5595 15.957 18.4419 15.3444 18.4419H13.7416V17.8008H15.3016C15.8288 17.8008 16.2384 17.6904 16.5304 17.4696C16.8296 17.2416 16.9792 16.9282 16.9792 16.5293C16.9792 16.2444 16.8937 16.0022 16.7227 15.8027C16.5589 15.5962 16.331 15.4395 16.0389 15.3326C15.754 15.2186 15.4334 15.1581 15.0773 15.151C14.7211 15.1367 14.3507 15.183 13.966 15.2899C13.5885 15.3896 13.2216 15.5499 12.8655 15.7707L12.609 15.1189C13.0507 14.8553 13.5101 14.6737 13.9874 14.574C14.4647 14.4671 14.9277 14.4315 15.3764 14.4671C15.8252 14.5027 16.2277 14.606 16.5838 14.777C16.9471 14.9479 17.2356 15.1723 17.4493 15.4501C17.663 15.7279 17.7699 16.0592 17.7699 16.4438C17.7699 16.8 17.6773 17.1134 17.4921 17.3841C17.314 17.6548 17.0611 17.8649 16.7334 18.0145C16.4129 18.157 16.0318 18.2282 15.5901 18.2282L15.6329 17.9932C16.1315 17.9932 16.5625 18.0715 16.9258 18.2282C17.2962 18.3849 17.5811 18.6093 17.7805 18.9014C17.9871 19.1863 18.0904 19.5211 18.0904 19.9058C18.0904 20.269 17.9978 20.5932 17.8126 20.8781C17.6345 21.1559 17.3852 21.391 17.0647 21.5833C16.7512 21.7685 16.3986 21.9038 16.0068 21.9893C15.6151 22.0677 15.2055 22.089 14.7781 22.0534C14.3507 22.0178 13.9304 21.9252 13.5173 21.7756C13.1041 21.6189 12.723 21.3945 12.374 21.1025ZM23.3553 22V20.7605L23.3233 20.5575V18.4847C23.3233 18.0074 23.1879 17.6405 22.9172 17.3841C22.6537 17.1277 22.2583 16.9995 21.7312 16.9995C21.3679 16.9995 21.0225 17.06 20.6948 17.1811C20.3671 17.3022 20.0893 17.4625 19.8614 17.6619L19.5194 17.0956C19.8044 16.8534 20.1463 16.6682 20.5452 16.54C20.9441 16.4047 21.3644 16.337 21.806 16.337C22.5326 16.337 23.0918 16.5186 23.4835 16.8819C23.8825 17.2381 24.0819 17.783 24.0819 18.5167V22H23.3553ZM21.4214 22.0534C21.0011 22.0534 20.6342 21.9858 20.3208 21.8504C20.0145 21.7079 19.7794 21.5156 19.6156 21.2734C19.4518 21.0241 19.3698 20.7392 19.3698 20.4186C19.3698 20.1266 19.4375 19.863 19.5729 19.6279C19.7153 19.3858 19.9433 19.1934 20.2567 19.051C20.5772 18.9014 21.0046 18.8266 21.5389 18.8266H23.4729V19.3929H21.5603C21.0189 19.3929 20.6414 19.489 20.4277 19.6814C20.2211 19.8737 20.1178 20.1123 20.1178 20.3973C20.1178 20.7178 20.2425 20.9742 20.4918 21.1666C20.7411 21.3589 21.0901 21.4551 21.5389 21.4551C21.9663 21.4551 22.3331 21.3589 22.6394 21.1666C22.9529 20.9671 23.1808 20.6822 23.3233 20.3118L23.4942 20.8353C23.3518 21.2058 23.1025 21.5014 22.7463 21.7222C22.3972 21.943 21.9556 22.0534 21.4214 22.0534ZM26.1014 22V16.3904H28.5803C29.2143 16.3904 29.7129 16.5115 30.0762 16.7537C30.4466 16.9959 30.6319 17.3521 30.6319 17.8222C30.6319 18.2781 30.4573 18.6307 30.1083 18.88C29.7592 19.1222 29.2998 19.2433 28.7299 19.2433L28.8795 19.0189C29.5491 19.0189 30.0406 19.1436 30.354 19.3929C30.6675 19.6422 30.8242 20.0019 30.8242 20.4721C30.8242 20.9564 30.6461 21.334 30.2899 21.6047C29.9409 21.8682 29.396 22 28.6551 22H26.1014ZM26.8387 21.4016H28.6231C29.1003 21.4016 29.4601 21.3268 29.7023 21.1773C29.9516 21.0205 30.0762 20.7712 30.0762 20.4293C30.0762 20.0874 29.9658 19.8381 29.745 19.6814C29.5242 19.5247 29.1751 19.4463 28.6979 19.4463H26.8387V21.4016ZM26.8387 18.88H28.5269C28.9614 18.88 29.2927 18.7981 29.5206 18.6342C29.7557 18.4704 29.8732 18.2318 29.8732 17.9184C29.8732 17.6049 29.7557 17.3699 29.5206 17.2132C29.2927 17.0564 28.9614 16.9781 28.5269 16.9781H26.8387V18.88ZM36.0854 22V20.7605L36.0534 20.5575V18.4847C36.0534 18.0074 35.918 17.6405 35.6473 17.3841C35.3838 17.1277 34.9884 16.9995 34.4613 16.9995C34.098 16.9995 33.7525 17.06 33.4249 17.1811C33.0972 17.3022 32.8194 17.4625 32.5915 17.6619L32.2495 17.0956C32.5345 16.8534 32.8764 16.6682 33.2753 16.54C33.6742 16.4047 34.0945 16.337 34.5361 16.337C35.2627 16.337 35.8219 16.5186 36.2136 16.8819C36.6125 17.2381 36.812 17.783 36.812 18.5167V22H36.0854ZM34.1515 22.0534C33.7312 22.0534 33.3643 21.9858 33.0509 21.8504C32.7446 21.7079 32.5095 21.5156 32.3457 21.2734C32.1819 21.0241 32.0999 20.7392 32.0999 20.4186C32.0999 20.1266 32.1676 19.863 32.303 19.6279C32.4454 19.3858 32.6734 19.1934 32.9868 19.051C33.3073 18.9014 33.7347 18.8266 34.269 18.8266H36.203V19.3929H34.2904C33.749 19.3929 33.3715 19.489 33.1578 19.6814C32.9512 19.8737 32.8479 20.1123 32.8479 20.3973C32.8479 20.7178 32.9725 20.9742 33.2219 21.1666C33.4712 21.3589 33.8202 21.4551 34.269 21.4551C34.6964 21.4551 35.0632 21.3589 35.3695 21.1666C35.683 20.9671 35.9109 20.6822 36.0534 20.3118L36.2243 20.8353C36.0819 21.2058 35.8325 21.5014 35.4764 21.7222C35.1273 21.943 34.6857 22.0534 34.1515 22.0534ZM38.8315 22V16.3904H39.5902V18.8693H43.1269V16.3904H43.8855V22H43.1269V19.5211H39.5902V22H38.8315ZM47.1103 22V16.8499L47.3026 17.0529H44.984V16.3904H49.9952V17.0529H47.6766L47.8689 16.8499V22H47.1103ZM54.5754 22V20.7605L54.5433 20.5575V18.4847C54.5433 18.0074 54.408 17.6405 54.1373 17.3841C53.8737 17.1277 53.4784 16.9995 52.9513 16.9995C52.588 16.9995 52.2425 17.06 51.9148 17.1811C51.5871 17.3022 51.3093 17.4625 51.0814 17.6619L50.7395 17.0956C51.0244 16.8534 51.3663 16.6682 51.7652 16.54C52.1641 16.4047 52.5844 16.337 53.026 16.337C53.7526 16.337 54.3118 16.5186 54.7036 16.8819C55.1025 17.2381 55.3019 17.783 55.3019 18.5167V22H54.5754ZM52.6414 22.0534C52.2211 22.0534 51.8543 21.9858 51.5408 21.8504C51.2345 21.7079 50.9995 21.5156 50.8356 21.2734C50.6718 21.0241 50.5899 20.7392 50.5899 20.4186C50.5899 20.1266 50.6576 19.863 50.7929 19.6279C50.9354 19.3858 51.1633 19.1934 51.4767 19.051C51.7973 18.9014 52.2247 18.8266 52.7589 18.8266H54.6929V19.3929H52.7803C52.2389 19.3929 51.8614 19.489 51.6477 19.6814C51.4411 19.8737 51.3378 20.1123 51.3378 20.3973C51.3378 20.7178 51.4625 20.9742 51.7118 21.1666C51.9611 21.3589 52.3102 21.4551 52.7589 21.4551C53.1863 21.4551 53.5532 21.3589 53.8595 21.1666C54.1729 20.9671 54.4008 20.6822 54.5433 20.3118L54.7143 20.8353C54.5718 21.2058 54.3225 21.5014 53.9663 21.7222C53.6173 21.943 53.1756 22.0534 52.6414 22.0534ZM63.9782 22L62.0549 19.2219L62.6853 18.8479L64.8864 22H63.9782ZM60.7941 19.4997V18.8479H62.5678V19.4997H60.7941ZM62.7601 19.2753L62.0335 19.1685L63.9034 16.3904H64.7261L62.7601 19.2753ZM57.3322 22H56.4239L58.625 18.8479L59.2448 19.2219L57.3322 22ZM61.0291 22H60.2705V16.3904H61.0291V22ZM60.5056 19.4997H58.7426V18.8479H60.5056V19.4997ZM58.5609 19.2753L56.5842 16.3904H57.407L59.2661 19.1685L58.5609 19.2753ZM66.1491 22V16.3904H66.9077V20.846L70.6581 16.3904H71.3313V22H70.5726V17.5337L66.8329 22H66.1491ZM74.5739 22V16.8499L74.7662 17.0529H72.4476V16.3904H77.4588V17.0529H75.1402L75.3325 16.8499V22H74.5739ZM78.5557 22V16.3904H79.3143V20.846L83.0647 16.3904H83.7379V22H82.9792V17.5337L79.2395 22H78.5557ZM92.555 21.6367V17.0529H89.8517L89.7876 18.303C89.7734 18.6805 89.7485 19.051 89.7128 19.4142C89.6843 19.7775 89.6309 20.1123 89.5526 20.4186C89.4813 20.7178 89.378 20.9636 89.2427 21.1559C89.1074 21.3411 88.9328 21.4479 88.7191 21.4764L87.9605 21.3375C88.1813 21.3447 88.363 21.2663 88.5054 21.1025C88.6479 20.9315 88.7583 20.7 88.8367 20.4079C88.915 20.1159 88.972 19.7847 89.0076 19.4142C89.0433 19.0367 89.0717 18.6521 89.0931 18.2603L89.1679 16.3904H93.3137V21.6367H92.555ZM87.7254 23.357V21.3375H94.1898V23.357H93.4739V22H88.4413V23.357H87.7254ZM97.9762 22.0534C97.4348 22.0534 96.9469 21.9323 96.5124 21.6901C96.085 21.4408 95.7466 21.1025 95.4973 20.6751C95.248 20.2405 95.1233 19.7455 95.1233 19.1899C95.1233 18.6271 95.248 18.1321 95.4973 17.7047C95.7466 17.2773 96.085 16.9425 96.5124 16.7003C96.9398 16.4581 97.4277 16.337 97.9762 16.337C98.5318 16.337 99.0233 16.4581 99.4507 16.7003C99.8853 16.9425 100.224 17.2773 100.466 17.7047C100.715 18.1321 100.84 18.6271 100.84 19.1899C100.84 19.7455 100.715 20.2405 100.466 20.6751C100.224 21.1025 99.8853 21.4408 99.4507 21.6901C99.0162 21.9323 98.5247 22.0534 97.9762 22.0534ZM97.9762 21.3803C98.3822 21.3803 98.742 21.2912 99.0554 21.1132C99.3688 20.9279 99.6146 20.6715 99.7927 20.3438C99.9779 20.009 100.07 19.6244 100.07 19.1899C100.07 18.7482 99.9779 18.3636 99.7927 18.0359C99.6146 17.7082 99.3688 17.4553 99.0554 17.2773C98.742 17.0921 98.3858 16.9995 97.9869 16.9995C97.588 16.9995 97.2318 17.0921 96.9184 17.2773C96.605 17.4553 96.3557 17.7082 96.1705 18.0359C95.9853 18.3636 95.8927 18.7482 95.8927 19.1899C95.8927 19.6244 95.9853 20.009 96.1705 20.3438C96.3557 20.6715 96.605 20.9279 96.9184 21.1132C97.2318 21.2912 97.5844 21.3803 97.9762 21.3803ZM106.575 22L104.267 19.2219L104.897 18.8479L107.472 22H106.575ZM102.461 22V16.3904H103.22V22H102.461ZM102.985 19.4997V18.8479H104.79V19.4997H102.985ZM104.961 19.2753L104.256 19.1685L106.489 16.3904H107.312L104.961 19.2753ZM108.442 24.1263C108.179 24.1263 107.926 24.0836 107.684 23.9981C107.449 23.9126 107.246 23.7844 107.075 23.6134L107.427 23.0471C107.57 23.1825 107.723 23.2858 107.887 23.357C108.058 23.4353 108.246 23.4745 108.453 23.4745C108.702 23.4745 108.916 23.4033 109.094 23.2608C109.279 23.1255 109.454 22.8833 109.618 22.5342L109.981 21.7115L110.066 21.594L112.374 16.3904H113.122L110.312 22.6732C110.156 23.0364 109.981 23.3249 109.789 23.5386C109.603 23.7523 109.4 23.9019 109.18 23.9874C108.959 24.08 108.713 24.1263 108.442 24.1263ZM109.938 22.1603L107.353 16.3904H108.143L110.43 21.5405L109.938 22.1603ZM114.304 22V16.3904H115.074L117.617 20.6964H117.296L119.882 16.3904H120.587V22H119.893V17.2559L120.031 17.32L117.617 21.3162H117.275L114.839 17.2773L114.999 17.2452V22H114.304ZM125.15 22.0534C124.566 22.0534 124.053 21.9323 123.611 21.6901C123.17 21.4408 122.824 21.1025 122.575 20.6751C122.326 20.2405 122.201 19.7455 122.201 19.1899C122.201 18.6342 122.318 18.1427 122.553 17.7153C122.796 17.2879 123.123 16.9532 123.536 16.711C123.957 16.4616 124.427 16.337 124.947 16.337C125.474 16.337 125.941 16.4581 126.347 16.7003C126.76 16.9353 127.084 17.2701 127.319 17.7047C127.554 18.1321 127.672 18.6271 127.672 19.1899C127.672 19.2255 127.668 19.2647 127.661 19.3074C127.661 19.343 127.661 19.3822 127.661 19.4249H122.778V18.8586H127.255L126.956 19.083C126.956 18.677 126.867 18.3173 126.689 18.0038C126.518 17.6833 126.283 17.434 125.983 17.2559C125.684 17.0778 125.339 16.9888 124.947 16.9888C124.562 16.9888 124.217 17.0778 123.91 17.2559C123.604 17.434 123.366 17.6833 123.195 18.0038C123.024 18.3244 122.938 18.6912 122.938 19.1044V19.2219C122.938 19.6493 123.031 20.0268 123.216 20.3545C123.408 20.6751 123.672 20.9279 124.007 21.1132C124.349 21.2912 124.737 21.3803 125.171 21.3803C125.513 21.3803 125.83 21.3197 126.122 21.1986C126.421 21.0775 126.678 20.8923 126.892 20.643L127.319 21.1345C127.07 21.4337 126.756 21.6616 126.379 21.8184C126.008 21.9751 125.599 22.0534 125.15 22.0534ZM129.351 22V16.3904H130.109V18.8693H133.646V16.3904H134.405V22H133.646V19.5211H130.109V22H129.351ZM137.63 22V16.8499L137.822 17.0529H135.503V16.3904H140.515V17.0529H138.196L138.388 16.8499V22H137.63ZM141.611 22V16.3904H142.37V20.846L146.12 16.3904H146.794V22H146.035V17.5337L142.295 22H141.611Z" fill="white" fill-opacity="0.1"/>
<path d="M12.411 33.2206C12.411 30.7239 14.4349 28.7 16.9315 28.7H118.027V56.0973H16.9315C14.4349 56.0973 12.411 54.0734 12.411 51.5767V33.2206Z" fill="white"/>
<path d="M25.4466 46.9971C24.7891 46.9971 24.1768 46.8861 23.6096 46.6642C23.0507 46.4423 22.5658 46.1341 22.1549 45.7395C21.7439 45.3368 21.4233 44.8683 21.1932 44.3341C20.9631 43.7998 20.848 43.2162 20.848 42.5834C20.848 41.9505 20.9631 41.3669 21.1932 40.8327C21.4233 40.2984 21.7439 39.8341 22.1549 39.4395C22.5658 39.0368 23.0507 38.7245 23.6096 38.5025C24.1686 38.2806 24.7809 38.1697 25.4466 38.1697C26.1042 38.1697 26.7083 38.2806 27.259 38.5025C27.8179 38.7162 28.3028 39.0245 28.7138 39.4272C29.1329 39.8217 29.4535 40.2861 29.6754 40.8204C29.9055 41.3546 30.0206 41.9423 30.0206 42.5834C30.0206 43.2245 29.9055 43.8121 29.6754 44.3464C29.4535 44.8806 29.1329 45.3491 28.7138 45.7519C28.3028 46.1464 27.8179 46.4546 27.259 46.6765C26.7083 46.8902 26.1042 46.9971 25.4466 46.9971ZM25.4466 45.8998C25.9233 45.8998 26.3631 45.8176 26.7658 45.6532C27.1768 45.4888 27.5302 45.2587 27.8261 44.9628C28.1302 44.6587 28.3644 44.3053 28.5288 43.9025C28.7014 43.4998 28.7877 43.0601 28.7877 42.5834C28.7877 42.1067 28.7014 41.6669 28.5288 41.2642C28.3644 40.8615 28.1302 40.5121 27.8261 40.2162C27.5302 39.9121 27.1768 39.6779 26.7658 39.5135C26.3631 39.3491 25.9233 39.2669 25.4466 39.2669C24.9617 39.2669 24.5138 39.3491 24.1028 39.5135C23.7001 39.6779 23.3466 39.9121 23.0425 40.2162C22.7384 40.5121 22.5001 40.8615 22.3275 41.2642C22.1631 41.6669 22.0809 42.1067 22.0809 42.5834C22.0809 43.0601 22.1631 43.4998 22.3275 43.9025C22.5001 44.3053 22.7384 44.6587 23.0425 44.9628C23.3466 45.2587 23.7001 45.4888 24.1028 45.6532C24.5138 45.8176 24.9617 45.8998 25.4466 45.8998ZM35.1903 46.9971C34.6479 46.9971 34.1671 46.9108 33.7479 46.7382C33.3369 46.5656 32.9835 46.3108 32.6876 45.9738C32.3917 45.6286 32.1657 45.1971 32.0095 44.6793C31.8616 44.1532 31.7876 43.5368 31.7876 42.8299C31.7876 42.271 31.8369 41.7697 31.9355 41.3258C32.0342 40.882 32.1739 40.4875 32.3547 40.1423C32.5438 39.7971 32.7739 39.4971 33.0451 39.2423C33.3246 38.9875 33.6369 38.7779 33.9821 38.6135C34.3355 38.4409 34.7219 38.3094 35.141 38.219L38.1246 37.5532L38.2972 38.6505L35.5479 39.2423C35.3835 39.2751 35.1862 39.3245 34.9561 39.3902C34.726 39.456 34.4917 39.5587 34.2534 39.6984C34.015 39.8299 33.7931 40.0149 33.5876 40.2532C33.3821 40.4916 33.2177 40.8039 33.0945 41.1902C32.9712 41.5683 32.9095 42.0368 32.9095 42.5957C32.9095 42.7519 32.9136 42.871 32.9219 42.9532C32.9301 43.0354 32.9383 43.1176 32.9465 43.1998C32.9629 43.282 32.9753 43.4053 32.9835 43.5697L32.4903 43.0642C32.6219 42.6121 32.8314 42.2176 33.1191 41.8806C33.4068 41.5436 33.752 41.2847 34.1547 41.1039C34.5657 40.9149 35.0136 40.8204 35.4986 40.8204C36.1068 40.8204 36.6451 40.9519 37.1136 41.2149C37.5903 41.4779 37.9643 41.8395 38.2355 42.2998C38.5068 42.7601 38.6424 43.2861 38.6424 43.8779C38.6424 44.4779 38.4986 45.0162 38.2109 45.493C37.9314 45.9615 37.5328 46.3313 37.015 46.6025C36.4972 46.8656 35.889 46.9971 35.1903 46.9971ZM35.3013 46.0108C35.7205 46.0108 36.0903 45.9204 36.4109 45.7395C36.7314 45.5505 36.9821 45.2998 37.1629 44.9875C37.3438 44.6669 37.4342 44.3094 37.4342 43.9149C37.4342 43.5204 37.3438 43.171 37.1629 42.8669C36.9821 42.5628 36.7314 42.3245 36.4109 42.1519C36.0903 41.971 35.7123 41.8806 35.2766 41.8806C34.8657 41.8806 34.4958 41.9669 34.1671 42.1395C33.8383 42.3039 33.5835 42.5382 33.4027 42.8423C33.2219 43.1382 33.1314 43.4834 33.1314 43.8779C33.1314 44.2724 33.2219 44.6341 33.4027 44.9628C33.5917 45.2834 33.8465 45.5382 34.1671 45.7272C34.4958 45.9162 34.8739 46.0108 35.3013 46.0108ZM44.1506 46.9724C43.6081 46.9724 43.1109 46.8491 42.6588 46.6025C42.215 46.3478 41.8574 45.9738 41.5862 45.4806C41.3232 44.9875 41.1917 44.371 41.1917 43.6313C41.1917 42.8916 41.3191 42.2751 41.5739 41.782C41.8369 41.2888 42.1903 40.919 42.6342 40.6724C43.0862 40.4258 43.5917 40.3025 44.1506 40.3025C44.7917 40.3025 45.3588 40.4423 45.852 40.7217C46.3451 41.0012 46.7355 41.3916 47.0232 41.893C47.3109 42.3861 47.4547 42.9656 47.4547 43.6313C47.4547 44.2971 47.3109 44.8806 47.0232 45.382C46.7355 45.8834 46.3451 46.2738 45.852 46.5532C45.3588 46.8327 44.7917 46.9724 44.1506 46.9724ZM40.6862 49.2902V40.3642H41.8205V42.1272L41.7465 43.6436L41.8698 45.1601V49.2902H40.6862ZM44.052 45.9368C44.4711 45.9368 44.8451 45.8423 45.1739 45.6532C45.5109 45.4642 45.7739 45.1971 45.9629 44.8519C46.1602 44.4984 46.2588 44.0916 46.2588 43.6313C46.2588 43.1628 46.1602 42.7601 45.9629 42.4231C45.7739 42.0779 45.5109 41.8108 45.1739 41.6217C44.8451 41.4327 44.4711 41.3382 44.052 41.3382C43.641 41.3382 43.267 41.4327 42.93 41.6217C42.6013 41.8108 42.3383 42.0779 42.141 42.4231C41.952 42.7601 41.8574 43.1628 41.8574 43.6313C41.8574 44.0916 41.952 44.4984 42.141 44.8519C42.3383 45.1971 42.6013 45.4642 42.93 45.6532C43.267 45.8423 43.641 45.9368 44.052 45.9368ZM53.4744 46.8984V45.5176L53.4127 45.2587V42.9039C53.4127 42.4025 53.2648 42.0162 52.9689 41.745C52.6812 41.4656 52.2456 41.3258 51.662 41.3258C51.2757 41.3258 50.8976 41.3916 50.5278 41.5231C50.1579 41.6464 49.8456 41.8149 49.5908 42.0286L49.0976 41.1409C49.4346 40.8697 49.8374 40.6642 50.3059 40.5245C50.7826 40.3765 51.2798 40.3025 51.7976 40.3025C52.6935 40.3025 53.3839 40.5204 53.8689 40.956C54.3538 41.3916 54.5963 42.0573 54.5963 42.9532V46.8984H53.4744ZM51.3292 46.9724C50.8442 46.9724 50.4168 46.8902 50.047 46.7258C49.6853 46.5615 49.4059 46.3354 49.2086 46.0478C49.0113 45.7519 48.9127 45.419 48.9127 45.0491C48.9127 44.6957 48.9949 44.3751 49.1593 44.0875C49.3319 43.7998 49.6072 43.5697 49.9853 43.3971C50.3716 43.2245 50.8894 43.1382 51.5387 43.1382H53.61V43.9888H51.5881C50.9963 43.9888 50.5976 44.0875 50.3922 44.2847C50.1867 44.482 50.0839 44.7204 50.0839 44.9998C50.0839 45.3204 50.2113 45.5793 50.4661 45.7765C50.7209 45.9656 51.0744 46.0601 51.5264 46.0601C51.9702 46.0601 52.3565 45.9615 52.6853 45.7642C53.0223 45.5669 53.2648 45.2793 53.4127 44.9012L53.647 45.7149C53.4908 46.1012 53.2155 46.4094 52.8209 46.6395C52.4264 46.8615 51.9291 46.9724 51.3292 46.9724ZM58.3755 46.8984V41.0916L58.6713 41.3998H55.9837V40.3642H61.9508V41.3998H59.2755L59.559 41.0916V46.8984H58.3755ZM63.5145 46.8984V40.3642H64.698V45.1231L68.7049 40.3642H69.7775V46.8984H68.5939V42.1395L64.5994 46.8984H63.5145ZM79.9885 46.9971C79.9802 46.9971 79.9515 46.9971 79.9022 46.9971C79.8611 46.9971 79.82 46.9971 79.7789 46.9971C79.7378 46.9971 79.7131 46.9971 79.7049 46.9971C78.3652 46.9806 77.3254 46.6847 76.5857 46.1094C75.846 45.5258 75.4761 44.6957 75.4761 43.619C75.4761 42.5505 75.846 41.7327 76.5857 41.1656C77.3337 40.5902 78.3857 40.2984 79.7419 40.2902C79.7583 40.2902 79.783 40.2902 79.8159 40.2902C79.857 40.2902 79.8939 40.2902 79.9268 40.2902C79.9679 40.2902 79.9926 40.2902 80.0008 40.2902C81.3734 40.2902 82.4378 40.5779 83.1939 41.1532C83.9583 41.7286 84.3405 42.5505 84.3405 43.619C84.3405 44.7039 83.9583 45.5382 83.1939 46.1217C82.4296 46.7053 81.3611 46.9971 79.9885 46.9971ZM79.9638 45.9615C80.6789 45.9615 81.2707 45.871 81.7391 45.6902C82.2159 45.5094 82.5734 45.2464 82.8117 44.9012C83.0501 44.556 83.1693 44.1286 83.1693 43.619C83.1693 43.1176 83.0501 42.6984 82.8117 42.3615C82.5734 42.0245 82.2159 41.7697 81.7391 41.5971C81.2707 41.4245 80.6789 41.3382 79.9638 41.3382C79.9474 41.3382 79.9145 41.3382 79.8652 41.3382C79.8159 41.3382 79.7871 41.3382 79.7789 41.3382C79.0802 41.3382 78.4967 41.4286 78.0282 41.6094C77.5679 41.782 77.2227 42.0368 76.9926 42.3738C76.7624 42.7108 76.6474 43.1258 76.6474 43.619C76.6474 44.1204 76.7624 44.5436 76.9926 44.8888C77.2309 45.2341 77.5802 45.4971 78.0405 45.6779C78.509 45.8587 79.0885 45.9532 79.7789 45.9615C79.7953 45.9615 79.8241 45.9615 79.8652 45.9615C79.9145 45.9615 79.9474 45.9615 79.9638 45.9615ZM79.3227 49.2902V37.7505H80.4816V49.2902H79.3227ZM90.3135 46.8984V45.5176L90.2518 45.2587V42.9039C90.2518 42.4025 90.1039 42.0162 89.808 41.745C89.5203 41.4656 89.0847 41.3258 88.5011 41.3258C88.1148 41.3258 87.7367 41.3916 87.3669 41.5231C86.997 41.6464 86.6847 41.8149 86.4299 42.0286L85.9367 41.1409C86.2737 40.8697 86.6765 40.6642 87.145 40.5245C87.6217 40.3765 88.1189 40.3025 88.6367 40.3025C89.5326 40.3025 90.223 40.5204 90.708 40.956C91.1929 41.3916 91.4354 42.0573 91.4354 42.9532V46.8984H90.3135ZM88.1682 46.9724C87.6833 46.9724 87.2559 46.8902 86.8861 46.7258C86.5244 46.5615 86.245 46.3354 86.0477 46.0478C85.8504 45.7519 85.7518 45.419 85.7518 45.0491C85.7518 44.6957 85.834 44.3751 85.9984 44.0875C86.171 43.7998 86.4463 43.5697 86.8244 43.3971C87.2107 43.2245 87.7285 43.1382 88.3778 43.1382H90.4491V43.9888H88.4272C87.8354 43.9888 87.4367 44.0875 87.2313 44.2847C87.0258 44.482 86.923 44.7204 86.923 44.9998C86.923 45.3204 87.0504 45.5793 87.3052 45.7765C87.56 45.9656 87.9135 46.0601 88.3655 46.0601C88.8093 46.0601 89.1956 45.9615 89.5244 45.7642C89.8614 45.5669 90.1039 45.2793 90.2518 44.9012L90.4861 45.7149C90.3299 46.1012 90.0545 46.4094 89.66 46.6395C89.2655 46.8615 88.7682 46.9724 88.1682 46.9724ZM93.92 46.8984V40.3642H95.1036V45.1231L99.1104 40.3642H100.183V46.8984H98.9995V42.1395L95.005 46.8984H93.92ZM96.9776 39.5135C96.3776 39.5135 95.905 39.3697 95.5598 39.082C95.2228 38.7861 95.0502 38.3628 95.042 37.8121H95.8433C95.8515 38.1245 95.9543 38.371 96.1515 38.5519C96.357 38.7327 96.6283 38.8231 96.9652 38.8231C97.3022 38.8231 97.5735 38.7327 97.7789 38.5519C97.9844 38.371 98.0913 38.1245 98.0995 37.8121H98.9255C98.9173 38.3628 98.7406 38.7861 98.3954 39.082C98.0502 39.3697 97.5776 39.5135 96.9776 39.5135ZM101.749 46.8861L101.823 45.8875C101.88 45.8957 101.934 45.9039 101.983 45.9121C102.032 45.9204 102.078 45.9245 102.119 45.9245C102.382 45.9245 102.587 45.8341 102.735 45.6532C102.891 45.4724 103.006 45.2341 103.08 44.9382C103.154 44.6341 103.208 44.293 103.241 43.9149C103.273 43.5368 103.298 43.1587 103.315 42.7806L103.426 40.3642H108.443V46.8984H107.26V41.0546L107.543 41.3998H104.19L104.461 41.0423L104.375 42.8546C104.35 43.4299 104.305 43.9683 104.239 44.4697C104.173 44.971 104.071 45.4108 103.931 45.7888C103.8 46.1669 103.615 46.4628 103.376 46.6765C103.146 46.8902 102.846 46.9971 102.476 46.9971C102.369 46.9971 102.254 46.9847 102.131 46.9601C102.016 46.9436 101.889 46.919 101.749 46.8861Z" fill="#A8AAAE"/>
<path d="M12.411 33.2206C12.411 30.7239 14.4349 28.7 16.9315 28.7H118.027V56.0973H16.9315C14.4349 56.0973 12.411 54.0734 12.411 51.5767V33.2206Z" stroke="#A8AAAE" stroke-width="0.821918"/>
<mask id="path-6-inside-1_1018_62948" fill="white">
<path d="M118.438 28.2891H247.069C249.792 28.2891 252 30.497 252 33.2206V51.5767C252 54.3003 249.792 56.5082 247.069 56.5082H118.438V28.2891Z"/>
</mask>
<path d="M118.438 28.2891H247.069C249.792 28.2891 252 30.497 252 33.2206V51.5767C252 54.3003 249.792 56.5082 247.069 56.5082H118.438V28.2891Z" fill="white"/>
<path d="M131.314 46.3984V39.1121C131.314 38.5368 131.482 38.0724 131.819 37.719C132.156 37.3656 132.641 37.1888 133.274 37.1888C133.521 37.1888 133.759 37.2217 133.989 37.2875C134.219 37.3532 134.412 37.456 134.569 37.5957L134.273 38.2491C134.149 38.1423 134.006 38.0642 133.841 38.0149C133.677 37.9573 133.5 37.9286 133.311 37.9286C132.941 37.9286 132.658 38.0313 132.46 38.2368C132.263 38.4423 132.164 38.7464 132.164 39.1491V40.1354L132.189 40.5423V46.3984H131.314ZM130.155 40.6532V39.9258H134.162V40.6532H130.155ZM135.344 46.3984V39.9258H136.219V46.3984H135.344ZM135.788 38.4957C135.607 38.4957 135.455 38.4341 135.331 38.3108C135.208 38.1875 135.146 38.0395 135.146 37.8669C135.146 37.6943 135.208 37.5505 135.331 37.4354C135.455 37.3121 135.607 37.2505 135.788 37.2505C135.968 37.2505 136.12 37.308 136.244 37.4231C136.367 37.5382 136.429 37.682 136.429 37.8546C136.429 38.0354 136.367 38.1875 136.244 38.3108C136.129 38.4341 135.977 38.4957 135.788 38.4957ZM138.655 46.3984V37.2505H139.53V46.3984H138.655ZM144.715 46.4601C144.041 46.4601 143.449 46.3204 142.94 46.0409C142.43 45.7532 142.031 45.3628 141.744 44.8697C141.456 44.3683 141.312 43.7971 141.312 43.156C141.312 42.5149 141.448 41.9478 141.719 41.4546C141.998 40.9615 142.377 40.5751 142.853 40.2957C143.338 40.008 143.881 39.8642 144.481 39.8642C145.089 39.8642 145.627 40.0039 146.096 40.2834C146.572 40.5546 146.946 40.9409 147.218 41.4423C147.489 41.9354 147.624 42.5067 147.624 43.156C147.624 43.1971 147.62 43.2423 147.612 43.2916C147.612 43.3327 147.612 43.3779 147.612 43.4272H141.978V42.7738H147.144L146.798 43.0327C146.798 42.5642 146.696 42.1491 146.49 41.7875C146.293 41.4176 146.022 41.1299 145.677 40.9245C145.331 40.719 144.933 40.6162 144.481 40.6162C144.037 40.6162 143.638 40.719 143.285 40.9245C142.931 41.1299 142.656 41.4176 142.459 41.7875C142.261 42.1573 142.163 42.5806 142.163 43.0573V43.193C142.163 43.6861 142.27 44.1217 142.483 44.4998C142.705 44.8697 143.009 45.1615 143.396 45.3751C143.79 45.5806 144.238 45.6834 144.74 45.6834C145.134 45.6834 145.5 45.6135 145.837 45.4738C146.182 45.3341 146.478 45.1204 146.724 44.8327L147.218 45.3998C146.93 45.745 146.568 46.008 146.133 46.1888C145.705 46.3697 145.233 46.4601 144.715 46.4601ZM148.113 46.9902V46.3984H154.278V46.9902H148.113ZM157.898 46.4601C157.225 46.4601 156.633 46.3204 156.123 46.0409C155.614 45.7532 155.215 45.3628 154.927 44.8697C154.64 44.3683 154.496 43.7971 154.496 43.156C154.496 42.5149 154.631 41.9478 154.903 41.4546C155.182 40.9615 155.56 40.5751 156.037 40.2957C156.522 40.008 157.064 39.8642 157.664 39.8642C158.272 39.8642 158.811 40.0039 159.279 40.2834C159.756 40.5546 160.13 40.9409 160.401 41.4423C160.672 41.9354 160.808 42.5067 160.808 43.156C160.808 43.1971 160.804 43.2423 160.796 43.2916C160.796 43.3327 160.796 43.3779 160.796 43.4272H155.161V42.7738H160.327L159.982 43.0327C159.982 42.5642 159.879 42.1491 159.674 41.7875C159.477 41.4176 159.205 41.1299 158.86 40.9245C158.515 40.719 158.116 40.6162 157.664 40.6162C157.22 40.6162 156.822 40.719 156.468 40.9245C156.115 41.1299 155.84 41.4176 155.642 41.7875C155.445 42.1573 155.346 42.5806 155.346 43.0573V43.193C155.346 43.6861 155.453 44.1217 155.667 44.4998C155.889 44.8697 156.193 45.1615 156.579 45.3751C156.974 45.5806 157.422 45.6834 157.923 45.6834C158.318 45.6834 158.683 45.6135 159.02 45.4738C159.366 45.3341 159.661 45.1204 159.908 44.8327L160.401 45.3998C160.114 45.745 159.752 46.008 159.316 46.1888C158.889 46.3697 158.416 46.4601 157.898 46.4601ZM161.423 46.3984L164.16 42.8478L164.148 43.2793L161.546 39.9258H162.532L164.665 42.6998L164.295 42.6875L166.428 39.9258H167.39L164.764 43.3162L164.776 42.8478L167.538 46.3984H166.539L164.283 43.4395L164.628 43.4888L162.409 46.3984H161.423ZM172.931 46.3984V44.9683L172.894 44.7341V42.3423C172.894 41.7916 172.738 41.3683 172.425 41.0724C172.121 40.7765 171.665 40.6286 171.057 40.6286C170.638 40.6286 170.239 40.6984 169.861 40.8382C169.483 40.9779 169.162 41.1628 168.899 41.393L168.505 40.7395C168.833 40.4601 169.228 40.2464 169.688 40.0984C170.149 39.9423 170.633 39.8642 171.143 39.8642C171.981 39.8642 172.627 40.0738 173.079 40.493C173.539 40.9039 173.769 41.5327 173.769 42.3793V46.3984H172.931ZM170.699 46.4601C170.214 46.4601 169.791 46.382 169.429 46.2258C169.076 46.0615 168.805 45.8395 168.616 45.5601C168.427 45.2724 168.332 44.9436 168.332 44.5738C168.332 44.2368 168.41 43.9327 168.566 43.6615C168.731 43.382 168.994 43.1601 169.355 42.9957C169.725 42.8231 170.218 42.7368 170.835 42.7368H173.066V43.3902H170.859C170.235 43.3902 169.799 43.5012 169.553 43.7231C169.314 43.945 169.195 44.2204 169.195 44.5491C169.195 44.919 169.339 45.2149 169.627 45.4368C169.914 45.6587 170.317 45.7697 170.835 45.7697C171.328 45.7697 171.751 45.6587 172.105 45.4368C172.466 45.2067 172.729 44.8779 172.894 44.4505L173.091 45.0546C172.927 45.482 172.639 45.8231 172.228 46.0779C171.825 46.3327 171.316 46.4601 170.699 46.4601ZM184.234 39.8642C184.76 39.8642 185.216 39.9669 185.603 40.1724C185.997 40.3697 186.301 40.6738 186.515 41.0847C186.737 41.4957 186.848 42.0135 186.848 42.6382V46.3984H185.973V42.7245C185.973 42.0423 185.808 41.5286 185.479 41.1834C185.159 40.8299 184.703 40.6532 184.111 40.6532C183.667 40.6532 183.281 40.7478 182.952 40.9368C182.632 41.1176 182.381 41.3847 182.2 41.7382C182.027 42.0834 181.941 42.5025 181.941 42.9957V46.3984H181.066V42.7245C181.066 42.0423 180.901 41.5286 180.573 41.1834C180.244 40.8299 179.784 40.6532 179.192 40.6532C178.756 40.6532 178.374 40.7478 178.045 40.9368C177.716 41.1176 177.462 41.3847 177.281 41.7382C177.108 42.0834 177.022 42.5025 177.022 42.9957V46.3984H176.147V39.9258H176.985V41.6765L176.849 41.3683C177.047 40.8998 177.363 40.5341 177.799 40.271C178.242 39.9998 178.764 39.8642 179.364 39.8642C179.997 39.8642 180.536 40.0245 180.979 40.345C181.423 40.6573 181.711 41.1299 181.842 41.7628L181.497 41.6272C181.686 41.1012 182.019 40.6779 182.496 40.3573C182.981 40.0286 183.56 39.8642 184.234 39.8642ZM192.563 46.4601C192.004 46.4601 191.499 46.3327 191.046 46.0779C190.594 45.8149 190.233 45.4409 189.962 44.956C189.699 44.4628 189.567 43.8628 189.567 43.156C189.567 42.4491 189.699 41.8532 189.962 41.3683C190.225 40.8751 190.582 40.5012 191.034 40.2464C191.486 39.9916 191.996 39.8642 192.563 39.8642C193.179 39.8642 193.73 40.0039 194.215 40.2834C194.708 40.5546 195.094 40.9409 195.374 41.4423C195.653 41.9354 195.793 42.5067 195.793 43.156C195.793 43.8135 195.653 44.3888 195.374 44.882C195.094 45.3751 194.708 45.7615 194.215 46.0409C193.73 46.3204 193.179 46.4601 192.563 46.4601ZM189.222 48.7902V39.9258H190.06V41.8738L189.974 43.1683L190.097 44.4751V48.7902H189.222ZM192.501 45.6834C192.962 45.6834 193.373 45.5806 193.734 45.3751C194.096 45.1615 194.383 44.8656 194.597 44.4875C194.811 44.1012 194.918 43.6573 194.918 43.156C194.918 42.6546 194.811 42.2149 194.597 41.8368C194.383 41.4587 194.096 41.1628 193.734 40.9491C193.373 40.7354 192.962 40.6286 192.501 40.6286C192.041 40.6286 191.626 40.7354 191.256 40.9491C190.894 41.1628 190.607 41.4587 190.393 41.8368C190.188 42.2149 190.085 42.6546 190.085 43.156C190.085 43.6573 190.188 44.1012 190.393 44.4875C190.607 44.8656 190.894 45.1615 191.256 45.3751C191.626 45.5806 192.041 45.6834 192.501 45.6834ZM197.577 46.3984V37.2505H198.453V46.3984H197.577ZM203.638 46.4601C202.964 46.4601 202.372 46.3204 201.862 46.0409C201.353 45.7532 200.954 45.3628 200.666 44.8697C200.379 44.3683 200.235 43.7971 200.235 43.156C200.235 42.5149 200.371 41.9478 200.642 41.4546C200.921 40.9615 201.299 40.5751 201.776 40.2957C202.261 40.008 202.803 39.8642 203.403 39.8642C204.012 39.8642 204.55 40.0039 205.019 40.2834C205.495 40.5546 205.869 40.9409 206.14 41.4423C206.412 41.9354 206.547 42.5067 206.547 43.156C206.547 43.1971 206.543 43.2423 206.535 43.2916C206.535 43.3327 206.535 43.3779 206.535 43.4272H200.901V42.7738H206.067L205.721 43.0327C205.721 42.5642 205.619 42.1491 205.413 41.7875C205.216 41.4176 204.945 41.1299 204.599 40.9245C204.254 40.719 203.856 40.6162 203.403 40.6162C202.96 40.6162 202.561 40.719 202.208 40.9245C201.854 41.1299 201.579 41.4176 201.382 41.7875C201.184 42.1573 201.086 42.5806 201.086 43.0573V43.193C201.086 43.6861 201.193 44.1217 201.406 44.4998C201.628 44.8697 201.932 45.1615 202.319 45.3751C202.713 45.5806 203.161 45.6834 203.662 45.6834C204.057 45.6834 204.423 45.6135 204.76 45.4738C205.105 45.3341 205.401 45.1204 205.647 44.8327L206.14 45.3998C205.853 45.745 205.491 46.008 205.056 46.1888C204.628 46.3697 204.156 46.4601 203.638 46.4601ZM208.415 46.4601C208.234 46.4601 208.078 46.3943 207.947 46.2628C207.824 46.1313 207.762 45.971 207.762 45.782C207.762 45.5847 207.824 45.4245 207.947 45.3012C208.078 45.1779 208.234 45.1162 208.415 45.1162C208.596 45.1162 208.748 45.1779 208.871 45.3012C209.003 45.4245 209.069 45.5847 209.069 45.782C209.069 45.971 209.003 46.1313 208.871 46.2628C208.748 46.3943 208.596 46.4601 208.415 46.4601ZM214.283 46.4601C213.724 46.4601 213.218 46.3327 212.766 46.0779C212.314 45.8149 211.953 45.4409 211.681 44.956C211.418 44.4628 211.287 43.8628 211.287 43.156C211.287 42.4491 211.418 41.8532 211.681 41.3683C211.944 40.8751 212.302 40.5012 212.754 40.2464C213.206 39.9916 213.716 39.8642 214.283 39.8642C214.899 39.8642 215.45 40.0039 215.935 40.2834C216.428 40.5546 216.814 40.9409 217.094 41.4423C217.373 41.9354 217.513 42.5067 217.513 43.156C217.513 43.8135 217.373 44.3888 217.094 44.882C216.814 45.3751 216.428 45.7615 215.935 46.0409C215.45 46.3204 214.899 46.4601 214.283 46.4601ZM210.942 48.7902V39.9258H211.78V41.8738L211.694 43.1683L211.817 44.4751V48.7902H210.942ZM214.221 45.6834C214.681 45.6834 215.092 45.5806 215.454 45.3751C215.816 45.1615 216.103 44.8656 216.317 44.4875C216.531 44.1012 216.638 43.6573 216.638 43.156C216.638 42.6546 216.531 42.2149 216.317 41.8368C216.103 41.4587 215.816 41.1628 215.454 40.9491C215.092 40.7354 214.681 40.6286 214.221 40.6286C213.761 40.6286 213.346 40.7354 212.976 40.9491C212.614 41.1628 212.327 41.4587 212.113 41.8368C211.907 42.2149 211.805 42.6546 211.805 43.156C211.805 43.6573 211.907 44.1012 212.113 44.4875C212.327 44.8656 212.614 45.1615 212.976 45.3751C213.346 45.5806 213.761 45.6834 214.221 45.6834ZM221.874 46.4601C221.258 46.4601 220.703 46.3204 220.21 46.0409C219.725 45.7615 219.342 45.3751 219.063 44.882C218.784 44.3806 218.644 43.8053 218.644 43.156C218.644 42.4984 218.784 41.9231 219.063 41.4299C219.342 40.9368 219.725 40.5546 220.21 40.2834C220.703 40.0039 221.258 39.8642 221.874 39.8642C222.441 39.8642 222.947 39.9916 223.39 40.2464C223.842 40.5012 224.2 40.8751 224.463 41.3683C224.734 41.8532 224.87 42.4491 224.87 43.156C224.87 43.8546 224.738 44.4505 224.475 44.9436C224.212 45.4368 223.855 45.8149 223.403 46.0779C222.959 46.3327 222.449 46.4601 221.874 46.4601ZM221.936 45.6834C222.396 45.6834 222.807 45.5806 223.169 45.3751C223.538 45.1615 223.826 44.8656 224.032 44.4875C224.245 44.1012 224.352 43.6573 224.352 43.156C224.352 42.6464 224.245 42.2025 224.032 41.8245C223.826 41.4464 223.538 41.1546 223.169 40.9491C222.807 40.7354 222.396 40.6286 221.936 40.6286C221.484 40.6286 221.077 40.7354 220.715 40.9491C220.353 41.1546 220.066 41.4464 219.852 41.8245C219.638 42.2025 219.532 42.6464 219.532 43.156C219.532 43.6573 219.638 44.1012 219.852 44.4875C220.066 44.8656 220.353 45.1615 220.715 45.3751C221.077 45.5806 221.484 45.6834 221.936 45.6834ZM224.377 46.3984V44.4505L224.463 43.1436L224.34 41.8368V37.2505H225.215V46.3984H224.377ZM227.801 46.3984V39.1121C227.801 38.5368 227.969 38.0724 228.306 37.719C228.643 37.3656 229.128 37.1888 229.761 37.1888C230.008 37.1888 230.246 37.2217 230.476 37.2875C230.706 37.3532 230.899 37.456 231.056 37.5957L230.76 38.2491C230.636 38.1423 230.493 38.0642 230.328 38.0149C230.164 37.9573 229.987 37.9286 229.798 37.9286C229.428 37.9286 229.145 38.0313 228.947 38.2368C228.75 38.4423 228.652 38.7464 228.652 39.1491V40.1354L228.676 40.5423V46.3984H227.801ZM226.642 40.6532V39.9258H230.649V40.6532H226.642Z" fill="#4B465C"/>
<path d="M131.314 46.3984V39.1121C131.314 38.5368 131.482 38.0724 131.819 37.719C132.156 37.3656 132.641 37.1888 133.274 37.1888C133.521 37.1888 133.759 37.2217 133.989 37.2875C134.219 37.3532 134.412 37.456 134.569 37.5957L134.273 38.2491C134.149 38.1423 134.006 38.0642 133.841 38.0149C133.677 37.9573 133.5 37.9286 133.311 37.9286C132.941 37.9286 132.658 38.0313 132.46 38.2368C132.263 38.4423 132.164 38.7464 132.164 39.1491V40.1354L132.189 40.5423V46.3984H131.314ZM130.155 40.6532V39.9258H134.162V40.6532H130.155ZM135.344 46.3984V39.9258H136.219V46.3984H135.344ZM135.788 38.4957C135.607 38.4957 135.455 38.4341 135.331 38.3108C135.208 38.1875 135.146 38.0395 135.146 37.8669C135.146 37.6943 135.208 37.5505 135.331 37.4354C135.455 37.3121 135.607 37.2505 135.788 37.2505C135.968 37.2505 136.12 37.308 136.244 37.4231C136.367 37.5382 136.429 37.682 136.429 37.8546C136.429 38.0354 136.367 38.1875 136.244 38.3108C136.129 38.4341 135.977 38.4957 135.788 38.4957ZM138.655 46.3984V37.2505H139.53V46.3984H138.655ZM144.715 46.4601C144.041 46.4601 143.449 46.3204 142.94 46.0409C142.43 45.7532 142.031 45.3628 141.744 44.8697C141.456 44.3683 141.312 43.7971 141.312 43.156C141.312 42.5149 141.448 41.9478 141.719 41.4546C141.998 40.9615 142.377 40.5751 142.853 40.2957C143.338 40.008 143.881 39.8642 144.481 39.8642C145.089 39.8642 145.627 40.0039 146.096 40.2834C146.572 40.5546 146.946 40.9409 147.218 41.4423C147.489 41.9354 147.624 42.5067 147.624 43.156C147.624 43.1971 147.62 43.2423 147.612 43.2916C147.612 43.3327 147.612 43.3779 147.612 43.4272H141.978V42.7738H147.144L146.798 43.0327C146.798 42.5642 146.696 42.1491 146.49 41.7875C146.293 41.4176 146.022 41.1299 145.677 40.9245C145.331 40.719 144.933 40.6162 144.481 40.6162C144.037 40.6162 143.638 40.719 143.285 40.9245C142.931 41.1299 142.656 41.4176 142.459 41.7875C142.261 42.1573 142.163 42.5806 142.163 43.0573V43.193C142.163 43.6861 142.27 44.1217 142.483 44.4998C142.705 44.8697 143.009 45.1615 143.396 45.3751C143.79 45.5806 144.238 45.6834 144.74 45.6834C145.134 45.6834 145.5 45.6135 145.837 45.4738C146.182 45.3341 146.478 45.1204 146.724 44.8327L147.218 45.3998C146.93 45.745 146.568 46.008 146.133 46.1888C145.705 46.3697 145.233 46.4601 144.715 46.4601ZM148.113 46.9902V46.3984H154.278V46.9902H148.113ZM157.898 46.4601C157.225 46.4601 156.633 46.3204 156.123 46.0409C155.614 45.7532 155.215 45.3628 154.927 44.8697C154.64 44.3683 154.496 43.7971 154.496 43.156C154.496 42.5149 154.631 41.9478 154.903 41.4546C155.182 40.9615 155.56 40.5751 156.037 40.2957C156.522 40.008 157.064 39.8642 157.664 39.8642C158.272 39.8642 158.811 40.0039 159.279 40.2834C159.756 40.5546 160.13 40.9409 160.401 41.4423C160.672 41.9354 160.808 42.5067 160.808 43.156C160.808 43.1971 160.804 43.2423 160.796 43.2916C160.796 43.3327 160.796 43.3779 160.796 43.4272H155.161V42.7738H160.327L159.982 43.0327C159.982 42.5642 159.879 42.1491 159.674 41.7875C159.477 41.4176 159.205 41.1299 158.86 40.9245C158.515 40.719 158.116 40.6162 157.664 40.6162C157.22 40.6162 156.822 40.719 156.468 40.9245C156.115 41.1299 155.84 41.4176 155.642 41.7875C155.445 42.1573 155.346 42.5806 155.346 43.0573V43.193C155.346 43.6861 155.453 44.1217 155.667 44.4998C155.889 44.8697 156.193 45.1615 156.579 45.3751C156.974 45.5806 157.422 45.6834 157.923 45.6834C158.318 45.6834 158.683 45.6135 159.02 45.4738C159.366 45.3341 159.661 45.1204 159.908 44.8327L160.401 45.3998C160.114 45.745 159.752 46.008 159.316 46.1888C158.889 46.3697 158.416 46.4601 157.898 46.4601ZM161.423 46.3984L164.16 42.8478L164.148 43.2793L161.546 39.9258H162.532L164.665 42.6998L164.295 42.6875L166.428 39.9258H167.39L164.764 43.3162L164.776 42.8478L167.538 46.3984H166.539L164.283 43.4395L164.628 43.4888L162.409 46.3984H161.423ZM172.931 46.3984V44.9683L172.894 44.7341V42.3423C172.894 41.7916 172.738 41.3683 172.425 41.0724C172.121 40.7765 171.665 40.6286 171.057 40.6286C170.638 40.6286 170.239 40.6984 169.861 40.8382C169.483 40.9779 169.162 41.1628 168.899 41.393L168.505 40.7395C168.833 40.4601 169.228 40.2464 169.688 40.0984C170.149 39.9423 170.633 39.8642 171.143 39.8642C171.981 39.8642 172.627 40.0738 173.079 40.493C173.539 40.9039 173.769 41.5327 173.769 42.3793V46.3984H172.931ZM170.699 46.4601C170.214 46.4601 169.791 46.382 169.429 46.2258C169.076 46.0615 168.805 45.8395 168.616 45.5601C168.427 45.2724 168.332 44.9436 168.332 44.5738C168.332 44.2368 168.41 43.9327 168.566 43.6615C168.731 43.382 168.994 43.1601 169.355 42.9957C169.725 42.8231 170.218 42.7368 170.835 42.7368H173.066V43.3902H170.859C170.235 43.3902 169.799 43.5012 169.553 43.7231C169.314 43.945 169.195 44.2204 169.195 44.5491C169.195 44.919 169.339 45.2149 169.627 45.4368C169.914 45.6587 170.317 45.7697 170.835 45.7697C171.328 45.7697 171.751 45.6587 172.105 45.4368C172.466 45.2067 172.729 44.8779 172.894 44.4505L173.091 45.0546C172.927 45.482 172.639 45.8231 172.228 46.0779C171.825 46.3327 171.316 46.4601 170.699 46.4601ZM184.234 39.8642C184.76 39.8642 185.216 39.9669 185.603 40.1724C185.997 40.3697 186.301 40.6738 186.515 41.0847C186.737 41.4957 186.848 42.0135 186.848 42.6382V46.3984H185.973V42.7245C185.973 42.0423 185.808 41.5286 185.479 41.1834C185.159 40.8299 184.703 40.6532 184.111 40.6532C183.667 40.6532 183.281 40.7478 182.952 40.9368C182.632 41.1176 182.381 41.3847 182.2 41.7382C182.027 42.0834 181.941 42.5025 181.941 42.9957V46.3984H181.066V42.7245C181.066 42.0423 180.901 41.5286 180.573 41.1834C180.244 40.8299 179.784 40.6532 179.192 40.6532C178.756 40.6532 178.374 40.7478 178.045 40.9368C177.716 41.1176 177.462 41.3847 177.281 41.7382C177.108 42.0834 177.022 42.5025 177.022 42.9957V46.3984H176.147V39.9258H176.985V41.6765L176.849 41.3683C177.047 40.8998 177.363 40.5341 177.799 40.271C178.242 39.9998 178.764 39.8642 179.364 39.8642C179.997 39.8642 180.536 40.0245 180.979 40.345C181.423 40.6573 181.711 41.1299 181.842 41.7628L181.497 41.6272C181.686 41.1012 182.019 40.6779 182.496 40.3573C182.981 40.0286 183.56 39.8642 184.234 39.8642ZM192.563 46.4601C192.004 46.4601 191.499 46.3327 191.046 46.0779C190.594 45.8149 190.233 45.4409 189.962 44.956C189.699 44.4628 189.567 43.8628 189.567 43.156C189.567 42.4491 189.699 41.8532 189.962 41.3683C190.225 40.8751 190.582 40.5012 191.034 40.2464C191.486 39.9916 191.996 39.8642 192.563 39.8642C193.179 39.8642 193.73 40.0039 194.215 40.2834C194.708 40.5546 195.094 40.9409 195.374 41.4423C195.653 41.9354 195.793 42.5067 195.793 43.156C195.793 43.8135 195.653 44.3888 195.374 44.882C195.094 45.3751 194.708 45.7615 194.215 46.0409C193.73 46.3204 193.179 46.4601 192.563 46.4601ZM189.222 48.7902V39.9258H190.06V41.8738L189.974 43.1683L190.097 44.4751V48.7902H189.222ZM192.501 45.6834C192.962 45.6834 193.373 45.5806 193.734 45.3751C194.096 45.1615 194.383 44.8656 194.597 44.4875C194.811 44.1012 194.918 43.6573 194.918 43.156C194.918 42.6546 194.811 42.2149 194.597 41.8368C194.383 41.4587 194.096 41.1628 193.734 40.9491C193.373 40.7354 192.962 40.6286 192.501 40.6286C192.041 40.6286 191.626 40.7354 191.256 40.9491C190.894 41.1628 190.607 41.4587 190.393 41.8368C190.188 42.2149 190.085 42.6546 190.085 43.156C190.085 43.6573 190.188 44.1012 190.393 44.4875C190.607 44.8656 190.894 45.1615 191.256 45.3751C191.626 45.5806 192.041 45.6834 192.501 45.6834ZM197.577 46.3984V37.2505H198.453V46.3984H197.577ZM203.638 46.4601C202.964 46.4601 202.372 46.3204 201.862 46.0409C201.353 45.7532 200.954 45.3628 200.666 44.8697C200.379 44.3683 200.235 43.7971 200.235 43.156C200.235 42.5149 200.371 41.9478 200.642 41.4546C200.921 40.9615 201.299 40.5751 201.776 40.2957C202.261 40.008 202.803 39.8642 203.403 39.8642C204.012 39.8642 204.55 40.0039 205.019 40.2834C205.495 40.5546 205.869 40.9409 206.14 41.4423C206.412 41.9354 206.547 42.5067 206.547 43.156C206.547 43.1971 206.543 43.2423 206.535 43.2916C206.535 43.3327 206.535 43.3779 206.535 43.4272H200.901V42.7738H206.067L205.721 43.0327C205.721 42.5642 205.619 42.1491 205.413 41.7875C205.216 41.4176 204.945 41.1299 204.599 40.9245C204.254 40.719 203.856 40.6162 203.403 40.6162C202.96 40.6162 202.561 40.719 202.208 40.9245C201.854 41.1299 201.579 41.4176 201.382 41.7875C201.184 42.1573 201.086 42.5806 201.086 43.0573V43.193C201.086 43.6861 201.193 44.1217 201.406 44.4998C201.628 44.8697 201.932 45.1615 202.319 45.3751C202.713 45.5806 203.161 45.6834 203.662 45.6834C204.057 45.6834 204.423 45.6135 204.76 45.4738C205.105 45.3341 205.401 45.1204 205.647 44.8327L206.14 45.3998C205.853 45.745 205.491 46.008 205.056 46.1888C204.628 46.3697 204.156 46.4601 203.638 46.4601ZM208.415 46.4601C208.234 46.4601 208.078 46.3943 207.947 46.2628C207.824 46.1313 207.762 45.971 207.762 45.782C207.762 45.5847 207.824 45.4245 207.947 45.3012C208.078 45.1779 208.234 45.1162 208.415 45.1162C208.596 45.1162 208.748 45.1779 208.871 45.3012C209.003 45.4245 209.069 45.5847 209.069 45.782C209.069 45.971 209.003 46.1313 208.871 46.2628C208.748 46.3943 208.596 46.4601 208.415 46.4601ZM214.283 46.4601C213.724 46.4601 213.218 46.3327 212.766 46.0779C212.314 45.8149 211.953 45.4409 211.681 44.956C211.418 44.4628 211.287 43.8628 211.287 43.156C211.287 42.4491 211.418 41.8532 211.681 41.3683C211.944 40.8751 212.302 40.5012 212.754 40.2464C213.206 39.9916 213.716 39.8642 214.283 39.8642C214.899 39.8642 215.45 40.0039 215.935 40.2834C216.428 40.5546 216.814 40.9409 217.094 41.4423C217.373 41.9354 217.513 42.5067 217.513 43.156C217.513 43.8135 217.373 44.3888 217.094 44.882C216.814 45.3751 216.428 45.7615 215.935 46.0409C215.45 46.3204 214.899 46.4601 214.283 46.4601ZM210.942 48.7902V39.9258H211.78V41.8738L211.694 43.1683L211.817 44.4751V48.7902H210.942ZM214.221 45.6834C214.681 45.6834 215.092 45.5806 215.454 45.3751C215.816 45.1615 216.103 44.8656 216.317 44.4875C216.531 44.1012 216.638 43.6573 216.638 43.156C216.638 42.6546 216.531 42.2149 216.317 41.8368C216.103 41.4587 215.816 41.1628 215.454 40.9491C215.092 40.7354 214.681 40.6286 214.221 40.6286C213.761 40.6286 213.346 40.7354 212.976 40.9491C212.614 41.1628 212.327 41.4587 212.113 41.8368C211.907 42.2149 211.805 42.6546 211.805 43.156C211.805 43.6573 211.907 44.1012 212.113 44.4875C212.327 44.8656 212.614 45.1615 212.976 45.3751C213.346 45.5806 213.761 45.6834 214.221 45.6834ZM221.874 46.4601C221.258 46.4601 220.703 46.3204 220.21 46.0409C219.725 45.7615 219.342 45.3751 219.063 44.882C218.784 44.3806 218.644 43.8053 218.644 43.156C218.644 42.4984 218.784 41.9231 219.063 41.4299C219.342 40.9368 219.725 40.5546 220.21 40.2834C220.703 40.0039 221.258 39.8642 221.874 39.8642C222.441 39.8642 222.947 39.9916 223.39 40.2464C223.842 40.5012 224.2 40.8751 224.463 41.3683C224.734 41.8532 224.87 42.4491 224.87 43.156C224.87 43.8546 224.738 44.4505 224.475 44.9436C224.212 45.4368 223.855 45.8149 223.403 46.0779C222.959 46.3327 222.449 46.4601 221.874 46.4601ZM221.936 45.6834C222.396 45.6834 222.807 45.5806 223.169 45.3751C223.538 45.1615 223.826 44.8656 224.032 44.4875C224.245 44.1012 224.352 43.6573 224.352 43.156C224.352 42.6464 224.245 42.2025 224.032 41.8245C223.826 41.4464 223.538 41.1546 223.169 40.9491C222.807 40.7354 222.396 40.6286 221.936 40.6286C221.484 40.6286 221.077 40.7354 220.715 40.9491C220.353 41.1546 220.066 41.4464 219.852 41.8245C219.638 42.2025 219.532 42.6464 219.532 43.156C219.532 43.6573 219.638 44.1012 219.852 44.4875C220.066 44.8656 220.353 45.1615 220.715 45.3751C221.077 45.5806 221.484 45.6834 221.936 45.6834ZM224.377 46.3984V44.4505L224.463 43.1436L224.34 41.8368V37.2505H225.215V46.3984H224.377ZM227.801 46.3984V39.1121C227.801 38.5368 227.969 38.0724 228.306 37.719C228.643 37.3656 229.128 37.1888 229.761 37.1888C230.008 37.1888 230.246 37.2217 230.476 37.2875C230.706 37.3532 230.899 37.456 231.056 37.5957L230.76 38.2491C230.636 38.1423 230.493 38.0642 230.328 38.0149C230.164 37.9573 229.987 37.9286 229.798 37.9286C229.428 37.9286 229.145 38.0313 228.947 38.2368C228.75 38.4423 228.652 38.7464 228.652 39.1491V40.1354L228.676 40.5423V46.3984H227.801ZM226.642 40.6532V39.9258H230.649V40.6532H226.642Z" fill="white" fill-opacity="0.2"/>
<path d="M118.438 27.4671H247.069C250.246 27.4671 252.822 30.043 252.822 33.2206H251.178C251.178 30.9509 249.338 29.111 247.069 29.111H118.438V27.4671ZM252.822 51.5767C252.822 54.7543 250.246 57.3302 247.069 57.3302H118.438V55.6863H247.069C249.338 55.6863 251.178 53.8464 251.178 51.5767H252.822ZM118.438 56.5082V28.2891V56.5082ZM247.069 27.4671C250.246 27.4671 252.822 30.043 252.822 33.2206V51.5767C252.822 54.7543 250.246 57.3302 247.069 57.3302V55.6863C249.338 55.6863 251.178 53.8464 251.178 51.5767V33.2206C251.178 30.9509 249.338 29.111 247.069 29.111V27.4671Z" fill="#DBDADE" mask="url(#path-6-inside-1_1018_62948)"/>
<rect x="0.5" y="0.5" width="263" height="69" rx="5.5" stroke="#DBDADE"/>
</svg>
