<svg width="264" height="70" viewBox="0 0 264 70" fill="none" xmlns="http://www.w3.org/2000/svg">
<rect x="0.5" y="0.5" width="263" height="69" rx="5.5" fill="white"/>
<rect x="22.4107" y="25.6847" width="31.7809" height="18.6302" rx="9.31508" fill="white"/>
<circle cx="31.7257" cy="35.0011" r="6.57535" fill="#4B465C"/>
<circle cx="31.7257" cy="35.0011" r="6.57535" fill="white" fill-opacity="0.8"/>
<rect x="22.4107" y="25.6847" width="31.7809" height="18.6302" rx="9.31508" stroke="#4B465C" stroke-width="1.09589"/>
<rect x="22.4107" y="25.6847" width="31.7809" height="18.6302" rx="9.31508" stroke="white" stroke-opacity="0.8" stroke-width="1.09589"/>
<path d="M66.5547 38.574C65.9054 38.574 65.3012 38.4671 64.7423 38.2534C64.1917 38.0315 63.7108 37.7233 63.2999 37.3288C62.8971 36.926 62.5807 36.4616 62.3506 35.9356C62.1286 35.4014 62.0177 34.8178 62.0177 34.1849C62.0177 33.552 62.1286 32.9726 62.3506 32.4466C62.5807 31.9123 62.8971 31.4479 63.2999 31.0534C63.7108 30.6507 64.1917 30.3425 64.7423 30.1288C65.293 29.9068 65.8971 29.7959 66.5547 29.7959C67.204 29.7959 67.804 29.9068 68.3547 30.1288C68.9054 30.3425 69.3821 30.6466 69.7848 31.0411C70.1958 31.4356 70.5122 31.9 70.7341 32.4342C70.9643 32.9685 71.0793 33.552 71.0793 34.1849C71.0793 34.8178 70.9643 35.4014 70.7341 35.9356C70.5122 36.4699 70.1958 36.9342 69.7848 37.3288C69.3821 37.7233 68.9054 38.0315 68.3547 38.2534C67.804 38.4671 67.204 38.574 66.5547 38.574ZM66.5547 37.7603C67.0725 37.7603 67.5492 37.674 67.9848 37.5014C68.4286 37.3205 68.8108 37.0699 69.1314 36.7493C69.4602 36.4205 69.715 36.0425 69.8958 35.6151C70.0766 35.1794 70.167 34.7027 70.167 34.1849C70.167 33.6671 70.0766 33.1945 69.8958 32.7671C69.715 32.3315 69.4602 31.9534 69.1314 31.6329C68.8108 31.3041 68.4286 31.0534 67.9848 30.8808C67.5492 30.7 67.0725 30.6096 66.5547 30.6096C66.0369 30.6096 65.556 30.7 65.1122 30.8808C64.6684 31.0534 64.2821 31.3041 63.9533 31.6329C63.6328 31.9534 63.378 32.3315 63.1889 32.7671C63.0081 33.1945 62.9177 33.6671 62.9177 34.1849C62.9177 34.6945 63.0081 35.1671 63.1889 35.6027C63.378 36.0384 63.6328 36.4205 63.9533 36.7493C64.2821 37.0699 64.6684 37.3205 65.1122 37.5014C65.556 37.674 66.0369 37.7603 66.5547 37.7603ZM73.0468 38.5V32.0274H78.866V38.5H77.9907V32.5575L78.2126 32.7918H73.7003L73.9222 32.5575V38.5H73.0468ZM81.3543 38.5V32.0274H82.2297V37.7356H86.1872V32.0274H87.0625V38.5H81.3543ZM87.2845 40.0658V38.426L87.5064 38.5H86.1872V37.7356H88.1105V40.0658H87.2845ZM89.7822 38.5V32.0274H90.6575V38.5H89.7822ZM90.226 30.5973C90.0452 30.5973 89.8931 30.5356 89.7699 30.4123C89.6466 30.289 89.5849 30.1411 89.5849 29.9685C89.5849 29.7959 89.6466 29.652 89.7699 29.537C89.8931 29.4137 90.0452 29.352 90.226 29.352C90.4068 29.352 90.5589 29.4096 90.6822 29.5246C90.8055 29.6397 90.8671 29.7836 90.8671 29.9562C90.8671 30.137 90.8055 30.289 90.6822 30.4123C90.5671 30.5356 90.4151 30.5973 90.226 30.5973ZM97.3328 38.5V36.1699L97.4931 36.3548H95.2985C94.4684 36.3548 93.8191 36.174 93.3506 35.8123C92.8821 35.4507 92.6479 34.9247 92.6479 34.2342C92.6479 33.4945 92.8985 32.9438 93.3999 32.5822C93.9013 32.2123 94.5712 32.0274 95.4095 32.0274H98.1342V38.5H97.3328ZM92.5985 38.5L94.3739 36.0096H95.2862L93.5479 38.5H92.5985ZM97.3328 35.911V32.5329L97.4931 32.7918H95.4342C94.8342 32.7918 94.3657 32.9068 94.0287 33.137C93.6999 33.3671 93.5355 33.7411 93.5355 34.2589C93.5355 35.2205 94.1479 35.7014 95.3725 35.7014H97.4931L97.3328 35.911Z" fill="#4B465C"/>
<path d="M66.5547 38.574C65.9054 38.574 65.3012 38.4671 64.7423 38.2534C64.1917 38.0315 63.7108 37.7233 63.2999 37.3288C62.8971 36.926 62.5807 36.4616 62.3506 35.9356C62.1286 35.4014 62.0177 34.8178 62.0177 34.1849C62.0177 33.552 62.1286 32.9726 62.3506 32.4466C62.5807 31.9123 62.8971 31.4479 63.2999 31.0534C63.7108 30.6507 64.1917 30.3425 64.7423 30.1288C65.293 29.9068 65.8971 29.7959 66.5547 29.7959C67.204 29.7959 67.804 29.9068 68.3547 30.1288C68.9054 30.3425 69.3821 30.6466 69.7848 31.0411C70.1958 31.4356 70.5122 31.9 70.7341 32.4342C70.9643 32.9685 71.0793 33.552 71.0793 34.1849C71.0793 34.8178 70.9643 35.4014 70.7341 35.9356C70.5122 36.4699 70.1958 36.9342 69.7848 37.3288C69.3821 37.7233 68.9054 38.0315 68.3547 38.2534C67.804 38.4671 67.204 38.574 66.5547 38.574ZM66.5547 37.7603C67.0725 37.7603 67.5492 37.674 67.9848 37.5014C68.4286 37.3205 68.8108 37.0699 69.1314 36.7493C69.4602 36.4205 69.715 36.0425 69.8958 35.6151C70.0766 35.1794 70.167 34.7027 70.167 34.1849C70.167 33.6671 70.0766 33.1945 69.8958 32.7671C69.715 32.3315 69.4602 31.9534 69.1314 31.6329C68.8108 31.3041 68.4286 31.0534 67.9848 30.8808C67.5492 30.7 67.0725 30.6096 66.5547 30.6096C66.0369 30.6096 65.556 30.7 65.1122 30.8808C64.6684 31.0534 64.2821 31.3041 63.9533 31.6329C63.6328 31.9534 63.378 32.3315 63.1889 32.7671C63.0081 33.1945 62.9177 33.6671 62.9177 34.1849C62.9177 34.6945 63.0081 35.1671 63.1889 35.6027C63.378 36.0384 63.6328 36.4205 63.9533 36.7493C64.2821 37.0699 64.6684 37.3205 65.1122 37.5014C65.556 37.674 66.0369 37.7603 66.5547 37.7603ZM73.0468 38.5V32.0274H78.866V38.5H77.9907V32.5575L78.2126 32.7918H73.7003L73.9222 32.5575V38.5H73.0468ZM81.3543 38.5V32.0274H82.2297V37.7356H86.1872V32.0274H87.0625V38.5H81.3543ZM87.2845 40.0658V38.426L87.5064 38.5H86.1872V37.7356H88.1105V40.0658H87.2845ZM89.7822 38.5V32.0274H90.6575V38.5H89.7822ZM90.226 30.5973C90.0452 30.5973 89.8931 30.5356 89.7699 30.4123C89.6466 30.289 89.5849 30.1411 89.5849 29.9685C89.5849 29.7959 89.6466 29.652 89.7699 29.537C89.8931 29.4137 90.0452 29.352 90.226 29.352C90.4068 29.352 90.5589 29.4096 90.6822 29.5246C90.8055 29.6397 90.8671 29.7836 90.8671 29.9562C90.8671 30.137 90.8055 30.289 90.6822 30.4123C90.5671 30.5356 90.4151 30.5973 90.226 30.5973ZM97.3328 38.5V36.1699L97.4931 36.3548H95.2985C94.4684 36.3548 93.8191 36.174 93.3506 35.8123C92.8821 35.4507 92.6479 34.9247 92.6479 34.2342C92.6479 33.4945 92.8985 32.9438 93.3999 32.5822C93.9013 32.2123 94.5712 32.0274 95.4095 32.0274H98.1342V38.5H97.3328ZM92.5985 38.5L94.3739 36.0096H95.2862L93.5479 38.5H92.5985ZM97.3328 35.911V32.5329L97.4931 32.7918H95.4342C94.8342 32.7918 94.3657 32.9068 94.0287 33.137C93.6999 33.3671 93.5355 33.7411 93.5355 34.2589C93.5355 35.2205 94.1479 35.7014 95.3725 35.7014H97.4931L97.3328 35.911Z" fill="white" fill-opacity="0.2"/>
<rect x="0.5" y="0.5" width="263" height="69" rx="5.5" stroke="#DBDADE"/>
</svg>
