<svg width="264" height="70" viewBox="0 0 264 70" fill="none" xmlns="http://www.w3.org/2000/svg">
<rect x="0.5" y="0.5" width="263" height="69" rx="5.5" fill="white"/>
<path d="M18.7315 14.5205H19.5115V22H18.7315V14.5205ZM14.0515 22H13.2608V14.5205H14.0515V22ZM18.8063 18.5488H13.966V17.8542H18.8063V18.5488ZM25.3379 22V20.7605L25.3058 20.5575V18.4847C25.3058 18.0074 25.1705 17.6405 24.8998 17.3841C24.6363 17.1277 24.2409 16.9994 23.7138 16.9994C23.3505 16.9994 23.005 17.06 22.6773 17.1811C22.3497 17.3022 22.0719 17.4625 21.8439 17.6619L21.502 17.0956C21.7869 16.8534 22.1289 16.6682 22.5278 16.54C22.9267 16.4047 23.3469 16.337 23.7886 16.337C24.5152 16.337 25.0743 16.5186 25.4661 16.8819C25.865 17.2381 26.0645 17.783 26.0645 18.5167V22H25.3379ZM23.4039 22.0534C22.9836 22.0534 22.6168 21.9858 22.3034 21.8504C21.9971 21.7079 21.762 21.5156 21.5982 21.2734C21.4343 21.0241 21.3524 20.7392 21.3524 20.4186C21.3524 20.1266 21.4201 19.863 21.5554 19.6279C21.6979 19.3858 21.9258 19.1934 22.2393 19.051C22.5598 18.9014 22.9872 18.8266 23.5215 18.8266H25.4554V19.3929H23.5428C23.0015 19.3929 22.6239 19.489 22.4102 19.6814C22.2036 19.8737 22.1004 20.1123 22.1004 20.3973C22.1004 20.7178 22.225 20.9742 22.4743 21.1666C22.7236 21.3589 23.0727 21.4551 23.5215 21.4551C23.9489 21.4551 24.3157 21.3589 24.622 21.1666C24.9354 20.9671 25.1634 20.6822 25.3058 20.3118L25.4768 20.8353C25.3343 21.2058 25.085 21.5014 24.7289 21.7222C24.3798 21.943 23.9382 22.0534 23.4039 22.0534ZM29.4758 22.0641C29.0698 22.0641 28.6673 22.0071 28.2684 21.8932C27.8695 21.7792 27.5169 21.6047 27.2106 21.3696L27.4564 20.8033C27.727 21.0027 28.0405 21.1559 28.3966 21.2627C28.7528 21.3625 29.1054 21.4123 29.4544 21.4123C29.8035 21.4052 30.1062 21.3553 30.3627 21.2627C30.6191 21.1701 30.8185 21.0419 30.961 20.8781C31.1035 20.7142 31.1747 20.529 31.1747 20.3225C31.1747 20.0233 31.0394 19.7918 30.7687 19.6279C30.498 19.457 30.1276 19.3715 29.6575 19.3715H28.6958V18.8159H29.604C29.8818 18.8159 30.1276 18.7803 30.3413 18.709C30.555 18.6378 30.7188 18.5345 30.8328 18.3992C30.9539 18.2638 31.0144 18.1036 31.0144 17.9184C31.0144 17.7189 30.9432 17.5479 30.8007 17.4055C30.6654 17.263 30.4766 17.1562 30.2344 17.0849C29.9922 17.0137 29.718 16.9781 29.4117 16.9781C29.1339 16.9852 28.8454 17.0279 28.5462 17.1063C28.247 17.1775 27.9514 17.2879 27.6594 17.4375L27.4457 16.8499C27.7733 16.6789 28.0974 16.5507 28.418 16.4652C28.7457 16.3726 29.0733 16.3263 29.401 16.3263C29.8498 16.312 30.2522 16.3655 30.6084 16.4866C30.9717 16.6077 31.2602 16.7822 31.4739 17.0101C31.6876 17.231 31.7944 17.4981 31.7944 17.8115C31.7944 18.0893 31.709 18.3315 31.538 18.5381C31.367 18.7447 31.1391 18.9049 30.8542 19.0189C30.5692 19.1329 30.2451 19.1899 29.8818 19.1899L29.9139 18.9868C30.555 18.9868 31.0536 19.1115 31.4098 19.3608C31.7731 19.6101 31.9547 19.9485 31.9547 20.3759C31.9547 20.7107 31.8443 21.0063 31.6235 21.2627C31.4027 21.5121 31.1035 21.7079 30.7259 21.8504C30.3555 21.9929 29.9388 22.0641 29.4758 22.0641ZM33.6769 22V16.3904H36.1558C36.7898 16.3904 37.2884 16.5115 37.6517 16.7537C38.0221 16.9959 38.2073 17.352 38.2073 17.8222C38.2073 18.2781 38.0328 18.6307 37.6838 18.88C37.3347 19.1222 36.8753 19.2433 36.3054 19.2433L36.455 19.0189C37.1246 19.0189 37.6161 19.1436 37.9295 19.3929C38.2429 19.6422 38.3997 20.0019 38.3997 20.4721C38.3997 20.9564 38.2216 21.334 37.8654 21.6047C37.5164 21.8682 36.9714 22 36.2306 22H33.6769ZM34.4142 21.4016H36.1986C36.6758 21.4016 37.0355 21.3268 37.2777 21.1773C37.5271 21.0205 37.6517 20.7712 37.6517 20.4293C37.6517 20.0874 37.5413 19.8381 37.3205 19.6814C37.0997 19.5247 36.7506 19.4463 36.2734 19.4463H34.4142V21.4016ZM34.4142 18.88H36.1024C36.5369 18.88 36.8681 18.7981 37.0961 18.6342C37.3312 18.4704 37.4487 18.2318 37.4487 17.9184C37.4487 17.6049 37.3312 17.3699 37.0961 17.2131C36.8681 17.0564 36.5369 16.9781 36.1024 16.9781H34.4142V18.88ZM43.6609 22V20.7605L43.6288 20.5575V18.4847C43.6288 18.0074 43.4935 17.6405 43.2228 17.3841C42.9593 17.1277 42.5639 16.9994 42.0368 16.9994C41.6735 16.9994 41.328 17.06 41.0004 17.1811C40.6727 17.3022 40.3949 17.4625 40.1669 17.6619L39.825 17.0956C40.1099 16.8534 40.4519 16.6682 40.8508 16.54C41.2497 16.4047 41.6699 16.337 42.1116 16.337C42.8382 16.337 43.3973 16.5186 43.7891 16.8819C44.188 17.2381 44.3875 17.783 44.3875 18.5167V22H43.6609ZM41.7269 22.0534C41.3067 22.0534 40.9398 21.9858 40.6264 21.8504C40.3201 21.7079 40.085 21.5156 39.9212 21.2734C39.7573 21.0241 39.6754 20.7392 39.6754 20.4186C39.6754 20.1266 39.7431 19.863 39.8784 19.6279C40.0209 19.3858 40.2488 19.1934 40.5623 19.051C40.8828 18.9014 41.3102 18.8266 41.8445 18.8266H43.7784V19.3929H41.8658C41.3245 19.3929 40.9469 19.489 40.7332 19.6814C40.5267 19.8737 40.4234 20.1123 40.4234 20.3973C40.4234 20.7178 40.548 20.9742 40.7973 21.1666C41.0467 21.3589 41.3957 21.4551 41.8445 21.4551C42.2719 21.4551 42.6387 21.3589 42.945 21.1666C43.2584 20.9671 43.4864 20.6822 43.6288 20.3118L43.7998 20.8353C43.6573 21.2058 43.408 21.5014 43.0519 21.7222C42.7028 21.943 42.2612 22.0534 41.7269 22.0534Z" fill="#4B465C"/>
<path d="M18.7315 14.5205H19.5115V22H18.7315V14.5205ZM14.0515 22H13.2608V14.5205H14.0515V22ZM18.8063 18.5488H13.966V17.8542H18.8063V18.5488ZM25.3379 22V20.7605L25.3058 20.5575V18.4847C25.3058 18.0074 25.1705 17.6405 24.8998 17.3841C24.6363 17.1277 24.2409 16.9994 23.7138 16.9994C23.3505 16.9994 23.005 17.06 22.6773 17.1811C22.3497 17.3022 22.0719 17.4625 21.8439 17.6619L21.502 17.0956C21.7869 16.8534 22.1289 16.6682 22.5278 16.54C22.9267 16.4047 23.3469 16.337 23.7886 16.337C24.5152 16.337 25.0743 16.5186 25.4661 16.8819C25.865 17.2381 26.0645 17.783 26.0645 18.5167V22H25.3379ZM23.4039 22.0534C22.9836 22.0534 22.6168 21.9858 22.3034 21.8504C21.9971 21.7079 21.762 21.5156 21.5982 21.2734C21.4343 21.0241 21.3524 20.7392 21.3524 20.4186C21.3524 20.1266 21.4201 19.863 21.5554 19.6279C21.6979 19.3858 21.9258 19.1934 22.2393 19.051C22.5598 18.9014 22.9872 18.8266 23.5215 18.8266H25.4554V19.3929H23.5428C23.0015 19.3929 22.6239 19.489 22.4102 19.6814C22.2036 19.8737 22.1004 20.1123 22.1004 20.3973C22.1004 20.7178 22.225 20.9742 22.4743 21.1666C22.7236 21.3589 23.0727 21.4551 23.5215 21.4551C23.9489 21.4551 24.3157 21.3589 24.622 21.1666C24.9354 20.9671 25.1634 20.6822 25.3058 20.3118L25.4768 20.8353C25.3343 21.2058 25.085 21.5014 24.7289 21.7222C24.3798 21.943 23.9382 22.0534 23.4039 22.0534ZM29.4758 22.0641C29.0698 22.0641 28.6673 22.0071 28.2684 21.8932C27.8695 21.7792 27.5169 21.6047 27.2106 21.3696L27.4564 20.8033C27.727 21.0027 28.0405 21.1559 28.3966 21.2627C28.7528 21.3625 29.1054 21.4123 29.4544 21.4123C29.8035 21.4052 30.1062 21.3553 30.3627 21.2627C30.6191 21.1701 30.8185 21.0419 30.961 20.8781C31.1035 20.7142 31.1747 20.529 31.1747 20.3225C31.1747 20.0233 31.0394 19.7918 30.7687 19.6279C30.498 19.457 30.1276 19.3715 29.6575 19.3715H28.6958V18.8159H29.604C29.8818 18.8159 30.1276 18.7803 30.3413 18.709C30.555 18.6378 30.7188 18.5345 30.8328 18.3992C30.9539 18.2638 31.0144 18.1036 31.0144 17.9184C31.0144 17.7189 30.9432 17.5479 30.8007 17.4055C30.6654 17.263 30.4766 17.1562 30.2344 17.0849C29.9922 17.0137 29.718 16.9781 29.4117 16.9781C29.1339 16.9852 28.8454 17.0279 28.5462 17.1063C28.247 17.1775 27.9514 17.2879 27.6594 17.4375L27.4457 16.8499C27.7733 16.6789 28.0974 16.5507 28.418 16.4652C28.7457 16.3726 29.0733 16.3263 29.401 16.3263C29.8498 16.312 30.2522 16.3655 30.6084 16.4866C30.9717 16.6077 31.2602 16.7822 31.4739 17.0101C31.6876 17.231 31.7944 17.4981 31.7944 17.8115C31.7944 18.0893 31.709 18.3315 31.538 18.5381C31.367 18.7447 31.1391 18.9049 30.8542 19.0189C30.5692 19.1329 30.2451 19.1899 29.8818 19.1899L29.9139 18.9868C30.555 18.9868 31.0536 19.1115 31.4098 19.3608C31.7731 19.6101 31.9547 19.9485 31.9547 20.3759C31.9547 20.7107 31.8443 21.0063 31.6235 21.2627C31.4027 21.5121 31.1035 21.7079 30.7259 21.8504C30.3555 21.9929 29.9388 22.0641 29.4758 22.0641ZM33.6769 22V16.3904H36.1558C36.7898 16.3904 37.2884 16.5115 37.6517 16.7537C38.0221 16.9959 38.2073 17.352 38.2073 17.8222C38.2073 18.2781 38.0328 18.6307 37.6838 18.88C37.3347 19.1222 36.8753 19.2433 36.3054 19.2433L36.455 19.0189C37.1246 19.0189 37.6161 19.1436 37.9295 19.3929C38.2429 19.6422 38.3997 20.0019 38.3997 20.4721C38.3997 20.9564 38.2216 21.334 37.8654 21.6047C37.5164 21.8682 36.9714 22 36.2306 22H33.6769ZM34.4142 21.4016H36.1986C36.6758 21.4016 37.0355 21.3268 37.2777 21.1773C37.5271 21.0205 37.6517 20.7712 37.6517 20.4293C37.6517 20.0874 37.5413 19.8381 37.3205 19.6814C37.0997 19.5247 36.7506 19.4463 36.2734 19.4463H34.4142V21.4016ZM34.4142 18.88H36.1024C36.5369 18.88 36.8681 18.7981 37.0961 18.6342C37.3312 18.4704 37.4487 18.2318 37.4487 17.9184C37.4487 17.6049 37.3312 17.3699 37.0961 17.2131C36.8681 17.0564 36.5369 16.9781 36.1024 16.9781H34.4142V18.88ZM43.6609 22V20.7605L43.6288 20.5575V18.4847C43.6288 18.0074 43.4935 17.6405 43.2228 17.3841C42.9593 17.1277 42.5639 16.9994 42.0368 16.9994C41.6735 16.9994 41.328 17.06 41.0004 17.1811C40.6727 17.3022 40.3949 17.4625 40.1669 17.6619L39.825 17.0956C40.1099 16.8534 40.4519 16.6682 40.8508 16.54C41.2497 16.4047 41.6699 16.337 42.1116 16.337C42.8382 16.337 43.3973 16.5186 43.7891 16.8819C44.188 17.2381 44.3875 17.783 44.3875 18.5167V22H43.6609ZM41.7269 22.0534C41.3067 22.0534 40.9398 21.9858 40.6264 21.8504C40.3201 21.7079 40.085 21.5156 39.9212 21.2734C39.7573 21.0241 39.6754 20.7392 39.6754 20.4186C39.6754 20.1266 39.7431 19.863 39.8784 19.6279C40.0209 19.3858 40.2488 19.1934 40.5623 19.051C40.8828 18.9014 41.3102 18.8266 41.8445 18.8266H43.7784V19.3929H41.8658C41.3245 19.3929 40.9469 19.489 40.7332 19.6814C40.5267 19.8737 40.4234 20.1123 40.4234 20.3973C40.4234 20.7178 40.548 20.9742 40.7973 21.1666C41.0467 21.3589 41.3957 21.4551 41.8445 21.4551C42.2719 21.4551 42.6387 21.3589 42.945 21.1666C43.2584 20.9671 43.4864 20.6822 43.6288 20.3118L43.7998 20.8353C43.6573 21.2058 43.408 21.5014 43.0519 21.7222C42.7028 21.943 42.2612 22.0534 41.7269 22.0534Z" fill="white" fill-opacity="0.1"/>
<rect x="12.411" y="28.7" width="239.178" height="28.6849" rx="2.87672" fill="white"/>
<path d="M22.9653 46.043V39.0336L23.179 39.2473H20.3368V38.5635H26.3738V39.2473H23.5423L23.7453 39.0336V46.043H22.9653ZM29.3998 46.0964C28.8157 46.0964 28.3028 45.9753 27.8611 45.7331C27.4195 45.4838 27.074 45.1454 26.8247 44.718C26.5754 44.2835 26.4507 43.7884 26.4507 43.2328C26.4507 42.6772 26.5683 42.1857 26.8033 41.7583C27.0455 41.3309 27.3732 40.9961 27.7863 40.7539C28.2066 40.5046 28.6768 40.3799 29.1968 40.3799C29.7239 40.3799 30.1905 40.501 30.5965 40.7432C31.0096 40.9783 31.3337 41.3131 31.5688 41.7476C31.8039 42.175 31.9214 42.6701 31.9214 43.2328C31.9214 43.2684 31.9179 43.3076 31.9107 43.3504C31.9107 43.386 31.9107 43.4252 31.9107 43.4679H27.0277V42.9016H31.5047L31.2055 43.126C31.2055 42.72 31.1165 42.3602 30.9384 42.0468C30.7674 41.7263 30.5324 41.4769 30.2332 41.2989C29.934 41.1208 29.5885 41.0317 29.1968 41.0317C28.8121 41.0317 28.4666 41.1208 28.1603 41.2989C27.854 41.4769 27.6154 41.7263 27.4444 42.0468C27.2735 42.3673 27.188 42.7342 27.188 43.1473V43.2649C27.188 43.6923 27.2806 44.0698 27.4658 44.3975C27.6581 44.718 27.9217 44.9709 28.2565 45.1561C28.5984 45.3342 28.9866 45.4232 29.4211 45.4232C29.7631 45.4232 30.08 45.3627 30.3721 45.2416C30.6713 45.1205 30.9277 44.9353 31.1414 44.686L31.5688 45.1775C31.3195 45.4767 31.0061 45.7046 30.6285 45.8613C30.2581 46.018 29.8485 46.0964 29.3998 46.0964ZM35.9514 46.0964C35.3958 46.0964 34.8971 45.9753 34.4555 45.7331C34.021 45.4838 33.6791 45.1454 33.4298 44.718C33.1804 44.2835 33.0558 43.7884 33.0558 43.2328C33.0558 42.6701 33.1804 42.175 33.4298 41.7476C33.6791 41.3202 34.021 40.9854 34.4555 40.7432C34.8971 40.501 35.3958 40.3799 35.9514 40.3799C36.4287 40.3799 36.8596 40.4726 37.2443 40.6578C37.6289 40.843 37.9317 41.1208 38.1525 41.4912L37.5862 41.8758C37.3939 41.5909 37.1552 41.3808 36.8703 41.2454C36.5854 41.1101 36.2755 41.0424 35.9407 41.0424C35.5418 41.0424 35.1821 41.135 34.8615 41.3202C34.541 41.4983 34.2881 41.7512 34.1029 42.0789C33.9177 42.4065 33.8251 42.7912 33.8251 43.2328C33.8251 43.6745 33.9177 44.0591 34.1029 44.3868C34.2881 44.7145 34.541 44.9709 34.8615 45.1561C35.1821 45.3342 35.5418 45.4232 35.9407 45.4232C36.2755 45.4232 36.5854 45.3556 36.8703 45.2202C37.1552 45.0849 37.3939 44.8783 37.5862 44.6005L38.1525 44.9852C37.9317 45.3484 37.6289 45.6263 37.2443 45.8186C36.8596 46.0038 36.4287 46.0964 35.9514 46.0964ZM40.5856 46.043V40.8928L40.7779 41.0958H38.4593V40.4334H43.4705V41.0958H41.1519L41.3442 40.8928V46.043H40.5856ZM46.6145 46.0964C46.0731 46.0964 45.5852 45.9753 45.1506 45.7331C44.7232 45.4838 44.3849 45.1454 44.1356 44.718C43.8862 44.2835 43.7616 43.7884 43.7616 43.2328C43.7616 42.6701 43.8862 42.175 44.1356 41.7476C44.3849 41.3202 44.7232 40.9854 45.1506 40.7432C45.578 40.501 46.066 40.3799 46.6145 40.3799C47.1701 40.3799 47.6616 40.501 48.089 40.7432C48.5235 40.9854 48.8619 41.3202 49.1041 41.7476C49.3534 42.175 49.478 42.6701 49.478 43.2328C49.478 43.7884 49.3534 44.2835 49.1041 44.718C48.8619 45.1454 48.5235 45.4838 48.089 45.7331C47.6545 45.9753 47.163 46.0964 46.6145 46.0964ZM46.6145 45.4232C47.0205 45.4232 47.3802 45.3342 47.6936 45.1561C48.0071 44.9709 48.2528 44.7145 48.4309 44.3868C48.6161 44.052 48.7087 43.6673 48.7087 43.2328C48.7087 42.7912 48.6161 42.4065 48.4309 42.0789C48.2528 41.7512 48.0071 41.4983 47.6936 41.3202C47.3802 41.135 47.0241 41.0424 46.6252 41.0424C46.2262 41.0424 45.8701 41.135 45.5567 41.3202C45.2432 41.4983 44.9939 41.7512 44.8087 42.0789C44.6235 42.4065 44.5309 42.7912 44.5309 43.2328C44.5309 43.6673 44.6235 44.052 44.8087 44.3868C44.9939 44.7145 45.2432 44.9709 45.5567 45.1561C45.8701 45.3342 46.2227 45.4232 46.6145 45.4232ZM51.0994 46.043V40.4334H53.5783C54.2123 40.4334 54.7109 40.5545 55.0742 40.7967C55.4446 41.0389 55.6298 41.395 55.6298 41.8652C55.6298 42.321 55.4553 42.6737 55.1062 42.923C54.7572 43.1652 54.2977 43.2863 53.7279 43.2863L53.8775 43.0619C54.5471 43.0619 55.0386 43.1865 55.352 43.4358C55.6654 43.6852 55.8221 44.0449 55.8221 44.515C55.8221 44.9994 55.6441 45.3769 55.2879 45.6476C54.9388 45.9112 54.3939 46.043 53.6531 46.043H51.0994ZM51.8367 45.4446H53.621C54.0983 45.4446 54.458 45.3698 54.7002 45.2202C54.9495 45.0635 55.0742 44.8142 55.0742 44.4723C55.0742 44.1304 54.9638 43.881 54.743 43.7243C54.5221 43.5676 54.1731 43.4893 53.6958 43.4893H51.8367V45.4446ZM51.8367 42.923H53.5249C53.9594 42.923 54.2906 42.841 54.5186 42.6772C54.7536 42.5134 54.8712 42.2747 54.8712 41.9613C54.8712 41.6479 54.7536 41.4128 54.5186 41.2561C54.2906 41.0994 53.9594 41.021 53.5249 41.021H51.8367V42.923ZM60.0042 46.0964C59.4201 46.0964 58.9072 45.9753 58.4656 45.7331C58.0239 45.4838 57.6784 45.1454 57.4291 44.718C57.1798 44.2835 57.0552 43.7884 57.0552 43.2328C57.0552 42.6772 57.1727 42.1857 57.4078 41.7583C57.65 41.3309 57.9776 40.9961 58.3908 40.7539C58.8111 40.5046 59.2812 40.3799 59.8012 40.3799C60.3283 40.3799 60.7949 40.501 61.2009 40.7432C61.6141 40.9783 61.9382 41.3131 62.1732 41.7476C62.4083 42.175 62.5259 42.6701 62.5259 43.2328C62.5259 43.2684 62.5223 43.3076 62.5152 43.3504C62.5152 43.386 62.5152 43.4252 62.5152 43.4679H57.6321V42.9016H62.1091L61.81 43.126C61.81 42.72 61.7209 42.3602 61.5428 42.0468C61.3719 41.7263 61.1368 41.4769 60.8376 41.2989C60.5385 41.1208 60.193 41.0317 59.8012 41.0317C59.4165 41.0317 59.0711 41.1208 58.7648 41.2989C58.4584 41.4769 58.2198 41.7263 58.0489 42.0468C57.8779 42.3673 57.7924 42.7342 57.7924 43.1473V43.2649C57.7924 43.6923 57.885 44.0698 58.0702 44.3975C58.2626 44.718 58.5261 44.9709 58.8609 45.1561C59.2028 45.3342 59.5911 45.4232 60.0256 45.4232C60.3675 45.4232 60.6845 45.3627 60.9765 45.2416C61.2757 45.1205 61.5322 44.9353 61.7458 44.686L62.1732 45.1775C61.9239 45.4767 61.6105 45.7046 61.233 45.8613C60.8626 46.018 60.453 46.0964 60.0042 46.0964ZM67.0016 46.043V40.4334H72.0449V46.043H71.2863V40.8928L71.4786 41.0958H67.5679L67.7602 40.8928V46.043H67.0016ZM76.5093 46.0964C75.968 46.0964 75.48 45.9753 75.0455 45.7331C74.6181 45.4838 74.2798 45.1454 74.0304 44.718C73.7811 44.2835 73.6565 43.7884 73.6565 43.2328C73.6565 42.6701 73.7811 42.175 74.0304 41.7476C74.2798 41.3202 74.6181 40.9854 75.0455 40.7432C75.4729 40.501 75.9609 40.3799 76.5093 40.3799C77.065 40.3799 77.5565 40.501 77.9839 40.7432C78.4184 40.9854 78.7567 41.3202 78.9989 41.7476C79.2483 42.175 79.3729 42.6701 79.3729 43.2328C79.3729 43.7884 79.2483 44.2835 78.9989 44.718C78.7567 45.1454 78.4184 45.4838 77.9839 45.7331C77.5494 45.9753 77.0578 46.0964 76.5093 46.0964ZM76.5093 45.4232C76.9154 45.4232 77.2751 45.3342 77.5885 45.1561C77.902 44.9709 78.1477 44.7145 78.3258 44.3868C78.511 44.052 78.6036 43.6673 78.6036 43.2328C78.6036 42.7912 78.511 42.4065 78.3258 42.0789C78.1477 41.7512 77.902 41.4983 77.5885 41.3202C77.2751 41.135 76.9189 41.0424 76.52 41.0424C76.1211 41.0424 75.765 41.135 75.4515 41.3202C75.1381 41.4983 74.8888 41.7512 74.7036 42.0789C74.5184 42.4065 74.4258 42.7912 74.4258 43.2328C74.4258 43.6673 74.5184 44.052 74.7036 44.3868C74.8888 44.7145 75.1381 44.9709 75.4515 45.1561C75.765 45.3342 76.1176 45.4232 76.5093 45.4232ZM79.9372 46.0323L79.9906 45.3805C80.0405 45.3876 80.0868 45.3983 80.1295 45.4126C80.1794 45.4197 80.2221 45.4232 80.2578 45.4232C80.4857 45.4232 80.6674 45.3378 80.8027 45.1668C80.9452 44.9958 81.052 44.7679 81.1232 44.483C81.1945 44.198 81.2443 43.8775 81.2728 43.5213C81.3013 43.158 81.3263 42.7947 81.3476 42.4315L81.4438 40.4334H85.5575V46.043H84.7989V40.8715L84.9912 41.0958H81.9353L82.1169 40.8608L82.0315 42.4849C82.0101 42.9693 81.9709 43.4323 81.9139 43.8739C81.8641 44.3156 81.7821 44.7038 81.6682 45.0386C81.5613 45.3734 81.4117 45.6369 81.2194 45.8293C81.0271 46.0145 80.7813 46.1071 80.4821 46.1071C80.3967 46.1071 80.3076 46.1 80.215 46.0857C80.1295 46.0715 80.0369 46.0537 79.9372 46.0323ZM90.1182 46.0964C89.5341 46.0964 89.0212 45.9753 88.5796 45.7331C88.1379 45.4838 87.7925 45.1454 87.5431 44.718C87.2938 44.2835 87.1692 43.7884 87.1692 43.2328C87.1692 42.6772 87.2867 42.1857 87.5218 41.7583C87.764 41.3309 88.0916 40.9961 88.5048 40.7539C88.9251 40.5046 89.3952 40.3799 89.9152 40.3799C90.4423 40.3799 90.9089 40.501 91.3149 40.7432C91.7281 40.9783 92.0522 41.3131 92.2873 41.7476C92.5223 42.175 92.6399 42.6701 92.6399 43.2328C92.6399 43.2684 92.6363 43.3076 92.6292 43.3504C92.6292 43.386 92.6292 43.4252 92.6292 43.4679H87.7462V42.9016H92.2231L91.924 43.126C91.924 42.72 91.8349 42.3602 91.6568 42.0468C91.4859 41.7263 91.2508 41.4769 90.9516 41.2989C90.6525 41.1208 90.307 41.0317 89.9152 41.0317C89.5305 41.0317 89.1851 41.1208 88.8788 41.2989C88.5725 41.4769 88.3338 41.7263 88.1629 42.0468C87.9919 42.3673 87.9064 42.7342 87.9064 43.1473V43.2649C87.9064 43.6923 87.999 44.0698 88.1842 44.3975C88.3766 44.718 88.6401 44.9709 88.9749 45.1561C89.3168 45.3342 89.7051 45.4232 90.1396 45.4232C90.4815 45.4232 90.7985 45.3627 91.0905 45.2416C91.3897 45.1205 91.6462 44.9353 91.8599 44.686L92.2873 45.1775C92.0379 45.4767 91.7245 45.7046 91.347 45.8613C90.9766 46.018 90.567 46.0964 90.1182 46.0964ZM94.4581 48.1158V38.1147H95.1633V48.1158H94.4581Z" fill="#4B465C"/>
<path d="M22.9653 46.043V39.0336L23.179 39.2473H20.3368V38.5635H26.3738V39.2473H23.5423L23.7453 39.0336V46.043H22.9653ZM29.3998 46.0964C28.8157 46.0964 28.3028 45.9753 27.8611 45.7331C27.4195 45.4838 27.074 45.1454 26.8247 44.718C26.5754 44.2835 26.4507 43.7884 26.4507 43.2328C26.4507 42.6772 26.5683 42.1857 26.8033 41.7583C27.0455 41.3309 27.3732 40.9961 27.7863 40.7539C28.2066 40.5046 28.6768 40.3799 29.1968 40.3799C29.7239 40.3799 30.1905 40.501 30.5965 40.7432C31.0096 40.9783 31.3337 41.3131 31.5688 41.7476C31.8039 42.175 31.9214 42.6701 31.9214 43.2328C31.9214 43.2684 31.9179 43.3076 31.9107 43.3504C31.9107 43.386 31.9107 43.4252 31.9107 43.4679H27.0277V42.9016H31.5047L31.2055 43.126C31.2055 42.72 31.1165 42.3602 30.9384 42.0468C30.7674 41.7263 30.5324 41.4769 30.2332 41.2989C29.934 41.1208 29.5885 41.0317 29.1968 41.0317C28.8121 41.0317 28.4666 41.1208 28.1603 41.2989C27.854 41.4769 27.6154 41.7263 27.4444 42.0468C27.2735 42.3673 27.188 42.7342 27.188 43.1473V43.2649C27.188 43.6923 27.2806 44.0698 27.4658 44.3975C27.6581 44.718 27.9217 44.9709 28.2565 45.1561C28.5984 45.3342 28.9866 45.4232 29.4211 45.4232C29.7631 45.4232 30.08 45.3627 30.3721 45.2416C30.6713 45.1205 30.9277 44.9353 31.1414 44.686L31.5688 45.1775C31.3195 45.4767 31.0061 45.7046 30.6285 45.8613C30.2581 46.018 29.8485 46.0964 29.3998 46.0964ZM35.9514 46.0964C35.3958 46.0964 34.8971 45.9753 34.4555 45.7331C34.021 45.4838 33.6791 45.1454 33.4298 44.718C33.1804 44.2835 33.0558 43.7884 33.0558 43.2328C33.0558 42.6701 33.1804 42.175 33.4298 41.7476C33.6791 41.3202 34.021 40.9854 34.4555 40.7432C34.8971 40.501 35.3958 40.3799 35.9514 40.3799C36.4287 40.3799 36.8596 40.4726 37.2443 40.6578C37.6289 40.843 37.9317 41.1208 38.1525 41.4912L37.5862 41.8758C37.3939 41.5909 37.1552 41.3808 36.8703 41.2454C36.5854 41.1101 36.2755 41.0424 35.9407 41.0424C35.5418 41.0424 35.1821 41.135 34.8615 41.3202C34.541 41.4983 34.2881 41.7512 34.1029 42.0789C33.9177 42.4065 33.8251 42.7912 33.8251 43.2328C33.8251 43.6745 33.9177 44.0591 34.1029 44.3868C34.2881 44.7145 34.541 44.9709 34.8615 45.1561C35.1821 45.3342 35.5418 45.4232 35.9407 45.4232C36.2755 45.4232 36.5854 45.3556 36.8703 45.2202C37.1552 45.0849 37.3939 44.8783 37.5862 44.6005L38.1525 44.9852C37.9317 45.3484 37.6289 45.6263 37.2443 45.8186C36.8596 46.0038 36.4287 46.0964 35.9514 46.0964ZM40.5856 46.043V40.8928L40.7779 41.0958H38.4593V40.4334H43.4705V41.0958H41.1519L41.3442 40.8928V46.043H40.5856ZM46.6145 46.0964C46.0731 46.0964 45.5852 45.9753 45.1506 45.7331C44.7232 45.4838 44.3849 45.1454 44.1356 44.718C43.8862 44.2835 43.7616 43.7884 43.7616 43.2328C43.7616 42.6701 43.8862 42.175 44.1356 41.7476C44.3849 41.3202 44.7232 40.9854 45.1506 40.7432C45.578 40.501 46.066 40.3799 46.6145 40.3799C47.1701 40.3799 47.6616 40.501 48.089 40.7432C48.5235 40.9854 48.8619 41.3202 49.1041 41.7476C49.3534 42.175 49.478 42.6701 49.478 43.2328C49.478 43.7884 49.3534 44.2835 49.1041 44.718C48.8619 45.1454 48.5235 45.4838 48.089 45.7331C47.6545 45.9753 47.163 46.0964 46.6145 46.0964ZM46.6145 45.4232C47.0205 45.4232 47.3802 45.3342 47.6936 45.1561C48.0071 44.9709 48.2528 44.7145 48.4309 44.3868C48.6161 44.052 48.7087 43.6673 48.7087 43.2328C48.7087 42.7912 48.6161 42.4065 48.4309 42.0789C48.2528 41.7512 48.0071 41.4983 47.6936 41.3202C47.3802 41.135 47.0241 41.0424 46.6252 41.0424C46.2262 41.0424 45.8701 41.135 45.5567 41.3202C45.2432 41.4983 44.9939 41.7512 44.8087 42.0789C44.6235 42.4065 44.5309 42.7912 44.5309 43.2328C44.5309 43.6673 44.6235 44.052 44.8087 44.3868C44.9939 44.7145 45.2432 44.9709 45.5567 45.1561C45.8701 45.3342 46.2227 45.4232 46.6145 45.4232ZM51.0994 46.043V40.4334H53.5783C54.2123 40.4334 54.7109 40.5545 55.0742 40.7967C55.4446 41.0389 55.6298 41.395 55.6298 41.8652C55.6298 42.321 55.4553 42.6737 55.1062 42.923C54.7572 43.1652 54.2977 43.2863 53.7279 43.2863L53.8775 43.0619C54.5471 43.0619 55.0386 43.1865 55.352 43.4358C55.6654 43.6852 55.8221 44.0449 55.8221 44.515C55.8221 44.9994 55.6441 45.3769 55.2879 45.6476C54.9388 45.9112 54.3939 46.043 53.6531 46.043H51.0994ZM51.8367 45.4446H53.621C54.0983 45.4446 54.458 45.3698 54.7002 45.2202C54.9495 45.0635 55.0742 44.8142 55.0742 44.4723C55.0742 44.1304 54.9638 43.881 54.743 43.7243C54.5221 43.5676 54.1731 43.4893 53.6958 43.4893H51.8367V45.4446ZM51.8367 42.923H53.5249C53.9594 42.923 54.2906 42.841 54.5186 42.6772C54.7536 42.5134 54.8712 42.2747 54.8712 41.9613C54.8712 41.6479 54.7536 41.4128 54.5186 41.2561C54.2906 41.0994 53.9594 41.021 53.5249 41.021H51.8367V42.923ZM60.0042 46.0964C59.4201 46.0964 58.9072 45.9753 58.4656 45.7331C58.0239 45.4838 57.6784 45.1454 57.4291 44.718C57.1798 44.2835 57.0552 43.7884 57.0552 43.2328C57.0552 42.6772 57.1727 42.1857 57.4078 41.7583C57.65 41.3309 57.9776 40.9961 58.3908 40.7539C58.8111 40.5046 59.2812 40.3799 59.8012 40.3799C60.3283 40.3799 60.7949 40.501 61.2009 40.7432C61.6141 40.9783 61.9382 41.3131 62.1732 41.7476C62.4083 42.175 62.5259 42.6701 62.5259 43.2328C62.5259 43.2684 62.5223 43.3076 62.5152 43.3504C62.5152 43.386 62.5152 43.4252 62.5152 43.4679H57.6321V42.9016H62.1091L61.81 43.126C61.81 42.72 61.7209 42.3602 61.5428 42.0468C61.3719 41.7263 61.1368 41.4769 60.8376 41.2989C60.5385 41.1208 60.193 41.0317 59.8012 41.0317C59.4165 41.0317 59.0711 41.1208 58.7648 41.2989C58.4584 41.4769 58.2198 41.7263 58.0489 42.0468C57.8779 42.3673 57.7924 42.7342 57.7924 43.1473V43.2649C57.7924 43.6923 57.885 44.0698 58.0702 44.3975C58.2626 44.718 58.5261 44.9709 58.8609 45.1561C59.2028 45.3342 59.5911 45.4232 60.0256 45.4232C60.3675 45.4232 60.6845 45.3627 60.9765 45.2416C61.2757 45.1205 61.5322 44.9353 61.7458 44.686L62.1732 45.1775C61.9239 45.4767 61.6105 45.7046 61.233 45.8613C60.8626 46.018 60.453 46.0964 60.0042 46.0964ZM67.0016 46.043V40.4334H72.0449V46.043H71.2863V40.8928L71.4786 41.0958H67.5679L67.7602 40.8928V46.043H67.0016ZM76.5093 46.0964C75.968 46.0964 75.48 45.9753 75.0455 45.7331C74.6181 45.4838 74.2798 45.1454 74.0304 44.718C73.7811 44.2835 73.6565 43.7884 73.6565 43.2328C73.6565 42.6701 73.7811 42.175 74.0304 41.7476C74.2798 41.3202 74.6181 40.9854 75.0455 40.7432C75.4729 40.501 75.9609 40.3799 76.5093 40.3799C77.065 40.3799 77.5565 40.501 77.9839 40.7432C78.4184 40.9854 78.7567 41.3202 78.9989 41.7476C79.2483 42.175 79.3729 42.6701 79.3729 43.2328C79.3729 43.7884 79.2483 44.2835 78.9989 44.718C78.7567 45.1454 78.4184 45.4838 77.9839 45.7331C77.5494 45.9753 77.0578 46.0964 76.5093 46.0964ZM76.5093 45.4232C76.9154 45.4232 77.2751 45.3342 77.5885 45.1561C77.902 44.9709 78.1477 44.7145 78.3258 44.3868C78.511 44.052 78.6036 43.6673 78.6036 43.2328C78.6036 42.7912 78.511 42.4065 78.3258 42.0789C78.1477 41.7512 77.902 41.4983 77.5885 41.3202C77.2751 41.135 76.9189 41.0424 76.52 41.0424C76.1211 41.0424 75.765 41.135 75.4515 41.3202C75.1381 41.4983 74.8888 41.7512 74.7036 42.0789C74.5184 42.4065 74.4258 42.7912 74.4258 43.2328C74.4258 43.6673 74.5184 44.052 74.7036 44.3868C74.8888 44.7145 75.1381 44.9709 75.4515 45.1561C75.765 45.3342 76.1176 45.4232 76.5093 45.4232ZM79.9372 46.0323L79.9906 45.3805C80.0405 45.3876 80.0868 45.3983 80.1295 45.4126C80.1794 45.4197 80.2221 45.4232 80.2578 45.4232C80.4857 45.4232 80.6674 45.3378 80.8027 45.1668C80.9452 44.9958 81.052 44.7679 81.1232 44.483C81.1945 44.198 81.2443 43.8775 81.2728 43.5213C81.3013 43.158 81.3263 42.7947 81.3476 42.4315L81.4438 40.4334H85.5575V46.043H84.7989V40.8715L84.9912 41.0958H81.9353L82.1169 40.8608L82.0315 42.4849C82.0101 42.9693 81.9709 43.4323 81.9139 43.8739C81.8641 44.3156 81.7821 44.7038 81.6682 45.0386C81.5613 45.3734 81.4117 45.6369 81.2194 45.8293C81.0271 46.0145 80.7813 46.1071 80.4821 46.1071C80.3967 46.1071 80.3076 46.1 80.215 46.0857C80.1295 46.0715 80.0369 46.0537 79.9372 46.0323ZM90.1182 46.0964C89.5341 46.0964 89.0212 45.9753 88.5796 45.7331C88.1379 45.4838 87.7925 45.1454 87.5431 44.718C87.2938 44.2835 87.1692 43.7884 87.1692 43.2328C87.1692 42.6772 87.2867 42.1857 87.5218 41.7583C87.764 41.3309 88.0916 40.9961 88.5048 40.7539C88.9251 40.5046 89.3952 40.3799 89.9152 40.3799C90.4423 40.3799 90.9089 40.501 91.3149 40.7432C91.7281 40.9783 92.0522 41.3131 92.2873 41.7476C92.5223 42.175 92.6399 42.6701 92.6399 43.2328C92.6399 43.2684 92.6363 43.3076 92.6292 43.3504C92.6292 43.386 92.6292 43.4252 92.6292 43.4679H87.7462V42.9016H92.2231L91.924 43.126C91.924 42.72 91.8349 42.3602 91.6568 42.0468C91.4859 41.7263 91.2508 41.4769 90.9516 41.2989C90.6525 41.1208 90.307 41.0317 89.9152 41.0317C89.5305 41.0317 89.1851 41.1208 88.8788 41.2989C88.5725 41.4769 88.3338 41.7263 88.1629 42.0468C87.9919 42.3673 87.9064 42.7342 87.9064 43.1473V43.2649C87.9064 43.6923 87.999 44.0698 88.1842 44.3975C88.3766 44.718 88.6401 44.9709 88.9749 45.1561C89.3168 45.3342 89.7051 45.4232 90.1396 45.4232C90.4815 45.4232 90.7985 45.3627 91.0905 45.2416C91.3897 45.1205 91.6462 44.9353 91.8599 44.686L92.2873 45.1775C92.0379 45.4767 91.7245 45.7046 91.347 45.8613C90.9766 46.018 90.567 46.0964 90.1182 46.0964ZM94.4581 48.1158V38.1147H95.1633V48.1158H94.4581Z" fill="white" fill-opacity="0.2"/>
<rect x="12.411" y="28.7" width="239.178" height="28.6849" rx="2.87672" stroke="#DBDADE" stroke-width="0.821919"/>
<rect x="0.5" y="0.5" width="263" height="69" rx="5.5" stroke="#DBDADE"/>
</svg>
