<svg width="264" height="70" viewBox="0 0 264 70" fill="none" xmlns="http://www.w3.org/2000/svg">
<rect x="0.5" y="0.5" width="263" height="69" rx="5.5" fill="white"/>
<path d="M18.7315 14.5205H19.5115V22H18.7315V14.5205ZM14.0515 22H13.2608V14.5205H14.0515V22ZM18.8063 18.5488H13.966V17.8542H18.8063V18.5488ZM25.3379 22V20.7605L25.3058 20.5575V18.4847C25.3058 18.0074 25.1705 17.6405 24.8998 17.3841C24.6363 17.1277 24.2409 16.9994 23.7138 16.9994C23.3505 16.9994 23.005 17.06 22.6773 17.1811C22.3497 17.3022 22.0719 17.4625 21.8439 17.6619L21.502 17.0956C21.7869 16.8534 22.1289 16.6682 22.5278 16.54C22.9267 16.4047 23.3469 16.337 23.7886 16.337C24.5152 16.337 25.0743 16.5186 25.4661 16.8819C25.865 17.2381 26.0645 17.783 26.0645 18.5167V22H25.3379ZM23.4039 22.0534C22.9836 22.0534 22.6168 21.9858 22.3034 21.8504C21.9971 21.7079 21.762 21.5156 21.5982 21.2734C21.4343 21.0241 21.3524 20.7392 21.3524 20.4186C21.3524 20.1266 21.4201 19.863 21.5554 19.6279C21.6979 19.3858 21.9258 19.1934 22.2393 19.051C22.5598 18.9014 22.9872 18.8266 23.5215 18.8266H25.4554V19.3929H23.5428C23.0015 19.3929 22.6239 19.489 22.4102 19.6814C22.2036 19.8737 22.1004 20.1123 22.1004 20.3973C22.1004 20.7178 22.225 20.9742 22.4743 21.1666C22.7236 21.3589 23.0727 21.4551 23.5215 21.4551C23.9489 21.4551 24.3157 21.3589 24.622 21.1666C24.9354 20.9671 25.1634 20.6822 25.3058 20.3118L25.4768 20.8353C25.3343 21.2058 25.085 21.5014 24.7289 21.7222C24.3798 21.943 23.9382 22.0534 23.4039 22.0534ZM29.4758 22.0641C29.0698 22.0641 28.6673 22.0071 28.2684 21.8932C27.8695 21.7792 27.5169 21.6047 27.2106 21.3696L27.4564 20.8033C27.727 21.0027 28.0405 21.1559 28.3966 21.2627C28.7528 21.3625 29.1054 21.4123 29.4544 21.4123C29.8035 21.4052 30.1062 21.3553 30.3627 21.2627C30.6191 21.1701 30.8186 21.0419 30.961 20.8781C31.1035 20.7142 31.1747 20.529 31.1747 20.3225C31.1747 20.0233 31.0394 19.7918 30.7687 19.6279C30.498 19.457 30.1276 19.3715 29.6575 19.3715H28.6958V18.8159H29.604C29.8818 18.8159 30.1276 18.7803 30.3413 18.709C30.555 18.6378 30.7188 18.5345 30.8328 18.3992C30.9539 18.2638 31.0144 18.1036 31.0144 17.9184C31.0144 17.7189 30.9432 17.5479 30.8007 17.4055C30.6654 17.263 30.4766 17.1562 30.2344 17.0849C29.9922 17.0137 29.718 16.9781 29.4117 16.9781C29.1339 16.9852 28.8454 17.0279 28.5462 17.1063C28.247 17.1775 27.9514 17.2879 27.6594 17.4375L27.4457 16.8499C27.7733 16.6789 28.0975 16.5507 28.418 16.4652C28.7457 16.3726 29.0733 16.3263 29.401 16.3263C29.8498 16.312 30.2522 16.3655 30.6084 16.4866C30.9717 16.6077 31.2602 16.7822 31.4739 17.0101C31.6876 17.231 31.7944 17.4981 31.7944 17.8115C31.7944 18.0893 31.709 18.3315 31.538 18.5381C31.367 18.7447 31.1391 18.9049 30.8542 19.0189C30.5692 19.1329 30.2451 19.1899 29.8818 19.1899L29.9139 18.9868C30.555 18.9868 31.0536 19.1115 31.4098 19.3608C31.7731 19.6101 31.9547 19.9485 31.9547 20.3759C31.9547 20.7107 31.8443 21.0063 31.6235 21.2627C31.4027 21.5121 31.1035 21.7079 30.7259 21.8504C30.3555 21.9929 29.9388 22.0641 29.4758 22.0641ZM33.6769 22V16.3904H36.1558C36.7898 16.3904 37.2884 16.5115 37.6517 16.7537C38.0221 16.9959 38.2073 17.352 38.2073 17.8222C38.2073 18.2781 38.0328 18.6307 37.6838 18.88C37.3347 19.1222 36.8753 19.2433 36.3054 19.2433L36.455 19.0189C37.1246 19.0189 37.6161 19.1436 37.9295 19.3929C38.2429 19.6422 38.3997 20.0019 38.3997 20.4721C38.3997 20.9564 38.2216 21.334 37.8654 21.6047C37.5164 21.8682 36.9714 22 36.2306 22H33.6769ZM34.4142 21.4016H36.1986C36.6758 21.4016 37.0355 21.3268 37.2777 21.1773C37.5271 21.0205 37.6517 20.7712 37.6517 20.4293C37.6517 20.0874 37.5413 19.8381 37.3205 19.6814C37.0997 19.5247 36.7506 19.4463 36.2734 19.4463H34.4142V21.4016ZM34.4142 18.88H36.1024C36.5369 18.88 36.8681 18.7981 37.0961 18.6342C37.3312 18.4704 37.4487 18.2318 37.4487 17.9184C37.4487 17.6049 37.3312 17.3699 37.0961 17.2131C36.8681 17.0564 36.5369 16.9781 36.1024 16.9781H34.4142V18.88ZM43.6609 22V20.7605L43.6289 20.5575V18.4847C43.6289 18.0074 43.4935 17.6405 43.2228 17.3841C42.9593 17.1277 42.5639 16.9994 42.0368 16.9994C41.6735 16.9994 41.328 17.06 41.0004 17.1811C40.6727 17.3022 40.3949 17.4625 40.1669 17.6619L39.825 17.0956C40.1099 16.8534 40.4519 16.6682 40.8508 16.54C41.2497 16.4047 41.6699 16.337 42.1116 16.337C42.8382 16.337 43.3973 16.5186 43.7891 16.8819C44.188 17.2381 44.3875 17.783 44.3875 18.5167V22H43.6609ZM41.7269 22.0534C41.3067 22.0534 40.9398 21.9858 40.6264 21.8504C40.3201 21.7079 40.085 21.5156 39.9212 21.2734C39.7573 21.0241 39.6754 20.7392 39.6754 20.4186C39.6754 20.1266 39.7431 19.863 39.8784 19.6279C40.0209 19.3858 40.2488 19.1934 40.5623 19.051C40.8828 18.9014 41.3102 18.8266 41.8445 18.8266H43.7784V19.3929H41.8658C41.3245 19.3929 40.9469 19.489 40.7332 19.6814C40.5267 19.8737 40.4234 20.1123 40.4234 20.3973C40.4234 20.7178 40.548 20.9742 40.7973 21.1666C41.0467 21.3589 41.3957 21.4551 41.8445 21.4551C42.2719 21.4551 42.6387 21.3589 42.945 21.1666C43.2584 20.9671 43.4864 20.6822 43.6289 20.3118L43.7998 20.8353C43.6573 21.2058 43.408 21.5014 43.0519 21.7222C42.7028 21.943 42.2612 22.0534 41.7269 22.0534Z" fill="#4B465C"/>
<path d="M18.7315 14.5205H19.5115V22H18.7315V14.5205ZM14.0515 22H13.2608V14.5205H14.0515V22ZM18.8063 18.5488H13.966V17.8542H18.8063V18.5488ZM25.3379 22V20.7605L25.3058 20.5575V18.4847C25.3058 18.0074 25.1705 17.6405 24.8998 17.3841C24.6363 17.1277 24.2409 16.9994 23.7138 16.9994C23.3505 16.9994 23.005 17.06 22.6773 17.1811C22.3497 17.3022 22.0719 17.4625 21.8439 17.6619L21.502 17.0956C21.7869 16.8534 22.1289 16.6682 22.5278 16.54C22.9267 16.4047 23.3469 16.337 23.7886 16.337C24.5152 16.337 25.0743 16.5186 25.4661 16.8819C25.865 17.2381 26.0645 17.783 26.0645 18.5167V22H25.3379ZM23.4039 22.0534C22.9836 22.0534 22.6168 21.9858 22.3034 21.8504C21.9971 21.7079 21.762 21.5156 21.5982 21.2734C21.4343 21.0241 21.3524 20.7392 21.3524 20.4186C21.3524 20.1266 21.4201 19.863 21.5554 19.6279C21.6979 19.3858 21.9258 19.1934 22.2393 19.051C22.5598 18.9014 22.9872 18.8266 23.5215 18.8266H25.4554V19.3929H23.5428C23.0015 19.3929 22.6239 19.489 22.4102 19.6814C22.2036 19.8737 22.1004 20.1123 22.1004 20.3973C22.1004 20.7178 22.225 20.9742 22.4743 21.1666C22.7236 21.3589 23.0727 21.4551 23.5215 21.4551C23.9489 21.4551 24.3157 21.3589 24.622 21.1666C24.9354 20.9671 25.1634 20.6822 25.3058 20.3118L25.4768 20.8353C25.3343 21.2058 25.085 21.5014 24.7289 21.7222C24.3798 21.943 23.9382 22.0534 23.4039 22.0534ZM29.4758 22.0641C29.0698 22.0641 28.6673 22.0071 28.2684 21.8932C27.8695 21.7792 27.5169 21.6047 27.2106 21.3696L27.4564 20.8033C27.727 21.0027 28.0405 21.1559 28.3966 21.2627C28.7528 21.3625 29.1054 21.4123 29.4544 21.4123C29.8035 21.4052 30.1062 21.3553 30.3627 21.2627C30.6191 21.1701 30.8186 21.0419 30.961 20.8781C31.1035 20.7142 31.1747 20.529 31.1747 20.3225C31.1747 20.0233 31.0394 19.7918 30.7687 19.6279C30.498 19.457 30.1276 19.3715 29.6575 19.3715H28.6958V18.8159H29.604C29.8818 18.8159 30.1276 18.7803 30.3413 18.709C30.555 18.6378 30.7188 18.5345 30.8328 18.3992C30.9539 18.2638 31.0144 18.1036 31.0144 17.9184C31.0144 17.7189 30.9432 17.5479 30.8007 17.4055C30.6654 17.263 30.4766 17.1562 30.2344 17.0849C29.9922 17.0137 29.718 16.9781 29.4117 16.9781C29.1339 16.9852 28.8454 17.0279 28.5462 17.1063C28.247 17.1775 27.9514 17.2879 27.6594 17.4375L27.4457 16.8499C27.7733 16.6789 28.0975 16.5507 28.418 16.4652C28.7457 16.3726 29.0733 16.3263 29.401 16.3263C29.8498 16.312 30.2522 16.3655 30.6084 16.4866C30.9717 16.6077 31.2602 16.7822 31.4739 17.0101C31.6876 17.231 31.7944 17.4981 31.7944 17.8115C31.7944 18.0893 31.709 18.3315 31.538 18.5381C31.367 18.7447 31.1391 18.9049 30.8542 19.0189C30.5692 19.1329 30.2451 19.1899 29.8818 19.1899L29.9139 18.9868C30.555 18.9868 31.0536 19.1115 31.4098 19.3608C31.7731 19.6101 31.9547 19.9485 31.9547 20.3759C31.9547 20.7107 31.8443 21.0063 31.6235 21.2627C31.4027 21.5121 31.1035 21.7079 30.7259 21.8504C30.3555 21.9929 29.9388 22.0641 29.4758 22.0641ZM33.6769 22V16.3904H36.1558C36.7898 16.3904 37.2884 16.5115 37.6517 16.7537C38.0221 16.9959 38.2073 17.352 38.2073 17.8222C38.2073 18.2781 38.0328 18.6307 37.6838 18.88C37.3347 19.1222 36.8753 19.2433 36.3054 19.2433L36.455 19.0189C37.1246 19.0189 37.6161 19.1436 37.9295 19.3929C38.2429 19.6422 38.3997 20.0019 38.3997 20.4721C38.3997 20.9564 38.2216 21.334 37.8654 21.6047C37.5164 21.8682 36.9714 22 36.2306 22H33.6769ZM34.4142 21.4016H36.1986C36.6758 21.4016 37.0355 21.3268 37.2777 21.1773C37.5271 21.0205 37.6517 20.7712 37.6517 20.4293C37.6517 20.0874 37.5413 19.8381 37.3205 19.6814C37.0997 19.5247 36.7506 19.4463 36.2734 19.4463H34.4142V21.4016ZM34.4142 18.88H36.1024C36.5369 18.88 36.8681 18.7981 37.0961 18.6342C37.3312 18.4704 37.4487 18.2318 37.4487 17.9184C37.4487 17.6049 37.3312 17.3699 37.0961 17.2131C36.8681 17.0564 36.5369 16.9781 36.1024 16.9781H34.4142V18.88ZM43.6609 22V20.7605L43.6289 20.5575V18.4847C43.6289 18.0074 43.4935 17.6405 43.2228 17.3841C42.9593 17.1277 42.5639 16.9994 42.0368 16.9994C41.6735 16.9994 41.328 17.06 41.0004 17.1811C40.6727 17.3022 40.3949 17.4625 40.1669 17.6619L39.825 17.0956C40.1099 16.8534 40.4519 16.6682 40.8508 16.54C41.2497 16.4047 41.6699 16.337 42.1116 16.337C42.8382 16.337 43.3973 16.5186 43.7891 16.8819C44.188 17.2381 44.3875 17.783 44.3875 18.5167V22H43.6609ZM41.7269 22.0534C41.3067 22.0534 40.9398 21.9858 40.6264 21.8504C40.3201 21.7079 40.085 21.5156 39.9212 21.2734C39.7573 21.0241 39.6754 20.7392 39.6754 20.4186C39.6754 20.1266 39.7431 19.863 39.8784 19.6279C40.0209 19.3858 40.2488 19.1934 40.5623 19.051C40.8828 18.9014 41.3102 18.8266 41.8445 18.8266H43.7784V19.3929H41.8658C41.3245 19.3929 40.9469 19.489 40.7332 19.6814C40.5267 19.8737 40.4234 20.1123 40.4234 20.3973C40.4234 20.7178 40.548 20.9742 40.7973 21.1666C41.0467 21.3589 41.3957 21.4551 41.8445 21.4551C42.2719 21.4551 42.6387 21.3589 42.945 21.1666C43.2584 20.9671 43.4864 20.6822 43.6289 20.3118L43.7998 20.8353C43.6573 21.2058 43.408 21.5014 43.0519 21.7222C42.7028 21.943 42.2612 22.0534 41.7269 22.0534Z" fill="white" fill-opacity="0.1"/>
<rect x="12.411" y="28.7" width="117.534" height="28.6849" rx="2.87672" fill="white"/>
<path d="M21.4801 46.043V38.5635H24.5894C25.3801 38.5635 25.9998 38.7273 26.4486 39.055C26.9045 39.3756 27.1324 39.8493 27.1324 40.4761C27.1324 41.0958 26.9151 41.566 26.4806 41.8865C26.0461 42.2 25.4762 42.3567 24.771 42.3567L24.9527 42.0895C25.7861 42.0895 26.4201 42.2534 26.8546 42.581C27.2891 42.9087 27.5064 43.3895 27.5064 44.0235C27.5064 44.6646 27.2784 45.1632 26.8225 45.5194C26.3738 45.8684 25.6971 46.043 24.7924 46.043H21.4801ZM22.2601 45.4126H24.7924C25.4264 45.4126 25.9072 45.295 26.2349 45.06C26.5625 44.8249 26.7264 44.4616 26.7264 43.9701C26.7264 43.4857 26.5625 43.1295 26.2349 42.9016C25.9072 42.6736 25.4264 42.5597 24.7924 42.5597H22.2601V45.4126ZM22.2601 41.9506H24.5466C25.1236 41.9506 25.5653 41.8367 25.8716 41.6087C26.185 41.3736 26.3417 41.0282 26.3417 40.5723C26.3417 40.1164 26.185 39.7745 25.8716 39.5465C25.5653 39.3115 25.1236 39.1939 24.5466 39.1939H22.2601V41.9506ZM29.3017 46.043V40.4334H30.0603V46.043H29.3017ZM29.6863 39.1939C29.5296 39.1939 29.3979 39.1405 29.291 39.0336C29.1842 38.9268 29.1307 38.7986 29.1307 38.649C29.1307 38.4994 29.1842 38.3747 29.291 38.275C29.3979 38.1682 29.5296 38.1147 29.6863 38.1147C29.8431 38.1147 29.9748 38.1646 30.0817 38.2643C30.1885 38.3641 30.242 38.4887 30.242 38.6383C30.242 38.795 30.1885 38.9268 30.0817 39.0336C29.982 39.1405 29.8502 39.1939 29.6863 39.1939ZM36.0699 45.6797V41.0958H33.3666L33.3025 42.346C33.2883 42.7235 33.2634 43.0939 33.2277 43.4572C33.1992 43.8205 33.1458 44.1553 33.0675 44.4616C32.9962 44.7608 32.8929 45.0065 32.7576 45.1989C32.6223 45.3841 32.4477 45.4909 32.234 45.5194L31.4754 45.3805C31.6962 45.3876 31.8779 45.3093 32.0203 45.1454C32.1628 44.9745 32.2732 44.743 32.3516 44.4509C32.4299 44.1589 32.4869 43.8276 32.5225 43.4572C32.5581 43.0797 32.5866 42.695 32.608 42.3032L32.6828 40.4334H36.8286V45.6797H36.0699ZM31.2403 47.4V45.3805H37.7047V47.4H36.9888V46.043H31.9562V47.4H31.2403ZM41.3172 46.043V45.498L44.4265 42.4528C44.7114 42.175 44.9251 41.9328 45.0676 41.7263C45.21 41.5126 45.3062 41.3131 45.3561 41.1279C45.4059 40.9427 45.4309 40.7682 45.4309 40.6043C45.4309 40.1698 45.2813 39.8279 44.9821 39.5786C44.69 39.3293 44.2555 39.2046 43.6785 39.2046C43.2369 39.2046 42.8451 39.2723 42.5032 39.4076C42.1684 39.543 41.8799 39.7531 41.6377 40.038L41.0928 39.5679C41.3848 39.226 41.7588 38.9624 42.2147 38.7772C42.6706 38.592 43.1799 38.4994 43.7426 38.4994C44.2484 38.4994 44.6865 38.5813 45.0569 38.7452C45.4273 38.9019 45.7122 39.1334 45.9117 39.4397C46.1183 39.746 46.2215 40.1057 46.2215 40.5189C46.2215 40.761 46.1859 40.9997 46.1147 41.2347C46.0506 41.4698 45.9295 41.7191 45.7514 41.9827C45.5805 42.2391 45.3276 42.5312 44.9928 42.8589L42.1399 45.6583L41.9262 45.3591H46.5635V46.043H41.3172ZM49.7621 46.1071C49.2207 46.1071 48.7079 46.0216 48.2235 45.8506C47.7462 45.6726 47.3616 45.4375 47.0695 45.1454L47.4435 44.5364C47.6857 44.7857 48.0098 44.9923 48.4158 45.1561C48.829 45.32 49.2777 45.4019 49.7621 45.4019C50.3818 45.4019 50.8555 45.2665 51.1832 44.9958C51.518 44.7252 51.6854 44.3619 51.6854 43.906C51.6854 43.4501 51.5216 43.0868 51.1939 42.8161C50.8733 42.5454 50.364 42.4101 49.6659 42.4101H49.1317V41.8438L51.4396 38.9482L51.5465 39.2473H47.3794V38.5635H52.1876V39.1084L49.8796 42.0041L49.5057 41.7583H49.7942C50.6917 41.7583 51.3613 41.9578 51.8029 42.3567C52.2517 42.7556 52.4761 43.2684 52.4761 43.8953C52.4761 44.3156 52.3764 44.6931 52.1769 45.0279C51.9774 45.3627 51.6747 45.6263 51.2687 45.8186C50.8698 46.0109 50.3676 46.1071 49.7621 46.1071Z" fill="#4B465C"/>
<path d="M21.4801 46.043V38.5635H24.5894C25.3801 38.5635 25.9998 38.7273 26.4486 39.055C26.9045 39.3756 27.1324 39.8493 27.1324 40.4761C27.1324 41.0958 26.9151 41.566 26.4806 41.8865C26.0461 42.2 25.4762 42.3567 24.771 42.3567L24.9527 42.0895C25.7861 42.0895 26.4201 42.2534 26.8546 42.581C27.2891 42.9087 27.5064 43.3895 27.5064 44.0235C27.5064 44.6646 27.2784 45.1632 26.8225 45.5194C26.3738 45.8684 25.6971 46.043 24.7924 46.043H21.4801ZM22.2601 45.4126H24.7924C25.4264 45.4126 25.9072 45.295 26.2349 45.06C26.5625 44.8249 26.7264 44.4616 26.7264 43.9701C26.7264 43.4857 26.5625 43.1295 26.2349 42.9016C25.9072 42.6736 25.4264 42.5597 24.7924 42.5597H22.2601V45.4126ZM22.2601 41.9506H24.5466C25.1236 41.9506 25.5653 41.8367 25.8716 41.6087C26.185 41.3736 26.3417 41.0282 26.3417 40.5723C26.3417 40.1164 26.185 39.7745 25.8716 39.5465C25.5653 39.3115 25.1236 39.1939 24.5466 39.1939H22.2601V41.9506ZM29.3017 46.043V40.4334H30.0603V46.043H29.3017ZM29.6863 39.1939C29.5296 39.1939 29.3979 39.1405 29.291 39.0336C29.1842 38.9268 29.1307 38.7986 29.1307 38.649C29.1307 38.4994 29.1842 38.3747 29.291 38.275C29.3979 38.1682 29.5296 38.1147 29.6863 38.1147C29.8431 38.1147 29.9748 38.1646 30.0817 38.2643C30.1885 38.3641 30.242 38.4887 30.242 38.6383C30.242 38.795 30.1885 38.9268 30.0817 39.0336C29.982 39.1405 29.8502 39.1939 29.6863 39.1939ZM36.0699 45.6797V41.0958H33.3666L33.3025 42.346C33.2883 42.7235 33.2634 43.0939 33.2277 43.4572C33.1992 43.8205 33.1458 44.1553 33.0675 44.4616C32.9962 44.7608 32.8929 45.0065 32.7576 45.1989C32.6223 45.3841 32.4477 45.4909 32.234 45.5194L31.4754 45.3805C31.6962 45.3876 31.8779 45.3093 32.0203 45.1454C32.1628 44.9745 32.2732 44.743 32.3516 44.4509C32.4299 44.1589 32.4869 43.8276 32.5225 43.4572C32.5581 43.0797 32.5866 42.695 32.608 42.3032L32.6828 40.4334H36.8286V45.6797H36.0699ZM31.2403 47.4V45.3805H37.7047V47.4H36.9888V46.043H31.9562V47.4H31.2403ZM41.3172 46.043V45.498L44.4265 42.4528C44.7114 42.175 44.9251 41.9328 45.0676 41.7263C45.21 41.5126 45.3062 41.3131 45.3561 41.1279C45.4059 40.9427 45.4309 40.7682 45.4309 40.6043C45.4309 40.1698 45.2813 39.8279 44.9821 39.5786C44.69 39.3293 44.2555 39.2046 43.6785 39.2046C43.2369 39.2046 42.8451 39.2723 42.5032 39.4076C42.1684 39.543 41.8799 39.7531 41.6377 40.038L41.0928 39.5679C41.3848 39.226 41.7588 38.9624 42.2147 38.7772C42.6706 38.592 43.1799 38.4994 43.7426 38.4994C44.2484 38.4994 44.6865 38.5813 45.0569 38.7452C45.4273 38.9019 45.7122 39.1334 45.9117 39.4397C46.1183 39.746 46.2215 40.1057 46.2215 40.5189C46.2215 40.761 46.1859 40.9997 46.1147 41.2347C46.0506 41.4698 45.9295 41.7191 45.7514 41.9827C45.5805 42.2391 45.3276 42.5312 44.9928 42.8589L42.1399 45.6583L41.9262 45.3591H46.5635V46.043H41.3172ZM49.7621 46.1071C49.2207 46.1071 48.7079 46.0216 48.2235 45.8506C47.7462 45.6726 47.3616 45.4375 47.0695 45.1454L47.4435 44.5364C47.6857 44.7857 48.0098 44.9923 48.4158 45.1561C48.829 45.32 49.2777 45.4019 49.7621 45.4019C50.3818 45.4019 50.8555 45.2665 51.1832 44.9958C51.518 44.7252 51.6854 44.3619 51.6854 43.906C51.6854 43.4501 51.5216 43.0868 51.1939 42.8161C50.8733 42.5454 50.364 42.4101 49.6659 42.4101H49.1317V41.8438L51.4396 38.9482L51.5465 39.2473H47.3794V38.5635H52.1876V39.1084L49.8796 42.0041L49.5057 41.7583H49.7942C50.6917 41.7583 51.3613 41.9578 51.8029 42.3567C52.2517 42.7556 52.4761 43.2684 52.4761 43.8953C52.4761 44.3156 52.3764 44.6931 52.1769 45.0279C51.9774 45.3627 51.6747 45.6263 51.2687 45.8186C50.8698 46.0109 50.3676 46.1071 49.7621 46.1071Z" fill="white" fill-opacity="0.2"/>
<rect x="12.411" y="28.7" width="117.534" height="28.6849" rx="2.87672" stroke="#DBDADE" stroke-width="0.821919"/>
<rect x="134.055" y="28.7" width="117.534" height="28.6849" rx="2.87672" fill="white"/>
<path d="M148.093 45.669V39.2473H144.513L144.449 41.0638C144.428 41.6265 144.392 42.1679 144.342 42.6879C144.299 43.2008 144.228 43.6638 144.128 44.0769C144.036 44.483 143.908 44.8142 143.744 45.0706C143.587 45.3271 143.381 45.4767 143.124 45.5194L142.259 45.3591C142.544 45.3734 142.779 45.2701 142.964 45.0493C143.156 44.8284 143.302 44.5186 143.402 44.1197C143.509 43.7208 143.587 43.2542 143.637 42.72C143.687 42.1857 143.722 41.6087 143.744 40.989L143.829 38.5635H148.873V45.669H148.093ZM141.981 47.7205L141.992 45.3591H149.995V47.7205H149.257V46.043H142.729L142.718 47.7205H141.981ZM153.577 46.0964C153.036 46.0964 152.548 45.9753 152.113 45.7331C151.686 45.4838 151.348 45.1454 151.098 44.718C150.849 44.2835 150.724 43.7884 150.724 43.2328C150.724 42.6701 150.849 42.175 151.098 41.7476C151.348 41.3202 151.686 40.9854 152.113 40.7432C152.541 40.501 153.029 40.3799 153.577 40.3799C154.133 40.3799 154.624 40.501 155.052 40.7432C155.486 40.9854 155.825 41.3202 156.067 41.7476C156.316 42.175 156.441 42.6701 156.441 43.2328C156.441 43.7884 156.316 44.2835 156.067 44.718C155.825 45.1454 155.486 45.4838 155.052 45.7331C154.617 45.9753 154.126 46.0964 153.577 46.0964ZM153.577 45.4232C153.983 45.4232 154.343 45.3342 154.656 45.1561C154.97 44.9709 155.216 44.7145 155.394 44.3868C155.579 44.052 155.671 43.6673 155.671 43.2328C155.671 42.7912 155.579 42.4065 155.394 42.0789C155.216 41.7512 154.97 41.4983 154.656 41.3202C154.343 41.135 153.987 41.0424 153.588 41.0424C153.189 41.0424 152.833 41.135 152.519 41.3202C152.206 41.4983 151.957 41.7512 151.771 42.0789C151.586 42.4065 151.494 42.7912 151.494 43.2328C151.494 43.6673 151.586 44.052 151.771 44.3868C151.957 44.7145 152.206 44.9709 152.519 45.1561C152.833 45.3342 153.185 45.4232 153.577 45.4232ZM163.177 46.1071C162.579 46.1071 162.062 46.0216 161.628 45.8506C161.2 45.6797 160.869 45.4339 160.634 45.1134C160.406 44.7857 160.292 44.401 160.292 43.9594C160.292 43.532 160.403 43.1687 160.623 42.8695C160.851 42.5632 161.179 42.3282 161.606 42.1643C162.041 42.0005 162.565 41.9186 163.177 41.9186C163.783 41.9186 164.303 42.0005 164.737 42.1643C165.172 42.3282 165.503 42.5632 165.731 42.8695C165.966 43.1687 166.083 43.532 166.083 43.9594C166.083 44.401 165.966 44.7857 165.731 45.1134C165.496 45.4339 165.161 45.6797 164.726 45.8506C164.292 46.0216 163.776 46.1071 163.177 46.1071ZM163.177 45.4553C163.84 45.4553 164.356 45.32 164.726 45.0493C165.104 44.7786 165.293 44.4117 165.293 43.9487C165.293 43.4857 165.104 43.1224 164.726 42.8589C164.356 42.5882 163.84 42.4528 163.177 42.4528C162.515 42.4528 161.998 42.5882 161.628 42.8589C161.257 43.1224 161.072 43.4857 161.072 43.9487C161.072 44.4117 161.257 44.7786 161.628 45.0493C161.998 45.32 162.515 45.4553 163.177 45.4553ZM163.177 42.3567C162.622 42.3567 162.148 42.2819 161.756 42.1323C161.371 41.9827 161.076 41.769 160.869 41.4912C160.663 41.2063 160.559 40.8679 160.559 40.4761C160.559 40.063 160.666 39.7104 160.88 39.4183C161.101 39.1191 161.407 38.8912 161.799 38.7345C162.191 38.5778 162.65 38.4994 163.177 38.4994C163.704 38.4994 164.164 38.5778 164.556 38.7345C164.954 38.8912 165.264 39.1191 165.485 39.4183C165.706 39.7104 165.816 40.063 165.816 40.4761C165.816 40.8679 165.713 41.2063 165.506 41.4912C165.3 41.769 164.997 41.9827 164.598 42.1323C164.206 42.2819 163.733 42.3567 163.177 42.3567ZM163.177 41.8438C163.761 41.8438 164.217 41.7227 164.545 41.4805C164.872 41.2383 165.036 40.9142 165.036 40.5082C165.036 40.0808 164.865 39.7495 164.523 39.5145C164.189 39.2723 163.74 39.1512 163.177 39.1512C162.614 39.1512 162.166 39.2723 161.831 39.5145C161.496 39.7495 161.329 40.0772 161.329 40.4975C161.329 40.9106 161.489 41.2383 161.809 41.4805C162.137 41.7227 162.593 41.8438 163.177 41.8438ZM167.811 48.1158V38.1147H168.516V48.1158H167.811Z" fill="#4B465C"/>
<path d="M148.093 45.669V39.2473H144.513L144.449 41.0638C144.428 41.6265 144.392 42.1679 144.342 42.6879C144.299 43.2008 144.228 43.6638 144.128 44.0769C144.036 44.483 143.908 44.8142 143.744 45.0706C143.587 45.3271 143.381 45.4767 143.124 45.5194L142.259 45.3591C142.544 45.3734 142.779 45.2701 142.964 45.0493C143.156 44.8284 143.302 44.5186 143.402 44.1197C143.509 43.7208 143.587 43.2542 143.637 42.72C143.687 42.1857 143.722 41.6087 143.744 40.989L143.829 38.5635H148.873V45.669H148.093ZM141.981 47.7205L141.992 45.3591H149.995V47.7205H149.257V46.043H142.729L142.718 47.7205H141.981ZM153.577 46.0964C153.036 46.0964 152.548 45.9753 152.113 45.7331C151.686 45.4838 151.348 45.1454 151.098 44.718C150.849 44.2835 150.724 43.7884 150.724 43.2328C150.724 42.6701 150.849 42.175 151.098 41.7476C151.348 41.3202 151.686 40.9854 152.113 40.7432C152.541 40.501 153.029 40.3799 153.577 40.3799C154.133 40.3799 154.624 40.501 155.052 40.7432C155.486 40.9854 155.825 41.3202 156.067 41.7476C156.316 42.175 156.441 42.6701 156.441 43.2328C156.441 43.7884 156.316 44.2835 156.067 44.718C155.825 45.1454 155.486 45.4838 155.052 45.7331C154.617 45.9753 154.126 46.0964 153.577 46.0964ZM153.577 45.4232C153.983 45.4232 154.343 45.3342 154.656 45.1561C154.97 44.9709 155.216 44.7145 155.394 44.3868C155.579 44.052 155.671 43.6673 155.671 43.2328C155.671 42.7912 155.579 42.4065 155.394 42.0789C155.216 41.7512 154.97 41.4983 154.656 41.3202C154.343 41.135 153.987 41.0424 153.588 41.0424C153.189 41.0424 152.833 41.135 152.519 41.3202C152.206 41.4983 151.957 41.7512 151.771 42.0789C151.586 42.4065 151.494 42.7912 151.494 43.2328C151.494 43.6673 151.586 44.052 151.771 44.3868C151.957 44.7145 152.206 44.9709 152.519 45.1561C152.833 45.3342 153.185 45.4232 153.577 45.4232ZM163.177 46.1071C162.579 46.1071 162.062 46.0216 161.628 45.8506C161.2 45.6797 160.869 45.4339 160.634 45.1134C160.406 44.7857 160.292 44.401 160.292 43.9594C160.292 43.532 160.403 43.1687 160.623 42.8695C160.851 42.5632 161.179 42.3282 161.606 42.1643C162.041 42.0005 162.565 41.9186 163.177 41.9186C163.783 41.9186 164.303 42.0005 164.737 42.1643C165.172 42.3282 165.503 42.5632 165.731 42.8695C165.966 43.1687 166.083 43.532 166.083 43.9594C166.083 44.401 165.966 44.7857 165.731 45.1134C165.496 45.4339 165.161 45.6797 164.726 45.8506C164.292 46.0216 163.776 46.1071 163.177 46.1071ZM163.177 45.4553C163.84 45.4553 164.356 45.32 164.726 45.0493C165.104 44.7786 165.293 44.4117 165.293 43.9487C165.293 43.4857 165.104 43.1224 164.726 42.8589C164.356 42.5882 163.84 42.4528 163.177 42.4528C162.515 42.4528 161.998 42.5882 161.628 42.8589C161.257 43.1224 161.072 43.4857 161.072 43.9487C161.072 44.4117 161.257 44.7786 161.628 45.0493C161.998 45.32 162.515 45.4553 163.177 45.4553ZM163.177 42.3567C162.622 42.3567 162.148 42.2819 161.756 42.1323C161.371 41.9827 161.076 41.769 160.869 41.4912C160.663 41.2063 160.559 40.8679 160.559 40.4761C160.559 40.063 160.666 39.7104 160.88 39.4183C161.101 39.1191 161.407 38.8912 161.799 38.7345C162.191 38.5778 162.65 38.4994 163.177 38.4994C163.704 38.4994 164.164 38.5778 164.556 38.7345C164.954 38.8912 165.264 39.1191 165.485 39.4183C165.706 39.7104 165.816 40.063 165.816 40.4761C165.816 40.8679 165.713 41.2063 165.506 41.4912C165.3 41.769 164.997 41.9827 164.598 42.1323C164.206 42.2819 163.733 42.3567 163.177 42.3567ZM163.177 41.8438C163.761 41.8438 164.217 41.7227 164.545 41.4805C164.872 41.2383 165.036 40.9142 165.036 40.5082C165.036 40.0808 164.865 39.7495 164.523 39.5145C164.189 39.2723 163.74 39.1512 163.177 39.1512C162.614 39.1512 162.166 39.2723 161.831 39.5145C161.496 39.7495 161.329 40.0772 161.329 40.4975C161.329 40.9106 161.489 41.2383 161.809 41.4805C162.137 41.7227 162.593 41.8438 163.177 41.8438ZM167.811 48.1158V38.1147H168.516V48.1158H167.811Z" fill="white" fill-opacity="0.2"/>
<rect x="134.055" y="28.7" width="117.534" height="28.6849" rx="2.87672" stroke="#DBDADE" stroke-width="0.821919"/>
<rect x="0.5" y="0.5" width="263" height="69" rx="5.5" stroke="#DBDADE"/>
</svg>
