<svg width="261" height="70" viewBox="0 0 261 70" fill="none" xmlns="http://www.w3.org/2000/svg">
<rect x="0.5" y="0.5" width="260" height="69" rx="5.5" fill="white"/>
<g clip-path="url(#clip0_1066_80725)">
<rect x="12" y="12" width="237" height="46" rx="4.86986" fill="white"/>
<path d="M30.6311 33.3047L27.3561 29.0557L28.0866 28.6174L31.6659 33.3047H30.6311ZM24.7994 33.3047V24.7824H25.676V33.3047H24.7994ZM25.4081 29.3966V28.6053H28.0744V29.3966H25.4081ZM28.1596 29.141L27.3317 28.9949L30.5093 24.7824H31.4833L28.1596 29.141ZM35.402 33.3656C34.7852 33.3656 34.2292 33.2276 33.7341 32.9516C33.2471 32.6675 32.8616 32.282 32.5775 31.795C32.2934 31.2999 32.1514 30.7358 32.1514 30.1028C32.1514 29.4616 32.2934 28.8975 32.5775 28.4105C32.8616 27.9235 33.2471 27.542 33.7341 27.2661C34.2211 26.9901 34.777 26.8521 35.402 26.8521C36.0351 26.8521 36.5951 26.9901 37.0821 27.2661C37.5772 27.542 37.9627 27.9235 38.2387 28.4105C38.5228 28.8975 38.6648 29.4616 38.6648 30.1028C38.6648 30.7358 38.5228 31.2999 38.2387 31.795C37.9627 32.282 37.5772 32.6675 37.0821 32.9516C36.587 33.2276 36.027 33.3656 35.402 33.3656ZM35.402 32.5986C35.8646 32.5986 36.2745 32.4971 36.6316 32.2942C36.9888 32.0832 37.2688 31.791 37.4717 31.4176C37.6827 31.0361 37.7882 30.5979 37.7882 30.1028C37.7882 29.5995 37.6827 29.1612 37.4717 28.7879C37.2688 28.4145 36.9888 28.1264 36.6316 27.9235C36.2745 27.7125 35.8687 27.6069 35.4142 27.6069C34.9597 27.6069 34.5538 27.7125 34.1967 27.9235C33.8396 28.1264 33.5555 28.4145 33.3445 28.7879C33.1335 29.1612 33.028 29.5995 33.028 30.1028C33.028 30.5979 33.1335 31.0361 33.3445 31.4176C33.5555 31.791 33.8396 32.0832 34.1967 32.2942C34.5538 32.4971 34.9556 32.5986 35.402 32.5986ZM40.5122 33.3047V26.913H41.3888L44.2864 31.8194H43.9211L46.8674 26.913H47.6709V33.3047H46.8796V27.8991L47.0378 27.9722L44.2864 32.5255H43.8968L41.121 27.9235L41.3036 27.887V33.3047H40.5122ZM52.87 33.3656C52.2044 33.3656 51.62 33.2276 51.1168 32.9516C50.6136 32.6675 50.22 32.282 49.9359 31.795C49.6518 31.2999 49.5098 30.7358 49.5098 30.1028C49.5098 29.4697 49.6437 28.9096 49.9115 28.4226C50.1875 27.9357 50.5609 27.5542 51.0316 27.2782C51.5105 26.9942 52.0462 26.8521 52.6387 26.8521C53.2393 26.8521 53.7709 26.9901 54.2335 27.2661C54.7043 27.5339 55.0736 27.9154 55.3414 28.4105C55.6093 28.8975 55.7432 29.4616 55.7432 30.1028C55.7432 30.1433 55.7391 30.188 55.731 30.2367C55.731 30.2773 55.731 30.3219 55.731 30.3706H50.1672V29.7253H55.2684L54.9275 29.981C54.9275 29.5184 54.826 29.1085 54.6231 28.7514C54.4283 28.3861 54.1605 28.1021 53.8196 27.8991C53.4787 27.6962 53.0851 27.5948 52.6387 27.5948C52.2004 27.5948 51.8067 27.6962 51.4577 27.8991C51.1087 28.1021 50.8368 28.3861 50.642 28.7514C50.4472 29.1166 50.3498 29.5346 50.3498 30.0054V30.1393C50.3498 30.6263 50.4553 31.0564 50.6664 31.4298C50.8855 31.795 51.1858 32.0832 51.5673 32.2942C51.9569 32.4971 52.3992 32.5986 52.8943 32.5986C53.2839 32.5986 53.6451 32.5296 53.9779 32.3916C54.3188 32.2536 54.611 32.0426 54.8544 31.7585L55.3414 32.3185C55.0574 32.6594 54.7002 32.9192 54.2701 33.0977C53.848 33.2763 53.3813 33.3656 52.87 33.3656ZM57.6566 33.3047V26.913H58.521V29.7375H62.5508V26.913H63.4152V33.3047H62.5508V30.4802H58.521V33.3047H57.6566ZM67.0896 33.3047V27.4365L67.3087 27.6678H64.6668V26.913H70.3768V27.6678H67.7349L67.954 27.4365V33.3047H67.0896ZM75.5955 33.3047V31.8924L75.559 31.6611V29.2992C75.559 28.7554 75.4048 28.3374 75.0963 28.0452C74.796 27.753 74.3456 27.6069 73.745 27.6069C73.331 27.6069 72.9374 27.6759 72.564 27.8139C72.1907 27.9519 71.8741 28.1345 71.6144 28.3618L71.2248 27.7165C71.5495 27.4406 71.939 27.2295 72.3936 27.0834C72.8481 26.9292 73.327 26.8521 73.8302 26.8521C74.658 26.8521 75.2952 27.0591 75.7416 27.473C76.1961 27.8788 76.4234 28.4998 76.4234 29.3357V33.3047H75.5955ZM73.3919 33.3656C72.913 33.3656 72.495 33.2885 72.1379 33.1342C71.7889 32.9719 71.521 32.7528 71.3344 32.4768C71.1477 32.1927 71.0544 31.8681 71.0544 31.5028C71.0544 31.1701 71.1315 30.8698 71.2857 30.6019C71.448 30.326 71.7077 30.1068 72.0648 29.9445C72.4301 29.774 72.9171 29.6888 73.5258 29.6888H75.7294V30.3341H73.5502C72.9333 30.3341 72.5031 30.4436 72.2596 30.6628C72.0243 30.8819 71.9066 31.1538 71.9066 31.4785C71.9066 31.8437 72.0486 32.1359 72.3327 32.3551C72.6168 32.5742 73.0145 32.6838 73.5258 32.6838C74.0128 32.6838 74.4308 32.5742 74.7798 32.3551C75.1369 32.1278 75.3966 31.8031 75.559 31.3811L75.7538 31.9776C75.5914 32.3997 75.3074 32.7365 74.9015 32.9881C74.5038 33.2398 74.0006 33.3656 73.3919 33.3656ZM82.0238 33.3656C81.4719 33.3656 80.9727 33.2398 80.5263 32.9881C80.0799 32.7284 79.7228 32.3591 79.455 31.8803C79.1952 31.3933 79.0654 30.8008 79.0654 30.1028C79.0654 29.4047 79.1952 28.8163 79.455 28.3374C79.7147 27.8504 80.0678 27.4811 80.5142 27.2295C80.9606 26.9779 81.4638 26.8521 82.0238 26.8521C82.6325 26.8521 83.1763 26.9901 83.6552 27.2661C84.1422 27.5339 84.5237 27.9154 84.7996 28.4105C85.0756 28.8975 85.2136 29.4616 85.2136 30.1028C85.2136 30.7521 85.0756 31.3202 84.7996 31.8072C84.5237 32.2942 84.1422 32.6757 83.6552 32.9516C83.1763 33.2276 82.6325 33.3656 82.0238 33.3656ZM78.7245 35.6666V26.913H79.5524V28.8366L79.4671 30.1149L79.5889 31.4054V35.6666H78.7245ZM81.9629 32.5986C82.4175 32.5986 82.8233 32.4971 83.1804 32.2942C83.5375 32.0832 83.8216 31.791 84.0326 31.4176C84.2437 31.0361 84.3492 30.5979 84.3492 30.1028C84.3492 29.6076 84.2437 29.1734 84.0326 28.8001C83.8216 28.4267 83.5375 28.1345 83.1804 27.9235C82.8233 27.7125 82.4175 27.6069 81.9629 27.6069C81.5084 27.6069 81.0985 27.7125 80.7333 27.9235C80.3762 28.1345 80.0921 28.4267 79.8811 28.8001C79.6782 29.1734 79.5767 29.6076 79.5767 30.1028C79.5767 30.5979 79.6782 31.0361 79.8811 31.4176C80.0921 31.791 80.3762 32.0832 80.7333 32.2942C81.0985 32.4971 81.5084 32.5986 81.9629 32.5986Z" fill="#4B465C"/>
<path d="M30.6311 33.3047L27.3561 29.0557L28.0866 28.6174L31.6659 33.3047H30.6311ZM24.7994 33.3047V24.7824H25.676V33.3047H24.7994ZM25.4081 29.3966V28.6053H28.0744V29.3966H25.4081ZM28.1596 29.141L27.3317 28.9949L30.5093 24.7824H31.4833L28.1596 29.141ZM35.402 33.3656C34.7852 33.3656 34.2292 33.2276 33.7341 32.9516C33.2471 32.6675 32.8616 32.282 32.5775 31.795C32.2934 31.2999 32.1514 30.7358 32.1514 30.1028C32.1514 29.4616 32.2934 28.8975 32.5775 28.4105C32.8616 27.9235 33.2471 27.542 33.7341 27.2661C34.2211 26.9901 34.777 26.8521 35.402 26.8521C36.0351 26.8521 36.5951 26.9901 37.0821 27.2661C37.5772 27.542 37.9627 27.9235 38.2387 28.4105C38.5228 28.8975 38.6648 29.4616 38.6648 30.1028C38.6648 30.7358 38.5228 31.2999 38.2387 31.795C37.9627 32.282 37.5772 32.6675 37.0821 32.9516C36.587 33.2276 36.027 33.3656 35.402 33.3656ZM35.402 32.5986C35.8646 32.5986 36.2745 32.4971 36.6316 32.2942C36.9888 32.0832 37.2688 31.791 37.4717 31.4176C37.6827 31.0361 37.7882 30.5979 37.7882 30.1028C37.7882 29.5995 37.6827 29.1612 37.4717 28.7879C37.2688 28.4145 36.9888 28.1264 36.6316 27.9235C36.2745 27.7125 35.8687 27.6069 35.4142 27.6069C34.9597 27.6069 34.5538 27.7125 34.1967 27.9235C33.8396 28.1264 33.5555 28.4145 33.3445 28.7879C33.1335 29.1612 33.028 29.5995 33.028 30.1028C33.028 30.5979 33.1335 31.0361 33.3445 31.4176C33.5555 31.791 33.8396 32.0832 34.1967 32.2942C34.5538 32.4971 34.9556 32.5986 35.402 32.5986ZM40.5122 33.3047V26.913H41.3888L44.2864 31.8194H43.9211L46.8674 26.913H47.6709V33.3047H46.8796V27.8991L47.0378 27.9722L44.2864 32.5255H43.8968L41.121 27.9235L41.3036 27.887V33.3047H40.5122ZM52.87 33.3656C52.2044 33.3656 51.62 33.2276 51.1168 32.9516C50.6136 32.6675 50.22 32.282 49.9359 31.795C49.6518 31.2999 49.5098 30.7358 49.5098 30.1028C49.5098 29.4697 49.6437 28.9096 49.9115 28.4226C50.1875 27.9357 50.5609 27.5542 51.0316 27.2782C51.5105 26.9942 52.0462 26.8521 52.6387 26.8521C53.2393 26.8521 53.7709 26.9901 54.2335 27.2661C54.7043 27.5339 55.0736 27.9154 55.3414 28.4105C55.6093 28.8975 55.7432 29.4616 55.7432 30.1028C55.7432 30.1433 55.7391 30.188 55.731 30.2367C55.731 30.2773 55.731 30.3219 55.731 30.3706H50.1672V29.7253H55.2684L54.9275 29.981C54.9275 29.5184 54.826 29.1085 54.6231 28.7514C54.4283 28.3861 54.1605 28.1021 53.8196 27.8991C53.4787 27.6962 53.0851 27.5948 52.6387 27.5948C52.2004 27.5948 51.8067 27.6962 51.4577 27.8991C51.1087 28.1021 50.8368 28.3861 50.642 28.7514C50.4472 29.1166 50.3498 29.5346 50.3498 30.0054V30.1393C50.3498 30.6263 50.4553 31.0564 50.6664 31.4298C50.8855 31.795 51.1858 32.0832 51.5673 32.2942C51.9569 32.4971 52.3992 32.5986 52.8943 32.5986C53.2839 32.5986 53.6451 32.5296 53.9779 32.3916C54.3188 32.2536 54.611 32.0426 54.8544 31.7585L55.3414 32.3185C55.0574 32.6594 54.7002 32.9192 54.2701 33.0977C53.848 33.2763 53.3813 33.3656 52.87 33.3656ZM57.6566 33.3047V26.913H58.521V29.7375H62.5508V26.913H63.4152V33.3047H62.5508V30.4802H58.521V33.3047H57.6566ZM67.0896 33.3047V27.4365L67.3087 27.6678H64.6668V26.913H70.3768V27.6678H67.7349L67.954 27.4365V33.3047H67.0896ZM75.5955 33.3047V31.8924L75.559 31.6611V29.2992C75.559 28.7554 75.4048 28.3374 75.0963 28.0452C74.796 27.753 74.3456 27.6069 73.745 27.6069C73.331 27.6069 72.9374 27.6759 72.564 27.8139C72.1907 27.9519 71.8741 28.1345 71.6144 28.3618L71.2248 27.7165C71.5495 27.4406 71.939 27.2295 72.3936 27.0834C72.8481 26.9292 73.327 26.8521 73.8302 26.8521C74.658 26.8521 75.2952 27.0591 75.7416 27.473C76.1961 27.8788 76.4234 28.4998 76.4234 29.3357V33.3047H75.5955ZM73.3919 33.3656C72.913 33.3656 72.495 33.2885 72.1379 33.1342C71.7889 32.9719 71.521 32.7528 71.3344 32.4768C71.1477 32.1927 71.0544 31.8681 71.0544 31.5028C71.0544 31.1701 71.1315 30.8698 71.2857 30.6019C71.448 30.326 71.7077 30.1068 72.0648 29.9445C72.4301 29.774 72.9171 29.6888 73.5258 29.6888H75.7294V30.3341H73.5502C72.9333 30.3341 72.5031 30.4436 72.2596 30.6628C72.0243 30.8819 71.9066 31.1538 71.9066 31.4785C71.9066 31.8437 72.0486 32.1359 72.3327 32.3551C72.6168 32.5742 73.0145 32.6838 73.5258 32.6838C74.0128 32.6838 74.4308 32.5742 74.7798 32.3551C75.1369 32.1278 75.3966 31.8031 75.559 31.3811L75.7538 31.9776C75.5914 32.3997 75.3074 32.7365 74.9015 32.9881C74.5038 33.2398 74.0006 33.3656 73.3919 33.3656ZM82.0238 33.3656C81.4719 33.3656 80.9727 33.2398 80.5263 32.9881C80.0799 32.7284 79.7228 32.3591 79.455 31.8803C79.1952 31.3933 79.0654 30.8008 79.0654 30.1028C79.0654 29.4047 79.1952 28.8163 79.455 28.3374C79.7147 27.8504 80.0678 27.4811 80.5142 27.2295C80.9606 26.9779 81.4638 26.8521 82.0238 26.8521C82.6325 26.8521 83.1763 26.9901 83.6552 27.2661C84.1422 27.5339 84.5237 27.9154 84.7996 28.4105C85.0756 28.8975 85.2136 29.4616 85.2136 30.1028C85.2136 30.7521 85.0756 31.3202 84.7996 31.8072C84.5237 32.2942 84.1422 32.6757 83.6552 32.9516C83.1763 33.2276 82.6325 33.3656 82.0238 33.3656ZM78.7245 35.6666V26.913H79.5524V28.8366L79.4671 30.1149L79.5889 31.4054V35.6666H78.7245ZM81.9629 32.5986C82.4175 32.5986 82.8233 32.4971 83.1804 32.2942C83.5375 32.0832 83.8216 31.791 84.0326 31.4176C84.2437 31.0361 84.3492 30.5979 84.3492 30.1028C84.3492 29.6076 84.2437 29.1734 84.0326 28.8001C83.8216 28.4267 83.5375 28.1345 83.1804 27.9235C82.8233 27.7125 82.4175 27.6069 81.9629 27.6069C81.5084 27.6069 81.0985 27.7125 80.7333 27.9235C80.3762 28.1345 80.0921 28.4267 79.8811 28.8001C79.6782 29.1734 79.5767 29.6076 79.5767 30.1028C79.5767 30.5979 79.6782 31.0361 79.8811 31.4176C80.0921 31.791 80.3762 32.0832 80.7333 32.2942C81.0985 32.4971 81.5084 32.5986 81.9629 32.5986Z" fill="white" fill-opacity="0.6"/>
<path d="M247.377 54.3494L245.347 56.3785M247.377 52.3203L243.318 56.3785" stroke="#DBDADE" stroke-width="0.649315" stroke-linecap="round"/>
</g>
<rect x="12.4058" y="12.4058" width="236.188" height="45.1884" rx="4.46404" stroke="#DBDADE" stroke-width="0.811644"/>
<rect x="0.5" y="0.5" width="260" height="69" rx="5.5" stroke="#DBDADE"/>
<defs>
<clipPath id="clip0_1066_80725">
<rect x="12" y="12" width="237" height="46" rx="4.86986" fill="white"/>
</clipPath>
</defs>
</svg>
