<svg width="41" height="40" viewBox="0 0 41 40" fill="none" xmlns="http://www.w3.org/2000/svg">
<g opacity="0.2">
<path d="M20.5 5C17.4648 4.99911 14.5008 5.91901 11.9994 7.63817C9.49807 9.35733 7.5771 11.7949 6.49026 14.6288C5.40342 17.4627 5.20185 20.5596 5.91218 23.5105C6.62252 26.4614 8.21133 29.1274 10.4687 31.1562C11.4094 29.304 12.8445 27.7483 14.6151 26.6617C16.3857 25.5751 18.4226 24.9999 20.5 25C19.2639 25 18.0555 24.6334 17.0277 23.9467C15.9999 23.2599 15.1988 22.2838 14.7257 21.1418C14.2527 19.9997 14.1289 18.7431 14.3701 17.5307C14.6112 16.3183 15.2065 15.2047 16.0806 14.3306C16.9547 13.4565 18.0683 12.8612 19.2807 12.6201C20.4931 12.3789 21.7497 12.5027 22.8918 12.9758C24.0338 13.4488 25.0099 14.2499 25.6967 15.2777C26.3834 16.3055 26.75 17.5139 26.75 18.75C26.75 20.4076 26.0915 21.9973 24.9194 23.1694C23.7473 24.3415 22.1576 25 20.5 25C22.5774 24.9999 24.6143 25.5751 26.3849 26.6617C28.1555 27.7483 29.5906 29.304 30.5312 31.1562C32.7887 29.1274 34.3775 26.4614 35.0878 23.5105C35.7981 20.5596 35.5966 17.4627 34.5097 14.6288C33.4229 11.7949 31.5019 9.35733 29.0006 7.63817C26.4992 5.91901 23.5352 4.99911 20.5 5Z" fill="#4B465C"/>
<path d="M20.5 5C17.4648 4.99911 14.5008 5.91901 11.9994 7.63817C9.49807 9.35733 7.5771 11.7949 6.49026 14.6288C5.40342 17.4627 5.20185 20.5596 5.91218 23.5105C6.62252 26.4614 8.21133 29.1274 10.4687 31.1562C11.4094 29.304 12.8445 27.7483 14.6151 26.6617C16.3857 25.5751 18.4226 24.9999 20.5 25C19.2639 25 18.0555 24.6334 17.0277 23.9467C15.9999 23.2599 15.1988 22.2838 14.7257 21.1418C14.2527 19.9997 14.1289 18.7431 14.3701 17.5307C14.6112 16.3183 15.2065 15.2047 16.0806 14.3306C16.9547 13.4565 18.0683 12.8612 19.2807 12.6201C20.4931 12.3789 21.7497 12.5027 22.8918 12.9758C24.0338 13.4488 25.0099 14.2499 25.6967 15.2777C26.3834 16.3055 26.75 17.5139 26.75 18.75C26.75 20.4076 26.0915 21.9973 24.9194 23.1694C23.7473 24.3415 22.1576 25 20.5 25C22.5774 24.9999 24.6143 25.5751 26.3849 26.6617C28.1555 27.7483 29.5906 29.304 30.5312 31.1562C32.7887 29.1274 34.3775 26.4614 35.0878 23.5105C35.7981 20.5596 35.5966 17.4627 34.5097 14.6288C33.4229 11.7949 31.5019 9.35733 29.0006 7.63817C26.4992 5.91901 23.5352 4.99911 20.5 5Z" fill="white" fill-opacity="0.2"/>
</g>
<path d="M20.5 25C23.9518 25 26.75 22.2018 26.75 18.75C26.75 15.2982 23.9518 12.5 20.5 12.5C17.0482 12.5 14.25 15.2982 14.25 18.75C14.25 22.2018 17.0482 25 20.5 25ZM20.5 25C18.4225 25 16.3855 25.5743 14.6149 26.6611C12.8443 27.7479 11.4092 29.3038 10.4688 31.1562M20.5 25C22.5775 25 24.6145 25.5743 26.3851 26.6611C28.1557 27.7479 29.5908 29.3038 30.5312 31.1562M35.5 20C35.5 28.2843 28.7843 35 20.5 35C12.2157 35 5.5 28.2843 5.5 20C5.5 11.7157 12.2157 5 20.5 5C28.7843 5 35.5 11.7157 35.5 20Z" stroke="#4B465C" stroke-width="2" stroke-linecap="round" stroke-linejoin="round"/>
<path d="M20.5 25C23.9518 25 26.75 22.2018 26.75 18.75C26.75 15.2982 23.9518 12.5 20.5 12.5C17.0482 12.5 14.25 15.2982 14.25 18.75C14.25 22.2018 17.0482 25 20.5 25ZM20.5 25C18.4225 25 16.3855 25.5743 14.6149 26.6611C12.8443 27.7479 11.4092 29.3038 10.4688 31.1562M20.5 25C22.5775 25 24.6145 25.5743 26.3851 26.6611C28.1557 27.7479 29.5908 29.3038 30.5312 31.1562M35.5 20C35.5 28.2843 28.7843 35 20.5 35C12.2157 35 5.5 28.2843 5.5 20C5.5 11.7157 12.2157 5 20.5 5C28.7843 5 35.5 11.7157 35.5 20Z" stroke="white" stroke-opacity="0.2" stroke-width="2" stroke-linecap="round" stroke-linejoin="round"/>
</svg>
