<svg width="31" height="100" viewBox="0 0 31 100" fill="none" xmlns="http://www.w3.org/2000/svg">
<line x1="16" y1="-2.18557e-08" x2="16" y2="24" stroke="#DBDADE"/>
<path d="M0.612969 55L4.77297 45.9H5.72197L9.88197 55H8.86797L5.04597 46.459H5.43597L1.61397 55H0.612969ZM2.25097 52.569L2.53697 51.789H7.82797L8.11397 52.569H2.25097ZM11.6258 55V45.9H18.2818V46.719H12.5748V49.696H15.5518C16.6265 49.696 17.4411 49.917 17.9958 50.359C18.5591 50.7923 18.8408 51.4337 18.8408 52.283C18.8408 53.1583 18.5375 53.83 17.9308 54.298C17.3328 54.766 16.4705 55 15.3438 55H11.6258ZM12.5748 54.233H15.3308C16.1715 54.233 16.8041 54.0727 17.2288 53.752C17.6621 53.4227 17.8788 52.946 17.8788 52.322C17.8788 51.0827 17.0295 50.463 15.3308 50.463H12.5748V54.233ZM25.0494 55.078C24.3647 55.078 23.7277 54.9653 23.1384 54.74C22.5577 54.506 22.0507 54.181 21.6174 53.765C21.1927 53.3403 20.8591 52.8507 20.6164 52.296C20.3824 51.7327 20.2654 51.1173 20.2654 50.45C20.2654 49.7827 20.3824 49.1717 20.6164 48.617C20.8591 48.0537 21.1927 47.564 21.6174 47.148C22.0507 46.7233 22.5577 46.3983 23.1384 46.173C23.7191 45.939 24.3561 45.822 25.0494 45.822C25.7341 45.822 26.3667 45.939 26.9474 46.173C27.5281 46.3983 28.0307 46.719 28.4554 47.135C28.8887 47.551 29.2224 48.0407 29.4564 48.604C29.6991 49.1673 29.8204 49.7827 29.8204 50.45C29.8204 51.1173 29.6991 51.7327 29.4564 52.296C29.2224 52.8593 28.8887 53.349 28.4554 53.765C28.0307 54.181 27.5281 54.506 26.9474 54.74C26.3667 54.9653 25.7341 55.078 25.0494 55.078ZM25.0494 54.22C25.5954 54.22 26.0981 54.129 26.5574 53.947C27.0254 53.7563 27.4284 53.492 27.7664 53.154C28.1131 52.8073 28.3817 52.4087 28.5724 51.958C28.7631 51.4987 28.8584 50.996 28.8584 50.45C28.8584 49.904 28.7631 49.4057 28.5724 48.955C28.3817 48.4957 28.1131 48.097 27.7664 47.759C27.4284 47.4123 27.0254 47.148 26.5574 46.966C26.0981 46.7753 25.5954 46.68 25.0494 46.68C24.5034 46.68 23.9964 46.7753 23.5284 46.966C23.0604 47.148 22.6531 47.4123 22.3064 47.759C21.9684 48.097 21.6997 48.4957 21.5004 48.955C21.3097 49.4057 21.2144 49.904 21.2144 50.45C21.2144 50.9873 21.3097 51.4857 21.5004 51.945C21.6997 52.4043 21.9684 52.8073 22.3064 53.154C22.6531 53.492 23.0604 53.7563 23.5284 53.947C23.9964 54.129 24.5034 54.22 25.0494 54.22Z" fill="#4B465C"/>
<path d="M0.612969 55L4.77297 45.9H5.72197L9.88197 55H8.86797L5.04597 46.459H5.43597L1.61397 55H0.612969ZM2.25097 52.569L2.53697 51.789H7.82797L8.11397 52.569H2.25097ZM11.6258 55V45.9H18.2818V46.719H12.5748V49.696H15.5518C16.6265 49.696 17.4411 49.917 17.9958 50.359C18.5591 50.7923 18.8408 51.4337 18.8408 52.283C18.8408 53.1583 18.5375 53.83 17.9308 54.298C17.3328 54.766 16.4705 55 15.3438 55H11.6258ZM12.5748 54.233H15.3308C16.1715 54.233 16.8041 54.0727 17.2288 53.752C17.6621 53.4227 17.8788 52.946 17.8788 52.322C17.8788 51.0827 17.0295 50.463 15.3308 50.463H12.5748V54.233ZM25.0494 55.078C24.3647 55.078 23.7277 54.9653 23.1384 54.74C22.5577 54.506 22.0507 54.181 21.6174 53.765C21.1927 53.3403 20.8591 52.8507 20.6164 52.296C20.3824 51.7327 20.2654 51.1173 20.2654 50.45C20.2654 49.7827 20.3824 49.1717 20.6164 48.617C20.8591 48.0537 21.1927 47.564 21.6174 47.148C22.0507 46.7233 22.5577 46.3983 23.1384 46.173C23.7191 45.939 24.3561 45.822 25.0494 45.822C25.7341 45.822 26.3667 45.939 26.9474 46.173C27.5281 46.3983 28.0307 46.719 28.4554 47.135C28.8887 47.551 29.2224 48.0407 29.4564 48.604C29.6991 49.1673 29.8204 49.7827 29.8204 50.45C29.8204 51.1173 29.6991 51.7327 29.4564 52.296C29.2224 52.8593 28.8887 53.349 28.4554 53.765C28.0307 54.181 27.5281 54.506 26.9474 54.74C26.3667 54.9653 25.7341 55.078 25.0494 55.078ZM25.0494 54.22C25.5954 54.22 26.0981 54.129 26.5574 53.947C27.0254 53.7563 27.4284 53.492 27.7664 53.154C28.1131 52.8073 28.3817 52.4087 28.5724 51.958C28.7631 51.4987 28.8584 50.996 28.8584 50.45C28.8584 49.904 28.7631 49.4057 28.5724 48.955C28.3817 48.4957 28.1131 48.097 27.7664 47.759C27.4284 47.4123 27.0254 47.148 26.5574 46.966C26.0981 46.7753 25.5954 46.68 25.0494 46.68C24.5034 46.68 23.9964 46.7753 23.5284 46.966C23.0604 47.148 22.6531 47.4123 22.3064 47.759C21.9684 48.097 21.6997 48.4957 21.5004 48.955C21.3097 49.4057 21.2144 49.904 21.2144 50.45C21.2144 50.9873 21.3097 51.4857 21.5004 51.945C21.6997 52.4043 21.9684 52.8073 22.3064 53.154C22.6531 53.492 23.0604 53.7563 23.5284 53.947C23.9964 54.129 24.5034 54.22 25.0494 54.22Z" fill="white" fill-opacity="0.2"/>
<line x1="16" y1="76" x2="16" y2="100" stroke="#DBDADE"/>
</svg>
